<svg xmlns="http://www.w3.org/2000/svg" width="105.641" height="105.641" viewBox="0 0 105.641 105.641">
    <defs>
        <style>
            .cls-1{fill:#fff}.cls-2{clip-path:url(#clip-path)}.cls-24,.cls-3{fill:tomato}.cls-3,.cls-8{opacity:.1}.cls-4{fill:#3a3768}.cls-5{fill:#d48a9b}.cls-6{opacity:.05}.cls-7{fill:#efc6cd}.cls-9{fill:#d3dae1}.cls-10{fill:url(#linear-gradient)}.cls-11{fill:#585b8a}.cls-12{opacity:.2}.cls-13{fill:#636992}.cls-14{fill:#ffd6d6}.cls-15{fill:#dce6f2}.cls-16{fill:#565988}.cls-17{fill:#505484}.cls-18{fill:#575988}.cls-19{fill:#d28690}.cls-20{fill:#575989}.cls-21{fill:#353045}.cls-22{fill:#f0f3f7}.cls-23{fill:#663d5c}.cls-25{opacity:.3}.cls-26{opacity:.15}.cls-27{fill:#ffd037}.cls-28{fill:#65617d}.cls-29{fill:#9d9cb5}.cls-30{fill:#4b4770}.cls-31{fill:#d4dfec}
        </style>
        <clipPath id="clip-path">
            <rect id="Rectangle_182" width="105.641" height="105.641" class="cls-1" data-name="Rectangle 182" rx="8" transform="translate(14 132)"/>
        </clipPath>
        <linearGradient id="linear-gradient" x1=".5" x2=".5" y1="1" gradientUnits="objectBoundingBox">
            <stop offset="0" stop-color="gray" stop-opacity=".251"/>
            <stop offset=".54" stop-color="gray" stop-opacity=".122"/>
            <stop offset="1" stop-color="gray" stop-opacity=".102"/>
        </linearGradient>
    </defs>
    <g id="Mask_Group_8" class="cls-2" data-name="Mask Group 8" transform="translate(-14 -132)">
        <g id="undraw_business_deal_cpi9" transform="translate(14 144.734)">
            <path id="Path_1340" d="M111.49 27.258c-.018.086-.036.172-.056.257a27.68 27.68 0 0 1-3.214 8.338c-.051.086-.1.172-.155.258a23.96 23.96 0 0 1-3.624 4.574 10.986 10.986 0 0 1-2.6 2 14.737 14.737 0 0 1-4.633 1.268c-1.666.253-3.356.463-5.04.691q-.9.119-1.785.253c-1.628.241-3.243.52-4.821.889a28.262 28.262 0 0 0-5.625 1.893q-.214.1-.423.205c-.139.07-.28.14-.417.212s-.273.143-.407.217c-.07.038-.139.075-.208.115s-.136.075-.2.113c-.2.112-.4.227-.6.343h-.008c-.131.076-.259.155-.387.233a80.26 80.26 0 0 0-2.158 1.371l-.449.29-.7.45c-.135.088-.274.176-.41.263-.1.064-.194.128-.3.194a39.652 39.652 0 0 1-1.925 1.145 21.446 21.446 0 0 1-3.33 1.5l-.015.012a15.193 15.193 0 0 1-1.769.5c-.345.075-.692.137-1.042.185a11.172 11.172 0 0 1-2.825.04c-1.845-.214-3.574-.922-5.419-1.161-3.8-.484-7.484 1.075-11.055 2.3q-1.317.45-2.653.843a66.23 66.23 0 0 1-1.785.5 67.175 67.175 0 0 1-11.2 1.963 31.53 31.53 0 0 1-4.756.105 17.464 17.464 0 0 1-1.784-.194 11.357 11.357 0 0 1-5.378-2.148 10.5 10.5 0 0 1-2.791-3.58 15.623 15.623 0 0 1-1.443-4.31c-.037-.2-.07-.409-.1-.614q-.073-.526-.108-1.059a15.152 15.152 0 0 1 .666-5.6c.639-2.024 1.7-3.967 2.171-6.007q.029-.13.055-.258a8.944 8.944 0 0 0 .142-.938c.239-2.506-.677-4.949-1.4-7.4l-.075-.257q-.116-.408-.223-.816a17.007 17.007 0 0 1-.257-7.952c.018-.086.041-.172.062-.257a11.642 11.642 0 0 1 2.189-4.483 17.355 17.355 0 0 1 4.127-3.572q1.139-.745 2.355-1.392.871-.464 1.784-.88a35.139 35.139 0 0 1 15.971-3.075 31.762 31.762 0 0 1 1.782.124 65.449 65.449 0 0 1 10.427 2.085c1.149.3 2.3.617 3.441.924.51.135 1.019.271 1.529.4 2.5.645 5.032 1.23 7.6 1.666q.891.154 1.784.281a51.11 51.11 0 0 0 6.24.529q1.218.024 2.437-.021.615-.022 1.232-.067A82.229 82.229 0 0 0 90.38 8.514l1.785-.4c.782-.172 1.564-.339 2.349-.493A22.235 22.235 0 0 1 108.308 9.2a6.541 6.541 0 0 1 2.7 1.838 5.764 5.764 0 0 1 .91 2.883 49.12 49.12 0 0 1 .318 4.323c0 .085 0 .171.006.257a38.806 38.806 0 0 1-.752 8.757z" class="cls-3" data-name="Path 1340" transform="translate(-7.193 -4.132)"/>
            <path id="Path_1341" d="M79.242 35.861h-.319v.258h.362zm-3.622 0a.016.016 0 0 0 0 .007l-.028.213v.039h2.767v-.02l.194-.243zm-7.417 0v-8.338h3.183a2.892 2.892 0 0 1-.1-.067l-.046-.03-.06-.037c-.035-.02-.07-.041-.106-.06l-.09-.049-.021-.012H68.2v-.46l-.075.029-.078.037h-.006l-.016.009-.049.026-.049.026c-.048.026-.1.055-.145.085l-.046.031-.1.062c-.125.083-.248.17-.374.252-.032.02-.064.041-.1.059a2.692 2.692 0 0 1-.212.114.808.808 0 0 1-.1.042l-.052.02-.048.016a2.266 2.266 0 0 1-.348.091v8.151h-4.763c0 .01.007.017.01.027l.077.231h4.693v8.937h.157l.152.009.243.029.111.011.121.013h.018l.214.026.045.006.1.015.148.021.355-.015.048.009a.336.336 0 0 1 .06.01v-9.068h7.387v-.039l.028-.213a.017.017 0 0 1 0-.007zm11.038 0h-.319v.258h.362zm-3.821 0l-.034.258h3.086l.21-.258zm-7.217 0v-8.338h3.183a2.892 2.892 0 0 1-.1-.067l-.046-.03-.06-.037c-.035-.02-.07-.041-.106-.06l-.09-.049-.021-.012H68.2v-.46l-.075.029-.078.037h-.006l-.016.009-.049.026-.049.026c-.048.026-.1.055-.145.085l-.046.031-.1.062c-.125.083-.248.17-.374.252-.032.02-.064.041-.1.059a2.692 2.692 0 0 1-.212.114.808.808 0 0 1-.1.042l-.052.02-.048.016a2.267 2.267 0 0 1-.348.091v8.151h-4.763c0 .01.007.017.01.027l.078.231h4.692v8.936h.157l.152.009.243.03.111.011.121.013h.018l.214.026.045.006.1.015.148.021.355-.015.048.009a.336.336 0 0 1 .06.01v-9.068h7.193l.034-.258zM92.349 18.5h20.075c0-.086 0-.172-.006-.257H92.349V8.117q-.894.194-1.785.4v9.723H68.731l-.055-.049.083-.074 8.121-7.3q-1.219.046-2.437.021L68.2 16.447v-6.133q-.894-.127-1.784-.281v6.132l-9.124-8.2c-1.143-.307-2.292-.62-3.438-.925l12.407 11.151-.055.049H43.429V4.965q-.456-.043-.911-.075c-.29-.021-.581-.037-.871-.049v13.4h-15.96V7.913q-.9.414-1.784.88v9.447h-8.671c-.021.085-.044.171-.062.257h8.73v8.767h-8.25c.024.086.049.172.075.257H23.9v8.338h-6.922q-.026.129-.055.258H23.9v23.314c.581.09 1.181.153 1.784.194V36.119h15.959v21.435c.6-.16 1.193-.325 1.785-.5V36.119h22.99v18.728a15.192 15.192 0 0 0 1.769-.5l.015-.006V36.119h22.36V44.9q.89-.131 1.785-.251v-8.53h15.9c.052-.086.1-.172.155-.258H92.349v-8.338h19.269c.02-.085.038-.171.056-.257H92.349zm-66.662 0h15.956v8.767H25.687zm0 17.363v-8.34h15.956v8.338zM43.429 18.5h22.99v8.767h-22.99zm0 17.363v-8.34h22.99v8.338zm47.135 0H68.2v-8.34h22.36zm0-8.6H68.2v-8.53l.314-.235h22.05zm-14.944 8.6a.016.016 0 0 0 0 .007l-.028.213v.039h2.767V36.1l.194-.243zm3.622 0h-.319v.258h.362zm-11.038 0v-8.34h3.183a2.892 2.892 0 0 1-.1-.067l-.046-.03-.06-.037c-.035-.02-.07-.041-.106-.06l-.09-.049-.021-.012H68.2v-.46l-.075.029-.078.037h-.006l-.016.009-.049.026-.049.026c-.048.026-.1.055-.145.085l-.046.031-.1.062c-.125.083-.248.17-.374.252-.032.02-.064.041-.1.059a2.692 2.692 0 0 1-.212.114.808.808 0 0 1-.1.042l-.052.02-.048.016a2.266 2.266 0 0 1-.348.091v8.151h-4.763c0 .01.007.017.01.027l.077.231h4.693v8.937h.157l.152.009.243.029.111.011.121.013h.018l.214.026.045.006.1.015.148.021.355-.015.048.009a.336.336 0 0 1 .06.01v-9.068h7.387v-.039l.028-.213a.017.017 0 0 1 0-.007z" class="cls-3" data-name="Path 1341" transform="translate(-7.377 -4.139)"/>
            <path id="Path_1342" d="M36.251 13.624h.138a.281.281 0 0 1-.169-.225c0-.178.266-.323.591-.323h4.137c.325 0 .59.145.59.323 0 .177-.265.323-.59.323h-.138a.278.278 0 0 1 .169.224c0 .152-.194.28-.452.314h1.191c.324 0 .59.145.59.323s-.266.323-.59.323H37.58c-.324 0-.59-.146-.59-.323 0-.152.194-.279.452-.314h-1.191c-.325 0-.59-.145-.59-.323s.264-.322.59-.322z" class="cls-3" data-name="Path 1342" transform="translate(-10.268 -5.301)"/>
            <path id="Path_1343" d="M88.462 17.2h.138a.281.281 0 0 1-.168-.225c0-.178.265-.323.59-.323h4.137c.325 0 .591.145.591.323 0 .177-.266.322-.591.322h-.137a.281.281 0 0 1 .168.225c0 .152-.194.28-.452.314h1.192c.325 0 .59.145.59.323s-.265.323-.59.323h-4.138c-.325 0-.591-.146-.591-.323 0-.152.194-.28.452-.314h-1.191c-.324 0-.59-.145-.59-.323s.266-.322.59-.322z" class="cls-3" data-name="Path 1343" transform="translate(-17.637 -5.806)"/>
            <path id="Path_1344" d="M28.856 32.52h.137a.28.28 0 0 1-.168-.225c0-.177.266-.323.59-.323h4.138c.324 0 .59.146.59.323 0 .178-.266.323-.59.323h-.138a.277.277 0 0 1 .168.224c0 .152-.194.28-.452.313h1.191c.325 0 .591.146.591.323s-.266.323-.591.323H30.19c-.325 0-.59-.145-.59-.323 0-.151.194-.279.452-.314h-1.196c-.325 0-.591-.145-.591-.323s.27-.321.591-.321z" class="cls-3" data-name="Path 1344" transform="translate(-9.225 -7.967)"/>
            <ellipse id="Ellipse_280" cx="6.286" cy="20.685" class="cls-3" data-name="Ellipse 280" rx="6.286" ry="20.685" transform="rotate(-78.5 62.716 -5.69)"/>
            <path id="Path_1345" d="M93.346 46.573s1.1-5.4 5.3-4.9c0 0 2.9.2 3.5 2.1v4.2z" class="cls-4" data-name="Path 1345" transform="translate(-18.409 -9.332)"/>
            <path id="Path_1346" d="M107.1 45.181l-37.4-3.1-4.8 1 .3 6.7.327.04.373 10.062 36.7 6.6 3.9-3.3V52.274l.5-.293z" class="cls-5" data-name="Path 1346" transform="translate(-9.158 -5.939)"/>
            <path id="Path_1347" d="M113.4 45.69l-.1 6.8-4.05 1.9-.05-7.1z" class="cls-6" data-name="Path 1347" transform="translate(-15.411 -6.448)"/>
            <path id="Path_1348" d="M112.7 53.957l.049 10.7-3.9 3.3.251-12.4z" class="cls-6" data-name="Path 1348" transform="translate(-15.362 -7.615)"/>
            <path id="Path_1349" d="M65.676 51.5l37.357 4.558.019-.865-37.4-4.034z" class="cls-6" data-name="Path 1349" transform="translate(-9.265 -7.22)"/>
            <path id="Path_1350" d="M112.726 54.35v-.393l-3.7 1.633v.867z" class="cls-6" data-name="Path 1350" transform="translate(-15.386 -7.615)"/>
            <path id="Path_1351" d="M64.834 43.08l4.8-1 37.4 3.1-4.2 1.6z" class="cls-7" data-name="Path 1351" transform="translate(-9.15 -5.939)"/>
            <path id="Path_1352" d="M108.882 45.915l1.836.12-3.042.911-1.549-.111z" class="cls-8" data-name="Path 1352" transform="translate(-14.977 -6.48)"/>
            <path id="Path_1353" d="M108.882 45.821l1.836.12-3.042.911-1.549-.112z" class="cls-1" data-name="Path 1353" transform="translate(-14.977 -6.467)"/>
            <path id="Path_1354" d="M115.175 50.083c.073-.031.149.028.226.043.045.009.09 0 .134.009.09.012.179.072.265.042" class="cls-9" data-name="Path 1354" transform="translate(-21.49 -10.522)"/>
            <path id="Path_1355" d="M115.064 50.147c.072-.031.149.027.226.043.045.008.09 0 .134.008.09.013.179.073.265.043" class="cls-9" data-name="Path 1355" transform="translate(-21.474 -10.531)"/>
            <path id="Path_1356" d="M114.81 50.275c.073-.031.15.027.227.042.044.009.09 0 .134.009.091.013.18.073.265.042" class="cls-9" data-name="Path 1356" transform="translate(-21.438 -10.549)"/>
            <path id="Path_1357" d="M99.643 44.862l1.836.121-3.042.911-1.549-.112z" class="cls-8" data-name="Path 1357" transform="translate(-13.673 -6.331)"/>
            <path id="Path_1358" d="M99.643 44.77l1.836.12-3.042.911-1.549-.111z" class="cls-1" data-name="Path 1358" transform="translate(-13.673 -6.318)"/>
            <path id="Path_1359" d="M105.937 49.032c.073-.031.149.027.226.043.045.008.09 0 .134.008.09.013.179.073.265.043" class="cls-9" data-name="Path 1359" transform="translate(-20.186 -10.374)"/>
            <path id="Path_1360" d="M105.826 49.1c.072-.031.149.027.226.042.045.009.09 0 .134.009.09.013.179.073.265.042" class="cls-9" data-name="Path 1360" transform="translate(-20.171 -10.383)"/>
            <path id="Path_1361" d="M105.572 49.223c.073-.031.15.028.227.043.044.009.09 0 .134.009.091.012.18.073.265.042" class="cls-9" data-name="Path 1361" transform="translate(-20.135 -10.401)"/>
            <path id="Path_1362" d="M104.074 45.388l1.837.12-3.042.911-1.55-.112z" class="cls-8" data-name="Path 1362" transform="translate(-14.299 -6.406)"/>
            <path id="Path_1363" d="M104.074 45.3l1.837.12-3.042.911-1.55-.112z" class="cls-1" data-name="Path 1363" transform="translate(-14.299 -6.393)"/>
            <path id="Path_1364" d="M110.367 49.558c.073-.031.15.027.227.042.044.009.089 0 .134.009.09.012.18.073.265.042" class="cls-9" data-name="Path 1364" transform="translate(-20.812 -10.448)"/>
            <path id="Path_1365" d="M110.257 49.621c.073-.031.15.028.227.043.044.009.089 0 .134.009.09.012.18.073.265.042" class="cls-9" data-name="Path 1365" transform="translate(-20.796 -10.457)"/>
            <path id="Path_1366" d="M110 49.749c.072-.031.149.027.226.043.045.008.09 0 .134.008.09.013.179.073.265.043" class="cls-9" data-name="Path 1366" transform="translate(-20.76 -10.475)"/>
            <ellipse id="Ellipse_281" cx="19.592" cy="4.033" class="cls-3" data-name="Ellipse 281" rx="19.592" ry="4.033" transform="translate(28.626 68.508)"/>
            <path id="Path_1367" d="M81.072 46.565a13.126 13.126 0 0 0-1.036-3.589l.063-.619s.014-.31-.007-.774a3.522 3.522 0 0 1 .113-.859 1.769 1.769 0 0 0-.254-1.258 4.714 4.714 0 0 0-.36-1.816C79.209 37.072 76.67 36 76.67 36s-.136-.285-.329-.619l.017-.034a3.638 3.638 0 0 0-.581-.783c-.156-.166-.306-.261-.427-.215a3.483 3.483 0 0 1-.112-.491.697.697 0 0 0 .076.018.79.79 0 0 0 .319.008.949.949 0 0 0 .524-.464 7.4 7.4 0 0 0 1.336-3.27 2.078 2.078 0 0 0-.034-.722 2.436 2.436 0 0 0-.226-.527 4.238 4.238 0 0 0-.639-.941 3.638 3.638 0 0 0-1.716-.94 5.939 5.939 0 0 0-2.216-.165c-.194.022-.387.054-.581.067a6.03 6.03 0 0 1-.736-.013l-1.267-.074-.006-.019-.211-.013a.534.534 0 0 0 .1.517.882.882 0 0 1 .214.5 1.021 1.021 0 0 1-.245.484.465.465 0 0 0-.078.506.29.29 0 0 0 .051.056.638.638 0 0 0 .465.124h.029a3.152 3.152 0 0 0-.642 1.908 3.209 3.209 0 0 0 1.75 2.843c.018.063.037.128.054.194a5.928 5.928 0 0 1 .2 2.092l-.022.048-.014-.051s-1.48 1.009-1.923 1.276a2.8 2.8 0 0 0-.91 1.424c-.021.248-.72 3.984-.72 3.984a9.155 9.155 0 0 0-.35 1.153l-.891.783a13.7 13.7 0 0 1-2.371.042l.015.1a8.04 8.04 0 0 0-1.428-.194 1.514 1.514 0 0 0-.774.1l-.018.009-.015.007a3.067 3.067 0 0 0-.813.228l-.086.038.006-.127-1.989-.1-1.016-.206s-.36-.29-.572-.248-.656-.248-.656-.248a1.774 1.774 0 0 0-.327-.2l-.055-.376s-.791-3.137-1.383-4.981a4.246 4.246 0 0 0-1.3-2.1l-.249-.43a1.922 1.922 0 0 0-.512-.749c-.015-.023-.025-.035-.031-.035a.113.113 0 0 0-.057.009 6.155 6.155 0 0 1-.009-2.771 3.059 3.059 0 0 0 1.111-2.358v-.083a3.045 3.045 0 0 0-.719-1.964l-.033-.037.025-.02a.519.519 0 0 0 .183-.5 3.421 3.421 0 0 0-.263-.508 3.29 3.29 0 0 1-.107-.414 1.277 1.277 0 0 0-.3-.531l.015.039a1.839 1.839 0 0 0-1.619-.544c-.436.07-.843.273-1.281.336-.314.045-.635.015-.951.047a2.468 2.468 0 0 0-.844.244.484.484 0 0 0-.179.132.708.708 0 0 0-.089.249 3.285 3.285 0 0 1-.695 1 2.337 2.337 0 0 0-.468 1.291 1.01 1.01 0 0 0 .034.353c.021.069.054.134.07.2a1.4 1.4 0 0 1-.117.636 1.238 1.238 0 0 0 .069.807c.382.855 1.637 1.141 1.9 2.039a2.5 2.5 0 0 0 .628.194c.017.089.033.179.045.27l-.016.01a1.924 1.924 0 0 0-.423.968l-.041.033c-.138.114-.612.5-1.039.792-.508.351-1.355 1.528-1.947 1.879s-1.08 2.516-.952 3.3.656 2.993.444 3.8a24.67 24.67 0 0 0 .317 4.479 5.41 5.41 0 0 1 1.037.308l-.011.161-.032.484a18.462 18.462 0 0 0-.592 6.138c.367 2.67-.169 2.944-.169 2.944a3.529 3.529 0 0 1-.169 1.6 3.435 3.435 0 0 0-.339 1.321s-.028 2.037.028 2.613a4.284 4.284 0 0 1-.113 1.872 7.169 7.169 0 0 0-.536 2.366c.028.5-.705 1.625-.311 3.083s-1.161 1.486-1.161 1.486a9.993 9.993 0 0 0 .621 2.862l.062.091-.033.117c-.16.581-.378 1.5-.226 1.718.225.331.339.275.339.275l.084 1.486s1.693 1.431 2.992 1.377 1.044-1.377 1.044-1.377l-1.11-2.876-.038-.1 1.229-2.322s.339-1.018.423-1.376.544-1.627.544-1.627 1.161-2.752 1.185-3.083a10.685 10.685 0 0 1 .339-2.477 22.92 22.92 0 0 0 .846-2.415l.015.014a.816.816 0 0 1 .211.812 6.486 6.486 0 0 0-.057 1.6A10.855 10.855 0 0 1 51.98 67a29.43 29.43 0 0 0 .057 5.2 14.726 14.726 0 0 1 .145 2.6c-.133.547-.249 1.226-.033 1.306a13.652 13.652 0 0 0 2.23.11s.79-.276 1.863.688 4.374-.275 4.374-.275 1.016-.276-.988-1.073a17.04 17.04 0 0 1-2.891-1.324c.014-.026.028-.052.041-.08a1.8 1.8 0 0 1-.141-2.146 5.976 5.976 0 0 0 .649-2.532l.113-4.624-.339-6.139-.26-6.437.046-.015c.045 1.184.276 4 1.486 3.457 1.524-.688.225-2.477.225-2.477l-.684-1.333.2-.07-.765-2.473a5.578 5.578 0 0 1-.029-1.458 5.777 5.777 0 0 0-.017-.851 15.268 15.268 0 0 1 2.135-.318c.2.049 1.34.059 1.787.061-.146.114-.263.227-.263.227l1.82 1.225s.617-.338.746-.7a.8.8 0 0 0 .341-.182c.019.423.132.881.523.891a.677.677 0 0 0 .284-.056l2.976-.589-.255 1.6.178.316c-.09 1.346-.194 2.775-.284 4.032l-.042.275h.021c-.141 1.935-.254 3.4-.254 3.4a1.783 1.783 0 0 1 .742-.746l.019 2.872s.149 4.541.149 5.16.02 2 .02 2 .318 1.692.508 2.25a24.821 24.821 0 0 1 .339 3.1s.445.7.254.968.741.846.741.846a3.633 3.633 0 0 0-.636 1.342c0 .062.056.128.166.194a1.974 1.974 0 0 1-.11.083 1.933 1.933 0 0 1-1.283.259c-1.652-.145-2.816 1.383-1.8 1.692a24.823 24.823 0 0 0 4.064.372 2.27 2.27 0 0 1 1.645-.316c-.011.606.019 1.161.024 1.235l-.009.007a6.712 6.712 0 0 1-2.065 1.325c-1.161.392-1.419 1.982.084 2.188a13.732 13.732 0 0 0 3.7-.248 6.828 6.828 0 0 1 2.011-1.031c.868-.186 1.609-.6 1.461-1.094-.1-.316-.345-1.146-.514-1.7l-.029-.1c.026-.058.052-.118.076-.18 0 0-.444-2.312-.084-2.889s.169-6.358.169-6.358a4.173 4.173 0 0 1-.3-2.352c.318-.887-.508-2.147-.508-2.147a39.224 39.224 0 0 1 .332-3.931l.032-.174a7.927 7.927 0 0 0 1.18-.456s.212-3.18.339-3.9c.013-.068.03-.177.051-.319l.1-.51.114-.581.387-1.979.7-.9 1.8-1.838a5.819 5.819 0 0 0 .228-2.815zM53.317 35.212l-.014.01a.167.167 0 0 1 0-.021.087.087 0 0 0 .018.012zM71.1 37.466l-.07.152.254-.254-.345.387.116-.244zm-1.72 3.551l-.213.568.136-.407z" class="cls-10" data-name="Path 1367" transform="translate(-11.399 -7.05)"/>
            <path id="Path_1368" d="M67.132 50.212s-.237 1.578.474 1.6 1.186-1.217 1.186-1.217l-.29-.99z" class="cls-11" data-name="Path 1368" transform="translate(-14.705 -10.456)"/>
            <path id="Path_1369" d="M67.132 50.212s-.237 1.578.474 1.6 1.186-1.217 1.186-1.217l-.29-.99z" class="cls-12" data-name="Path 1369" transform="translate(-14.705 -10.456)"/>
            <path id="Path_1370" d="M48.036 89.208c-1.266.055-2.916-1.375-2.916-1.375l-.082-1.485s-.109.055-.33-.275a3.843 3.843 0 0 1 .221-1.718 13.9 13.9 0 0 1 .137-.484l2.777.743.133.351 1.078 2.866s.246 1.322-1.018 1.377z" class="cls-13" data-name="Path 1370" transform="translate(-11.538 -15.292)"/>
            <path id="Path_1371" d="M62.074 84.668s-3.217 1.238-4.257.275S56 84.255 56 84.255a12.965 12.965 0 0 1-2.173-.11c-.211-.08-.1-.768.035-1.316.089-.378.186-.691.186-.691s3.162-1.073 3.658-.413a2.372 2.372 0 0 0 .527.5 15.348 15.348 0 0 0 2.883 1.367c1.948.8.958 1.076.958 1.076z" class="cls-13" data-name="Path 1371" transform="translate(-12.816 -14.959)"/>
            <path id="Path_1372" d="M59.955 55.919l.88 1.76s1.266 1.788-.22 2.475-1.457-3.959-1.457-3.959z" class="cls-14" data-name="Path 1372" transform="translate(-13.584 -11.347)"/>
            <path id="Path_1373" d="M55.795 38.148a3.589 3.589 0 0 1 1.54 2.283c.578 1.842 1.348 4.978 1.348 4.978a38.08 38.08 0 0 1 .439 4.428 5.709 5.709 0 0 0 .028 1.457l.742 2.475-1.485.523-2.283-8.745z" class="cls-15" data-name="Path 1373" transform="translate(-13.11 -8.839)"/>
            <path id="Path_1374" d="M55.795 38.148a3.589 3.589 0 0 1 1.54 2.283c.578 1.842 1.348 4.978 1.348 4.978a38.08 38.08 0 0 1 .439 4.428 5.709 5.709 0 0 0 .028 1.457l.742 2.475-1.485.523-2.283-8.745z" class="cls-6" data-name="Path 1374" transform="translate(-13.11 -8.839)"/>
            <path id="Path_1375" d="M47.887 84.616l.133.351-.163.311a6 6 0 0 1-2.2.055s-.29-.369-.687-.975a13.9 13.9 0 0 1 .137-.484z" class="cls-8" data-name="Path 1375" transform="translate(-11.582 -15.292)"/>
            <path id="Path_1376" d="M58.357 82.357c-.8 1.817-3.529 1.143-4.286.915-.125-.038-.194-.063-.194-.063s0-.148.007-.381c.089-.378.186-.691.186-.691s3.162-1.073 3.658-.413a2.372 2.372 0 0 0 .527.5.933.933 0 0 0 .1.13z" class="cls-8" data-name="Path 1376" transform="translate(-12.839 -14.959)"/>
            <path id="Path_1377" d="M56.858 75.871A1.828 1.828 0 0 0 57 78.016c-.8 1.816-3.529 1.143-4.286.914-.125-.037-.194-.062-.194-.062a16.752 16.752 0 0 0-.137-2.806 30.13 30.13 0 0 1-.055-5.2 11.065 11.065 0 0 0 .164-1.376 6.7 6.7 0 0 1 .055-1.595.823.823 0 0 0-.205-.811l-.015-.015a22.9 22.9 0 0 1-.825 2.419 11.122 11.122 0 0 0-.33 2.475c-.028.33-1.155 3.081-1.155 3.081s-.439 1.265-.522 1.622-.413 1.376-.413 1.376L47.753 80.6a6 6 0 0 1-2.2.055s-.3-.387-.715-1.018a10.119 10.119 0 0 1-.6-2.859 1.118 1.118 0 0 0 1.127-1.485c-.385-1.457.33-2.585.3-3.081a7.322 7.322 0 0 1 .523-2.365 4.372 4.372 0 0 0 .109-1.87c-.055-.578-.027-2.613-.027-2.613a3.493 3.493 0 0 1 .33-1.32 3.607 3.607 0 0 0 .165-1.6s.522-.275.164-2.942a18.858 18.858 0 0 1 .581-6.133l.032-.484.05-.784s7.866-.5 8.5.109a2.086 2.086 0 0 1 .4.576 5.728 5.728 0 0 1 .455 1.464l.33 8.333.33 6.133-.11 4.62a6.142 6.142 0 0 1-.639 2.535z" class="cls-16" data-name="Path 1377" transform="translate(-11.478 -10.782)"/>
            <path id="Path_1378" d="M55.841 60.658l-.825 17.876-.991 1.629c-.125-.037-.194-.062-.194-.062a16.752 16.752 0 0 0-.137-2.806 30.13 30.13 0 0 1-.055-5.2 11.065 11.065 0 0 0 .164-1.376 6.7 6.7 0 0 1 .055-1.595.823.823 0 0 0-.205-.811l.014-.1z" class="cls-8" data-name="Path 1378" transform="translate(-12.793 -12.016)"/>
            <path id="Path_1379" d="M45.86 82.9s2.145-.852 2.475-.581-2.529.687-2.529.687z" class="cls-8" data-name="Path 1379" transform="translate(-11.7 -15.066)"/>
            <path id="Path_1380" d="M57.869 80.383c-.082.028-2.172.774-1.98 1.568s1.98-1.568 1.98-1.568z" class="cls-8" data-name="Path 1380" transform="translate(-13.122 -14.8)"/>
            <path id="Path_1381" d="M50.592 32.843a4.477 4.477 0 0 1 .33 2.558c-.371.867 4 2.351 4 2.351s-1.278-3.3-.041-5.157-4.289.248-4.289.248z" class="cls-14" data-name="Path 1381" transform="translate(-12.376 -7.947)"/>
            <path id="Path_1382" d="M79.313 89.471a6.6 6.6 0 0 0-1.959 1.029 13.053 13.053 0 0 1-3.61.248c-1.465-.206-1.216-1.795-.082-2.187a6.585 6.585 0 0 0 2.014-1.323c.186-.171.3-.29.3-.29l4.106-.825.16.546.5 1.7c.139.504-.583.916-1.429 1.102z" class="cls-17" data-name="Path 1382" transform="translate(-15.499 -15.61)"/>
            <path id="Path_1383" d="M77.768 85.81a5.646 5.646 0 0 1-2.455-.226c-.722-.412-1.753.248-1.753.248a23.588 23.588 0 0 1-3.96-.372c-.99-.31.144-1.838 1.753-1.691a1.848 1.848 0 0 0 1.251-.259 1.318 1.318 0 0 0 .545-.817l3.483.206.484 1.235z" class="cls-17" data-name="Path 1383" transform="translate(-15.006 -15.125)"/>
            <path id="Path_1384" d="M77.723 84.7s-4.048-.662-4.565-1.187a1.318 1.318 0 0 0 .545-.817l3.483.206.484 1.235z" class="cls-8" data-name="Path 1384" transform="translate(-15.56 -15.125)"/>
            <path id="Path_1385" d="M71.485 58.013l.042 6.043s.144 4.538.144 5.157.02 2 .02 2 .31 1.691.5 2.249a25.25 25.25 0 0 1 .33 3.1s.433.7.248.968.722.846.722.846a3.614 3.614 0 0 0-.618 1.341c-.038.536 4.619 1.3 4.619 1.3l-1.814-18.6-1.445-4.661z" class="cls-18" data-name="Path 1385" transform="translate(-15.324 -11.605)"/>
            <path id="Path_1386" d="M71.485 58.013l.042 6.043s.144 4.538.144 5.157.02 2 .02 2 .31 1.691.5 2.249a25.25 25.25 0 0 1 .33 3.1s.433.7.248.968.722.846.722.846a3.614 3.614 0 0 0-.618 1.341c-.038.536 4.619 1.3 4.619 1.3l-1.814-18.6-1.445-4.661z" class="cls-8" data-name="Path 1386" transform="translate(-15.324 -11.605)"/>
            <path id="Path_1387" d="M80.721 86.676c-1.348 3.213-4.554.733-4.554.733s0-.062-.008-.168c.186-.171.3-.29.3-.29l4.106-.825s.063.233.156.55z" class="cls-8" data-name="Path 1387" transform="translate(-15.984 -15.61)"/>
            <path id="Path_1388" d="M80.246 82.282c-1.321 3.387-4.6.846-4.6.846a11.85 11.85 0 0 1 .1-2.557 12.793 12.793 0 0 0-.227-3.218 17.343 17.343 0 0 0-.474-2.64 4.7 4.7 0 0 1-.206-1.568 2.993 2.993 0 0 0-.1-1.2 8.056 8.056 0 0 1-.29-1.568 16.54 16.54 0 0 0-.186-2.5l-.64-3.193-1.155-6.539.361-.062 6.467-1.134s1.217 6.193.8 6.827a2.664 2.664 0 0 0-.232.837c-.236 1.4-.324 3.928-.324 3.928a3.1 3.1 0 0 1 .5 2.145 4.276 4.276 0 0 0 .29 2.351s.186 5.776-.165 6.353.081 2.892.081 2.892z" class="cls-18" data-name="Path 1388" transform="translate(-15.463 -11.493)"/>
            <path id="Path_1389" d="M80.012 36.607s-5.858 4.125-4.538 2.062a4.593 4.593 0 0 0 .3-3.594 8.48 8.48 0 0 0-.581-1.576s4.977-2.117 4.317-.22a3.555 3.555 0 0 0-.194 1.378 3.677 3.677 0 0 0 .696 1.95z" class="cls-19" data-name="Path 1389" transform="translate(-15.848 -8.04)"/>
            <path id="Path_1390" d="M68.025 48.23s-2.475-.715-2.887-.014a2.1 2.1 0 0 0 .871 2.489c.747.248 2.462-.839 2.462-.839z" class="cls-19" data-name="Path 1390" transform="translate(-14.408 -10.216)"/>
            <path id="Path_1391" d="M71.239 46.867l-1.031.949a13.049 13.049 0 0 1-2.311.041s.475 3.177-.206 3.569l4.167-.846z" class="cls-11" data-name="Path 1391" transform="translate(-14.789 -10.069)"/>
            <path id="Path_1392" d="M71.239 46.867l-1.031.949a13.049 13.049 0 0 1-2.311.041s.475 3.177-.206 3.569l4.167-.846z" class="cls-8" data-name="Path 1392" transform="translate(-14.789 -10.069)"/>
            <path id="Path_1393" d="M55.385 30.463a3.1 3.1 0 0 1-3.1 3.1c-1.589-.763-3.1-1.385-3.1-3.1a3.1 3.1 0 1 1 6.188 0z" class="cls-8" data-name="Path 1393" transform="translate(-12.178 -7.3)"/>
            <path id="Path_1394" d="M55.388 30.387a3.091 3.091 0 1 1-.7-1.957 3.091 3.091 0 0 1 .7 1.957z" class="cls-14" data-name="Path 1394" transform="translate(-12.18 -7.308)"/>
            <path id="Path_1395" d="M57.034 52.8a7 7 0 0 1-.959.5s-1.568-.227-1.794.041a7.457 7.457 0 0 1-2.225.372s-3.056-.153-3.507-.544a1.858 1.858 0 0 0-.463-.275l.05-.784s7.866-.5 8.5.109a2.086 2.086 0 0 1 .4.576z" class="cls-8" data-name="Path 1395" transform="translate(-12.022 -10.782)"/>
            <path id="Path_1396" d="M57.126 49.814c-.062.35-1.341.886-1.341.886s-1.568-.226-1.794.042a7.457 7.457 0 0 1-2.225.372s-3.053-.145-3.507-.537A3.937 3.937 0 0 0 46.794 50a25.217 25.217 0 0 1-.309-4.475 14.758 14.758 0 0 0-.433-3.8c-.124-.784.35-2.949.928-3.3s1.4-1.527 1.9-1.877c.417-.3.878-.677 1.012-.792l.04-.033a1.953 1.953 0 0 1 .413-.968c.33-.328 3.361 2.083 3.361 2.083s.021.186.227-.164c.046-.078.446.5.516.742A28.632 28.632 0 0 1 56.2 40.9c.1.6.536 2.537.618 3.011.021.122.056.55.1 1.122l.023.355c.061.95.127 2.164.166 3.081 0 .1.009.205.012.3a10.272 10.272 0 0 1 .01 1.043z" class="cls-15" data-name="Path 1396" transform="translate(-11.732 -8.356)"/>
            <path id="Path_1397" d="M46.754 43.623S47.888 45 48.26 45s-1.506-1.377-1.506-1.377z" class="cls-8" data-name="Path 1397" transform="translate(-11.834 -9.612)"/>
            <path id="Path_1398" d="M49.267 47.082s-1.857 2.021-1.609 2.393 1.609-2.393 1.609-2.393z" class="cls-8" data-name="Path 1398" transform="translate(-11.958 -10.1)"/>
            <path id="Path_1399" d="M47.95 51.25s2.129-2.331 2.225-3.135z" class="cls-8" data-name="Path 1399" transform="translate(-12.003 -10.246)"/>
            <path id="Path_1400" d="M51.072 51.541s2.455-1.3 2.661-2.331-2.661 2.331-2.661 2.331z" class="cls-8" data-name="Path 1400" transform="translate(-12.443 -10.372)"/>
            <path id="Path_1401" d="M54.643 37.312l-.341.824.567.268.557 1.558s1.537 3.073 1.475 4.672a28.318 28.318 0 0 0 .279 4l.886-.164-.418-4.7a6.782 6.782 0 0 0-.54-2.11c-.708-1.624-2.026-4.617-2.108-4.617-.113 0-.034.042-.034.042z" class="cls-8" data-name="Path 1401" transform="translate(-12.899 -8.683)"/>
            <path id="Path_1402" d="M54.739 37.215l-.341.825.568.268.556 1.558s1.537 3.073 1.478 4.672a28.317 28.317 0 0 0 .279 4l.887-.164-.419-4.7a6.756 6.756 0 0 0-.539-2.11c-.708-1.623-2.026-4.615-2.108-4.615-.114 0-.035.042-.035.042z" class="cls-20" data-name="Path 1402" transform="translate(-12.913 -8.67)"/>
            <path id="Path_1403" d="M66.152 50.9a7.732 7.732 0 0 1-1.878-.774l-.174-.1.021-1.6a2.807 2.807 0 0 1 .315-.16 1.621 1.621 0 0 1 2.242.484c.763 1.415.022 2.188-.526 2.15z" class="cls-14" data-name="Path 1403" transform="translate(-14.282 -10.234)"/>
            <path id="Path_1404" d="M54.684 28.428a.458.458 0 0 1-.144.059c-.359.078-.767-.23-1.075-.032a.779.779 0 0 0-.256.6l-.132 1.153a1.423 1.423 0 0 1-.085.4 1 1 0 0 1-.949.505.566.566 0 0 1-.409-.135c-.067-.068-.1-.163-.176-.224-.484-.405-.631.588-.5.871.205.462.934.907.628 1.493a.559.559 0 0 1-.224.225 3.1 3.1 0 1 1 3.327-4.91z" class="cls-8" data-name="Path 1404" transform="translate(-12.177 -7.306)"/>
            <path id="Path_1405" d="M51.211 30.515c.073.061.109.156.176.224a.567.567 0 0 0 .409.135.993.993 0 0 0 .948-.506 1.378 1.378 0 0 0 .086-.4l.132-1.153a.776.776 0 0 1 .256-.6c.308-.194.716.11 1.075.032a.525.525 0 0 0 .387-.606 3.409 3.409 0 0 0-.255-.507 3.313 3.313 0 0 1-.105-.413 1.638 1.638 0 0 0-1.848-1.047c-.426.071-.821.274-1.248.336-.306.045-.618.015-.927.048a2.34 2.34 0 0 0-.822.243.478.478 0 0 0-.174.132.727.727 0 0 0-.087.248 3.308 3.308 0 0 1-.677 1 2.379 2.379 0 0 0-.459 1.288 1.033 1.033 0 0 0 .033.353c.02.068.052.134.068.2a1.416 1.416 0 0 1-.114.635 1.269 1.269 0 0 0 .068.807c.372.854 1.6 1.14 1.85 2.037a2.032 2.032 0 0 0 .72.194.694.694 0 0 0 .635-.324c.3-.581-.423-1.031-.628-1.492-.13-.279.014-1.271.501-.864z" class="cls-21" data-name="Path 1405" transform="translate(-12.014 -7.076)"/>
            <path id="Path_1406" d="M79.518 33.28a3.555 3.555 0 0 0-.194 1.378c-.149.127-.312-.253-.484-.155-.472.273-1.018.922-1.6.922a3.21 3.21 0 0 1-1.458-.349A8.481 8.481 0 0 0 75.2 33.5s4.978-2.118 4.318-.22z" class="cls-8" data-name="Path 1406" transform="translate(-15.848 -8.04)"/>
            <path id="Path_1407" d="M80.258 31.44a3.218 3.218 0 1 1-3.218-3.218 3.218 3.218 0 0 1 3.218 3.218z" class="cls-19" data-name="Path 1407" transform="translate(-15.654 -7.438)"/>
            <path id="Path_1408" d="M79.85 37.818s-.606.66-.688.714-1.838 7.451-1.869 7.537-2.093 6.764-2.093 6.764l-3.3 1.623.276-8.169 2.424-6.736s.8-.908 1.045-1.238S78.968 36 78.968 36l.526 1.085z" class="cls-22" data-name="Path 1408" transform="translate(-15.383 -8.536)"/>
            <path id="Path_1409" d="M80.014 37.28L76.219 40l-.061-1.492c.248-.33 3.328-2.31 3.328-2.31z" class="cls-8" data-name="Path 1409" transform="translate(-15.984 -8.563)"/>
            <path id="Path_1410" d="M80.11 37.087L76.315 39.8l-.059-1.491C76.5 37.982 79.584 36 79.584 36z" class="cls-22" data-name="Path 1410" transform="translate(-15.998 -8.536)"/>
            <path id="Path_1411" d="M75.341 37.92l.127.664-.849.862.681-1.516s-1.451 1.011-1.887 1.279a2.755 2.755 0 0 0-.887 1.423c-.016.248-.7 3.981-.7 3.981a4.862 4.862 0 0 0-.371 1.774c.145.392-.784 12.747-.784 12.747a1.838 1.838 0 0 1 1.24-.951l-.331-7.3s.4-4.857.423-4.919l.939-2.878z" class="cls-11" data-name="Path 1411" transform="translate(-15.209 -8.807)"/>
            <path id="Path_1412" d="M75.626 38.789l-.066 1.355a33.124 33.124 0 0 1-1.227 3.372 33.854 33.854 0 0 0-1.248 3.3l-.529 4.91-.908.413-.447-.823.743-4.741s1.4-4 1.609-4.414l1.034-2.179z" class="cls-8" data-name="Path 1412" transform="translate(-15.284 -8.929)"/>
            <path id="Path_1413" d="M75.529 38.693l-.065 1.355a32.931 32.931 0 0 1-1.228 3.372 33.555 33.555 0 0 0-1.247 3.3l-.526 4.909-.908.412-.454-.824.743-4.741s1.4-4 1.608-4.414l1.042-2.176z" class="cls-23" data-name="Path 1413" transform="translate(-15.27 -8.916)"/>
            <path id="Path_1414" d="M63.8 50.658l1.774 1.228s1.251-.7.523-1.155a3.231 3.231 0 0 0-1.609-.523c-.235 0-.688.45-.688.45z" class="cls-19" data-name="Path 1414" transform="translate(-14.24 -10.541)"/>
            <path id="Path_1415" d="M65.322 48.062a.273.273 0 0 0-.129.233c0 .376.043 1.373.358.923.387-.551.316-1.045.908-.688a3.483 3.483 0 0 1 .948.871l-.165-1.182s-1.215-.6-1.92-.157z" class="cls-19" data-name="Path 1415" transform="translate(-14.436 -10.215)"/>
            <path id="Path_1416" d="M80.152 63.779a2.663 2.663 0 0 0-.232.837 6.991 6.991 0 0 1-6.263-1.209 31.564 31.564 0 0 1-.784-3.3 10.752 10.752 0 0 1 .01-2.022l6.467-1.134s1.215 6.189.802 6.828z" class="cls-8" data-name="Path 1416" transform="translate(-15.514 -11.493)"/>
            <path id="Path_1417" d="M83.864 42.357a6.411 6.411 0 0 0-.1 1.629L82.276 51s-.722 5.4-.846 6.126-.33 3.9-.33 3.9a6.986 6.986 0 0 1-7.451-.742 31.622 31.622 0 0 1-.784-3.3c-.207-1.225.4-6.133.691-8.313.086-.645.144-1.052.144-1.052l1.084-4.019s1.33-3.393 1.826-4.383A24.757 24.757 0 0 1 79.095 36c.247-.157.642.4.935.9.222.381.387.735.387.735s2.475 1.072 2.846 1.645a4.826 4.826 0 0 1 .351 1.815 1.818 1.818 0 0 1 .25 1.262z" class="cls-11" data-name="Path 1417" transform="translate(-15.513 -8.532)"/>
            <path id="Path_1418" d="M78.162 39.876s.186 1.093-.29 1.423c-.46.319-3.881 7.047-4.094 7.467.086-.646.144-1.053.144-1.053L75 43.692s1.331-3.393 1.826-4.384a24.586 24.586 0 0 1 2.486-3.213c.247-.157.641.4.934.9-.438.918-1.36 2.654-2.084 2.881z" class="cls-8" data-name="Path 1418" transform="translate(-15.648 -8.545)"/>
            <path id="Path_1419" d="M78.066 39.78s.185 1.093-.29 1.423-3.88 7.046-4.1 7.466c.086-.645.144-1.052.144-1.052l1.087-4.017s1.33-3.393 1.826-4.383A24.758 24.758 0 0 1 79.217 36c.247-.157.642.4.935.9-.44.916-1.363 2.653-2.086 2.88z" class="cls-11" data-name="Path 1419" transform="translate(-15.634 -8.532)"/>
            <path id="Path_1420" d="M76.491 47.578l-1.164 6.056-.111.58-.251 1.3-1.065-.222-.5-.105-6.9-1.461-.507-.107-1.157-.245.226-1.5.094-.625.835-5.544z" class="cls-24" data-name="Path 1420" transform="translate(-9.15 -6.45)"/>
            <path id="Path_1421" d="M76.642 57.673s-2.743.99-2.145 2.166 4.435-.908 4.435-.908z" class="cls-19" data-name="Path 1421" transform="translate(-15.737 -11.595)"/>
            <path id="Path_1422" d="M79.29 67.495A2.8 2.8 0 0 0 79.806 69c.412.371-.516-1.505-.516-1.505z" class="cls-8" data-name="Path 1422" transform="translate(-16.426 -12.981)"/>
            <path id="Path_1423" d="M76.073 71.841a3.558 3.558 0 0 0 2.454 1.919c1.959.557-2.454-1.919-2.454-1.919z" class="cls-8" data-name="Path 1423" transform="translate(-15.972 -13.594)"/>
            <path id="Path_1424" d="M80.361 31.441a3.217 3.217 0 0 1-1.613 2.79 1.713 1.713 0 0 1-.484-.4.625.625 0 0 1-.165-.606c.068-.164.247-.267.29-.436a.642.642 0 0 0-.015-.312c-.036-.16-.07-.319-.1-.478-.03-.135-.083-.3-.218-.328s-.247.079-.352.163a1.1 1.1 0 0 1-1.064.175c-.311-.167-.224-.728-.274-1.031a.18.18 0 0 0-.068-.136.283.283 0 0 0-.14-.01.4.4 0 0 1-.35-.311 2.673 2.673 0 0 1-.056-.5.556.556 0 0 0-.223-.431.688.688 0 0 0-.367-.06l-.607.007a3.218 3.218 0 0 1 5.806 1.908z" class="cls-8" data-name="Path 1424" transform="translate(-15.757 -7.439)"/>
            <path id="Path_1425" d="M77.693 31.687c.105-.083.222-.194.352-.162s.187.194.217.327l.1.477a.648.648 0 0 1 .016.313c-.049.17-.227.273-.3.436a.625.625 0 0 0 .165.6 1.742 1.742 0 0 0 1 .6.732.732 0 0 0 .311.007.919.919 0 0 0 .511-.463 7.506 7.506 0 0 0 1.3-3.268 2.1 2.1 0 0 0-.033-.721 2.42 2.42 0 0 0-.221-.527 4.258 4.258 0 0 0-.622-.941 3.534 3.534 0 0 0-1.672-.938 5.662 5.662 0 0 0-2.159-.169c-.194.022-.379.054-.57.067a5.736 5.736 0 0 1-.718-.012l-1.424-.085a.553.553 0 0 0 .1.517.927.927 0 0 1 .209.5 1.027 1.027 0 0 1-.239.484.476.476 0 0 0-.076.506.541.541 0 0 0 .484.159l.718-.008a.686.686 0 0 1 .365.063.558.558 0 0 1 .223.431 2.847 2.847 0 0 0 .056.5.4.4 0 0 0 .35.311.261.261 0 0 1 .14.011.178.178 0 0 1 .068.135c.05.3-.043.862.274 1.03a1.114 1.114 0 0 0 1.075-.18z" class="cls-23" data-name="Path 1425" transform="translate(-15.664 -7.297)"/>
            <path id="Path_1426" d="M82.077 39.82a1.577 1.577 0 0 0-1.659 1.06c-.387 1.1-1.032 3.091-.871 3.876.227 1.114.5 2.971.5 2.971s1.176.677.581 1.36a3.853 3.853 0 0 0-.763 1.651 1.716 1.716 0 0 0-.928 1.031 4.772 4.772 0 0 1-1.279 1.67l-1.67 1.671s2.763 2.806 3.321 2.949l1.712-2 2.021-2.681 1.753-1.838A6.036 6.036 0 0 0 85 48.733a13.429 13.429 0 0 0-1.011-3.589l.062-.619s.185-4.436-1.974-4.705z" class="cls-8" data-name="Path 1426" transform="translate(-15.959 -9.074)"/>
            <path id="Path_1427" d="M82.269 39.821a1.577 1.577 0 0 0-1.658 1.06c-.387 1.1-1.032 3.091-.871 3.876.226 1.114.494 2.971.494 2.971s1.176.677.581 1.36a3.845 3.845 0 0 0-.762 1.651 1.719 1.719 0 0 0-.929 1.031 4.785 4.785 0 0 1-1.278 1.67l-1.671 1.671s2.763 2.806 3.321 2.949l1.712-2 2.016-2.681 1.753-1.838a6.02 6.02 0 0 0 .206-2.806 13.488 13.488 0 0 0-1.01-3.589l.062-.619s.193-4.438-1.966-4.706z" class="cls-11" data-name="Path 1427" transform="translate(-15.986 -9.074)"/>
            <path id="Path_1428" d="M81.259 47.13s1.753 2.144 2.5 1.67-2.5-1.67-2.5-1.67z" class="cls-8" data-name="Path 1428" transform="translate(-16.704 -10.107)"/>
            <path id="Path_1429" d="M82.028 45.208c.186.062 1.713 2.187 2.5 1.935s-2.5-1.935-2.5-1.935z" class="cls-8" data-name="Path 1429" transform="translate(-16.812 -9.835)"/>
            <path id="Path_1430" d="M82.533 49.458a1.148 1.148 0 0 0 1.361 1.052c1.258-.166-1.361-1.052-1.361-1.052z" class="cls-8" data-name="Path 1430" transform="translate(-16.883 -10.435)"/>
            <path id="Path_1431" d="M69.852 34l-.68 1.516.85-.862z" class="cls-8" data-name="Path 1431" transform="translate(-9.762 -4.799)"/>
            <path id="Path_1432" d="M69.852 33.908l-.68 1.516.85-.862z" class="cls-22" data-name="Path 1432" transform="translate(-9.762 -4.785)"/>
            <path id="Path_1433" d="M66.538 54.637l-.507-.107-.931-1.749.094-.625z" class="cls-25" data-name="Path 1433" transform="translate(-9.187 -7.361)"/>
            <path id="Path_1434" d="M76.733 54.939l-.111.58L75.3 56.6l-.5-.105z" class="cls-25" data-name="Path 1434" transform="translate(-10.557 -7.753)"/>
            <path id="Path_1435" d="M57.3 49.345c-.255.043-.5.081-.73.11-1.258.165-4.25-1.32-4.25-1.32s-3.651-3.053-4.7-5.94 1.258-3.321 1.258-3.321c.871-.5 2.764.886 3.032 1.114a1.722 1.722 0 0 1 .474 1.176c-.021.372.619.846.619.846a18.368 18.368 0 0 0 1.361 2.1 1.076 1.076 0 0 1 .412.743c.082.351.8.64 1.114.618s.677.1.677.268c0 .133.3.2.552.22.071 1.061.144 2.447.181 3.386z" class="cls-8" data-name="Path 1435" transform="translate(-11.917 -8.927)"/>
            <path id="Path_1436" d="M57.314 48.989c-.194.031-.379.059-.553.082-1.258.165-4.249-1.32-4.249-1.32s-3.651-3.053-4.7-5.94 1.258-3.321 1.258-3.321c.871-.5 2.763.886 3.032 1.114a1.728 1.728 0 0 1 .475 1.176c-.02.372.618.846.618.846a18.368 18.368 0 0 0 1.361 2.1 1.081 1.081 0 0 1 .413.743c.083.351.8.639 1.114.618s.677.1.677.268c0 .1.172.162.364.194l.023.355c.062.955.128 2.168.167 3.085z" class="cls-8" data-name="Path 1436" transform="translate(-11.944 -8.872)"/>
            <path id="Path_1437" d="M64.437 48.313l-.078 1.854h-.084l-.174-.1.021-1.6a2.807 2.807 0 0 1 .315-.154z" class="cls-8" data-name="Path 1437" transform="translate(-14.282 -10.274)"/>
            <path id="Path_1438" d="M48.875 38.682s-2.31.433-1.258 3.321 4.7 5.941 4.7 5.941 2.991 1.484 4.25 1.32 3.176-.6 3.423-.536 1.919.062 1.919.062l.082-1.935-1.935-.1-.99-.206s-.351-.29-.557-.248-.639-.248-.639-.248a1.233 1.233 0 0 0-.581-.268c-.25 0-.722-.062-.722-.226s-.372-.29-.677-.268-1.036-.268-1.121-.623a1.077 1.077 0 0 0-.412-.742A18.37 18.37 0 0 1 53 41.817s-.64-.474-.619-.845A1.731 1.731 0 0 0 51.9 39.8c-.264-.231-2.16-1.612-3.025-1.118z" class="cls-15" data-name="Path 1438" transform="translate(-11.917 -8.899)"/>
            <path id="Path_1439" d="M55.929 46.433s-.887.887-.661 1.052z" class="cls-8" data-name="Path 1439" transform="translate(-13.03 -10.008)"/>
            <path id="Path_1440" d="M57 47.25s-1.155.887-.846.949.846-.949.846-.949z" class="cls-8" data-name="Path 1440" transform="translate(-13.153 -10.124)"/>
            <path id="Path_1441" d="M54.865 48.782c.165.083 2.619 1.548 3.548 1.527z" class="cls-8" data-name="Path 1441" transform="translate(-12.979 -10.34)"/>
            <path id="Path_1442" d="M54.432 37.032s-.433 1.423-.6 1.423c-.13 0-2.307-1.763-3.215-2.5l.04-.033a1.947 1.947 0 0 1 .412-.968c.331-.331 3.363 2.078 3.363 2.078z" class="cls-8" data-name="Path 1442" transform="translate(-12.379 -8.384)"/>
            <path id="Path_1443" d="M54.336 36.84s-.433 1.423-.6 1.423c-.131 0-2.308-1.763-3.216-2.5l.04-.033a1.953 1.953 0 0 1 .413-.968c.327-.332 3.363 2.078 3.363 2.078z" class="cls-15" data-name="Path 1443" transform="translate(-12.366 -8.356)"/>
            <g id="Group_1138" class="cls-26" data-name="Group 1138" transform="translate(36.129 19.108)">
                <path id="Path_1444" d="M48.161 31.831c.29.663 1.09.984 1.553 1.512-.276-.649-1.082-.967-1.553-1.512z" data-name="Path 1444" transform="translate(-48.161 -27.056)"/>
                <path id="Path_1445" d="M51.4 33.517a.7.7 0 0 1-.635.324 1.852 1.852 0 0 1-.637-.163 1.238 1.238 0 0 1 .164.35 2.022 2.022 0 0 0 .72.194.689.689 0 0 0 .635-.324c.185-.353-.008-.655-.233-.941a.614.614 0 0 1-.014.56z" data-name="Path 1445" transform="translate(-48.438 -27.215)"/>
                <path id="Path_1446" d="M55.086 27.724a3.318 3.318 0 0 0-.255-.507 3.166 3.166 0 0 1-.105-.414 1.283 1.283 0 0 0-.3-.531 1.234 1.234 0 0 1 .049.146 3.329 3.329 0 0 0 .108.416 3.318 3.318 0 0 1 .255.507.525.525 0 0 1-.387.606c-.358.078-.766-.231-1.074-.032a.773.773 0 0 0-.257.6q-.065.581-.132 1.154a1.384 1.384 0 0 1-.085.4 1 1 0 0 1-.949.506.57.57 0 0 1-.408-.135 2.7 2.7 0 0 0-.177-.224c-.484-.406-.631.587-.5.871a1.753 1.753 0 0 0 .236.355c-.106-.319.043-1.239.515-.845a2.5 2.5 0 0 1 .176.224.574.574 0 0 0 .409.135 1 1 0 0 0 .949-.506 1.384 1.384 0 0 0 .085-.4l.132-1.153a.775.775 0 0 1 .256-.6c.309-.2.717.11 1.075.031a.524.524 0 0 0 .384-.6z" data-name="Path 1446" transform="translate(-48.537 -26.271)"/>
            </g>
            <path id="Path_1447" d="M79.761 34.036a.748.748 0 0 1-.311-.008 1.742 1.742 0 0 1-.995-.594.623.623 0 0 1-.165-.606c.068-.164.246-.266.29-.436a.648.648 0 0 0-.016-.313l-.1-.477c-.03-.135-.082-.3-.217-.327s-.247.078-.352.162a1.1 1.1 0 0 1-1.064.175c-.31-.168-.224-.728-.274-1.031a.181.181 0 0 0-.068-.135.276.276 0 0 0-.141-.011.405.405 0 0 1-.35-.311 2.748 2.748 0 0 1-.055-.5.558.558 0 0 0-.224-.431.7.7 0 0 0-.365-.063l-.718.008c-.177 0-.387-.012-.484-.159a.482.482 0 0 1 .076-.506 1 1 0 0 0 .239-.484.91.91 0 0 0-.209-.5.9.9 0 0 1-.122-.277l-.206-.013a.557.557 0 0 0 .1.517.923.923 0 0 1 .209.5A1.027 1.027 0 0 1 74 28.7a.474.474 0 0 0-.075.506.541.541 0 0 0 .484.16l.718-.009a.7.7 0 0 1 .365.064.555.555 0 0 1 .224.431 2.673 2.673 0 0 0 .056.5.4.4 0 0 0 .35.31.283.283 0 0 1 .14.011.182.182 0 0 1 .068.136c.05.3-.043.862.274 1.031a1.1 1.1 0 0 0 1.064-.175c.105-.083.223-.194.353-.163s.187.194.216.327l.105.478a.647.647 0 0 1 .015.313c-.048.169-.227.273-.3.435a.625.625 0 0 0 .165.606 1.742 1.742 0 0 0 1 .594.748.748 0 0 0 .311.008.73.73 0 0 0 .4-.306.538.538 0 0 1-.172.079z" class="cls-8" data-name="Path 1447" transform="translate(-15.661 -7.295)"/>
            <ellipse id="Ellipse_282" cx="2.339" cy=".359" class="cls-3" data-name="Ellipse 282" rx="2.339" ry=".359" transform="translate(17.37 68.757)"/>
            <ellipse id="Ellipse_283" cx="2.339" cy=".359" class="cls-3" data-name="Ellipse 283" rx="2.339" ry=".359" transform="translate(99.029 59.424)"/>
            <ellipse id="Ellipse_284" cx="6.773" cy="1.039" class="cls-3" data-name="Ellipse 284" rx="6.773" ry="1.039" transform="translate(70.751 73.209)"/>
            <ellipse id="Ellipse_285" cx="5.283" cy=".811" class="cls-3" data-name="Ellipse 285" rx="5.283" ry=".811" transform="translate(91.496 69.035)"/>
            <ellipse id="Ellipse_286" cx="8.959" cy="1.375" class="cls-3" data-name="Ellipse 286" rx="8.959" ry="1.375" transform="translate(86.95 76.55)"/>
            <ellipse id="Ellipse_287" cx="6.773" cy="1.039" class="cls-3" data-name="Ellipse 287" rx="6.773" ry="1.039" transform="translate(2.926 78.096)"/>
            <path id="Path_1448" d="M29.048 71.184s.265.346-.122.871-.706.968-.581 1.291c0 0 .581-.968 1.064-.985s.162-.592-.361-1.177z" class="cls-24" data-name="Path 1448" transform="translate(-9.232 -13.501)"/>
            <path id="Path_1449" d="M29.051 71.184a.387.387 0 0 1 .054.108c.464.546.711 1.054.265 1.064-.415.012-.913.755-1.032.942a.361.361 0 0 0 .014.043s.581-.968 1.064-.985.158-.587-.365-1.172z" class="cls-8" data-name="Path 1449" transform="translate(-9.235 -13.501)"/>
            <path id="Path_1450" d="M29.732 71.685c0 .122-.015.221-.031.221s-.031-.1-.031-.221.017-.064.034-.064.028-.058.028.064z" class="cls-27" data-name="Path 1450" transform="translate(-9.423 -13.561)"/>
            <path id="Path_1451" d="M29.9 71.854c-.106.058-.2.1-.208.078s.072-.074.179-.133.065-.015.073 0 .067.001-.044.055z" class="cls-27" data-name="Path 1451" transform="translate(-9.427 -13.584)"/>
            <path id="Path_1452" d="M27.441 71.184s-.265.346.122.871.707.968.581 1.291c0 0-.581-.968-1.06-.985s-.169-.592.357-1.177z" class="cls-24" data-name="Path 1452" transform="translate(-9.024 -13.501)"/>
            <path id="Path_1453" d="M27.441 71.184a.427.427 0 0 0-.054.108c-.464.546-.711 1.054-.265 1.064.415.012.913.755 1.033.942a.369.369 0 0 1-.015.043s-.581-.968-1.06-.985-.166-.587.361-1.172z" class="cls-8" data-name="Path 1453" transform="translate(-9.024 -13.501)"/>
            <path id="Path_1454" d="M26.965 71.685c0 .122.014.221.03.221s.031-.1.031-.221-.017-.064-.034-.064-.027-.058-.027.064z" class="cls-27" data-name="Path 1454" transform="translate(-9.041 -13.561)"/>
            <path id="Path_1455" d="M26.757 71.854c.107.058.2.1.209.078s-.073-.074-.18-.133-.065-.015-.073 0-.063.001.044.055z" class="cls-27" data-name="Path 1455" transform="translate(-9.003 -13.584)"/>
            <ellipse id="Ellipse_288" cx="2.77" cy=".425" class="cls-3" data-name="Ellipse 288" rx="2.77" ry=".425" transform="translate(16.346 61.644)"/>
            <path id="Path_1456" d="M29.545 73.129l-.014.108-.018.153-.008.064-.018.153-.009.064-.018.153-.212 1.742c-.018.155-.272.276-.581.276h-1.1c-.306 0-.559-.121-.581-.276l-.212-1.742-.018-.153-.008-.064-.019-.153-.008-.064-.018-.153-.014-.108c-.011-.088.127-.162.3-.162h2.254c.175.001.313.074.302.162z" class="cls-28" data-name="Path 1456" transform="translate(-9.003 -13.753)"/>
            <path id="Path_1457" d="M23.438 69.259l-.018.153h-2.789l-.018-.153z" class="cls-29" data-name="Path 1457" transform="translate(-2.909 -9.774)"/>
            <path id="Path_1458" d="M23.416 69.511l-.018.153h-2.736l-.019-.153z" class="cls-29" data-name="Path 1458" transform="translate(-2.913 -9.81)"/>
            <path id="Path_1459" d="M23.394 69.764l-.019.153h-2.682l-.018-.153z" class="cls-29" data-name="Path 1459" transform="translate(-2.918 -9.846)"/>
            <path id="Path_1460" d="M121.968 69.624s-.331 1.54 1.141 1.722l.091-.171s-1.141-1.075-1.232-1.551z" class="cls-24" data-name="Path 1460" transform="translate(-22.444 -13.281)"/>
            <path id="Path_1461" d="M123.743 71.035l-.343.073-.034.008a3.092 3.092 0 0 1-.9-2.4 4.084 4.084 0 0 0 .436.69 4.125 4.125 0 0 1 .841 1.629z" class="cls-24" data-name="Path 1461" transform="translate(-22.519 -13.153)"/>
            <path id="Path_1462" d="M123.954 71.1a.215.215 0 0 1-.184.024c-.879-.205-.581-3.068-.581-3.068.048.022.1.387.3.857.357.825.747 1.98.465 2.187z" class="cls-24" data-name="Path 1462" transform="translate(-22.614 -13.06)"/>
            <path id="Path_1463" d="M126.109 69.624a1.65 1.65 0 0 1-1.415 1.722l-.092-.174s1.416-1.072 1.507-1.548z" class="cls-24" data-name="Path 1463" transform="translate(-22.82 -13.281)"/>
            <path id="Path_1464" d="M125.61 68.723a2.849 2.849 0 0 1-1.175 2.4l-.035-.008-.342-.073a4.173 4.173 0 0 1 .841-1.626 3.723 3.723 0 0 1 .711-.693z" class="cls-24" data-name="Path 1464" transform="translate(-22.744 -13.154)"/>
            <path id="Path_1465" d="M124.361 70.951a.534.534 0 0 1-.194.15.376.376 0 0 1-.073.024c-.216.05-.29-.105-.279-.371a6.858 6.858 0 0 1 .581-1.9 2.376 2.376 0 0 1 .552-.8s-.013 2.231-.587 2.897z" class="cls-24" data-name="Path 1465" transform="translate(-22.709 -13.06)"/>
            <path id="Path_1466" d="M124.086 66.886s-.981 3.483-.136 4 .35-3.692.136-4z" class="cls-24" data-name="Path 1466" transform="translate(-22.68 -12.895)"/>
            <path id="Path_1467" d="M121.968 69.624s-.331 1.54 1.141 1.722l.091-.171s-1.141-1.075-1.232-1.551z" class="cls-8" data-name="Path 1467" transform="translate(-22.444 -13.281)"/>
            <path id="Path_1468" d="M123.743 71.035l-.343.073-.034.008a3.092 3.092 0 0 1-.9-2.4 4.084 4.084 0 0 0 .436.69 4.125 4.125 0 0 1 .841 1.629z" class="cls-8" data-name="Path 1468" transform="translate(-22.519 -13.153)"/>
            <path id="Path_1469" d="M123.954 71.1a.215.215 0 0 1-.184.024c-.879-.205-.581-3.068-.581-3.068.048.022.1.387.3.857.357.825.747 1.98.465 2.187z" class="cls-8" data-name="Path 1469" transform="translate(-22.614 -13.06)"/>
            <path id="Path_1470" d="M126.109 69.624a1.65 1.65 0 0 1-1.415 1.722l-.092-.174s1.416-1.072 1.507-1.548z" class="cls-8" data-name="Path 1470" transform="translate(-22.82 -13.281)"/>
            <path id="Path_1471" d="M125.61 68.723a2.849 2.849 0 0 1-1.175 2.4l-.035-.008-.342-.073a4.173 4.173 0 0 1 .841-1.626 3.723 3.723 0 0 1 .711-.693z" class="cls-8" data-name="Path 1471" transform="translate(-22.744 -13.154)"/>
            <path id="Path_1472" d="M124.361 70.951a.534.534 0 0 1-.194.15.376.376 0 0 1-.073.024c-.216.05-.29-.105-.279-.371a6.858 6.858 0 0 1 .581-1.9 2.376 2.376 0 0 1 .552-.8s-.013 2.231-.587 2.897z" class="cls-8" data-name="Path 1472" transform="translate(-22.709 -13.06)"/>
            <path id="Path_1473" d="M124.086 66.886s-.981 3.483-.136 4 .35-3.692.136-4z" class="cls-8" data-name="Path 1473" transform="translate(-22.68 -12.895)"/>
            <path id="Path_1474" d="M121.972 69.624a1.5 1.5 0 0 0 1.277 1.722l.091-.171s-1.277-1.075-1.368-1.551z" class="cls-24" data-name="Path 1474" transform="translate(-22.448 -13.281)"/>
            <path id="Path_1475" d="M123.879 71.035l-.343.073-.034.008a2.942 2.942 0 0 1-1.041-2.393s.269.29.573.69a4.066 4.066 0 0 1 .845 1.622z" class="cls-24" data-name="Path 1475" transform="translate(-22.518 -13.154)"/>
            <path id="Path_1476" d="M123.974 71.148l-.343.073a2.812 2.812 0 0 1-.5-1.7 4.125 4.125 0 0 1 .843 1.627z" class="cls-8" data-name="Path 1476" transform="translate(-22.613 -13.267)"/>
            <path id="Path_1477" d="M124.1 71.1a.217.217 0 0 1-.185.024c-.879-.205-.718-3.068-.718-3.068a3.975 3.975 0 0 1 .44.857c.353.825.742 1.98.463 2.187z" class="cls-24" data-name="Path 1477" transform="translate(-22.62 -13.06)"/>
            <path id="Path_1478" d="M126.131 69.624a1.5 1.5 0 0 1-1.277 1.722l-.091-.171s1.277-1.075 1.368-1.551z" class="cls-24" data-name="Path 1478" transform="translate(-22.843 -13.281)"/>
            <path id="Path_1479" d="M125.633 68.723a2.937 2.937 0 0 1-1.038 2.4l-.034-.008-.343-.073a4.163 4.163 0 0 1 .842-1.626c.304-.403.573-.693.573-.693z" class="cls-24" data-name="Path 1479" transform="translate(-22.766 -13.154)"/>
            <path id="Path_1480" d="M125.06 69.523a3.165 3.165 0 0 1-.436 1.634.492.492 0 0 1-.063.064l-.343-.073a4.112 4.112 0 0 1 .842-1.625z" class="cls-8" data-name="Path 1480" transform="translate(-22.766 -13.267)"/>
            <path id="Path_1481" d="M124.52 70.951a.523.523 0 0 1-.194.15.386.386 0 0 1-.072.024c-.217.05-.29-.105-.28-.371a6.924 6.924 0 0 1 .581-1.9 3.722 3.722 0 0 1 .415-.8s.124 2.231-.45 2.897z" class="cls-24" data-name="Path 1481" transform="translate(-22.732 -13.06)"/>
            <path id="Path_1482" d="M124.163 71.241a.232.232 0 0 1-.139-.045c-.413-.257-.422-1.223-.323-2.142.354.825.743 1.98.462 2.187z" class="cls-8" data-name="Path 1482" transform="translate(-22.686 -13.201)"/>
            <path id="Path_1483" d="M124.52 71.082c-.047.1-.111.158-.194.15a.26.26 0 0 1-.117-.045.625.625 0 0 1-.234-.3 6.924 6.924 0 0 1 .581-1.9 5.4 5.4 0 0 1-.036 2.095z" class="cls-8" data-name="Path 1483" transform="translate(-22.732 -13.191)"/>
            <path id="Path_1484" d="M124.1 66.886s-.844 3.483 0 4 .22-3.692 0-4z" class="cls-24" data-name="Path 1484" transform="translate(-22.697 -12.895)"/>
            <path id="Path_1485" d="M119.378 67.327h-3.513v.582h.536l.014.069.215 1.129h2.043l.215-1.129.013-.069h.479z" class="cls-30" data-name="Path 1485" transform="translate(-16.352 -9.502)"/>
            <path id="Path_1486" d="M119.378 67.327h-3.513v.582h.536l.014.069.215 1.129h2.043l.215-1.129.013-.069h.479z" class="cls-8" data-name="Path 1486" transform="translate(-16.352 -9.502)"/>
            <path id="Path_1487" d="M119.184 67.724l-.059.309-.215 1.129h-2.043l-.215-1.129-.059-.309z" class="cls-30" data-name="Path 1487" transform="translate(-16.455 -9.558)"/>
            <path id="Path_1488" d="M119.184 67.724l-.059.309h-2.472l-.059-.309z" class="cls-8" data-name="Path 1488" transform="translate(-16.455 -9.558)"/>
            <path id="Rectangle_174" d="M0 0h3.513v.582H0z" class="cls-30" data-name="Rectangle 174" transform="translate(99.649 57.825)"/>
            <path id="Path_1489" d="M20.808 82.818a1.688 1.688 0 0 0-.221.416c-.014.036-.027.077-.041.117a.422.422 0 0 0-.076-.027 1.064 1.064 0 0 0-.345-.029c0-.045.006-.1.007-.142.015-.51-.045-1.22-.532-.919-.466.29-.134.774.167 1.084l.077.076c-.275.194-.327.651-.373 1.126a2.626 2.626 0 0 1-.717 1.29l-.075.082a.982.982 0 0 0-.779-.2 7.08 7.08 0 0 0-.036-.131c-.217-.783-.667-2.138-1.24-2.435l.075-.1c.244-.318.519-.792.113-.913s-.442.41-.42.809l.012.142a.593.593 0 0 0-.424.207l-.063-.075c-.329-.387-.932-1-1.115-.538-.17.433.361 1 .734 1.323l.023.02c-.251 1.017.844 1.846 1.433 2.209l.076.046a8.889 8.889 0 0 0-1.315 2.754l2.276.406s1.509-1.3 1.316-2.525h.015a2.3 2.3 0 0 0 1.616-2.865l.027-.011a1.708 1.708 0 0 0 .7-.528.56.56 0 0 0-.895-.669z" class="cls-24" data-name="Path 1489" transform="translate(-7.32 -15.042)"/>
            <path id="Path_1490" d="M20.808 82.818a1.688 1.688 0 0 0-.221.416c-.014.036-.027.077-.041.117a.422.422 0 0 0-.076-.027 1.064 1.064 0 0 0-.345-.029c0-.045.006-.1.007-.142.015-.51-.045-1.22-.532-.919-.466.29-.134.774.167 1.084l.077.076c-.275.194-.327.651-.373 1.126a2.626 2.626 0 0 1-.717 1.29l-.075.082a.982.982 0 0 0-.779-.2 7.08 7.08 0 0 0-.036-.131c-.217-.783-.667-2.138-1.24-2.435l.075-.1c.244-.318.519-.792.113-.913s-.442.41-.42.809l.012.142a.593.593 0 0 0-.424.207l-.063-.075c-.329-.387-.932-1-1.115-.538-.17.433.361 1 .734 1.323l.023.02c-.251 1.017.844 1.846 1.433 2.209l.076.046a8.889 8.889 0 0 0-1.315 2.754l2.276.406s1.509-1.3 1.316-2.525h.015a2.3 2.3 0 0 0 1.616-2.865l.027-.011a1.708 1.708 0 0 0 .7-.528.56.56 0 0 0-.895-.669z" class="cls-8" data-name="Path 1490" transform="translate(-7.32 -15.042)"/>
            <path id="Path_1491" d="M16.3 83.545l-.266.774s-.148-.1-.335-.269c-.373-.326-.9-.889-.734-1.323.183-.465.786.149 1.115.538.132.155.22.28.22.28z" class="cls-24" data-name="Path 1491" transform="translate(-7.343 -15.107)"/>
            <path id="Path_1492" d="M17.127 83.03a3.688 3.688 0 0 1-.259.306 4.084 4.084 0 0 1-.047-.41c-.022-.4.02-.928.42-.809s.13.594-.114.913z" class="cls-24" data-name="Path 1492" transform="translate(-7.609 -15.042)"/>
            <path id="Path_1493" d="M21.055 83.163c-.008.256-.033.462-.033.462a3.375 3.375 0 0 1-.332-.3c-.3-.313-.634-.794-.167-1.084.477-.299.541.412.532.922z" class="cls-24" data-name="Path 1493" transform="translate(-8.099 -15.052)"/>
            <path id="Path_1494" d="M22.8 83.57a1.708 1.708 0 0 1-.7.528 2.092 2.092 0 0 1-.234.085l-.314-.44a3.114 3.114 0 0 1 .13-.428 1.687 1.687 0 0 1 .218-.415.56.56 0 0 1 .9.67z" class="cls-24" data-name="Path 1494" transform="translate(-8.278 -15.124)"/>
            <path id="Path_1495" d="M16.206 83.381c.133.155.221.275.221.275l-.266.774s-.148-.1-.335-.269a1.519 1.519 0 0 1 .3-.684z" class="cls-8" data-name="Path 1495" transform="translate(-7.469 -15.223)"/>
            <path id="Path_1496" d="M17.128 83.165a3.687 3.687 0 0 1-.259.306 4.084 4.084 0 0 1-.047-.41.535.535 0 0 1 .306.104z" class="cls-8" data-name="Path 1496" transform="translate(-7.61 -15.177)"/>
            <path id="Path_1497" d="M18.293 86.281l-.662.29s-.144-.07-.352-.2c-.7-.428-2.094-1.5-1.161-2.774s1.719 1.007 2.032 2.121c.094.339.143.563.143.563z" class="cls-24" data-name="Path 1497" transform="translate(-7.467 -15.2)"/>
            <path id="Path_1498" d="M20.75 83.49a.544.544 0 0 1 .365-.164c-.008.256-.033.462-.033.462a3.377 3.377 0 0 1-.332-.298z" class="cls-8" data-name="Path 1498" transform="translate(-8.164 -15.215)"/>
            <path id="Path_1499" d="M22.1 84.2a2.09 2.09 0 0 1-.234.085l-.314-.44a3.112 3.112 0 0 1 .13-.428 1.142 1.142 0 0 1 .418.783z" class="cls-8" data-name="Path 1499" transform="translate(-8.278 -15.228)"/>
            <path id="Path_1500" d="M20.06 87.088a1.355 1.355 0 0 1-.111.02c-2.219.337-.732-.86-.732-.86s.1-.1.235-.243a2.621 2.621 0 0 0 .717-1.29c.07-.719.15-1.393 1-1.2.831.2.992 3.152-1.109 3.573z" class="cls-24" data-name="Path 1500" transform="translate(-7.879 -15.237)"/>
            <path id="Rectangle_175" d="M0 0h4.239v1.115H0z" class="cls-31" data-name="Rectangle 175" transform="translate(7.901 77.375)"/>
            <path id="Rectangle_176" d="M0 0h5.539v3.89H0z" class="cls-31" data-name="Rectangle 176" transform="translate(7.227 73.752)"/>
            <path id="Rectangle_177" d="M0 0h4.239v1.115H0z" class="cls-8" data-name="Rectangle 177" transform="translate(7.901 77.375)"/>
            <path id="Rectangle_178" d="M0 0h5.539v3.89H0z" class="cls-8" data-name="Rectangle 178" transform="translate(7.227 73.752)"/>
            <path id="Rectangle_179" d="M0 0h4.239v1.115H0z" class="cls-31" data-name="Rectangle 179" transform="translate(8.179 77.375)"/>
            <path id="Path_1501" d="M18.392 86.13c.1.333.143.561.143.561l-.662.29s-.144-.07-.352-.2a1.7 1.7 0 0 1 .871-.651z" class="cls-8" data-name="Path 1501" transform="translate(-7.708 -15.611)"/>
            <path id="Path_1502" d="M20.06 87.5a1.355 1.355 0 0 1-.111.02c-2.219.337-.732-.86-.732-.86s.1-.1.235-.243a1.469 1.469 0 0 1 .608 1.083z" class="cls-8" data-name="Path 1502" transform="translate(-7.879 -15.651)"/>
            <path id="Path_1503" d="M16.079 89.6s1.242-4.451 2.985-3.078-.709 3.483-.709 3.483z" class="cls-24" data-name="Path 1503" transform="translate(-7.505 -15.629)"/>
            <circle id="Ellipse_289" cx=".139" cy=".139" r=".139" class="cls-8" data-name="Ellipse 289" transform="translate(9.062 68.956)"/>
            <circle id="Ellipse_290" cx=".139" cy=".139" r=".139" class="cls-8" data-name="Ellipse 290" transform="translate(9.05 69.606)"/>
            <circle id="Ellipse_291" cx=".139" cy=".139" r=".139" class="cls-8" data-name="Ellipse 291" transform="translate(13.092 69.083)"/>
            <circle id="Ellipse_292" cx=".139" cy=".139" r=".139" class="cls-8" data-name="Ellipse 292" transform="translate(9.841 72.417)"/>
            <circle id="Ellipse_293" cx=".139" cy=".139" r=".139" class="cls-8" data-name="Ellipse 293" transform="translate(12.801 70.163)"/>
            <circle id="Ellipse_294" cx=".139" cy=".139" r=".139" class="cls-8" data-name="Ellipse 294" transform="translate(11.362 71.604)"/>
            <circle id="Ellipse_295" cx=".139" cy=".139" r=".139" class="cls-8" data-name="Ellipse 295" transform="translate(9.538 69.234)"/>
            <circle id="Ellipse_296" cx=".139" cy=".139" r=".139" class="cls-8" data-name="Ellipse 296" transform="translate(12.709 69.501)"/>
            <circle id="Ellipse_297" cx=".139" cy=".139" r=".139" class="cls-8" data-name="Ellipse 297" transform="translate(12.232 70.581)"/>
            <circle id="Ellipse_298" cx=".139" cy=".139" r=".139" class="cls-8" data-name="Ellipse 298" transform="translate(10.769 72.312)"/>
            <circle id="Ellipse_299" cx=".139" cy=".139" r=".139" class="cls-8" data-name="Ellipse 299" transform="translate(10.468 71.627)"/>
            <circle id="Ellipse_300" cx=".139" cy=".139" r=".139" class="cls-8" data-name="Ellipse 300" transform="translate(9.747 70.082)"/>
            <path id="Rectangle_180" d="M0 0h4.239v.407H0z" class="cls-8" data-name="Rectangle 180" transform="translate(8.179 77.375)"/>
            <path id="Rectangle_181" d="M0 0h5.539v3.89H0z" class="cls-31" data-name="Rectangle 181" transform="translate(7.506 73.752)"/>
            <circle id="Ellipse_301" cx=".139" cy=".139" r=".139" class="cls-8" data-name="Ellipse 301" transform="translate(10.955 72.939)"/>
            <circle id="Ellipse_302" cx=".139" cy=".139" r=".139" class="cls-8" data-name="Ellipse 302" transform="translate(10.119 73.113)"/>
            <circle id="Ellipse_303" cx="1.012" cy="1.012" r="1.012" class="cls-3" data-name="Ellipse 303" transform="translate(3.826 4.019)"/>
            <circle id="Ellipse_304" cx="1.355" cy="1.355" r="1.355" class="cls-3" data-name="Ellipse 304" transform="translate(100.686 35.52)"/>
            <circle id="Ellipse_305" cx=".989" cy=".989" r=".989" class="cls-3" data-name="Ellipse 305" transform="translate(103.664 32.983)"/>
            <circle id="Ellipse_306" cx="1.355" cy="1.355" r="1.355" class="cls-3" data-name="Ellipse 306" transform="translate(5.225)"/>
            <circle id="Ellipse_307" cx="1.355" cy="1.355" r="1.355" class="cls-3" data-name="Ellipse 307" transform="translate(0 6.193)"/>
        </g>
    </g>
</svg>
