<svg xmlns="http://www.w3.org/2000/svg" width="103" height="103" viewBox="0 0 103 103">
    <defs>
        <style>
            .cls-1,.cls-17,.cls-8{fill:#fff}.cls-2{clip-path:url(#clip-path)}.cls-3,.cls-4,.cls-7{fill:#ffc107}.cls-17,.cls-4,.cls-6{opacity:.1}.cls-5{fill:#96b7fe;opacity:.9}.cls-7{opacity:.3}.cls-8{opacity:.2}.cls-9{fill:url(#linear-gradient)}.cls-10{fill:#1d2366}.cls-11{fill:#ffb0b1}.cls-12{fill:#c7daf5}.cls-13{opacity:.03}.cls-14{fill:#dce7ff}.cls-15{fill:#591d4b}.cls-16{fill:#be8b87}.cls-18{fill:#efc8c4}.cls-19{fill:#727a9c}
        </style>
        <clipPath id="clip-path">
            <rect id="Rectangle_446" width="103" height="103" class="cls-1" data-name="Rectangle 446" rx="8" transform="translate(-887 1946)"/>
        </clipPath>
        <linearGradient id="linear-gradient" x1=".5" x2=".5" y1="1" gradientUnits="objectBoundingBox">
            <stop offset="0" stop-color="gray" stop-opacity=".251"/>
            <stop offset=".54" stop-color="gray" stop-opacity=".122"/>
            <stop offset="1" stop-color="gray" stop-opacity=".102"/>
        </linearGradient>
    </defs>
    <g id="Mask_Group_17" class="cls-2" data-name="Mask Group 17" transform="translate(887 -1946)">
        <g id="science" transform="translate(-887 1956.442)">
            <path id="Path_3214" d="M17.231 83.573s-4.408-.266-3.889 2.824a.752.752 0 0 0 .391.794s.008-.229.453-.151a2.019 2.019 0 0 0 .479.023 1 1 0 0 0 .586-.242 3.5 3.5 0 0 0 1.722-2.537s.357-.442.342-.556l-.744.313a1.338 1.338 0 0 1 .054.982s-.025-.963-.168-.939c-.029.005-.386.187-.386.187a2.194 2.194 0 0 1 .1 1.614s.125-1.152-.244-1.548l-.521.307a2.307 2.307 0 0 1 .165 1.753 3.294 3.294 0 0 0-.274-1.679l-.475.37a2.262 2.262 0 0 1 .187 1.6s-.038-1.407-.29-1.513a2.73 2.73 0 0 0-.479.521s.33.69.125 1.055c0 0-.125-.939-.227-.939a3.045 3.045 0 0 0-.457 1.043 2.261 2.261 0 0 1 .356-1.106 1.24 1.24 0 0 0-.633.327s.065-.439.735-.478a2.894 2.894 0 0 1 .434-.5 2.724 2.724 0 0 0-1.072.124A1.2 1.2 0 0 1 14.7 85l.469-.383a3.879 3.879 0 0 0-1.251.013 1.522 1.522 0 0 1 1.378-.1l.51-.3a4.654 4.654 0 0 0-1.2-.1 1.832 1.832 0 0 1 1.345.021l.365-.164s-.55-.1-.71-.125-.169-.062-.169-.062a1.9 1.9 0 0 1 1.031.115 4.59 4.59 0 0 0 .763-.342z" class="cls-3" data-name="Path 3214" transform="translate(-11.074 -5.871)"/>
            <ellipse id="Ellipse_715" cx="3.12" cy=".528" class="cls-4" data-name="Ellipse 715" rx="3.12" ry=".528" transform="translate(0 81.061)"/>
            <path id="Path_3215" d="M114.024 76.556s-2.486-.15-2.19 1.591a.426.426 0 0 0 .221.448s0-.129.254-.086a1.163 1.163 0 0 0 .27.013.562.562 0 0 0 .331-.136 1.974 1.974 0 0 0 .971-1.431s.2-.249.193-.313l-.417.179a.755.755 0 0 1 .03.555s-.014-.543-.094-.531c-.017 0-.219.1-.219.1a1.233 1.233 0 0 1 .062.909s.07-.649-.138-.872l-.3.172a1.3 1.3 0 0 1 .093.99 1.848 1.848 0 0 0-.154-.947l-.268.209a1.267 1.267 0 0 1 .1.905s-.022-.794-.164-.853a1.631 1.631 0 0 0-.27.291s.186.389.071.6c0 0-.071-.529-.129-.531a1.748 1.748 0 0 0-.257.589 1.27 1.27 0 0 1 .2-.626.7.7 0 0 0-.357.186s.036-.248.417-.27a1.628 1.628 0 0 1 .245-.282 1.537 1.537 0 0 0-.6.07.679.679 0 0 1 .674-.127l.264-.216a2.173 2.173 0 0 0-.7.007.85.85 0 0 1 .776-.056l.288-.172a2.594 2.594 0 0 0-.674-.057 1.029 1.029 0 0 1 .758.011l.209-.093s-.313-.06-.4-.07-.1-.034-.1-.034a1.076 1.076 0 0 1 .582.065 2.546 2.546 0 0 0 .422-.187z" class="cls-3" data-name="Path 3215" transform="translate(-11.074 -5.871)"/>
            <ellipse id="Ellipse_716" cx="1.759" cy=".297" class="cls-4" data-name="Ellipse 716" rx="1.759" ry=".297" transform="translate(99.478 72.578)"/>
            <path id="Path_3216" d="M108.912 81.3s-3-.18-2.643 1.924a.514.514 0 0 0 .267.541s0-.156.313-.1a1.37 1.37 0 0 0 .326.016.68.68 0 0 0 .4-.165 2.379 2.379 0 0 0 1.171-1.727s.243-.3.234-.379l-.507.217a.909.909 0 0 1 .038.668s-.017-.656-.114-.64c-.02 0-.264.126-.264.126a1.5 1.5 0 0 1 .073 1.1s.086-.784-.166-1.052l-.357.209a1.576 1.576 0 0 1 .113 1.194 2.253 2.253 0 0 0-.188-1.147l-.322.251a1.542 1.542 0 0 1 .127 1.093s-.026-.957-.2-1.029a1.927 1.927 0 0 0-.325.351s.224.47.086.719c0 0-.086-.638-.155-.641a2.148 2.148 0 0 0-.313.712 1.54 1.54 0 0 1 .243-.753.85.85 0 0 0-.432.223s.044-.3.5-.324a1.963 1.963 0 0 1 .3-.341 1.857 1.857 0 0 0-.73.084.821.821 0 0 1 .813-.153l.319-.261a2.623 2.623 0 0 0-.852.008 1.038 1.038 0 0 1 .939-.068l.347-.209a3.153 3.153 0 0 0-.813-.07 1.246 1.246 0 0 1 .916.015l.248-.112s-.374-.074-.483-.086-.116-.042-.116-.042a1.3 1.3 0 0 1 .7.078 3.063 3.063 0 0 0 .507-.23z" class="cls-3" data-name="Path 3216" transform="translate(-11.074 -5.871)"/>
            <ellipse id="Ellipse_717" cx="2.124" cy=".359" class="cls-4" data-name="Ellipse 717" rx="2.124" ry=".359" transform="translate(93.645 77.713)"/>
            <ellipse id="Ellipse_718" cx="9.629" cy="1.503" class="cls-4" data-name="Ellipse 718" rx="9.629" ry="1.503" transform="translate(74.374 74.254)"/>
            <ellipse id="Ellipse_719" cx="10.82" cy="1.086" class="cls-4" data-name="Ellipse 719" rx="10.82" ry="1.086" transform="translate(42.713 78.999)"/>
            <ellipse id="Ellipse_720" cx="8.213" cy=".507" class="cls-4" data-name="Ellipse 720" rx="8.213" ry=".507" transform="translate(12.54 79.078)"/>
            <path id="Path_3217" d="M46.408 9.443c3.046-2.711 7.829-3.267 12.181-3.051 13.671.679 26.011 7.279 36.686 14.745 3.865 2.7 7.669 5.615 10.177 9.337 5.11 7.575 3.592 18.071-3.508 24.313a36.318 36.318 0 0 1-8.351 5.195 51.5 51.5 0 0 1-17.18 5.218 56.594 56.594 0 0 1-13.013-.51c-12.018-1.631-23.814-5.235-33.7-11.4-4.336-2.711-8.424-6.07-10.212-10.444s-.643-9.919 3.785-12.508a20.622 20.622 0 0 1 6.164-2.009 41.049 41.049 0 0 0 9.21-2.687c2.941-1.4 6.423-4.118 5.84-7.225-.619-3.334-1.121-6.262 1.921-8.974z" class="cls-4" data-name="Path 3217" transform="translate(-11.074 -5.871)"/>
            <path id="Path_3218" d="M71.651 46.729V26.817h2.711v-5.945H54.934v5.944h2.711v19.913a19.744 19.744 0 1 0 14.01 0z" class="cls-5" data-name="Path 3218" transform="translate(-11.074 -5.871)"/>
            <path id="Rectangle_447" d="M0 0h14.01v.268H0z" class="cls-6" data-name="Rectangle 447" transform="translate(46.567 20.884)"/>
            <path id="Path_3219" d="M53.6 64.658s11.889-.209 17.833-3.184 9.341-.319 9.022 1.486-2.012 5.307-8.805 5.74-18.05-4.042-18.05-4.042z" class="cls-3" data-name="Path 3219" transform="translate(-11.074 -5.871)"/>
            <path id="Path_3220" d="M53.6 64.658s11.889-.209 17.833-3.184 9.341-.319 9.022 1.486-2.012 5.307-8.805 5.74-18.05-4.042-18.05-4.042z" class="cls-6" data-name="Path 3220" transform="translate(-11.074 -5.871)"/>
            <path id="Path_3221" d="M48.513 62.75S47.242 80.369 63.9 80.687s16.56-17.728 16.56-17.728-6.153 6.686-20.7 1.167c.003.004-7.533-2.013-11.247-1.376z" class="cls-3" data-name="Path 3221" transform="translate(-11.074 -5.871)"/>
            <path id="Path_3222" d="M80.406 63.022c-.333 4.059-2.49 16.764-16.5 16.5-13.728-.263-15.283-12.267-15.406-16.489-.076 2.266-.008 17.359 15.4 17.654 16.67.313 16.563-17.73 16.563-17.73s-.021.027-.057.065z" class="cls-6" data-name="Path 3222" transform="translate(-11.074 -5.871)"/>
            <circle id="Ellipse_721" cx="2.162" cy="2.162" r="2.162" class="cls-7" data-name="Ellipse 721" transform="translate(50.767 47.114)"/>
            <circle id="Ellipse_722" cx="1.338" cy="1.338" r="1.338" class="cls-7" data-name="Ellipse 722" transform="translate(52.826 39.289)"/>
            <circle id="Ellipse_723" cx="1.338" cy="1.338" r="1.338" class="cls-7" data-name="Ellipse 723" transform="translate(49.84 31.567)"/>
            <path id="Path_3223" d="M50.788 56.815c-.115.911-.092 2.052.723 2.478-.683-.357 2.117-4.4 1.72-5.227-.85-1.766-2.339 1.902-2.443 2.749z" class="cls-8" data-name="Path 3223" transform="translate(-11.074 -5.871)"/>
            <circle id="Ellipse_724" cx="2.162" cy="2.162" r="2.162" class="cls-7" data-name="Ellipse 724" transform="translate(47.935 6.704)"/>
            <circle id="Ellipse_725" cx="1.607" cy="1.607" r="1.607" class="cls-7" data-name="Ellipse 725" transform="translate(54.975 3.552)"/>
            <circle id="Ellipse_726" cx=".835" cy=".835" r=".835" class="cls-7" data-name="Ellipse 726" transform="translate(51.115)"/>
            <path id="Path_3224" d="M40.672 33.318H23.2V38.5h2.662v40.428a6.075 6.075 0 1 0 12.149 0V38.5h2.66z" class="cls-5" data-name="Path 3224" transform="translate(-11.074 -5.871)"/>
            <path id="Path_3225" d="M29.911 47.66s4.324-1.544 5.527-.446c0 0-1.751 2.574-3.363 2.471s-2.164-2.025-2.164-2.025z" class="cls-3" data-name="Path 3225" transform="translate(-11.074 -5.871)"/>
            <path id="Path_3226" d="M29.911 47.66s4.324-1.544 5.527-.446c0 0-1.751 2.574-3.363 2.471s-2.164-2.025-2.164-2.025z" class="cls-6" data-name="Path 3226" transform="translate(-11.074 -5.871)"/>
            <path id="Path_3227" d="M35.436 47.217V76.56a3.706 3.706 0 0 1-3.706 3.706 3.706 3.706 0 0 1-3.706-3.706V47.217a4.806 4.806 0 0 1 3.465.55c1.681 1.033 3.947-.55 3.947-.55z" class="cls-3" data-name="Path 3227" transform="translate(-11.074 -5.871)"/>
            <path id="Rectangle_448" d="M0 0h12.148v.239H0z" class="cls-6" data-name="Rectangle 448" transform="translate(14.787 32.596)"/>
            <path id="Path_3228" d="M31.73 78.482a3.706 3.706 0 0 1-3.706-3.707v1.853a3.706 3.706 0 0 0 3.706 3.706 3.706 3.706 0 0 0 3.706-3.706v-1.854a3.706 3.706 0 0 1-3.706 3.707z" class="cls-6" data-name="Path 3228" transform="translate(-11.074 -5.871)"/>
            <circle id="Ellipse_727" cx=".755" cy=".755" r=".755" class="cls-7" data-name="Ellipse 727" transform="translate(19.901 36.954)"/>
            <circle id="Ellipse_728" cx=".481" cy=".481" r=".481" class="cls-7" data-name="Ellipse 728" transform="translate(22.646 34.552)"/>
            <circle id="Ellipse_729" cx=".481" cy=".481" r=".481" class="cls-7" data-name="Ellipse 729" transform="translate(19.283 33.591)"/>
            <path id="Path_3229" d="M26.8 53.212c-.115.911-.092 2.052.723 2.478-.684-.357 2.117-4.4 1.72-5.227-.851-1.763-2.337 1.903-2.443 2.749z" class="cls-8" data-name="Path 3229" transform="translate(-11.074 -5.871)"/>
            <circle id="Ellipse_730" cx="1.834" cy="1.834" r="1.834" class="cls-7" data-name="Ellipse 730" transform="translate(20.388 20.535)"/>
            <circle id="Ellipse_731" cx="1.364" cy="1.364" r="1.364" class="cls-7" data-name="Ellipse 731" transform="translate(15.355 17.86)"/>
            <circle id="Ellipse_732" cx=".709" cy=".709" r=".709" class="cls-7" data-name="Ellipse 732" transform="translate(19.941 14.846)"/>
            <path id="Path_3230" d="M104.5 52.939s-1.6-7.961-.989-8.952c0 0 .022-.921-.015-2.094v-.136a2.766 2.766 0 0 0 .336.2 2.711 2.711 0 0 0 1.832.237l-.487-.54a.9.9 0 0 1-.263-.439.956.956 0 0 1 .1-.475 3.292 3.292 0 0 0-.4-3.513c-.749-.747-.932-1.71-1.742-2.391a5.054 5.054 0 0 1-1.23-1.938 11.1 11.1 0 0 1-.673-1.835c-.117-.5-.163-1.007-.323-1.491a1.9 1.9 0 0 0-.927-1.17 3.406 3.406 0 0 1-.5-.223 2.163 2.163 0 0 1-.464-.544c-.73-.971-3.191-.4-4.355-.005a2.452 2.452 0 0 0-.86.477l.01-.018.029-.043a1.542 1.542 0 0 0-.325.363 9.211 9.211 0 0 0-.382.869c-.171.344-1.12 1.3-.712 1.692a.35.35 0 0 0 .095.063.85.85 0 0 0 .481.048c-.006.014-.013.027-.018.041a2.843 2.843 0 0 0-.209 1.075 2.91 2.91 0 0 0 2.935 2.884 2.974 2.974 0 0 0 .9-.138l.02.11a.1.1 0 0 0 .007.045l-.051.072-.008-.014-1.522 2.12c-.233.163-1.573 1.133-1.645 1.859-.079.8-.159 1.728-.159 1.728l-.01.2a.6.6 0 0 1-.484.131c-.475-.078-.475 1.748-.475 1.748s-.313.291-.533.039-.79.6-.79.6l-3.6.155h-.082l-.194-.6a.253.253 0 0 0-.313-.161.2.2 0 0 0-.044.018l-.009.007a.151.151 0 0 0-.025.018l-.014.011a.177.177 0 0 0-.02.02l-.01.014-.006.006a.245.245 0 0 0-.035.217l.167.515c-.694.14-1.4.533-.825 1.618l-2.933-.541.949.8 4.9 1.012c-.065.117-.022.285.18.521a5.01 5.01 0 0 0 3.1 1.375 5.484 5.484 0 0 0 .626 1.063l-.056 1.02s-1.619 7.779-1.916 8.174a4.613 4.613 0 0 0 .4-.542c-.47 1.6-1.127 3.787-1.3 4.114-.277.521-.534 2.641-.218 2.777a2.64 2.64 0 0 0 .769-.008v.175L90.172 72a32.24 32.24 0 0 1-.139 4.467 3.8 3.8 0 0 0-.276 1.2 11.868 11.868 0 0 1-1.564 2.256l-.016.014-.022-.152a3.306 3.306 0 0 1-2.668.991s-1.106.719.534.757 3.735-.058 3.735-.058 1.46-2.233 2.688-1.942v1.689h.375v-1.7a1.539 1.539 0 0 0 .667-1.013 1.225 1.225 0 0 0-.437-1.136.73.73 0 0 1-.24-.532l-.014.011a.773.773 0 0 0-.014-.1 9.741 9.741 0 0 1 .235-4 10.677 10.677 0 0 0 .375-5.884 13.462 13.462 0 0 1-.375-1.474l-.032-.179a7.4 7.4 0 0 1 .963.2 27.153 27.153 0 0 0 5.562.343l.018.174a6.326 6.326 0 0 0 .232 1.21 31.149 31.149 0 0 1 .375 4.194 22.177 22.177 0 0 1 .151 3.956 28.67 28.67 0 0 0-.249 1.916v.013s-.544 1.553-.939 2.4l-.03.064a1.314 1.314 0 0 0-.313.068s-.533 1.068-1.067 1.243-.356.757.85.543 3.024-.388 3.024-.388l.079-1.088.37-.463-.094 1.085.4-.077-.052-1.32.606-.758s.73-.651-.356-1.931v.027a.74.74 0 0 0-.035-.055v-.006a2.076 2.076 0 0 1-.06-1.724c.475-1.669.751-3.184.751-3.184s1.061-4.058-.215-5.979h.057a3.241 3.241 0 0 1-.275-.853c-.006-.035-.011-.072-.018-.1a7.032 7.032 0 0 0 2.624-.592c-.012-.033-.466-9.66-.843-11.194zm-11.974-6.717v.019l-.2.009zm-.664.092a.209.209 0 0 0-.088.042.867.867 0 0 0-.152.4l-.3-.069s-.209-.045-.521-.095l-.145-.145c.4-.039.813-.084 1.206-.133z" class="cls-9" data-name="Path 3230" transform="translate(-11.074 -5.871)"/>
            <path id="Path_3231" d="M90.794 73.414l-.116 1.375.387-.078-.058-1.489z" class="cls-10" data-name="Path 3231"/>
            <path id="Path_3232" d="M93.045 72.765a9.824 9.824 0 0 0-.228 3.991c.039.322.074.521.074.521s-.7 1.587-.755 1.646-2.053 1.277-2.053 1.277l-1.393.812s-1.413-.619-.73-.834a1.029 1.029 0 0 0 .365-.249 11.863 11.863 0 0 0 1.532-2.247 3.862 3.862 0 0 1 .27-1.2 32.8 32.8 0 0 0 .136-4.451l.017-6.631v-.864l2.651.02a6.084 6.084 0 0 0 .115.873 13.5 13.5 0 0 0 .369 1.468 10.861 10.861 0 0 1-.37 5.868z" class="cls-11" data-name="Path 3232" transform="translate(-11.074 -5.871)"/>
            <path id="Path_3233" d="M92.889 77.277s-.7 1.587-.755 1.646-2.051 1.277-2.051 1.277l-1.393.812s-1.413-.619-.73-.834a1.029 1.029 0 0 0 .365-.249l.06.423.465-.02 3.966-3.574c.038.319.073.519.073.519z" class="cls-6" data-name="Path 3233" transform="translate(-11.074 -5.871)"/>
            <path id="Path_3234" d="M92.841 76.848l-4 3.6-.465.019-.1-.677a3.215 3.215 0 0 1-2.613.987s-1.084.716.521.755 3.658-.058 3.658-.058 1.432-2.226 2.631-1.935v1.683h.368v-1.7a1.53 1.53 0 0 0 .659-1.012 1.234 1.234 0 0 0-.428-1.133.73.73 0 0 1-.234-.53z" class="cls-10" data-name="Path 3234" transform="translate(-11.074 -5.871)"/>
            <path id="Path_3235" d="M102.236 74.835a2.1 2.1 0 0 0 .058 1.718v.006a3.173 3.173 0 0 1 .466 1.136l.017.088-1.819 2.651-.987.387s-1.587-.541-1.3-.7a1.428 1.428 0 0 0 .313-.521c.389-.834.923-2.384.923-2.384V77.2a28 28 0 0 1 .244-1.91 22.522 22.522 0 0 0-.148-3.941 31.387 31.387 0 0 0-.368-4.18 6.466 6.466 0 0 1-.226-1.206c-.052-.487-.064-.884-.064-.884s1.043-1.452 2.961.116a2.142 2.142 0 0 1 .4.435c1.323 1.877.259 6.029.259 6.029s-.265 1.512-.729 3.176z" class="cls-11" data-name="Path 3235" transform="translate(-11.074 -5.871)"/>
            <path id="Path_3236" d="M102.778 77.777l-1.819 2.651-.987.387s-1.587-.541-1.3-.7a1.428 1.428 0 0 0 .313-.521 1.268 1.268 0 0 1 1.02.634l.851-.135a16.484 16.484 0 0 1 1.375-2.341c.251-.135.039-1.007.039-1.007v-.222l.02.024v.006a3.173 3.173 0 0 1 .469 1.139z" class="cls-6" data-name="Path 3236" transform="translate(-11.074 -5.871)"/>
            <path id="Path_3237" d="M100.068 80.292a1.183 1.183 0 0 0-1.412-.561s-.521 1.065-1.043 1.239-.348.754.834.541 2.961-.387 2.961-.387l.077-1.084 1.2-1.529s.716-.649-.348-1.925v.222s.209.871-.039 1.006a16.938 16.938 0 0 0-1.373 2.341z" class="cls-10" data-name="Path 3237" transform="translate(-11.074 -5.871)"/>
            <path id="Path_3238" d="M92.928 64.559a6.083 6.083 0 0 0 .115.873 12.2 12.2 0 0 0-2.768-.029v-.863z" class="cls-6" data-name="Path 3238" transform="translate(-11.074 -5.871)"/>
            <path id="Path_3239" d="M102.816 65.875s-1.552.075-3.4.091c-.052-.487-.064-.884-.064-.884s1.043-1.452 2.961.116a2.143 2.143 0 0 1 .4.435 2.544 2.544 0 0 0 .103.242z" class="cls-6" data-name="Path 3239" transform="translate(-11.074 -5.871)"/>
            <path id="Path_3240" d="M102.816 65.7s-6.792.329-8.864-.251-4.121-.078-4.431-.214-.057-2.244.209-2.767 1.761-5.806 1.761-5.806l1.432-7.47 1.51-.417.1-.029 2.629-.73 1.928-.532s3.832 14.959 3.5 16.06a2.816 2.816 0 0 0-.055 1.3 3.253 3.253 0 0 0 .275.857z" class="cls-10" data-name="Path 3240" transform="translate(-11.074 -5.871)"/>
            <path id="Path_3241" d="M87.935 44.085s-1.356 1.452-.33 2.264a1.2 1.2 0 0 0 1.7.078z" class="cls-12" data-name="Path 3241" transform="translate(-11.074 -5.871)"/>
            <path id="Path_3242" d="M87.935 44.085s-1.356 1.452-.33 2.264a1.2 1.2 0 0 0 1.7.078z" class="cls-6" data-name="Path 3242" transform="translate(-11.074 -5.871)"/>
            <path id="Path_3243" d="M98.9 34.526l-.4.374c-.341.318-.846.784-1.294 1.175-.626.54-1.132.939-.949.6a2.623 2.623 0 0 0 .057-1.479l-.019-.11a10.148 10.148 0 0 0-.3-1.2 20.694 20.694 0 0 1 1.557-1.806c.209-.191.351-.272.359-.139a4.774 4.774 0 0 0 .313 1.007l.017.039c.113.289.239.59.35.848.17.395.309.691.309.691z" class="cls-11" data-name="Path 3243" transform="translate(-11.074 -5.871)"/>
            <path id="Path_3244" d="M98.239 32.987a2.878 2.878 0 0 1-1.927 2.207 9.951 9.951 0 0 0-.319-1.308s1.887-2.438 1.916-1.945a5.429 5.429 0 0 0 .33 1.046z" class="cls-6" data-name="Path 3244" transform="translate(-11.074 -5.871)"/>
            <path id="Path_3245" d="M96.126 35.846l.244-.343s.162.987.757.552.626 3.275.626 3.275l-.64 9.551L92.5 48.6l.13-4.615.521-2.322 1.292-3.382.774-1.117z" class="cls-6" data-name="Path 3245" transform="translate(-11.074 -5.871)"/>
            <path id="Path_3246" d="M97.751 39.387l-.578 8.635-.06.915-2.574-.153-.1-.006-1.941-.116.13-4.616.521-2.321 1.292-3.382.777-1.118.915-1.32.244-.344s.162.988.757.552l.011-.008c.578-.375.606 3.282.606 3.282z" class="cls-10" data-name="Path 3246" transform="translate(-11.074 -5.871)"/>
            <path id="Path_3247" d="M93.218 40.911a.708.708 0 0 1-.7.407c-.465-.077-.464 1.742-.464 1.742s-.313.29-.521.039-.774.6-.774.6l-3.522.155a2.616 2.616 0 0 1 1.263 2.883s5.319-.33 5.5-.834-.782-4.992-.782-4.992z" class="cls-1" data-name="Path 3247" transform="translate(-11.074 -5.871)"/>
            <path id="Path_3248" d="M93.218 40.911a.708.708 0 0 1-.7.407c-.465-.077-.464 1.742-.464 1.742s-.313.29-.521.039-.774.6-.774.6l-3.522.155a2.616 2.616 0 0 1 1.263 2.883s5.319-.33 5.5-.834-.782-4.992-.782-4.992z" class="cls-13" data-name="Path 3248" transform="translate(-11.074 -5.871)"/>
            <path id="Path_3249" d="M71.906 39.123l.929.794 7.644 1.606-.949-.967z" class="cls-1" data-name="Path 3249"/>
            <path id="Path_3250" d="M96.14 36.15a19.65 19.65 0 0 0-.794 2.053c-.252.722-.464 1.356-.464 1.356a36.407 36.407 0 0 1-.745 3.793 11.651 11.651 0 0 0-.116 2.847l-.939 5.593A27.883 27.883 0 0 1 92 56.4a8.313 8.313 0 0 1-1.394 2.51c.291-.393 1.877-8.146 1.877-8.146L93 40.988s.077-.928.155-1.722 1.645-1.877 1.645-1.877l1.514-2.154c.161.212.058.565-.174.915z" class="cls-1" data-name="Path 3250" transform="translate(-11.074 -5.871)"/>
            <path id="Path_3251" d="M92.19 48.71a5.173 5.173 0 0 1-3.309-1.393c-1.084-1.3 2.5-.521 2.5-.521l.928.209z" class="cls-11" data-name="Path 3251" transform="translate(-11.074 -5.871)"/>
            <path id="Path_3252" d="M102.6 63.553a2.816 2.816 0 0 0-.055 1.3 18.428 18.428 0 0 1-5.034-.486 11.325 11.325 0 0 1-1.761 1.1l-.7-8.632c-.444-1.162-.618-7.257-.618-7.257l.1-.8a.084.084 0 0 1 .005-.035 38.16 38.16 0 0 1 .686-4.18c.233-.464-.715-1.7-.715-1.7l.431-3.679.061-.441a4.442 4.442 0 0 0 1.607-1.7l.534-.939c.583-.373.611 3.284.611 3.284l-.578 8.635 1.928-.532s3.83 14.959 3.498 16.062z" class="cls-6" data-name="Path 3252" transform="translate(-11.074 -5.871)"/>
            <path id="Path_3253" d="M105.1 64.153c-2.651 1.316-7.47.1-7.47.1a11.325 11.325 0 0 1-1.761 1.1l-.7-8.632c-.444-1.161-.618-7.256-.618-7.256s.561-4.548.793-5.012a.745.745 0 0 0-.044-.553 7.016 7.016 0 0 1-.424-3.248l.186-1.58.052-.443a4.445 4.445 0 0 0 1.606-1.7l.485-.849.893-1.564.422-.74.071.065.549.5s.233.192.581.487c.759.639 2.071 1.766 2.747 2.454.6.608.783 2.968.834 4.745.036 1.169.015 2.086.015 2.086-.6.987.967 8.922.967 8.922.371 1.519.816 11.118.816 11.118z" class="cls-1" data-name="Path 3253" transform="translate(-11.074 -5.871)"/>
            <path id="Path_3254" d="M100.012 36.905s-1.82 3.464-1.606 4.78.812 2.806.521 3.155a1.07 1.07 0 0 1-.852.425 2.8 2.8 0 0 0-1.065.619 10.18 10.18 0 0 0-1.356.33 8.463 8.463 0 0 1-1.587.425 8.26 8.26 0 0 0-2.013.116 2.576 2.576 0 0 0 .02 2.051 3.211 3.211 0 0 0 1.084 1.564c.31.113 2.264-.541 3.85-.7a8.269 8.269 0 0 0 3.316-1.409s1.9-.678 2.226-1.82-.407-7.412-.407-7.412-.567-2.917-2.131-2.124z" class="cls-13" data-name="Path 3254" transform="translate(-11.074 -5.871)"/>
            <path id="Path_3255" d="M99.778 36.615s-1.819 3.463-1.606 4.78.812 2.806.521 3.155a1.07 1.07 0 0 1-.852.425 2.8 2.8 0 0 0-1.064.619 10.049 10.049 0 0 0-1.356.329 8.442 8.442 0 0 1-1.587.425 8.266 8.266 0 0 0-2.013.117 2.576 2.576 0 0 0 .02 2.051 3.211 3.211 0 0 0 1.084 1.564c.31.113 2.264-.542 3.851-.7a8.194 8.194 0 0 0 3.311-1.412s1.9-.677 2.226-1.819-.407-7.412-.407-7.412-.56-2.915-2.128-2.122z" class="cls-13" data-name="Path 3255" transform="translate(-11.074 -5.871)"/>
            <path id="Path_3256" d="M99.953 36.731s-1.818 3.464-1.609 4.775.812 2.806.521 3.155a1.067 1.067 0 0 1-.852.425 2.8 2.8 0 0 0-1.064.619 10.14 10.14 0 0 0-1.356.33 8.442 8.442 0 0 1-1.587.425 8.26 8.26 0 0 0-2.013.116 2.576 2.576 0 0 0 .02 2.051 3.211 3.211 0 0 0 1.087 1.566c.31.113 2.264-.541 3.851-.7a8.194 8.194 0 0 0 3.309-1.412s1.9-.678 2.226-1.82-.407-7.412-.407-7.412-.559-2.911-2.126-2.118z" class="cls-1" data-name="Path 3256" transform="translate(-11.074 -5.871)"/>
            <path id="Path_3257" d="M99.914 46.02s-1.452-.29-.948.194.5.909 1.122.89-.174-1.084-.174-1.084z" class="cls-6" data-name="Path 3257" transform="translate(-11.074 -5.871)"/>
            <path id="Path_3258" d="M102.372 56.451s-.658.445.6 1.47-.6-1.47-.6-1.47z" class="cls-6" data-name="Path 3258" transform="translate(-11.074 -5.871)"/>
            <path id="Path_3259" d="M101.113 60.108c0 .058-.232 2.129.639 2.651s-.639-2.651-.639-2.651z" class="cls-6" data-name="Path 3259" transform="translate(-11.074 -5.871)"/>
            <path id="Path_3260" d="M87.3 43.851c-.7.024-2.218.239-1.432 1.705.7 1.3 1.864.431 2.518-.228a2.475 2.475 0 0 0-1.086-1.477z" class="cls-11" data-name="Path 3260" transform="translate(-11.074 -5.871)"/>
            <path id="Path_3262" d="M88.393 45.316l.029-.029c-.009.013-.022.02-.029.029z" class="cls-11" data-name="Path 3262" transform="translate(-11.074 -5.871)"/>
            <path id="Path_3263" d="M99.721 34.876c-.745.509-1.369.939-1.49 1.028a14.278 14.278 0 0 0-1.38 2.438c-.327.6-1.388.75-1.789.787l.048-.439a4.438 4.438 0 0 0 1.606-1.7l1.8-3.154.619.561s.238.185.586.479z" class="cls-6" data-name="Path 3263" transform="translate(-11.074 -5.871)"/>
            <path id="Path_3264" d="M99.721 34.819c-.745.508-1.369.939-1.49 1.027a14.32 14.32 0 0 0-1.38 2.438c-.327.6-1.388.75-1.789.787l.052-.443a4.445 4.445 0 0 0 1.606-1.7l1.8-3.154.619.561s.234.184.582.484z" class="cls-14" data-name="Path 3264" transform="translate(-11.074 -5.871)"/>
            <path id="Path_3265" d="M98.288 32.348a2.782 2.782 0 0 1-.064.6 2.834 2.834 0 0 1-.442 1.028 2.874 2.874 0 1 1 .506-1.629z" class="cls-11" data-name="Path 3265" transform="translate(-11.074 -5.871)"/>
            <path id="Path_3266" d="M103.305 42.018a2.553 2.553 0 0 1-.927-1 2.62 2.62 0 0 0-.546-.917 2.448 2.448 0 0 0-.892-.343 2.612 2.612 0 0 1-1.906-2.294 13.315 13.315 0 0 0 .07-1.493 1.647 1.647 0 0 0-.324-.771 2.386 2.386 0 0 0-.279-.3c-.136-.128-.278-.252-.4-.389a1.515 1.515 0 0 1-.209-.276 1.366 1.366 0 0 1-.112-.258c-.19-.592-.018-1.3-.23-1.9a.1.1 0 0 0-.011-.032.62.62 0 0 0-.471-.443c-.226-.017-.423.172-.64.258a1.428 1.428 0 0 1-1.324-.431 1.809 1.809 0 0 0-1.289-.588 4.11 4.11 0 0 0-.864.375 1.4 1.4 0 0 1-.209.058 2.874 2.874 0 0 1 5.541 1.071 2.782 2.782 0 0 1-.064.6l.017.039c.113.289.239.59.35.848l.549.5s.233.192.581.487c.759.639 2.071 1.766 2.747 2.454.6.607.788 2.967.842 4.745z" class="cls-6" data-name="Path 3266" transform="translate(-11.074 -5.871)"/>
            <path id="Path_3267" d="M92.92 29.45c.139-.283.209-.6.373-.866a2.047 2.047 0 0 1 1.1-.786c1.139-.392 3.546-.963 4.264 0a2.172 2.172 0 0 0 .455.544 3.5 3.5 0 0 0 .493.221 1.886 1.886 0 0 1 .908 1.166c.156.482.2.993.313 1.487a10.965 10.965 0 0 0 .659 1.828 5.094 5.094 0 0 0 1.2 1.931c.794.679.972 1.639 1.705 2.383a3.327 3.327 0 0 1 .4 3.5.965.965 0 0 0-.1.473.905.905 0 0 0 .258.438l.477.538a2.681 2.681 0 0 1-2.929-1.356 2.624 2.624 0 0 0-.548-.916 2.442 2.442 0 0 0-.892-.344 2.612 2.612 0 0 1-1.908-2.291 13.556 13.556 0 0 0 .071-1.493 1.661 1.661 0 0 0-.323-.761c-.268-.348-.67-.585-.886-.967-.367-.648-.089-1.49-.354-2.19a.626.626 0 0 0-.471-.443c-.227-.017-.423.173-.64.258a1.426 1.426 0 0 1-1.323-.431 1.81 1.81 0 0 0-1.289-.587 4.114 4.114 0 0 0-.865.374c-.217.083-.657.159-.848-.025-.4-.385.529-1.342.7-1.685z" class="cls-15" data-name="Path 3267" transform="translate(-11.074 -5.871)"/>
            <path id="Path_3268" d="M102.765 40.634a2.62 2.62 0 0 0-.546-.917 2.429 2.429 0 0 0-.892-.343 2.612 2.612 0 0 1-1.906-2.294 13.564 13.564 0 0 0 .07-1.493 1.647 1.647 0 0 0-.324-.771c-.267-.348-.67-.586-.885-.968-.368-.648-.089-1.49-.354-2.19a.626.626 0 0 0-.471-.443c-.227-.017-.423.172-.64.257a1.422 1.422 0 0 1-1.323-.43 1.814 1.814 0 0 0-1.29-.588 4.2 4.2 0 0 0-.864.375c-.217.083-.657.159-.848-.025-.4-.386.53-1.343.7-1.685.139-.283.209-.6.373-.866l.028-.044a1.534 1.534 0 0 0-.313.363 8.982 8.982 0 0 0-.373.866c-.168.343-1.1 1.3-.7 1.685.19.184.626.1.848.025a4.141 4.141 0 0 1 .864-.375 1.815 1.815 0 0 1 1.289.588 1.427 1.427 0 0 0 1.323.431c.218-.084.408-.275.64-.258a.613.613 0 0 1 .472.443c.265.7-.015 1.538.352 2.19.217.381.619.618.886.967a1.647 1.647 0 0 1 .324.771 13.564 13.564 0 0 1-.07 1.493 2.614 2.614 0 0 0 1.906 2.294 2.413 2.413 0 0 1 .892.344 2.622 2.622 0 0 1 .546.916 2.681 2.681 0 0 0 2.929 1.356l-.224-.254a2.707 2.707 0 0 1-2.419-1.42z" class="cls-6" data-name="Path 3268" transform="translate(-11.074 -5.871)"/>
            <path id="Path_3269" d="M96.082 36.209a19.221 19.221 0 0 0-.794 2.052c-.284-.11-.542-.814-.542-.814l1.511-2.154c.159.213.057.567-.175.916z" class="cls-6" data-name="Path 3269" transform="translate(-11.074 -5.871)"/>
            <path id="Path_3270" d="M96.14 36.15a19.65 19.65 0 0 0-.794 2.053c-.284-.11-.541-.814-.541-.814l1.514-2.154c.156.212.053.565-.179.915z" class="cls-14" data-name="Path 3270" transform="translate(-11.074 -5.871)"/>
            <path id="Path_3271" d="M87.337 46.053L86.5 43.41a.248.248 0 0 1 .161-.313.246.246 0 0 1 .313.161l.84 2.646-.083.554z" class="cls-16" data-name="Path 3271" transform="translate(-11.074 -5.871)"/>
            <path id="Path_3272" d="M86.577 43.175a.248.248 0 0 1 .313.162l.84 2.644-.064.417.062.064.083-.554-.84-2.644a.246.246 0 0 0-.313-.161.242.242 0 0 0-.128.095.238.238 0 0 1 .047-.023z" class="cls-17" data-name="Path 3272" transform="translate(-11.074 -5.871)"/>
            <path id="Path_3273" d="M76.263 40.182l.471-.15-.069.455-.015.1-.138-.144z" class="cls-18" data-name="Path 3273"/>
            <path id="Path_3274" d="M87.587 46.313a.118.118 0 0 1 .03-.025.043.043 0 0 1 .045 0 .1.1 0 0 1 .017.026.082.082 0 0 0 .06.041l-.015.1z" class="cls-19" data-name="Path 3274" transform="translate(-11.074 -5.871)"/>
            <path id="Path_3275" d="M86.493 44.346s1.684-.009 1.287.706a1.521 1.521 0 0 1-1.016.8z" class="cls-11" data-name="Path 3275" transform="translate(-11.074 -5.871)"/>
        </g>
    </g>
</svg>
