<svg xmlns="http://www.w3.org/2000/svg" id="google" width="14.708" height="14.708" viewBox="0 0 14.708 14.708">
    <defs>
        <style>
            .cls-1{fill:#fbbb00}.cls-2{fill:#518ef8}.cls-3{fill:#28b446}.cls-4{fill:#f14336}
        </style>
    </defs>
    <path id="Path_3415" d="M3.26 143.184l-.512 1.916-1.871.04a7.367 7.367 0 0 1-.054-6.867l1.666.305.73 1.656a4.389 4.389 0 0 0 .041 2.955z" class="cls-1" data-name="Path 3415" transform="translate(0 -134.296)"/>
    <path id="Path_3416" d="M268.692 208.176a7.351 7.351 0 0 1-2.622 7.109l-2.1-.107-.3-1.854a4.383 4.383 0 0 0 1.886-2.238h-3.932v-2.909h7.064z" class="cls-2" data-name="Path 3416" transform="translate(-254.112 -202.196)"/>
    <path id="Path_3417" d="M41.59 313.609a7.357 7.357 0 0 1-11.082-2.25l2.383-1.951a4.374 4.374 0 0 0 6.3 2.239z" class="cls-3" data-name="Path 3417" transform="translate(-29.633 -300.521)"/>
    <path id="Path_3418" d="M39.85 1.693l-2.382 1.95a4.373 4.373 0 0 0-6.447 2.29l-2.4-1.961A7.356 7.356 0 0 1 39.85 1.693z" class="cls-4" data-name="Path 3418" transform="translate(-27.802)"/>
</svg>
