<svg xmlns="http://www.w3.org/2000/svg" width="227.336" height="222.412" viewBox="0 0 227.336 222.412">
    <defs>
        <style>
            .cls-1{fill:#ddcaca;opacity:.33}.cls-2{fill:#b3adec}.cls-3{fill:#78ba9a}.cls-4{fill:#ffa938}.cls-5{fill:#e1806d}.cls-20,.cls-6{fill:#6756ad}.cls-7{fill:#efebeb}.cls-16,.cls-8,.cls-9{fill:#37366a}.cls-9{font-size:2px}.cls-14,.cls-16,.cls-9{font-family:Montserrat-Regular,Montserrat}.cls-10{letter-spacing:-.01em}.cls-11{letter-spacing:-.03em}.cls-12{letter-spacing:-.02em}.cls-13{fill:#a43f60}.cls-14{fill:#f3f4e9}.cls-14,.cls-16{font-size:1px}.cls-15{opacity:.57}.cls-17{fill:none;stroke:#37366a;stroke-miterlimit:10;stroke-width:.5px}.cls-18{opacity:.52}.cls-19{letter-spacing:.03em}.cls-20{opacity:.25}.cls-21{fill:#f5ba9a}.cls-22{fill:#594656}.cls-23{fill:#b96944}.cls-24{fill:#53648c}.cls-25{fill:#5d95ba}.cls-26{fill:#8fcaec}.cls-27{fill:#f49e78}.cls-28{fill:#514540}.cls-29{opacity:.28}.cls-30{fill:#f28279}
        </style>
    </defs>
    <g id="Group_1315" data-name="Group 1315" transform="translate(-76.664 -192.448)">
        <g id="Group_1237" data-name="Group 1237" transform="translate(76.664 192.448)">
            <g id="Group_1235" data-name="Group 1235">
                <path id="Path_1808" d="M60.45 134.947l62.728-.2-16-3.286s.653-17.959-7.185-14.364a13.97 13.97 0 0 0-8.164 11.427s-2.937-7.19-7.185-4.552a17.554 17.554 0 0 0-6.189 7.179s-1.525-5.165-4.248-5.458c-2.324-.253-6.752 4.664-9.07 7.427z" class="cls-1" data-name="Path 1808" transform="translate(-57.384 -65.727)"/>
                <path id="Path_1809" d="M367.06 190.419l51.762-.146-13.2-2.425s.563-13.346-5.924-10.69a10.306 10.306 0 0 0-6.752 8.49s-2.425-5.339-5.93-3.376a13.368 13.368 0 0 0-5.114 5.339s-1.26-3.843-3.505-4.062c-1.919-.186-5.57 3.471-7.483 5.525z" class="cls-1" data-name="Path 1809" transform="translate(-191.486 -92.05)"/>
                <path id="Path_1810" d="M217.45 57.442l51.762-.163-13.194-2.689s.563-14.82-5.93-11.855a11.534 11.534 0 0 0-6.752 9.43s-2.425-5.93-5.924-3.775a14.477 14.477 0 0 0-5.12 5.93s-1.255-4.265-3.5-4.5c-1.919-.208-5.57 3.848-7.483 6.127z" class="cls-1" data-name="Path 1810" transform="translate(-126.051 -33.239)"/>
                <path id="Path_1811" d="M344.459 41.408l-3.938 1.367-1.688-4.917a17.4 17.4 0 0 0-32.869 11.41l1.688 4.917-3.938 1.373a5.947 5.947 0 0 0-3.663 7.534l11.084 31.985a5.964 5.964 0 0 0 7.556 3.708l40.751-14.15a5.969 5.969 0 0 0 3.685-7.607l-11.078-31.985a5.958 5.958 0 0 0-7.59-3.635zm-31.074 5.283a9.53 9.53 0 1 1 18.006-6.251l1.686 4.912-18 6.256zm23.63 29.155l2.813 8.175a.653.653 0 0 1-.439.821l-3.937 1.358a.636.636 0 0 1-.8-.388l-2.813-8.169a7.6 7.6 0 1 1 5.148-1.789z" class="cls-2" data-name="Path 1811" transform="translate(-162.038 -26.162)"/>
                <path id="Path_1812" d="M323.759 318.643c-.968-1.885 1.3-3.9 3.376-4.282s4.45-.084 6.116-1.4c2.217-1.761 2.1-5.593 4.563-7 1.975-1.125 4.591-.051 6.678-.94 2.6-1.125 3.331-4.726 5.879-5.941a4.557 4.557 0 0 1 5.729 2.12 5.907 5.907 0 0 1-.878 6.313c-1.125 1.356-2.813 2.307-3.488 3.938-1.1 2.532.63 5.6-.377 8.164-1.857 4.737-10.645 3.314-12.17 8.169a15.323 15.323 0 0 0-.287 3.376c-.259 3.376-2.633 6.3-5.559 7.972a22.737 22.737 0 0 1-9.711 2.492 7.669 7.669 0 0 1-4.051-.506 6.594 6.594 0 0 1-2.579-2.811c-4.04-7.314-5.705-16.879 6.752-19.63" class="cls-3" data-name="Path 1812" transform="translate(-168.293 -145.37)"/>
                <path id="Path_1813" d="M192.715 296.87c2.177-1.435.968-4.962-1.041-6.622s-4.709-2.774-5.7-5.182c-1.311-3.218 1.125-7.252-.67-10.234-1.429-2.391-4.872-2.813-6.577-5.03-2.11-2.746-.715-7.061-2.706-9.9a5.6 5.6 0 0 0-7.4-1.176 7.171 7.171 0 0 0-2.864 7.28c.388 2.127 1.6 4.147 1.367 6.3-.349 3.376-4.045 5.626-4.5 8.957-.866 6.189 9.39 9.953 8.1 16.069a17.75 17.75 0 0 1-1.727 3.787c-1.744 3.753-.979 8.321 1.125 11.871s5.446 6.268 8.9 8.518a9.374 9.374 0 0 0 4.636 1.9 8.129 8.129 0 0 0 4.467-1.474c8.732-5.407 16.266-14.628 4.6-25.06" class="cls-4" data-name="Path 1813" transform="translate(-102.047 -127.491)"/>
                <path id="Path_1814" d="M316.818 299.7a26.546 26.546 0 0 0 8.04-6.071c6.121-6.318 9.914-14.561 11.905-23.068a84.874 84.874 0 0 0 1.834-23.49c-.034-.664-1.075-.67-1.041 0 .844 17.667-2.661 39.339-18.466 50.074a17.325 17.325 0 0 1-2.813 1.626c-.613.264-.084 1.159.523.895z" class="cls-5" data-name="Path 1814" transform="translate(-169.156 -122.562)"/>
                <path id="Path_1815" d="M353.16 278.848s1-5.722 8.58-6.628c0-.02-2.768 6.746-8.58 6.628z" class="cls-5" data-name="Path 1815" transform="translate(-185.406 -133.78)"/>
                <path id="Path_1816" d="M348.74 295.467s2.307-5.334 9.891-4.445c0-.005-4.27 5.936-9.891 4.445z" class="cls-5" data-name="Path 1816" transform="translate(-183.473 -141.96)"/>
                <path id="Path_1817" d="M343 310s3.443-4.681 10.634-2.115c.011-.002-5.48 4.831-10.634 2.115z" class="cls-5" data-name="Path 1817" transform="translate(-180.963 -149.042)"/>
                <path id="Path_1818" d="M355.23 263.1s.979-5.626 8.439-6.515c-.005-.005-2.723 6.657-8.439 6.515z" class="cls-5" data-name="Path 1818" transform="translate(-186.312 -126.94)"/>
                <path id="Path_1819" d="M353.67 242.546s-4.248-3.82-1.041-10.606c0 0 4.186 5.834 1.041 10.606z" class="cls-5" data-name="Path 1819" transform="translate(-184.65 -116.163)"/>
                <path id="Path_1820" d="M350.447 254.491s-5.626-1.041-6.436-8.5c-.011.009 6.632 2.784 6.436 8.5z" class="cls-5" data-name="Path 1820" transform="translate(-181.404 -122.308)"/>
                <path id="Path_1821" d="M349.456 269.726s-5.626-1.041-6.437-8.5c-.01.004 6.629 2.783 6.437 8.5z" class="cls-5" data-name="Path 1821" transform="translate(-180.971 -128.973)"/>
                <path id="Path_1822" d="M347.333 283.653s-5.525-1.429-5.823-8.923c0 0 6.42 3.235 5.823 8.923z" class="cls-5" data-name="Path 1822" transform="translate(-180.311 -134.878)"/>
                <path id="Path_1823" d="M342.818 297.912S337.287 296.489 337 289c0 0 6.408 3.224 5.818 8.912z" class="cls-5" data-name="Path 1823" transform="translate(-178.338 -141.119)"/>
                <rect id="Rectangle_329" width="80.692" height="158.223" class="cls-6" data-name="Rectangle 329" rx="10" transform="translate(79.832 39.046)"/>
                <rect id="Rectangle_330" width="73.243" height="147.977" class="cls-7" data-name="Rectangle 330" rx="6" transform="translate(83.556 43.699)"/>
                <path id="Path_1824" d="M268.617 102.776h-4.765a2.644 2.644 0 0 0-2.644 2.644v1.89a2.65 2.65 0 0 1-2.65 2.65h-21.241a2.644 2.644 0 0 1-2.644-2.65v-1.89a2.65 2.65 0 0 0-2.65-2.644h-13.5v-1.356h50.119z" class="cls-6" data-name="Path 1824" transform="translate(-126.519 -59.077)"/>
                <path id="Path_1825" d="M270.667 142.918a.985.985 0 1 0-.923 0 1.542 1.542 0 0 0-1.075 1.468v.776h3.072v-.76a1.542 1.542 0 0 0-1.074-1.484z" class="cls-8" data-name="Path 1825" transform="translate(-148.453 -76.416)"/>
                <text id="Create_Account" class="cls-9" data-name="Create Account" transform="translate(108.627 72.823)">
                    <tspan x="0" y="0">Crea</tspan><tspan y="0" class="cls-10">t</tspan><tspan y="0">e </tspan><tspan y="0" class="cls-11">A</tspan><tspan y="0" class="cls-12">cc</tspan><tspan y="0">ount</tspan>
                </text>
                <rect id="Rectangle_331" width="30.478" height="6.842" class="cls-13" data-name="Rectangle 331" rx=".98" transform="translate(104.559 163.134)"/>
                <text id="Register" class="cls-14" transform="translate(114.54 166.047)">
                    <tspan x="0" y="0">Regis</tspan><tspan y="0" class="cls-10">t</tspan><tspan y="0">er</tspan>
                </text>
                <g id="Group_1229" class="cls-15" data-name="Group 1229" transform="translate(93.88 81.147)">
                    <text id="Email_Address" class="cls-16" data-name="Email Address" transform="translate(0 1)">
                        <tspan x="0" y="0">Email </tspan><tspan y="0" class="cls-11">A</tspan><tspan y="0">ddress</tspan>
                    </text>
                </g>
                <rect id="Rectangle_332" width="55.745" height="8.4" class="cls-17" data-name="Rectangle 332" rx="2.76" transform="translate(93.88 85.901)"/>
                <g id="Group_1230" class="cls-18" data-name="Group 1230" transform="translate(93.88 99.843)">
                    <text id="Country" class="cls-16" transform="translate(0 1)">
                        <tspan x="0" y="0" class="cls-12">C</tspan><tspan y="0">ount</tspan><tspan y="0" class="cls-19">r</tspan><tspan y="0">y</tspan>
                    </text>
                </g>
                <rect id="Rectangle_333" width="55.745" height="8.4" class="cls-17" data-name="Rectangle 333" rx="2.76" transform="translate(93.88 104.676)"/>
                <g id="Group_1231" class="cls-18" data-name="Group 1231" transform="translate(93.88 119.586)">
                    <text id="City" class="cls-16" transform="translate(0 1)">
                        <tspan x="0" y="0">City</tspan>
                    </text>
                </g>
                <rect id="Rectangle_334" width="55.745" height="8.4" class="cls-17" data-name="Rectangle 334" rx="2.76" transform="translate(93.88 124.413)"/>
                <g id="Group_1232" class="cls-18" data-name="Group 1232" transform="translate(93.88 139.424)">
                    <text id="Password" class="cls-16" transform="translate(0 1)">
                        <tspan x="0" y="0">Pas</tspan><tspan y="0" class="cls-10">s</tspan><tspan y="0" class="cls-12">w</tspan><tspan y="0">ord</tspan>
                    </text>
                </g>
                <rect id="Rectangle_335" width="55.745" height="8.4" class="cls-17" data-name="Rectangle 335" rx="2.76" transform="translate(93.88 144.252)"/>
                <path id="Path_1826" d="M262.478 418.441c0-.653-16.052-1.182-35.856-1.182s-35.862.529-35.862 1.182 16.057 1.187 35.862 1.187 35.856-.528 35.856-1.187z" class="cls-20" data-name="Path 1826" transform="translate(-114.377 -197.216)"/>
                <path id="Path_1827" d="M261.23 282.724s3.561 5.5 4.372 3.123L266.9 282s-1.013-1.66-1.547-1.125-1.288-.433-1.288-.433z" class="cls-21" data-name="Path 1827" transform="translate(-145.199 -137.375)"/>
                <path id="Path_1828" d="M283.083 218.555l1.474-8.546c.968-.315 1.964-1.063 1.62-2.217a1.688 1.688 0 0 0-1.125-1.08c-.2-.079-1.232-.377-1.3 0l.563-3.083-10.026-4.839s-.917 6.138-.923 6.189a3.033 3.033 0 0 0-1.125-.3 1.688 1.688 0 0 0-1.193.962 1.986 1.986 0 0 0 1.744 2.656 11.29 11.29 0 0 0 .81 3.73c.636.979 3.59 1.654 3.59 1.654l-.326 3.719z" class="cls-21" data-name="Path 1828" transform="translate(-149.442 -101.664)"/>
                <path id="Path_1829" d="M286.8 233.311c-4.529-1.272-10.893-2.391-10.893-2.391l-4.225 30.067 17.79-.563z" class="cls-4" data-name="Path 1829" transform="translate(-149.769 -115.717)"/>
                <path id="Path_1830" d="M298.55 223.96a118.1 118.1 0 0 0 17.841 3.376c-1.35-6.189-2.093-10.87-3.865-16.108l6.678-1.688s5.626 19.518 3.9 22.117c-2.892 4.434-17.307 1.513-17.307 1.513l-6.813-1.215z" class="cls-4" data-name="Path 1830" transform="translate(-161.521 -106.366)"/>
                <path id="Path_1831" d="M241.285 239.925s19.1-9.34 19.968-9 1.626 4.67 1.626 4.67a167.729 167.729 0 0 1-17.622 9.379l9.733 13.25-4.85 3.477s-13.368-15.022-12.862-18.128c.401-2.382 4.007-3.648 4.007-3.648z" class="cls-4" data-name="Path 1831" transform="translate(-134.717 -115.714)"/>
                <path id="Path_1832" d="M326.067 199.039s-.788-5.519-.883-5.677-.1-1.125-1.513-.9c0 0-.1-1.75-.911-1.784a7.557 7.557 0 0 0-1.733.191s-.923-4.5-1.525-5.266-1.564 1.39-.146 6.858c0 0 .782 3.719.563 3.854-.636.371-1.508.3-2.717-1.761-1.283-2.189-2.881-1.446-2.093.253s1.907 3.9 2.633 4.5a3.977 3.977 0 0 0 2.25.506l.225.709z" class="cls-21" data-name="Path 1832" transform="translate(-168.672 -95.831)"/>
                <path id="Path_1833" d="M263.464 282c-2.144 32.537-9.418 72.692-9.418 72.692l7.123 3.044h-15.191l10-71.038h-3.41l-25.2 71.038H212.22l8.62-3.145L246 280.22z" class="cls-22" data-name="Path 1833" transform="translate(-123.763 -137.279)"/>
                <path id="Path_1834" d="M286.182 205.3c.85-1.688 1.84-5.812-.731-6.954a27.011 27.011 0 0 1-3.747-2.132 6.51 6.51 0 0 0-5.339-.962 4.622 4.622 0 0 0-.844.315c-1.795.878-3.01 5.654-3.01 5.654l1.767.444s1.969 8.755 5.21 10.555l3.235.686 1.919.433z" class="cls-23" data-name="Path 1834" transform="translate(-150.132 -100.026)"/>
                <path id="Path_1835" d="M292.333 198.485a11.256 11.256 0 0 0-.062-1.57c0-.214-.354-.214-.332 0a13.313 13.313 0 0 1 .062 1.57.169.169 0 0 0 .332 0z" class="cls-23" data-name="Path 1835" transform="translate(-158.63 -100.774)"/>
                <path id="Path_1836" d="M292.449 198.708a1.424 1.424 0 0 0 .416-.619 6.4 6.4 0 0 1 .529-.8c.129-.169-.158-.338-.287-.169a5.91 5.91 0 0 0-.428.63c-.113.18-.214.563-.4.67s0 .405.169.293z" class="cls-23" data-name="Path 1836" transform="translate(-158.745 -100.901)"/>
                <path id="Path_1837" d="M126.707 403.077c0-.653-16.057-1.187-35.862-1.187S55 402.436 55 403.077s16.057 1.187 35.862 1.187 35.845-.517 35.845-1.187z" class="cls-20" data-name="Path 1837" transform="translate(-55 -190.494)"/>
                <path id="Path_1838" d="M131.037 182.514a16.812 16.812 0 0 0-2.16-.253 4.825 4.825 0 0 0-3.426 1.558 11.213 11.213 0 0 0-2.3 3.083 4.97 4.97 0 0 0-.861 3.742 3.269 3.269 0 0 1 .248.968c0 1.041-1.452 1.435-1.9 2.38-.563 1.159.563 2.729-.186 3.764-.388.512-1.125.675-1.491 1.21a2.391 2.391 0 0 0-.248 1.463.405.405 0 0 0 .09.293.445.445 0 0 0 .242.079c4.107.394 8.175-.5 12.282-.1a5.2 5.2 0 0 0 3.516-.641c3.55-1.615 7.1-2.037 10.572-3.82a.8.8 0 0 0 .371-.3.7.7 0 0 0 .045-.371 2.436 2.436 0 0 0-1.648-2.02c-.9-.281-1.986-.034-2.74-.608a2.543 2.543 0 0 1-.816-1.817c-.146-1.378 0-2.976-.985-3.938-.788-.754-2.042-.833-2.813-1.587a10.292 10.292 0 0 1-1.046-1.525 3.891 3.891 0 0 0-4.726-1.547" class="cls-22" data-name="Path 1838" transform="translate(-82.853 -94.419)"/>
                <path id="Path_1839" d="M103.641 266.243L80.742 338.7l-9 3.471h13.366l25.847-68.264a1.125 1.125 0 0 1 1.058-.726 1.125 1.125 0 0 1 1.125 1.249l-6.819 67.741h13.537l-9.036-2.988s8.439-39.384 10.3-51.717-.844-21.037-.844-21.037-8.776-2.774-16.635-.186z" class="cls-24" data-name="Path 1839" transform="translate(-62.322 -130.684)"/>
                <path id="Path_1840" d="M128.91 219.238c2.1-2.189 10.442-2.442 13.458-1.2s8.569 17.262 8.569 17.262l-5.519 2.166-3.426-13.4-10.735-1.48z" class="cls-5" data-name="Path 1840" transform="translate(-87.326 -109.756)"/>
                <path id="Path_1841" d="M142.576 227.144a17.621 17.621 0 0 0 1.125-3.938c.2-1.688-2.127-3.376-2.127-3.376l-12.625 3.27.788 7.522-1.857 15.191 16.046.6-1.609-19.213" class="cls-5" data-name="Path 1841" transform="translate(-86.876 -110.866)"/>
                <path id="Path_1842" d="M131.29 232.25a.248.248 0 0 1-.152-.051.259.259 0 0 1-.056-.36l.9-1.2a.259.259 0 1 1 .411.309l-.895 1.2a.276.276 0 0 1-.208.102z" class="cls-25" data-name="Path 1842" transform="translate(-88.254 -115.539)"/>
                <path id="Path_1843" d="M117.24 269.318l2.9-1.688" class="cls-26" data-name="Path 1843" transform="translate(-82.222 -131.773)"/>
                <path id="Path_1844" d="M135.679 202.888c-.174-1.688.681-3.376-2.025-4.462-3.73-1.5-4.529-14.358 2.211-14.386s6.4 8.439 6.38 10.983-2.251 3.162-2.813 4.073-.079 3.792-.079 3.792z" class="cls-21" data-name="Path 1844" transform="translate(-88.159 -95.213)"/>
                <path id="Path_1845" d="M130.651 199.061a1.305 1.305 0 1 1-1.294-1.491 1.407 1.407 0 0 1 1.294 1.491z" class="cls-21" data-name="Path 1845" transform="translate(-86.951 -101.131)"/>
                <ellipse id="Ellipse_471" cx="1.294" cy="1.497" class="cls-21" data-name="Ellipse 471" rx="1.294" ry="1.497" transform="translate(53.197 95.28)"/>
                <path id="Path_1846" d="M139.191 242.634l-2-5.064-56.485 22.185a11.961 11.961 0 1 0 2.346 7.112 11.3 11.3 0 0 0-.1-1.452l43.019-17.442 2.363 5.193 5.249-2.4-1.845-4.135 1.688-.9 2 3.978 3.753-2-2.076-4.242zm-68.112 32.025a7.8 7.8 0 1 1 7.8-7.8 7.8 7.8 0 0 1-7.8 7.8z" class="cls-2" data-name="Path 1846" transform="translate(-56.805 -118.625)"/>
                <path id="Path_1847" d="M117.779 220.75s-14.24 12.682-14.319 15.039 8.394 14.73 8.394 14.73l4.231-2.673-5.93-11.1 9.649-9.2s.315 2.138 1.086 2.717l.428-8.439z" class="cls-5" data-name="Path 1847" transform="translate(-76.195 -111.269)"/>
                <path id="Path_1848" d="M140.9 186.033c-1.851.1-10.054.928-10.054.928s1.2-4.923 5.03-5.12c5.024-.252 5.024 4.192 5.024 4.192z" class="cls-22" data-name="Path 1848" transform="translate(-88.175 -94.247)"/>
                <path id="Path_1849" d="M130.618 194.32s6.65-.619 7.815-3.758c0 0 2.206 2.813 3.5 2.678 0 0 .208-3.713-.563-4.214s-11.005.563-11.005.563a16.153 16.153 0 0 0 .253 4.731z" class="cls-22" data-name="Path 1849" transform="translate(-87.931 -97.335)"/>
                <path id="Path_1850" d="M118.69 271.546s1.817 3.826 1.924 3.938.321.8 1.3.309c0 0 .461 1.249 1.063 1.086a5.514 5.514 0 0 0 1.215-.523s.726.968 1.272.456c.63-.6.034-1.266-.416-1.992a15.215 15.215 0 0 1-1.272-2.672c.377-.411 1.024-.563 2.369.67s2.414.4 1.457-.658a13.293 13.293 0 0 0-2.92-2.672 3.027 3.027 0 0 0-1.75.141l-.326-.467z" class="cls-21" data-name="Path 1850" transform="translate(-82.856 -132.442)"/>
                <path id="Path_1851" d="M159.113 259.12s-1.024 2.9-2.813 3.376-11.77 2.515-11.77 2.515v-3.938z" class="cls-5" data-name="Path 1851" transform="translate(-94.158 -128.051)"/>
                <path id="Path_1852" d="M138.146 262.317h-.765a5.1 5.1 0 0 0-.276-.709c-.315-.506-4.5-1.041-4.417-.489s.76.681 2.251.956c0 0-5.514 1.333-5 1.772s3.938-.563 3.938-.563-3.73 1.215-3.466 2.042c.152.473 3.938-.641 3.938-.641s-3.854 1.378-3.168 1.845 4.94-.563 5.351-.731.563-.934.563-.934l1.041-.18z" class="cls-21" data-name="Path 1852" transform="translate(-87.763 -128.823)"/>
                <path id="Path_1853" d="M138.995 178.978a5.992 5.992 0 0 0 .563 1.9c.141.219.5 0 .354-.208a5.845 5.845 0 0 1-.518-1.806c-.061-.257-.461-.144-.399.114z" class="cls-22" data-name="Path 1853" transform="translate(-91.734 -92.886)"/>
                <path id="Path_1854" d="M140.259 181.537c.208-.371.433-.737.675-1.092.146-.219-.208-.428-.354-.208-.242.354-.467.72-.681 1.092-.13.236.23.444.36.208z" class="cls-22" data-name="Path 1854" transform="translate(-92.12 -93.509)"/>
                <path id="Path_1855" d="M142 197.925a9.931 9.931 0 0 0 .056 1.418c.028.242 0 .675.169.855s.3.1.422.118c.45.073.906.124 1.362.186 0-.062-.051-.118-.073-.18a4.327 4.327 0 0 1-1.288.844c-.124.051 0 .231.1.18a4.394 4.394 0 0 0 1.333-.878.107.107 0 0 0-.073-.174c-.473-.062-1.435 0-1.688-.506a4.71 4.71 0 0 1-.118-1.862.1.1 0 0 0-.208 0z" class="cls-27" data-name="Path 1855" transform="translate(-93.047 -101.243)"/>
                <path id="Path_1856" d="M145.563 198.949c.056-.467-.242-1.57.349-1.795s.861.236.945.681l.152.833c0 .135.219.079.2-.051-.124-.686-.152-1.857-1.17-1.716s-.6 1.446-.681 2.048a.1.1 0 0 0 .205 0z" class="cls-28" data-name="Path 1856" transform="translate(-94.51 -100.833)"/>
                <path id="Path_1857" d="M136.1 199.449c.062-.467-.242-1.57.354-1.795s.861.236.94.681l.152.833c0 .135.225.079.2-.051-.124-.686-.158-1.857-1.176-1.716s-.6 1.446-.681 2.048a.1.1 0 0 0 .211 0z" class="cls-28" data-name="Path 1857" transform="translate(-90.372 -101.052)"/>
                <path id="Path_1858" d="M138.779 203.1c.219 1.688 3.123 2.059 4.192 1.018.1-.1-.051-.236-.146-.146-.889.872-3.64.664-3.843-.872 0-.125-.22-.125-.203 0z" class="cls-27" data-name="Path 1858" transform="translate(-91.642 -103.509)"/>
                <path id="Path_1859" d="M138.549 203.319a.388.388 0 0 1 .433-.264c.129 0 .186-.18.051-.2a.608.608 0 0 0-.686.411c-.04.127.153.183.202.053z" class="cls-27" data-name="Path 1859" transform="translate(-91.451 -103.437)"/>
                <g id="Group_1233" class="cls-29" data-name="Group 1233" transform="translate(44.732 98.71)">
                    <path id="Path_1860" d="M136.612 201.827c.09.231-.315.608-.934.743a1.688 1.688 0 0 1-.793 0 .619.619 0 0 1-.354-.225.208.208 0 0 1 0-.2.7.7 0 0 1 .231-.208 2.621 2.621 0 0 1 .709-.253c.556-.133 1.046-.11 1.141.143z" class="cls-30" data-name="Path 1860" transform="translate(-134.506 -201.605)"/>
                </g>
                <g id="Group_1234" class="cls-29" data-name="Group 1234" transform="translate(51.499 98.231)">
                    <path id="Path_1861" d="M148.636 200.965c.09.231-.315.6-.934.737a1.688 1.688 0 0 1-.788 0 .562.562 0 0 1-.354-.225.2.2 0 0 1 0-.2.625.625 0 0 1 .225-.208 2.622 2.622 0 0 1 .709-.253c.556-.109 1.052-.087 1.142.149z" class="cls-30" data-name="Path 1861" transform="translate(-146.533 -200.754)"/>
                </g>
                <path id="Path_1862" d="M129.764 198.85a.653.653 0 0 0-.563.771.748.748 0 0 0 .7.7c.129 0 .129-.2 0-.208-.563-.039-.72-1.041-.113-1.063a.1.1 0 1 0 0-.2z" class="cls-27" data-name="Path 1862" transform="translate(-87.448 -101.69)"/>
                <path id="Path_1863" d="M129.212 199.707a.968.968 0 0 0 .81.354c.129 0 .129-.214 0-.208a.765.765 0 0 1-.664-.293c-.079-.107-.225.039-.146.146z" class="cls-27" data-name="Path 1863" transform="translate(-87.448 -101.985)"/>
                <path id="Path_1864" d="M151.613 198.26c.444.107.692-.3.748-.686a.748.748 0 0 0-.653-.883c-.135 0-.129.2 0 .208a.563.563 0 0 1 .456.563c0 .259-.152.658-.5.563-.129-.028-.186.169-.056.2z" class="cls-27" data-name="Path 1864" transform="translate(-97.224 -100.746)"/>
                <path id="Path_1865" d="M151.752 197.783a1.074 1.074 0 0 0 .354-.664c0-.129-.18-.186-.2-.056a.917.917 0 0 1-.3.563c-.1.084.051.231.146.146z" class="cls-27" data-name="Path 1865" transform="translate(-97.239 -100.877)"/>
            </g>
            <g id="Group_1236" data-name="Group 1236">
                <path id="Path_1808-2" d="M60.45 134.947l62.728-.2-16-3.286s.653-17.959-7.185-14.364a13.97 13.97 0 0 0-8.164 11.427s-2.937-7.19-7.185-4.552a17.554 17.554 0 0 0-6.189 7.179s-1.525-5.165-4.248-5.458c-2.324-.253-6.752 4.664-9.07 7.427z" class="cls-1" data-name="Path 1808" transform="translate(-57.384 -65.727)"/>
                <path id="Path_1809-2" d="M367.06 190.419l51.762-.146-13.2-2.425s.563-13.346-5.924-10.69a10.306 10.306 0 0 0-6.752 8.49s-2.425-5.339-5.93-3.376a13.368 13.368 0 0 0-5.114 5.339s-1.26-3.843-3.505-4.062c-1.919-.186-5.57 3.471-7.483 5.525z" class="cls-1" data-name="Path 1809" transform="translate(-191.486 -92.05)"/>
                <path id="Path_1810-2" d="M217.45 57.442l51.762-.163-13.194-2.689s.563-14.82-5.93-11.855a11.534 11.534 0 0 0-6.752 9.43s-2.425-5.93-5.924-3.775a14.477 14.477 0 0 0-5.12 5.93s-1.255-4.265-3.5-4.5c-1.919-.208-5.57 3.848-7.483 6.127z" class="cls-1" data-name="Path 1810" transform="translate(-126.051 -33.239)"/>
                <path id="Path_1811-2" d="M344.459 41.408l-3.938 1.367-1.688-4.917a17.4 17.4 0 0 0-32.869 11.41l1.688 4.917-3.938 1.373a5.947 5.947 0 0 0-3.663 7.534l11.084 31.985a5.964 5.964 0 0 0 7.556 3.708l40.751-14.15a5.969 5.969 0 0 0 3.685-7.607l-11.078-31.985a5.958 5.958 0 0 0-7.59-3.635zm-31.074 5.283a9.53 9.53 0 1 1 18.006-6.251l1.686 4.912-18 6.256zm23.63 29.155l2.813 8.175a.653.653 0 0 1-.439.821l-3.937 1.358a.636.636 0 0 1-.8-.388l-2.813-8.169a7.6 7.6 0 1 1 5.148-1.789z" class="cls-2" data-name="Path 1811" transform="translate(-162.038 -26.162)"/>
                <path id="Path_1812-2" d="M323.759 318.643c-.968-1.885 1.3-3.9 3.376-4.282s4.45-.084 6.116-1.4c2.217-1.761 2.1-5.593 4.563-7 1.975-1.125 4.591-.051 6.678-.94 2.6-1.125 3.331-4.726 5.879-5.941a4.557 4.557 0 0 1 5.729 2.12 5.907 5.907 0 0 1-.878 6.313c-1.125 1.356-2.813 2.307-3.488 3.938-1.1 2.532.63 5.6-.377 8.164-1.857 4.737-10.645 3.314-12.17 8.169a15.323 15.323 0 0 0-.287 3.376c-.259 3.376-2.633 6.3-5.559 7.972a22.737 22.737 0 0 1-9.711 2.492 7.669 7.669 0 0 1-4.051-.506 6.594 6.594 0 0 1-2.579-2.811c-4.04-7.314-5.705-16.879 6.752-19.63" class="cls-3" data-name="Path 1812" transform="translate(-168.293 -145.37)"/>
                <path id="Path_1813-2" d="M192.715 296.87c2.177-1.435.968-4.962-1.041-6.622s-4.709-2.774-5.7-5.182c-1.311-3.218 1.125-7.252-.67-10.234-1.429-2.391-4.872-2.813-6.577-5.03-2.11-2.746-.715-7.061-2.706-9.9a5.6 5.6 0 0 0-7.4-1.176 7.171 7.171 0 0 0-2.864 7.28c.388 2.127 1.6 4.147 1.367 6.3-.349 3.376-4.045 5.626-4.5 8.957-.866 6.189 9.39 9.953 8.1 16.069a17.75 17.75 0 0 1-1.727 3.787c-1.744 3.753-.979 8.321 1.125 11.871s5.446 6.268 8.9 8.518a9.374 9.374 0 0 0 4.636 1.9 8.129 8.129 0 0 0 4.467-1.474c8.732-5.407 16.266-14.628 4.6-25.06" class="cls-4" data-name="Path 1813" transform="translate(-102.047 -127.491)"/>
                <path id="Path_1814-2" d="M316.818 299.7a26.546 26.546 0 0 0 8.04-6.071c6.121-6.318 9.914-14.561 11.905-23.068a84.874 84.874 0 0 0 1.834-23.49c-.034-.664-1.075-.67-1.041 0 .844 17.667-2.661 39.339-18.466 50.074a17.325 17.325 0 0 1-2.813 1.626c-.613.264-.084 1.159.523.895z" class="cls-5" data-name="Path 1814" transform="translate(-169.156 -122.562)"/>
                <path id="Path_1815-2" d="M353.16 278.848s1-5.722 8.58-6.628c0-.02-2.768 6.746-8.58 6.628z" class="cls-5" data-name="Path 1815" transform="translate(-185.406 -133.78)"/>
                <path id="Path_1816-2" d="M348.74 295.467s2.307-5.334 9.891-4.445c0-.005-4.27 5.936-9.891 4.445z" class="cls-5" data-name="Path 1816" transform="translate(-183.473 -141.96)"/>
                <path id="Path_1817-2" d="M343 310s3.443-4.681 10.634-2.115c.011-.002-5.48 4.831-10.634 2.115z" class="cls-5" data-name="Path 1817" transform="translate(-180.963 -149.042)"/>
                <path id="Path_1818-2" d="M355.23 263.1s.979-5.626 8.439-6.515c-.005-.005-2.723 6.657-8.439 6.515z" class="cls-5" data-name="Path 1818" transform="translate(-186.312 -126.94)"/>
                <path id="Path_1819-2" d="M353.67 242.546s-4.248-3.82-1.041-10.606c0 0 4.186 5.834 1.041 10.606z" class="cls-5" data-name="Path 1819" transform="translate(-184.65 -116.163)"/>
                <path id="Path_1820-2" d="M350.447 254.491s-5.626-1.041-6.436-8.5c-.011.009 6.632 2.784 6.436 8.5z" class="cls-5" data-name="Path 1820" transform="translate(-181.404 -122.308)"/>
                <path id="Path_1821-2" d="M349.456 269.726s-5.626-1.041-6.437-8.5c-.01.004 6.629 2.783 6.437 8.5z" class="cls-5" data-name="Path 1821" transform="translate(-180.971 -128.973)"/>
                <path id="Path_1822-2" d="M347.333 283.653s-5.525-1.429-5.823-8.923c0 0 6.42 3.235 5.823 8.923z" class="cls-5" data-name="Path 1822" transform="translate(-180.311 -134.878)"/>
                <path id="Path_1823-2" d="M342.818 297.912S337.287 296.489 337 289c0 0 6.408 3.224 5.818 8.912z" class="cls-5" data-name="Path 1823" transform="translate(-178.338 -141.119)"/>
                <rect id="Rectangle_329-2" width="80.692" height="158.223" class="cls-6" data-name="Rectangle 329" rx="10" transform="translate(79.832 39.046)"/>
                <rect id="Rectangle_330-2" width="73.243" height="147.977" class="cls-7" data-name="Rectangle 330" rx="6" transform="translate(83.556 43.699)"/>
                <path id="Path_1824-2" d="M268.617 102.776h-4.765a2.644 2.644 0 0 0-2.644 2.644v1.89a2.65 2.65 0 0 1-2.65 2.65h-21.241a2.644 2.644 0 0 1-2.644-2.65v-1.89a2.65 2.65 0 0 0-2.65-2.644h-13.5v-1.356h50.119z" class="cls-6" data-name="Path 1824" transform="translate(-126.519 -59.077)"/>
                <path id="Path_1825-2" d="M270.667 142.918a.985.985 0 1 0-.923 0 1.542 1.542 0 0 0-1.075 1.468v.776h3.072v-.76a1.542 1.542 0 0 0-1.074-1.484z" class="cls-8" data-name="Path 1825" transform="translate(-148.453 -76.416)"/>
                <text id="Create_Account-2" class="cls-9" data-name="Create Account" transform="translate(108.627 72.823)">
                    <tspan x="0" y="0">Crea</tspan><tspan y="0" class="cls-10">t</tspan><tspan y="0">e </tspan><tspan y="0" class="cls-11">A</tspan><tspan y="0" class="cls-12">cc</tspan><tspan y="0">ount</tspan>
                </text>
                <rect id="Rectangle_331-2" width="30.478" height="6.842" class="cls-13" data-name="Rectangle 331" rx=".98" transform="translate(104.559 163.134)"/>
                <text id="Register-2" class="cls-14" data-name="Register" transform="translate(114.54 166.047)">
                    <tspan x="0" y="0">Regis</tspan><tspan y="0" class="cls-10">t</tspan><tspan y="0">er</tspan>
                </text>
                <g id="Group_1229-2" class="cls-15" data-name="Group 1229" transform="translate(93.88 81.147)">
                    <text id="Email_Address-2" class="cls-16" data-name="Email Address" transform="translate(0 1)">
                        <tspan x="0" y="0">Email </tspan><tspan y="0" class="cls-11">A</tspan><tspan y="0">ddress</tspan>
                    </text>
                </g>
                <rect id="Rectangle_332-2" width="55.745" height="8.4" class="cls-17" data-name="Rectangle 332" rx="2.76" transform="translate(93.88 85.901)"/>
                <g id="Group_1230-2" class="cls-18" data-name="Group 1230" transform="translate(93.88 99.843)">
                    <text id="Country-2" class="cls-16" data-name="Country" transform="translate(0 1)">
                        <tspan x="0" y="0" class="cls-12">C</tspan><tspan y="0">ount</tspan><tspan y="0" class="cls-19">r</tspan><tspan y="0">y</tspan>
                    </text>
                </g>
                <rect id="Rectangle_333-2" width="55.745" height="8.4" class="cls-17" data-name="Rectangle 333" rx="2.76" transform="translate(93.88 104.676)"/>
                <g id="Group_1231-2" class="cls-18" data-name="Group 1231" transform="translate(93.88 119.586)">
                    <text id="City-2" class="cls-16" data-name="City" transform="translate(0 1)">
                        <tspan x="0" y="0">City</tspan>
                    </text>
                </g>
                <rect id="Rectangle_334-2" width="55.745" height="8.4" class="cls-17" data-name="Rectangle 334" rx="2.76" transform="translate(93.88 124.413)"/>
                <g id="Group_1232-2" class="cls-18" data-name="Group 1232" transform="translate(93.88 139.424)">
                    <text id="Password-2" class="cls-16" data-name="Password" transform="translate(0 1)">
                        <tspan x="0" y="0">Pas</tspan><tspan y="0" class="cls-10">s</tspan><tspan y="0" class="cls-12">w</tspan><tspan y="0">ord</tspan>
                    </text>
                </g>
                <rect id="Rectangle_335-2" width="55.745" height="8.4" class="cls-17" data-name="Rectangle 335" rx="2.76" transform="translate(93.88 144.252)"/>
                <path id="Path_1826-2" d="M262.478 418.441c0-.653-16.052-1.182-35.856-1.182s-35.862.529-35.862 1.182 16.057 1.187 35.862 1.187 35.856-.528 35.856-1.187z" class="cls-20" data-name="Path 1826" transform="translate(-114.377 -197.216)"/>
                <path id="Path_1827-2" d="M261.23 282.724s3.561 5.5 4.372 3.123L266.9 282s-1.013-1.66-1.547-1.125-1.288-.433-1.288-.433z" class="cls-21" data-name="Path 1827" transform="translate(-145.199 -137.375)"/>
                <path id="Path_1828-2" d="M283.083 218.555l1.474-8.546c.968-.315 1.964-1.063 1.62-2.217a1.688 1.688 0 0 0-1.125-1.08c-.2-.079-1.232-.377-1.3 0l.563-3.083-10.026-4.839s-.917 6.138-.923 6.189a3.033 3.033 0 0 0-1.125-.3 1.688 1.688 0 0 0-1.193.962 1.986 1.986 0 0 0 1.744 2.656 11.29 11.29 0 0 0 .81 3.73c.636.979 3.59 1.654 3.59 1.654l-.326 3.719z" class="cls-21" data-name="Path 1828" transform="translate(-149.442 -101.664)"/>
                <path id="Path_1829-2" d="M286.8 233.311c-4.529-1.272-10.893-2.391-10.893-2.391l-4.225 30.067 17.79-.563z" class="cls-4" data-name="Path 1829" transform="translate(-149.769 -115.717)"/>
                <path id="Path_1830-2" d="M298.55 223.96a118.1 118.1 0 0 0 17.841 3.376c-1.35-6.189-2.093-10.87-3.865-16.108l6.678-1.688s5.626 19.518 3.9 22.117c-2.892 4.434-17.307 1.513-17.307 1.513l-6.813-1.215z" class="cls-4" data-name="Path 1830" transform="translate(-161.521 -106.366)"/>
                <path id="Path_1831-2" d="M241.285 239.925s19.1-9.34 19.968-9 1.626 4.67 1.626 4.67a167.729 167.729 0 0 1-17.622 9.379l9.733 13.25-4.85 3.477s-13.368-15.022-12.862-18.128c.401-2.382 4.007-3.648 4.007-3.648z" class="cls-4" data-name="Path 1831" transform="translate(-134.717 -115.714)"/>
                <path id="Path_1832-2" d="M326.067 199.039s-.788-5.519-.883-5.677-.1-1.125-1.513-.9c0 0-.1-1.75-.911-1.784a7.557 7.557 0 0 0-1.733.191s-.923-4.5-1.525-5.266-1.564 1.39-.146 6.858c0 0 .782 3.719.563 3.854-.636.371-1.508.3-2.717-1.761-1.283-2.189-2.881-1.446-2.093.253s1.907 3.9 2.633 4.5a3.977 3.977 0 0 0 2.25.506l.225.709z" class="cls-21" data-name="Path 1832" transform="translate(-168.672 -95.831)"/>
                <path id="Path_1833-2" d="M263.464 282c-2.144 32.537-9.418 72.692-9.418 72.692l7.123 3.044h-15.191l10-71.038h-3.41l-25.2 71.038H212.22l8.62-3.145L246 280.22z" class="cls-22" data-name="Path 1833" transform="translate(-123.763 -137.279)"/>
                <path id="Path_1834-2" d="M286.182 205.3c.85-1.688 1.84-5.812-.731-6.954a27.011 27.011 0 0 1-3.747-2.132 6.51 6.51 0 0 0-5.339-.962 4.622 4.622 0 0 0-.844.315c-1.795.878-3.01 5.654-3.01 5.654l1.767.444s1.969 8.755 5.21 10.555l3.235.686 1.919.433z" class="cls-23" data-name="Path 1834" transform="translate(-150.132 -100.026)"/>
                <path id="Path_1835-2" d="M292.333 198.485a11.256 11.256 0 0 0-.062-1.57c0-.214-.354-.214-.332 0a13.313 13.313 0 0 1 .062 1.57.169.169 0 0 0 .332 0z" class="cls-23" data-name="Path 1835" transform="translate(-158.63 -100.774)"/>
                <path id="Path_1836-2" d="M292.449 198.708a1.424 1.424 0 0 0 .416-.619 6.4 6.4 0 0 1 .529-.8c.129-.169-.158-.338-.287-.169a5.91 5.91 0 0 0-.428.63c-.113.18-.214.563-.4.67s0 .405.169.293z" class="cls-23" data-name="Path 1836" transform="translate(-158.745 -100.901)"/>
                <path id="Path_1837-2" d="M126.707 403.077c0-.653-16.057-1.187-35.862-1.187S55 402.436 55 403.077s16.057 1.187 35.862 1.187 35.845-.517 35.845-1.187z" class="cls-20" data-name="Path 1837" transform="translate(-55 -190.494)"/>
                <path id="Path_1838-2" d="M131.037 182.514a16.812 16.812 0 0 0-2.16-.253 4.825 4.825 0 0 0-3.426 1.558 11.213 11.213 0 0 0-2.3 3.083 4.97 4.97 0 0 0-.861 3.742 3.269 3.269 0 0 1 .248.968c0 1.041-1.452 1.435-1.9 2.38-.563 1.159.563 2.729-.186 3.764-.388.512-1.125.675-1.491 1.21a2.391 2.391 0 0 0-.248 1.463.405.405 0 0 0 .09.293.445.445 0 0 0 .242.079c4.107.394 8.175-.5 12.282-.1a5.2 5.2 0 0 0 3.516-.641c3.55-1.615 7.1-2.037 10.572-3.82a.8.8 0 0 0 .371-.3.7.7 0 0 0 .045-.371 2.436 2.436 0 0 0-1.648-2.02c-.9-.281-1.986-.034-2.74-.608a2.543 2.543 0 0 1-.816-1.817c-.146-1.378 0-2.976-.985-3.938-.788-.754-2.042-.833-2.813-1.587a10.292 10.292 0 0 1-1.046-1.525 3.891 3.891 0 0 0-4.726-1.547" class="cls-22" data-name="Path 1838" transform="translate(-82.853 -94.419)"/>
                <path id="Path_1839-2" d="M103.641 266.243L80.742 338.7l-9 3.471h13.366l25.847-68.264a1.125 1.125 0 0 1 1.058-.726 1.125 1.125 0 0 1 1.125 1.249l-6.819 67.741h13.537l-9.036-2.988s8.439-39.384 10.3-51.717-.844-21.037-.844-21.037-8.776-2.774-16.635-.186z" class="cls-24" data-name="Path 1839" transform="translate(-62.322 -130.684)"/>
                <path id="Path_1840-2" d="M128.91 219.238c2.1-2.189 10.442-2.442 13.458-1.2s8.569 17.262 8.569 17.262l-5.519 2.166-3.426-13.4-10.735-1.48z" class="cls-5" data-name="Path 1840" transform="translate(-87.326 -109.756)"/>
                <path id="Path_1841-2" d="M142.576 227.144a17.621 17.621 0 0 0 1.125-3.938c.2-1.688-2.127-3.376-2.127-3.376l-12.625 3.27.788 7.522-1.857 15.191 16.046.6-1.609-19.213" class="cls-5" data-name="Path 1841" transform="translate(-86.876 -110.866)"/>
                <path id="Path_1842-2" d="M131.29 232.25a.248.248 0 0 1-.152-.051.259.259 0 0 1-.056-.36l.9-1.2a.259.259 0 1 1 .411.309l-.895 1.2a.276.276 0 0 1-.208.102z" class="cls-25" data-name="Path 1842" transform="translate(-88.254 -115.539)"/>
                <path id="Path_1843-2" d="M117.24 269.318l2.9-1.688" class="cls-26" data-name="Path 1843" transform="translate(-82.222 -131.773)"/>
                <path id="Path_1844-2" d="M135.679 202.888c-.174-1.688.681-3.376-2.025-4.462-3.73-1.5-4.529-14.358 2.211-14.386s6.4 8.439 6.38 10.983-2.251 3.162-2.813 4.073-.079 3.792-.079 3.792z" class="cls-21" data-name="Path 1844" transform="translate(-88.159 -95.213)"/>
                <path id="Path_1845-2" d="M130.651 199.061a1.305 1.305 0 1 1-1.294-1.491 1.407 1.407 0 0 1 1.294 1.491z" class="cls-21" data-name="Path 1845" transform="translate(-86.951 -101.131)"/>
                <ellipse id="Ellipse_471-2" cx="1.294" cy="1.497" class="cls-21" data-name="Ellipse 471" rx="1.294" ry="1.497" transform="translate(53.197 95.28)"/>
                <path id="Path_1846-2" d="M139.191 242.634l-2-5.064-56.485 22.185a11.961 11.961 0 1 0 2.346 7.112 11.3 11.3 0 0 0-.1-1.452l43.019-17.442 2.363 5.193 5.249-2.4-1.845-4.135 1.688-.9 2 3.978 3.753-2-2.076-4.242zm-68.112 32.025a7.8 7.8 0 1 1 7.8-7.8 7.8 7.8 0 0 1-7.8 7.8z" class="cls-2" data-name="Path 1846" transform="translate(-56.805 -118.625)"/>
                <path id="Path_1847-2" d="M117.779 220.75s-14.24 12.682-14.319 15.039 8.394 14.73 8.394 14.73l4.231-2.673-5.93-11.1 9.649-9.2s.315 2.138 1.086 2.717l.428-8.439z" class="cls-5" data-name="Path 1847" transform="translate(-76.195 -111.269)"/>
                <path id="Path_1848-2" d="M140.9 186.033c-1.851.1-10.054.928-10.054.928s1.2-4.923 5.03-5.12c5.024-.252 5.024 4.192 5.024 4.192z" class="cls-22" data-name="Path 1848" transform="translate(-88.175 -94.247)"/>
                <path id="Path_1849-2" d="M130.618 194.32s6.65-.619 7.815-3.758c0 0 2.206 2.813 3.5 2.678 0 0 .208-3.713-.563-4.214s-11.005.563-11.005.563a16.153 16.153 0 0 0 .253 4.731z" class="cls-22" data-name="Path 1849" transform="translate(-87.931 -97.335)"/>
                <path id="Path_1850-2" d="M118.69 271.546s1.817 3.826 1.924 3.938.321.8 1.3.309c0 0 .461 1.249 1.063 1.086a5.514 5.514 0 0 0 1.215-.523s.726.968 1.272.456c.63-.6.034-1.266-.416-1.992a15.215 15.215 0 0 1-1.272-2.672c.377-.411 1.024-.563 2.369.67s2.414.4 1.457-.658a13.293 13.293 0 0 0-2.92-2.672 3.027 3.027 0 0 0-1.75.141l-.326-.467z" class="cls-21" data-name="Path 1850" transform="translate(-82.856 -132.442)"/>
                <path id="Path_1851-2" d="M159.113 259.12s-1.024 2.9-2.813 3.376-11.77 2.515-11.77 2.515v-3.938z" class="cls-5" data-name="Path 1851" transform="translate(-94.158 -128.051)"/>
                <path id="Path_1852-2" d="M138.146 262.317h-.765a5.1 5.1 0 0 0-.276-.709c-.315-.506-4.5-1.041-4.417-.489s.76.681 2.251.956c0 0-5.514 1.333-5 1.772s3.938-.563 3.938-.563-3.73 1.215-3.466 2.042c.152.473 3.938-.641 3.938-.641s-3.854 1.378-3.168 1.845 4.94-.563 5.351-.731.563-.934.563-.934l1.041-.18z" class="cls-21" data-name="Path 1852" transform="translate(-87.763 -128.823)"/>
                <path id="Path_1853-2" d="M138.995 178.978a5.992 5.992 0 0 0 .563 1.9c.141.219.5 0 .354-.208a5.845 5.845 0 0 1-.518-1.806c-.061-.257-.461-.144-.399.114z" class="cls-22" data-name="Path 1853" transform="translate(-91.734 -92.886)"/>
                <path id="Path_1854-2" d="M140.259 181.537c.208-.371.433-.737.675-1.092.146-.219-.208-.428-.354-.208-.242.354-.467.72-.681 1.092-.13.236.23.444.36.208z" class="cls-22" data-name="Path 1854" transform="translate(-92.12 -93.509)"/>
                <path id="Path_1855-2" d="M142 197.925a9.931 9.931 0 0 0 .056 1.418c.028.242 0 .675.169.855s.3.1.422.118c.45.073.906.124 1.362.186 0-.062-.051-.118-.073-.18a4.327 4.327 0 0 1-1.288.844c-.124.051 0 .231.1.18a4.394 4.394 0 0 0 1.333-.878.107.107 0 0 0-.073-.174c-.473-.062-1.435 0-1.688-.506a4.71 4.71 0 0 1-.118-1.862.1.1 0 0 0-.208 0z" class="cls-27" data-name="Path 1855" transform="translate(-93.047 -101.243)"/>
                <path id="Path_1856-2" d="M145.563 198.949c.056-.467-.242-1.57.349-1.795s.861.236.945.681l.152.833c0 .135.219.079.2-.051-.124-.686-.152-1.857-1.17-1.716s-.6 1.446-.681 2.048a.1.1 0 0 0 .205 0z" class="cls-28" data-name="Path 1856" transform="translate(-94.51 -100.833)"/>
                <path id="Path_1857-2" d="M136.1 199.449c.062-.467-.242-1.57.354-1.795s.861.236.94.681l.152.833c0 .135.225.079.2-.051-.124-.686-.158-1.857-1.176-1.716s-.6 1.446-.681 2.048a.1.1 0 0 0 .211 0z" class="cls-28" data-name="Path 1857" transform="translate(-90.372 -101.052)"/>
                <path id="Path_1858-2" d="M138.779 203.1c.219 1.688 3.123 2.059 4.192 1.018.1-.1-.051-.236-.146-.146-.889.872-3.64.664-3.843-.872 0-.125-.22-.125-.203 0z" class="cls-27" data-name="Path 1858" transform="translate(-91.642 -103.509)"/>
                <path id="Path_1859-2" d="M138.549 203.319a.388.388 0 0 1 .433-.264c.129 0 .186-.18.051-.2a.608.608 0 0 0-.686.411c-.04.127.153.183.202.053z" class="cls-27" data-name="Path 1859" transform="translate(-91.451 -103.437)"/>
                <g id="Group_1233-2" class="cls-29" data-name="Group 1233" transform="translate(44.732 98.71)">
                    <path id="Path_1860-2" d="M136.612 201.827c.09.231-.315.608-.934.743a1.688 1.688 0 0 1-.793 0 .619.619 0 0 1-.354-.225.208.208 0 0 1 0-.2.7.7 0 0 1 .231-.208 2.621 2.621 0 0 1 .709-.253c.556-.133 1.046-.11 1.141.143z" class="cls-30" data-name="Path 1860" transform="translate(-134.506 -201.605)"/>
                </g>
                <g id="Group_1234-2" class="cls-29" data-name="Group 1234" transform="translate(51.499 98.231)">
                    <path id="Path_1861-2" d="M148.636 200.965c.09.231-.315.6-.934.737a1.688 1.688 0 0 1-.788 0 .562.562 0 0 1-.354-.225.2.2 0 0 1 0-.2.625.625 0 0 1 .225-.208 2.622 2.622 0 0 1 .709-.253c.556-.109 1.052-.087 1.142.149z" class="cls-30" data-name="Path 1861" transform="translate(-146.533 -200.754)"/>
                </g>
                <path id="Path_1862-2" d="M129.764 198.85a.653.653 0 0 0-.563.771.748.748 0 0 0 .7.7c.129 0 .129-.2 0-.208-.563-.039-.72-1.041-.113-1.063a.1.1 0 1 0 0-.2z" class="cls-27" data-name="Path 1862" transform="translate(-87.448 -101.69)"/>
                <path id="Path_1863-2" d="M129.212 199.707a.968.968 0 0 0 .81.354c.129 0 .129-.214 0-.208a.765.765 0 0 1-.664-.293c-.079-.107-.225.039-.146.146z" class="cls-27" data-name="Path 1863" transform="translate(-87.448 -101.985)"/>
                <path id="Path_1864-2" d="M151.613 198.26c.444.107.692-.3.748-.686a.748.748 0 0 0-.653-.883c-.135 0-.129.2 0 .208a.563.563 0 0 1 .456.563c0 .259-.152.658-.5.563-.129-.028-.186.169-.056.2z" class="cls-27" data-name="Path 1864" transform="translate(-97.224 -100.746)"/>
                <path id="Path_1865-2" d="M151.752 197.783a1.074 1.074 0 0 0 .354-.664c0-.129-.18-.186-.2-.056a.917.917 0 0 1-.3.563c-.1.084.051.231.146.146z" class="cls-27" data-name="Path 1865" transform="translate(-97.239 -100.877)"/>
            </g>
        </g>
    </g>
</svg>
