<svg xmlns="http://www.w3.org/2000/svg" width="38.256" height="38.256" viewBox="0 0 38.256 38.256">
    <defs>
        <style>
            .cls-1{fill:#0bce86}
        </style>
    </defs>
    <g id="phone" transform="translate(-.001)">
        <path id="Path_3412" d="M19.129 0a19.128 19.128 0 1 0 19.128 19.128A19.129 19.129 0 0 0 19.129 0zm10.1 27.91L27.7 29.442a2.823 2.823 0 0 1-1.1.443A18.065 18.065 0 0 1 8.369 11.614a2.851 2.851 0 0 1 .449-1.051l1.531-1.532a2.558 2.558 0 0 1 2.391-.565l.322.107a3.026 3.026 0 0 1 1.749 1.849l.77 2.828a2.774 2.774 0 0 1-.633 2.421L13.927 16.7a10.863 10.863 0 0 0 7.638 7.64l1.022-1.023a2.772 2.772 0 0 1 2.422-.636l2.827.773a3.03 3.03 0 0 1 1.85 1.746l.107.327a2.561 2.561 0 0 1-.563 2.383z" class="cls-1" data-name="Path 3412"/>
    </g>
</svg>
