<svg xmlns="http://www.w3.org/2000/svg" width="151" height="85.471" viewBox="0 0 151 85.471">
    <defs>
        <style>
            .cls-1,.cls-5{fill:#fff}.cls-2,.cls-6{fill:#effff9}.cls-3,.cls-4{fill:none}.cls-3,.cls-4,.cls-5,.cls-6{stroke:#0bce86;stroke-linejoin:round;stroke-miterlimit:10;stroke-width:2px}.cls-4,.cls-5{stroke-linecap:round}
        </style>
    </defs>
    <g id="Group_1241" data-name="Group 1241" transform="translate(-108 -90.529)">
        <path id="Path_1866" d="M100.5 53.963h19.893l11.7-4.681V34.461L118.052 29l-14.042 5.461-.78 4.681z" class="cls-1" data-name="Path 1866" transform="translate(86.12 84.372)"/>
        <path id="Path_1867" d="M133 14h2.34v2.34L133 17.51" class="cls-1" data-name="Path 1867" transform="translate(78.974 87.67)"/>
        <path id="Path_1868" d="M69.461 70L64 99.644 74.921 70" class="cls-1" data-name="Path 1868" transform="translate(94.147 75.356)"/>
        <path id="Path_1869" d="M127.963 70l3.12 29.644-14.041-24.963L103 99.644 106.9 70" class="cls-1" data-name="Path 1869" transform="translate(85.571 75.356)"/>
        <path id="Path_1870" d="M136.01 68.021H64.241L58 61h84.251z" class="cls-1" data-name="Path 1870" transform="translate(95.466 77.335)"/>
        <path id="Path_1871" d="M152.461 70l5.461 29.644L147 70" class="cls-1" data-name="Path 1871" transform="translate(75.895 75.356)"/>
        <path id="Path_1872" d="M156.021 58.141h-5.461L149 48h8.581z" class="cls-1" data-name="Path 1872" transform="translate(75.455 80.194)"/>
        <path id="Path_1873" d="M128.6 18.162l-7.8 3.12-7.8-3.12V5.291L120.8 1l7.8 4.291z" class="cls-1" data-name="Path 1873" transform="translate(83.372 90.529)"/>
        <path id="Path_1874" d="M33.921 103.822H26.9L23 89h14.822z" class="cls-1" data-name="Path 1874" transform="translate(103.162 71.178)"/>
        <path id="Path_1875" d="M118.471 74.681l14.042 24.963L129.393 70H112.23l-2.73 20.595z" class="cls-2" data-name="Path 1875" transform="translate(84.141 75.356)"/>
        <path id="Path_1876" d="M153.319 74.681L152.461 70H147l1.716 4.681z" class="cls-2" data-name="Path 1876" transform="translate(75.895 75.356)"/>
        <path id="Path_1877" d="M69.9 74.681L70.758 70h5.461L74.5 74.681z" class="cls-2" data-name="Path 1877" transform="translate(92.849 75.356)"/>
        <path id="Path_1878" d="M32.5 89h7.411l-3.9 14.822H32.5z" class="cls-2" data-name="Path 1878" transform="translate(101.073 71.178)"/>
        <path id="Path_1879" d="M154 58.141h3.12L158.681 48H154z" class="cls-2" data-name="Path 1879" transform="translate(74.356 80.194)"/>
        <path id="Path_1880" d="M113 10.461v-1.17L120.8 5l7.8 4.291v1.17z" class="cls-2" data-name="Path 1880" transform="translate(83.372 89.649)"/>
        <path id="Path_1881" d="M128.6 18.162l-7.8 3.12-7.8-3.12V5.291L120.8 1l7.8 4.291z" class="cls-3" data-name="Path 1881" transform="translate(83.372 90.529)"/>
        <path id="Line_30" d="M0 1.17V0" class="cls-4" data-name="Line 30" transform="translate(200.272 102.45)"/>
        <path id="Line_31" d="M0 1.17V0" class="cls-4" data-name="Line 31" transform="translate(206.513 102.45)"/>
        <path id="Path_1882" d="M70.695 55.283L65 35h25.743l5.695 20.283z" class="cls-5" data-name="Path 1882" transform="translate(93.927 83.052)"/>
        <path id="Path_1883" d="M86.181 46.4l-2.34 1.56L81.5 46.4v-2.34l2.34-1.56 2.34 1.56z" class="cls-6" data-name="Path 1883" transform="translate(90.298 81.403)"/>
        <g id="Group_1238" data-name="Group 1238" transform="translate(199.258 115.244)">
            <path id="Path_1884" d="M126.529 31.4l-4.915 9.829L116.7 31.4" class="cls-4" data-name="Path 1884" transform="translate(-116.7 -31.4)"/>
        </g>
        <path id="Line_32" d="M22.623 0H0" class="cls-4" data-name="Line 32" transform="translate(189.351 100.11)"/>
        <path id="Path_1885" d="M123.4 21l-1.95.78-1.95-.78" class="cls-4" data-name="Path 1885" transform="translate(81.942 86.131)"/>
        <path id="Path_1886" d="M133 14h2.34v2.34L133 17.51" class="cls-4" data-name="Path 1886" transform="translate(78.974 87.67)"/>
        <path id="Line_33" d="M25.743 0H0" class="cls-4" data-name="Line 33" transform="translate(163.763 135.215)"/>
        <path id="Path_1887" d="M105.058 60.12h12.248l-1.56-3.12H104.2z" class="cls-5" data-name="Path 1887" transform="translate(85.307 78.215)"/>
        <path id="Path_1888" d="M128.183 39.921v5.461l-11.7 8.581h4.681l11.7-4.681V34.461L118.822 29l-14.042 5.461-.78 4.68" class="cls-4" data-name="Path 1888" transform="translate(85.351 84.372)"/>
        <path id="Line_34" d="M0 0v3.901" class="cls-4" data-name="Line 34" transform="translate(213.534 124.293)"/>
        <path id="Path_1889" d="M136.01 68.021H64.241L58 61h84.251z" class="cls-4" data-name="Path 1889" transform="translate(95.466 77.335)"/>
        <path id="Path_1890" d="M69.461 70L64 99.644 74.921 70" class="cls-4" data-name="Path 1890" transform="translate(94.147 75.356)"/>
        <path id="Path_1891" d="M152.461 70l5.461 29.644L147 70" class="cls-4" data-name="Path 1891" transform="translate(75.895 75.356)"/>
        <g id="Group_1239" data-name="Group 1239" transform="translate(109 175)">
            <path id="Line_35" d="M0 0h135.738" class="cls-4" data-name="Line 35" transform="translate(7.021)"/>
            <path id="Line_36" d="M0 0h2.34" class="cls-4" data-name="Line 36" transform="translate(146.66)"/>
            <path id="Line_37" d="M0 0h2.34" class="cls-4" data-name="Line 37"/>
        </g>
        <path id="Path_1892" d="M127.963 70l3.12 29.644-14.041-24.963L103 99.644 106.9 70" class="cls-4" data-name="Path 1892" transform="translate(85.571 75.356)"/>
        <g id="Group_1240" data-name="Group 1240" transform="translate(224.456 117.272)">
            <path id="Path_1893" d="M150.56 40.241l1.56-1.56L149 35.56l1.56-1.56" class="cls-4" data-name="Path 1893" transform="translate(-149 -34)"/>
            <path id="Path_1894" d="M157.56 40.241l1.56-1.56L156 35.56l1.56-1.56" class="cls-4" data-name="Path 1894" transform="translate(-150.539 -34)"/>
        </g>
        <path id="Path_1895" d="M156.021 58.141h-5.461L149 48h8.581z" class="cls-4" data-name="Path 1895" transform="translate(75.455 80.194)"/>
        <path id="Path_1896" d="M33.921 103.822H26.9L23 89h14.822z" class="cls-4" data-name="Path 1896" transform="translate(103.162 71.178)"/>
        <path id="Path_1897" d="M37 70.241h3.12L43.241 64 37 67.12z" class="cls-5" data-name="Path 1897" transform="translate(100.084 76.675)"/>
        <path id="Path_1898" d="M25.581 76.8h-3.12L17 69l8.581 4.681z" class="cls-5" data-name="Path 1898" transform="translate(104.482 75.576)"/>
        <path id="Path_1899" d="M38 50.8h3.12l5.461-7.8L38 47.681z" class="cls-5" data-name="Path 1899" transform="translate(99.864 81.293)"/>
        <path id="Path_1900" d="M21.581 60.361L13 51l12.482 5.461v3.9z" class="cls-5" data-name="Path 1900" transform="translate(105.361 79.534)"/>
        <path id="Line_38" d="M0 41.346V0" class="cls-4" data-name="Line 38" transform="translate(133.963 118.832)"/>
        <path id="Path_1901" d="M26.8 39.241L19 33l3.9 8.581 3.9 1.56z" class="cls-5" data-name="Path 1901" transform="translate(104.042 83.492)"/>
        <path id="Path_1902" d="M25.5 97.12L28.62 94l2.34 2.34L33.3 94l3.12 3.12" class="cls-4" data-name="Path 1902" transform="translate(102.613 70.079)"/>
    </g>
</svg>
