<svg xmlns="http://www.w3.org/2000/svg" xmlns:xlink="http://www.w3.org/1999/xlink" width="298.293" height="215.1" viewBox="0 0 298.293 215.1">
    <defs>
        <style>
            .cls-1,.cls-4,.cls-6{fill:#ffb7ab}.cls-1,.cls-14,.cls-16,.cls-5{opacity:.1}.cls-2{fill:#3a3768}.cls-3{fill:#e6e8ec}.cls-4{opacity:.5}.cls-7{fill:url(#linear-gradient)}.cls-8{fill:#ee8e9e}.cls-9{fill:#65617d}.cls-10,.cls-14{fill:#3f3d56}.cls-11{opacity:.05}.cls-12{fill:#e8eaf2}.cls-13{fill:#303d5c}.cls-15{fill:url(#linear-gradient-2)}
        </style>
        <linearGradient id="linear-gradient" x1="-1.02" x2="-1.02" y1="1" gradientUnits="objectBoundingBox">
            <stop offset="0" stop-color="gray" stop-opacity=".251"/>
            <stop offset=".54" stop-color="gray" stop-opacity=".122"/>
            <stop offset="1" stop-color="gray" stop-opacity=".102"/>
        </linearGradient>
        <linearGradient id="linear-gradient-2" x2="1.001" y1=".5" y2=".5" xlink:href="#linear-gradient"/>
    </defs>
    <g id="Group_1189" data-name="Group 1189" transform="translate(-34.353 -139.014)">
        <path id="Path_1580" d="M208.316 77.356c-19.123-.663-37.338-6.837-54.729-13.592S118.966 49.527 100.3 45.947c-12.006-2.3-25.736-2.627-35.408 3.809-9.3 6.182-12.317 16.887-13.933 26.807-1.217 7.463-1.932 15.311 1.4 22.307 2.315 4.852 6.425 8.931 9.268 13.577 9.886 16.169 2.9 36.11-7.819 51.9-5.016 7.407-10.858 14.472-14.736 22.354s-5.673 16.919-2.281 24.96c3.366 7.972 11.38 13.959 20.063 18.17 17.637 8.553 38.42 11 58.686 12.389 44.861 3.067 89.963 1.74 134.943.409 16.647-.494 33.365-.993 49.742-3.566 9.092-1.428 18.479-3.7 25.078-9.173 8.381-6.953 10.459-18.727 4.841-27.454-9.419-14.622-35.466-18.254-42.05-33.948-3.624-8.638.1-18.262 5.364-26.272 11.3-17.188 30.237-32.267 31.234-51.91.686-13.492-8.418-27.005-22.494-33.389-14.757-6.692-35.215-5.85-46.1 5.227-11.198 11.41-30.898 15.798-47.782 15.212z" class="cls-1" data-name="Path 1580" transform="translate(-.648 95.064)"/>
        <rect id="Rectangle_233" width="2.616" height="21.575" class="cls-2" data-name="Rectangle 233" rx="1.308" transform="translate(225.548 202.081)"/>
        <rect id="Rectangle_234" width="1.468" height="7.104" class="cls-2" data-name="Rectangle 234" rx=".734" transform="translate(138.547 185.178)"/>
        <rect id="Rectangle_235" width="1.655" height="12.365" class="cls-2" data-name="Rectangle 235" rx=".828" transform="translate(138.494 198.182)"/>
        <rect id="Rectangle_236" width="1.576" height="12.471" class="cls-2" data-name="Rectangle 236" rx=".788" transform="translate(138.52 214.871)"/>
        <rect id="Rectangle_237" width="87.582" height="177.996" class="cls-2" data-name="Rectangle 237" rx="10" transform="translate(139.378 161.702)"/>
        <rect id="Rectangle_238" width="12.23" height="2.484" class="cls-3" data-name="Rectangle 238" rx="1.242" transform="translate(174.72 167.019)"/>
        <circle id="Ellipse_331" cx="1.41" cy="1.41" r="1.41" class="cls-3" data-name="Ellipse 331" transform="translate(188.799 166.85)"/>
        <path id="Path_1581" d="M523.148 146.1h-10.032v1.209a5.726 5.726 0 0 1-5.728 5.726h-31.963a5.728 5.728 0 0 1-5.728-5.726V146.1h-9.4a6.956 6.956 0 0 0-6.956 6.956v154.81a6.956 6.956 0 0 0 6.956 6.956h62.852a6.956 6.956 0 0 0 6.956-6.956v-154.81a6.956 6.956 0 0 0-6.956-6.956z" class="cls-4" data-name="Path 1581" transform="translate(-308.553 20.24)"/>
        <path id="Rectangle_239" d="M0 0h76.824v7.091H0z" class="cls-3" data-name="Rectangle 239" transform="translate(144.851 178.206)"/>
        <path id="Rectangle_240" d="M0 0h6.502v.591H0z" class="cls-2" data-name="Rectangle 240" transform="translate(147.216 179.682)"/>
        <path id="Rectangle_241" d="M0 0h6.502v.591H0z" class="cls-2" data-name="Rectangle 241" transform="translate(147.216 181.456)"/>
        <path id="Rectangle_242" d="M0 0h6.502v.591H0z" class="cls-2" data-name="Rectangle 242" transform="translate(147.216 183.23)"/>
        <path id="Path_1582" d="M714.431 197.818h-.24l-.092-.074a2.023 2.023 0 0 0 .47-1.294 1.964 1.964 0 1 0-1.953 1.977 2.027 2.027 0 0 0 1.288-.473l.09.077v.243l1.515 1.521.454-.457zm-1.816 0a1.359 1.359 0 1 1 .966-.4 1.367 1.367 0 0 1-.966.4z" class="cls-2" data-name="Path 1582" transform="translate(-497.93 -15.383)"/>
        <circle id="Ellipse_332" cx="3.25" cy="3.25" r="3.25" class="cls-3" data-name="Ellipse 332" transform="translate(147.216 195.048)"/>
        <path id="Rectangle_243" d="M0 0h45.21v1.774H0z" class="cls-3" data-name="Rectangle 243" transform="translate(160.661 201.548)"/>
        <path id="Rectangle_244" d="M0 0h45.21v1.774H0z" class="cls-3" data-name="Rectangle 244" transform="translate(160.809 205.389)"/>
        <path id="Rectangle_245" d="M0 0h45.21v1.774H0z" class="cls-3" data-name="Rectangle 245" transform="translate(160.956 209.232)"/>
        <circle id="Ellipse_333" cx="3.25" cy="3.25" r="3.25" class="cls-3" data-name="Ellipse 333" transform="translate(147.216 217.21)"/>
        <path id="Rectangle_246" d="M0 0h45.21v1.774H0z" class="cls-3" data-name="Rectangle 246" transform="translate(160.661 223.709)"/>
        <path id="Rectangle_247" d="M0 0h45.21v1.774H0z" class="cls-3" data-name="Rectangle 247" transform="translate(160.809 227.55)"/>
        <path id="Rectangle_248" d="M0 0h45.21v1.774H0z" class="cls-3" data-name="Rectangle 248" transform="translate(160.956 231.391)"/>
        <circle id="Ellipse_334" cx="3.25" cy="3.25" r="3.25" class="cls-3" data-name="Ellipse 334" transform="translate(147.216 239.371)"/>
        <path id="Rectangle_249" d="M0 0h45.21v1.774H0z" class="cls-3" data-name="Rectangle 249" transform="translate(160.661 245.87)"/>
        <path id="Rectangle_250" d="M0 0h45.21v1.774H0z" class="cls-3" data-name="Rectangle 250" transform="translate(160.809 249.711)"/>
        <path id="Rectangle_251" d="M0 0h45.21v1.774H0z" class="cls-3" data-name="Rectangle 251" transform="translate(160.956 253.552)"/>
        <circle id="Ellipse_335" cx="3.25" cy="3.25" r="3.25" class="cls-3" data-name="Ellipse 335" transform="translate(147.216 261.533)"/>
        <path id="Rectangle_252" d="M0 0h45.21v1.774H0z" class="cls-3" data-name="Rectangle 252" transform="translate(160.661 268.032)"/>
        <path id="Rectangle_253" d="M0 0h45.21v1.774H0z" class="cls-3" data-name="Rectangle 253" transform="translate(160.809 271.873)"/>
        <path id="Rectangle_254" d="M0 0h45.21v1.774H0z" class="cls-3" data-name="Rectangle 254" transform="translate(160.956 275.714)"/>
        <circle id="Ellipse_336" cx="3.25" cy="3.25" r="3.25" class="cls-3" data-name="Ellipse 336" transform="translate(147.216 283.694)"/>
        <path id="Rectangle_255" d="M0 0h45.21v1.774H0z" class="cls-3" data-name="Rectangle 255" transform="translate(160.661 290.193)"/>
        <path id="Rectangle_256" d="M0 0h45.21v1.774H0z" class="cls-3" data-name="Rectangle 256" transform="translate(160.809 294.034)"/>
        <path id="Rectangle_257" d="M0 0h45.21v1.774H0z" class="cls-3" data-name="Rectangle 257" transform="translate(160.956 297.875)"/>
        <circle id="Ellipse_337" cx="3.25" cy="3.25" r="3.25" class="cls-3" data-name="Ellipse 337" transform="translate(147.216 305.855)"/>
        <path id="Rectangle_258" d="M0 0h45.21v1.774H0z" class="cls-3" data-name="Rectangle 258" transform="translate(160.661 312.355)"/>
        <path id="Rectangle_259" d="M0 0h45.21v1.774H0z" class="cls-3" data-name="Rectangle 259" transform="translate(160.809 316.196)"/>
        <path id="Rectangle_260" d="M0 0h45.21v1.774H0z" class="cls-3" data-name="Rectangle 260" transform="translate(160.956 320.036)"/>
        <circle id="Ellipse_338" cx="8.273" cy="8.273" r="8.273" class="cls-5" data-name="Ellipse 338" transform="translate(197.742 313.537)"/>
        <ellipse id="Ellipse_339" cx="7.386" cy="7.386" class="cls-6" data-name="Ellipse 339" rx="7.386" ry="7.386" transform="translate(198.629 314.424)"/>
        <path id="Path_1583" d="M308.4 158.336l-14.448 7.806a.3.3 0 0 0 .021.528l2.466.927a.6.6 0 0 1 .325.3l1.914 3.944c.037.174.359.219.362.042l-.293-3.258a1.172 1.172 0 0 1 .264-.66l7.492-7.339a.185.185 0 0 1 .164-.048.172.172 0 0 1 .092.264l-6.457 7.935a1.438 1.438 0 0 0-.264.649l-.372 2.814c.032.246.224.338.377.119l1.391-1.634a.29.29 0 0 1 .409-.069l3.585 2.613a.29.29 0 0 0 .457-.177l2.941-14.437a.293.293 0 0 0-.422-.325z" class="cls-6" data-name="Path 1583" transform="translate(-191.132 11.26)"/>
        <path id="Path_1584" d="M886.313 169.9l-14.448 7.817a.3.3 0 0 0 .024.528l2.463.929a.573.573 0 0 1 .325.3l1.917 3.941c.037.174.356.222.362.045l-.293-3.26a1.157 1.157 0 0 1 .264-.657l7.489-7.339a.18.18 0 0 1 .164-.048.172.172 0 0 1 .095.264l-6.46 7.9a1.443 1.443 0 0 0-.264.652l-.388 2.814c.032.245.224.341.38.119l1.391-1.631a.29.29 0 0 1 .409-.069l3.585 2.611a.288.288 0 0 0 .454-.177l2.941-14.437a.293.293 0 0 0-.422-.325z" class="cls-6" data-name="Path 1584" transform="translate(-616.487 2.766)"/>
        <path id="Path_1585" d="M561.452 61.626l-9.865 5.335a.206.206 0 0 0 .013.37l1.684.634a.4.4 0 0 1 .222.206l1.32 2.693c.026.119.246.15.248.032l-.2-2.228a.808.808 0 0 1 .18-.449l5.116-5.016a.121.121 0 0 1 .111-.032.116.116 0 0 1 .063.187l-4.409 5.393a.987.987 0 0 0-.172.443l-.264 1.922c.021.169.151.232.264.082l.95-1.114a.2.2 0 0 1 .264-.048l2.447 1.785a.2.2 0 0 0 .312-.121l2.009-9.857a.2.2 0 0 0-.288-.222z" class="cls-6" data-name="Path 1585" transform="translate(-380.784 82.436)"/>
        <path id="Path_1586" d="M774.129 42.611l-9.865 5.338a.206.206 0 0 0 .013.367l1.684.634a.4.4 0 0 1 .222.209l1.307 2.69c.026.119.245.15.248.032l-.19-2.225a.81.81 0 0 1 .18-.451l5.116-5.016a.122.122 0 0 1 .111-.032.116.116 0 0 1 .063.187l-4.414 5.4a.987.987 0 0 0-.172.443l-.264 1.924c.021.166.153.23.264.079l.95-1.114a.2.2 0 0 1 .277-.048l2.45 1.785a.2.2 0 0 0 .309-.121l1.993-9.857a.2.2 0 0 0-.288-.222z" class="cls-6" data-name="Path 1586" transform="translate(-537.32 96.428)"/>
        <path id="Path_1587" d="M861.226 295.687l-29.123-2.4a.528.528 0 0 0-.491.824l2.769 3.78a1.032 1.032 0 0 1 .19.768l-.982 7.735c-.114.293.319.676.5.417l2.735-5.153a2.062 2.062 0 0 1 1.032-.723l18.294-3.648a.325.325 0 0 1 .288.087.306.306 0 0 1-.127.5l-17.3 5.5a2.581 2.581 0 0 0-1.011.723l-3.313 3.817c-.19.4 0 .723.449.546l3.661-1.08a.528.528 0 0 1 .676.3l2.8 7.376a.528.528 0 0 0 .853.18l18.418-18.645a.528.528 0 0 0-.314-.895z" class="cls-6" data-name="Path 1587" transform="translate(-586.899 -88.086)"/>
        <path id="Path_1588" d="M645.837 369.367a4.706 4.706 0 0 0 .993 1c.245.2.5.412.763.6.074.053.15.1.227.153 0 .013-.016.026-.021.042a.6.6 0 0 0-.069.367.792.792 0 0 0 .282.38 3.907 3.907 0 0 1 1.191 2.151c.09.478-.232.99-.211 1.476a4.3 4.3 0 0 0 .375 1.378 7.439 7.439 0 0 0 1.633 2.835 9.166 9.166 0 0 0 1.835 4.522 14.707 14.707 0 0 0 3.1 2.714 6.021 6.021 0 0 0 1.143.718 6.457 6.457 0 0 0 1.132.3 58.385 58.385 0 0 0 9.95 1.125q.14 2.983.121 5.963a2.46 2.46 0 0 1-.137.964 4.282 4.282 0 0 1-.576.808 5.628 5.628 0 0 0-.739 3.661 33.741 33.741 0 0 0 .528 4.43c.346 1.874.029 3.944.694 5.728l.792 2.112a1.865 1.865 0 0 1 .156.626 2.76 2.76 0 0 1-.528 1.257 3.64 3.64 0 0 0-.462 1.919.4.4 0 0 0 .055.214c.087.116.264.106.407.084a17.1 17.1 0 0 1 1.763-.164 3.233 3.233 0 0 0-.285.42 6.173 6.173 0 0 0-.375.771 7.291 7.291 0 0 0-.5 1.378 1.694 1.694 0 0 0-.05.211 7.406 7.406 0 0 0-.084.43 14.256 14.256 0 0 0-.156 2.534 26.854 26.854 0 0 1-.314 3.712 6.116 6.116 0 0 0 .319 2.819 6.675 6.675 0 0 0 .383 2.112 12.723 12.723 0 0 0 .264 2.228q1.37 7.719 2.9 15.4c.092.446.179.89.3 1.32a10.8 10.8 0 0 0 1.977 3.91 17.773 17.773 0 0 1 2.064 3.305c-.061.28-.124.56-.19.837a59.8 59.8 0 0 0-1.616 7.376 10.22 10.22 0 0 1-.528 2.949 4.522 4.522 0 0 0-.528 1.428 1.584 1.584 0 0 0 .219.927c-.069.05-.135.1-.2.156l-.108.09a6.921 6.921 0 0 1-2.68.958 2.9 2.9 0 0 0-2.2 1.647 1.445 1.445 0 0 0-.045.177 2.335 2.335 0 0 0 1.056 2.239 5.931 5.931 0 0 0 2.64.81 8.592 8.592 0 0 1 2.716.623 17.232 17.232 0 0 0 2.112 1.206l.135.04c-.172.1-.346.2-.528.3a7.948 7.948 0 0 1-2.532.792c-.892.124-1.959.182-2.418.961a1.713 1.713 0 0 0 .438 2.019 4.2 4.2 0 0 0 2.017.892 36.7 36.7 0 0 0 5.016.623l1.639.124c1.584.121 3.2.246 4.8.264a33.09 33.09 0 0 0 5.908-.515.644.644 0 0 0 .47-.227.67.67 0 0 0 .071-.375 28.873 28.873 0 0 0-.75-5.955c-.135-.586-.934.214-1.383.721a15.616 15.616 0 0 0-.2-.866l.351-.166a1.264 1.264 0 0 0 .641-.535 1.29 1.29 0 0 0 .069-.62 8.707 8.707 0 0 0-.755-3.756 7.96 7.96 0 0 0-1.494-1.819 69.392 69.392 0 0 0-1.463-12.048 16.462 16.462 0 0 0-2.183-5.768c-.145-.214-.3-.428-.462-.642a51.894 51.894 0 0 0-.7-5.789 1.5 1.5 0 0 1 0-.771 2.381 2.381 0 0 1 .425-.586c.7-.905.415-2.194.333-3.339a15.952 15.952 0 0 1 .657-4.884q.718-2.967 1.428-5.937a9.622 9.622 0 0 1 .5-1.645 16.241 16.241 0 0 1 1.288-2.075 11.7 11.7 0 0 0 1.79-7.051c.264.1.528.193.808.3.2-1.658-.5-3.54 0-5.1a6.552 6.552 0 0 0 2.022-2.408c.391-.876.5-1.864.911-2.732a8.424 8.424 0 0 0 .692-1.465 10.24 10.24 0 0 0-.04-2.426c.026-1.766 1.32-3.405 1.03-5.15a13.136 13.136 0 0 1-.586-2.437 4.076 4.076 0 0 1 .34-1.32c.971-2.574 1.93-5.314 1.431-8.022a9.08 9.08 0 0 1-.314-2.086 12.555 12.555 0 0 0 .311-2.389 1.811 1.811 0 0 0-.359-.837 10.02 10.02 0 0 0 .884-1.695 2.425 2.425 0 0 0 .235-1.082 1.917 1.917 0 0 0-.763-1.288 7.722 7.722 0 0 0-1.32-.768 1.077 1.077 0 0 1-.388-.277 2.846 2.846 0 0 1-.219-.417c-.264-.451-.826-.594-1.272-.866-1.61-.982-1.455-3.514-2.83-4.81a2.751 2.751 0 0 0-3.432-.182.842.842 0 0 1-.486.24.932.932 0 0 1-.47-.264 1.894 1.894 0 0 0-1.162-.322 11.143 11.143 0 0 1-.348-3.081h.124a1.63 1.63 0 0 0 .48-.055 2.533 2.533 0 0 0 1.4-1.616 12.256 12.256 0 0 0 .62-1.774c.016-.058.029-.116.042-.172 1.354.95 2.927 1.946 3.3 1.737.694-.383-3.1-3.083-3.1-3.083a3.021 3.021 0 0 0 .792-1.742 9.475 9.475 0 0 0 .032-3.815 4.5 4.5 0 0 0-2.178-3.012 5.224 5.224 0 0 1-1.476-.837.951.951 0 0 1-.142-.2.491.491 0 0 1-.058-.1 1.439 1.439 0 0 0-.158-.312c-.209-.24-.586-.166-.9-.129h-.272c-1.125.024-2.215-.6-3.353-.6a8.529 8.529 0 0 0-3.408 1.22c-.222.1-.433.193-.631.285a2.848 2.848 0 0 0-1.584 1.439 2.23 2.23 0 0 0-.457.884 2.074 2.074 0 0 0-.058.454 7.553 7.553 0 0 0 3.395 12.671c.026.074.053.148.077.222a6.355 6.355 0 0 1 .33 2.112v.15a5.729 5.729 0 0 0-1.629.663 3.149 3.149 0 0 0-1.373 1.687 1.626 1.626 0 0 0-.042.161 4.345 4.345 0 0 0-1.241-.214 1.332 1.332 0 0 0-1.056.319.975.975 0 0 0-.2.409c-.145.135-.174.367-.264.544-.319.557-1.143.375-1.763.528-.673.166-1.2.792-1.9.792a3.243 3.243 0 0 0-.792-.029c-.264.063-.465.42-.264.6a.842.842 0 0 0-.792.383c-.19.248-.317.544-.528.776a.808.808 0 0 0-.824-.319 3.057 3.057 0 0 0-.869.343 1.247 1.247 0 0 1-.383.135 1.649 1.649 0 0 1-.467-.042 3.732 3.732 0 0 0-2.186.306c-.6.285-1.18-.238-1.848-.28a1.032 1.032 0 0 1-.676-.209 1.32 1.32 0 0 1-.264-.528 2.64 2.64 0 0 0-1.932-1.711 2.249 2.249 0 0 0-1.32-2.774 2.4 2.4 0 0 0-.824-2.091 3.859 3.859 0 0 1-.417-.327 2 2 0 0 1-.383-.707l-.586-1.552c-.264-.053-.462-.161-.707-.2v-.158a5.09 5.09 0 0 0-.264-1.557 8.723 8.723 0 0 0-1.251-2.278 6.563 6.563 0 0 0-2.011-2.022 7.22 7.22 0 0 0-.858-.4l-1.51-.623a.733.733 0 0 0-.264-.074c-.406 0-.48.628-.264.964.459.678 1.494.869 1.787 1.637a1.164 1.164 0 0 0-1.08.839.589.589 0 0 1-.145.341c-.132.108-.341.045-.494.127-.264.145-.151.546-.18.85a4.085 4.085 0 0 1-.264.766 1.639 1.639 0 0 0 .24 1.379zm36.2 105.857c0-.156-.021-.312-.034-.465.032.082.061.166.092.248.264.7.562 1.383.874 2.062l-.053-.029a2.607 2.607 0 0 0-.721-.206.739.739 0 0 1-.2-.018 5.632 5.632 0 0 0 .042-1.587z" class="cls-7" data-name="Path 1588" transform="translate(-450.017 -132.395)"/>
        <path id="Path_1589" d="M762.973 409.855c-.029 1.1-.4 2.17-.459 3.271 3.244.161 6.446-1.412 9.662-.932a4.469 4.469 0 0 1-1.663-2.661 11.108 11.108 0 0 1-.317-4.086 1.686 1.686 0 0 1 .042-.227 5.779 5.779 0 0 0 .343-1.726c-.108-.56-.636-.449-1.114-.417a41.968 41.968 0 0 0-4.332.56c-.372.063-4.013.971-4.065.876a17.106 17.106 0 0 1 1.584 3.244 6.3 6.3 0 0 1 .319 2.098z" class="cls-8" data-name="Path 1589" transform="translate(-535.047 -168.876)"/>
        <path id="Path_1590" d="M645.852 396.907a4.75 4.75 0 0 0 .993 1c.245.2.5.409.763.594a3.261 3.261 0 0 0 1.624.66 4.322 4.322 0 0 0 2.9-1.056 1.906 1.906 0 0 0 .277-1.109 5.034 5.034 0 0 0-.264-1.55 8.647 8.647 0 0 0-1.251-2.265 6.676 6.676 0 0 0-2.012-2.012 7.66 7.66 0 0 0-.858-.4l-1.51-.618a.734.734 0 0 0-.264-.074c-.406 0-.48.623-.264.958.459.676 1.494.863 1.787 1.629a1.159 1.159 0 0 0-1.08.834.581.581 0 0 1-.145.338c-.132.108-.341.048-.494.127-.264.145-.15.544-.18.847a4.1 4.1 0 0 1-.264.76 1.621 1.621 0 0 0 .242 1.337z" class="cls-8" data-name="Path 1590" transform="translate(-450.031 -159.333)"/>
        <path id="Path_1591" d="M797.451 820.308c-.248-.264-.657-.209-1.006-.153a37.338 37.338 0 0 1-5.662.459c-.238-1.159.451-2.286.673-3.45a3.046 3.046 0 0 1 .224-.871 1.99 1.99 0 0 1 1.433-.866c1.022-.214 2.616-.594 3.186.436a15.476 15.476 0 0 1 1.152 4.445z" class="cls-9" data-name="Path 1591" transform="translate(-556.88 -472.212)"/>
        <path id="Path_1592" d="M734.543 802.569a5.928 5.928 0 0 0 2.64.808 8.588 8.588 0 0 1 2.716.62 17.176 17.176 0 0 0 2.112 1.2 4.374 4.374 0 0 0 2.178.034 3.23 3.23 0 0 0 2.241-1.217 3.743 3.743 0 0 0 .312-2.276c-.066-.879-.129-1.758-.2-2.64a1.247 1.247 0 0 0-.164-.636c-.62-.908-2.133.377-2.943.377a5.673 5.673 0 0 1-3.582-1.547 1.149 1.149 0 0 0-.28-.211c-.364-.164-.731.14-1.056.4l-.108.09a6.959 6.959 0 0 1-2.679.956 2.9 2.9 0 0 0-2.2 1.637 1.428 1.428 0 0 0-.045.174 2.287 2.287 0 0 0 1.058 2.231z" class="cls-10" data-name="Path 1592" transform="translate(-514.719 -458.859)"/>
        <path id="Path_1593" d="M734.543 802.569a5.928 5.928 0 0 0 2.64.808 8.588 8.588 0 0 1 2.716.62 17.176 17.176 0 0 0 2.112 1.2 4.374 4.374 0 0 0 2.178.034 3.23 3.23 0 0 0 2.241-1.217 3.743 3.743 0 0 0 .312-2.276c-.066-.879-.129-1.758-.2-2.64a1.247 1.247 0 0 0-.164-.636c-.62-.908-2.133.377-2.943.377a5.673 5.673 0 0 1-3.582-1.547 1.149 1.149 0 0 0-.28-.211c-.364-.164-.731.14-1.056.4l-.108.09a6.959 6.959 0 0 1-2.679.956 2.9 2.9 0 0 0-2.2 1.637 1.428 1.428 0 0 0-.045.174 2.287 2.287 0 0 0 1.058 2.231z" class="cls-11" data-name="Path 1593" transform="translate(-514.719 -458.859)"/>
        <path id="Path_1594" d="M734.291 802.885a5.927 5.927 0 0 0 2.64.808 8.587 8.587 0 0 1 2.716.62 17.168 17.168 0 0 0 2.112 1.2 4.375 4.375 0 0 0 2.178.034 3.6 3.6 0 0 0 2.241-1.513 3.742 3.742 0 0 0 .312-2.276c-.066-.879-.129-1.758-.2-2.64a1.249 1.249 0 0 0-.164-.636c-.62-.908-2.133.378-2.943.378a5.673 5.673 0 0 1-3.582-1.547 1.149 1.149 0 0 0-.28-.211c-.364-.164-.731.14-1.056.4a7.55 7.55 0 0 0 .9 1.848 3.883 3.883 0 0 0 2.825 1.769 9.269 9.269 0 0 1 1.716.077c.554.148 1.056.713.874 1.254s-.869.639-1.428.668a6.326 6.326 0 0 1-2.331-.161c-.454-.153-.869-.4-1.32-.586-1.88-.792-4.253-.343-5.808-1.66a3.49 3.49 0 0 0-.475-.364c-.403.867.352 2.044 1.073 2.538z" class="cls-12" data-name="Path 1594" transform="translate(-514.466 -458.874)"/>
        <path id="Path_1595" d="M734.291 802.885a5.927 5.927 0 0 0 2.64.808 8.587 8.587 0 0 1 2.716.62 17.168 17.168 0 0 0 2.112 1.2 4.375 4.375 0 0 0 2.178.034 3.6 3.6 0 0 0 2.241-1.513 3.742 3.742 0 0 0 .312-2.276c-.066-.879-.129-1.758-.2-2.64a1.249 1.249 0 0 0-.164-.636c-.62-.908-2.133.378-2.943.378a5.673 5.673 0 0 1-3.582-1.547 1.149 1.149 0 0 0-.28-.211c-.364-.164-.731.14-1.056.4a7.55 7.55 0 0 0 .9 1.848 3.883 3.883 0 0 0 2.825 1.769 9.269 9.269 0 0 1 1.716.077c.554.148 1.056.713.874 1.254s-.869.639-1.428.668a6.326 6.326 0 0 1-2.331-.161c-.454-.153-.869-.4-1.32-.586-1.88-.792-4.253-.343-5.808-1.66a3.49 3.49 0 0 0-.475-.364c-.403.867.352 2.044 1.073 2.538z" class="cls-11" data-name="Path 1595" transform="translate(-514.466 -458.874)"/>
        <path id="Path_1596" d="M754.949 591.829a11.554 11.554 0 0 1-1.584 8.527 15.952 15.952 0 0 0-1.288 2.064 9.536 9.536 0 0 0-.5 1.637l-1.428 5.919a15.98 15.98 0 0 0-.657 4.857c.082 1.14.37 2.421-.333 3.324a2.379 2.379 0 0 0-.425.581 1.487 1.487 0 0 0 0 .768c.723 4.287 1.257 8.772-.047 12.919-1.18 3.759-1.249 7.919-2.254 11.737a2.6 2.6 0 0 1-.623 1.3 2.061 2.061 0 0 1-.937.446 6.9 6.9 0 0 1-4.424-.7c-.972-.449-2.017-1.238-1.932-2.3a4.9 4.9 0 0 1 .528-1.42 9.777 9.777 0 0 0 .528-2.933 58.708 58.708 0 0 1 1.615-7.336 17.527 17.527 0 0 0 .486-7.444 65.162 65.162 0 0 0-4.791-14.733 1.723 1.723 0 0 0-.438-.657 4.678 4.678 0 0 1-.62-.425 1.866 1.866 0 0 1-.282-.773 8.388 8.388 0 0 0-1.288-2.033c-1.088-1.726-.742-3.939-.7-5.977a41.234 41.234 0 0 1 .079-5.937c.325-1.956 1.444-3.96 3.329-4.567a7.159 7.159 0 0 1 2.922-.137 56.927 56.927 0 0 1 15.064 3.293z" class="cls-13" data-name="Path 1596" transform="translate(-514.729 -305.334)"/>
        <path id="Path_1597" d="M754.949 591.829a11.554 11.554 0 0 1-1.584 8.527 15.952 15.952 0 0 0-1.288 2.064 9.536 9.536 0 0 0-.5 1.637l-1.428 5.919a15.98 15.98 0 0 0-.657 4.857c.082 1.14.37 2.421-.333 3.324a2.379 2.379 0 0 0-.425.581 1.487 1.487 0 0 0 0 .768c.723 4.287 1.257 8.772-.047 12.919-1.18 3.759-1.249 7.919-2.254 11.737a2.6 2.6 0 0 1-.623 1.3 2.061 2.061 0 0 1-.937.446 6.9 6.9 0 0 1-4.424-.7c-.972-.449-2.017-1.238-1.932-2.3a4.9 4.9 0 0 1 .528-1.42 9.777 9.777 0 0 0 .528-2.933 58.708 58.708 0 0 1 1.615-7.336 17.527 17.527 0 0 0 .486-7.444 65.162 65.162 0 0 0-4.791-14.733 1.723 1.723 0 0 0-.438-.657 4.678 4.678 0 0 1-.62-.425 1.866 1.866 0 0 1-.282-.773 8.388 8.388 0 0 0-1.288-2.033c-1.088-1.726-.742-3.939-.7-5.977a41.234 41.234 0 0 1 .079-5.937c.325-1.956 1.444-3.96 3.329-4.567a7.159 7.159 0 0 1 2.922-.137 56.927 56.927 0 0 1 15.064 3.293z" class="cls-11" data-name="Path 1597" transform="translate(-514.729 -305.334)"/>
        <path id="Path_1598" d="M732.791 606.9a12.4 12.4 0 0 0 .264 2.291q1.37 7.679 2.9 15.311c.092.444.18.884.3 1.32a10.731 10.731 0 0 0 1.977 3.888c4.3 5.361 4.675 13.149 7.009 19.614.156.438.314.876.48 1.32a32.682 32.682 0 0 0 1.441 3.213.905.905 0 0 0 .3.383.884.884 0 0 0 .47.092 13.687 13.687 0 0 0 6.068-1.378 1.257 1.257 0 0 0 .644-.528 1.287 1.287 0 0 0 .069-.618 8.612 8.612 0 0 0-.755-3.735 7.923 7.923 0 0 0-1.494-1.811A68.7 68.7 0 0 0 751 634.277a16.341 16.341 0 0 0-2.183-5.739c-.861-1.254-2.093-2.489-1.943-4 .069-.665.346-1.492-.2-1.882-.235-.172-.586-.193-.744-.438a.808.808 0 0 1-.106-.375 9.3 9.3 0 0 1 .193-3.1 16.736 16.736 0 0 0 .462-2.022 2.539 2.539 0 0 0-.51-1.953c-.029-1.381 0-2.814-.018-4.195a7.813 7.813 0 0 1 .2-2.342c.1-.362.264-.707.343-1.077.29-1.32-.43-2.9.428-3.96a5.823 5.823 0 0 1 1.375-.971 5.033 5.033 0 0 0 1.89-2.716 15 15 0 0 0 .528-3.326 3.469 3.469 0 0 0 0-.721 1.343 1.343 0 0 0-.1-.359 2.188 2.188 0 0 0-1.615-.991 52.429 52.429 0 0 0-12.381-1.447c-1.542-1.056-2.41-.676-3.062.438a11.278 11.278 0 0 0-.874 2.13c-.3.9-.317 5.953-.607 6.864-.37 1.164.715 3.572.715 4.805z" class="cls-13" data-name="Path 1598" transform="translate(-513.651 -307.979)"/>
        <path id="Path_1599" d="M811.945 469.644a12.009 12.009 0 0 1-.312 2.376 9 9 0 0 0 .314 2.075c.5 2.693-.459 5.42-1.431 7.98a4.033 4.033 0 0 0-.341 1.32 13.359 13.359 0 0 0 .586 2.426c.277 1.734-1 3.366-1.03 5.121a9.609 9.609 0 0 1 .04 2.413 8.288 8.288 0 0 1-.692 1.46c-.409.863-.528 1.848-.911 2.716a9.136 9.136 0 0 1-3.672 3.551 3.71 3.71 0 0 1-2.165-1.338 3.315 3.315 0 0 1-.378-1.177 30.327 30.327 0 0 1-.29-5.451 34 34 0 0 1 .248-4.7c.293-1.98.934-3.888 1.4-5.837a56.365 56.365 0 0 1 1.785-7.355 24.8 24.8 0 0 1 3.342-5.71c.5-.681.89-1.65 1.848-1.494a2.03 2.03 0 0 1 1.659 1.624z" class="cls-10" data-name="Path 1599" transform="translate(-564.923 -216.689)"/>
        <path id="Path_1600" d="M811.945 469.644a12.009 12.009 0 0 1-.312 2.376 9 9 0 0 0 .314 2.075c.5 2.693-.459 5.42-1.431 7.98a4.033 4.033 0 0 0-.341 1.32 13.359 13.359 0 0 0 .586 2.426c.277 1.734-1 3.366-1.03 5.121a9.609 9.609 0 0 1 .04 2.413 8.288 8.288 0 0 1-.692 1.46c-.409.863-.528 1.848-.911 2.716a9.136 9.136 0 0 1-3.672 3.551 3.71 3.71 0 0 1-2.165-1.338 3.315 3.315 0 0 1-.378-1.177 30.327 30.327 0 0 1-.29-5.451 34 34 0 0 1 .248-4.7c.293-1.98.934-3.888 1.4-5.837a56.365 56.365 0 0 1 1.785-7.355 24.8 24.8 0 0 1 3.342-5.71c.5-.681.89-1.65 1.848-1.494a2.03 2.03 0 0 1 1.659 1.624z" class="cls-11" data-name="Path 1600" transform="translate(-564.923 -216.689)"/>
        <path id="Path_1601" d="M761.07 404.512a17.1 17.1 0 0 1 1.584 3.244 7.437 7.437 0 0 0 1.79.216c2.339 0 4-1.32 5.372-3.012.119-.528.861-1.043.776-1.468-.108-.56-.636-.449-1.114-.417a41.968 41.968 0 0 0-4.332.56c-.383.065-4.023.982-4.076.877z" class="cls-5" data-name="Path 1601" transform="translate(-535.047 -168.876)"/>
        <ellipse id="Ellipse_340" cx="7.497" cy="7.497" class="cls-8" data-name="Ellipse 340" rx="7.497" ry="7.497" transform="translate(221.889 223.899)"/>
        <path id="Path_1602" d="M737.93 593.058c1.3-.077 2.6-.026 3.9.026a13.581 13.581 0 0 1 2.426.248c.985.224 1.906.673 2.877.953a26.355 26.355 0 0 0 4.807.634 27.622 27.622 0 0 1 3.147.491 1.343 1.343 0 0 0-.1-.359 2.187 2.187 0 0 0-1.621-.985 52.422 52.422 0 0 0-12.381-1.447c-1.534-1.044-2.403-.67-3.055.439z" class="cls-5" data-name="Path 1602" transform="translate(-518.016 -307.952)"/>
        <path id="Path_1603" d="M734.273 432.972c.327.377.766.792 1.251.671a1.726 1.726 0 0 0 .486-.264 7.327 7.327 0 0 1 2.941-.842 43.223 43.223 0 0 0 6.072-1.362 6.189 6.189 0 0 1 1.792-.364 4.329 4.329 0 0 1 3.192 1.848c.795 1 1.352 2.162 2.143 3.163.557.713 1.22 1.341 1.74 2.083a9.132 9.132 0 0 1 1.254 6.573 26.686 26.686 0 0 1-2.136 6.494 22.388 22.388 0 0 1-1.745 3.519 8.389 8.389 0 0 1-.673 5.222 5.242 5.242 0 0 0-.681 1.552 3.926 3.926 0 0 0 .047 1.138l.383 2.714c.116.826.232 1.655.383 2.476.264 1.5.649 3.131-.048 4.488-.834 1.626.042 3.714-.177 5.544a27.833 27.833 0 0 0-7.323-1.745 26.116 26.116 0 0 1-4.8-.628c-.971-.282-1.893-.731-2.877-.956a13.335 13.335 0 0 0-2.426-.248 28.849 28.849 0 0 0-5.383.121c-.145.021-.319.032-.406-.084a.387.387 0 0 1-.055-.211 3.6 3.6 0 0 1 .462-1.909 2.723 2.723 0 0 0 .528-1.251 1.847 1.847 0 0 0-.156-.623l-.792-2.112c-.665-1.774-.349-3.833-.694-5.7a33.371 33.371 0 0 1-.528-4.406 5.515 5.515 0 0 1 .739-3.646 4.153 4.153 0 0 0 .576-.792 2.442 2.442 0 0 0 .137-.958q.024-3.793-.209-7.584c.665-1.2 1.36-2.418 2.025-3.611a15.5 15.5 0 0 0 1.872-4.369c.206-1.035.2-2.1.346-3.141a1.368 1.368 0 0 1 .264-.731 1.328 1.328 0 0 1 1.056-.317 4.659 4.659 0 0 1 1.42.248z" class="cls-10" data-name="Path 1603" transform="translate(-509.251 -189.311)"/>
        <path id="Path_1604" d="M653.31 417.494a3.261 3.261 0 0 0 1.623.66 4.322 4.322 0 0 0 2.9-1.056 1.906 1.906 0 0 0 .277-1.109 1.367 1.367 0 0 0-.322-.061 8.448 8.448 0 0 0-2.516.1 2.833 2.833 0 0 0-1.953 1.465z" class="cls-5" data-name="Path 1604" transform="translate(-455.734 -178.321)"/>
        <path id="Path_1605" d="M678.575 434.215a5.232 5.232 0 0 1-1.584 1.492 5.1 5.1 0 0 1-2.46.377 59.05 59.05 0 0 1-10.3-1.13 6.46 6.46 0 0 1-1.133-.3 6.007 6.007 0 0 1-1.143-.715 14.414 14.414 0 0 1-3.1-2.7 9.105 9.105 0 0 1-1.835-4.5 7.357 7.357 0 0 1-1.637-2.819 4.255 4.255 0 0 1-.375-1.367c-.021-.486.3-1 .211-1.473a3.878 3.878 0 0 0-1.191-2.138.792.792 0 0 1-.282-.378.591.591 0 0 1 .069-.364 2.818 2.818 0 0 1 1.951-1.468 8.465 8.465 0 0 1 2.518-.1 5.836 5.836 0 0 1 .824.219l.586 1.544a1.988 1.988 0 0 0 .383.7 3.841 3.841 0 0 0 .417.325 2.376 2.376 0 0 1 .824 2.08 2.236 2.236 0 0 1 1.32 2.761 2.64 2.64 0 0 1 1.932 1.7 1.288 1.288 0 0 0 .264.528 1.032 1.032 0 0 0 .676.209c.663.04 1.241.562 1.848.28a3.733 3.733 0 0 1 2.186-.306 1.645 1.645 0 0 0 .467.04 1.179 1.179 0 0 0 .383-.132 3.137 3.137 0 0 1 .868-.343.813.813 0 0 1 .824.319c.211-.23.338-.528.528-.771a.847.847 0 0 1 .792-.383c-.2-.177 0-.528.264-.6a3.527 3.527 0 0 1 .792.029c.694 0 1.225-.634 1.9-.792.62-.153 1.444.029 1.763-.528.111-.2.135-.459.325-.581a.634.634 0 0 1 .42-.047 4.1 4.1 0 0 1 1.264.383 17.719 17.719 0 0 1-.187 7.751 6.8 6.8 0 0 1-1.378 3.194z" class="cls-10" data-name="Path 1605" transform="translate(-456.058 -178.836)"/>
        <path id="Path_1606" d="M745.816 515.468l3.229 6.51c-.348-.6-1.085-.837-1.666-1.222a4.43 4.43 0 0 1-1.584-2.138 13.206 13.206 0 0 1-.61-2.64 2.386 2.386 0 0 1 0-1.367c.359.078.478.551.631.857z" class="cls-5" data-name="Path 1606" transform="translate(-523.278 -250.989)"/>
        <path id="Path_1607" d="M779.332 535.216a28.639 28.639 0 0 0 2.421 1.89 22.349 22.349 0 0 1 4.511 5.544 8.96 8.96 0 0 1 .921 1.679c-.153.132-.383 0-.528-.137l-2.534-2.228a5.621 5.621 0 0 1-.845-.855c-.441-.594-.636-1.32-1.035-1.953a7.686 7.686 0 0 0-1.542-1.584c-.581-.5-3.257-2.761-2.605-3.64.465.249.851.901 1.236 1.284z" class="cls-5" data-name="Path 1607" transform="translate(-547.504 -265.209)"/>
        <path id="Path_1608" d="M757.97 427.723a7.523 7.523 0 0 1 2.685-.884 5.626 5.626 0 0 1 1.705-.121c.528.066 1.035.264 1.565.3a7.057 7.057 0 0 0 2.181-.457 2.619 2.619 0 0 1 2.159.161.913.913 0 0 0 .47.251.836.836 0 0 0 .486-.238 2.761 2.761 0 0 1 3.432.182c1.375 1.288 1.22 3.807 2.83 4.783.446.264 1.014.412 1.272.863a3.108 3.108 0 0 0 .219.414 1.1 1.1 0 0 0 .388.264 7.7 7.7 0 0 1 1.32.763 1.906 1.906 0 0 1 .763 1.283 2.406 2.406 0 0 1-.235 1.077 10.108 10.108 0 0 1-9.823 6.28 1.552 1.552 0 0 1-1.03-.319 1.95 1.95 0 0 1-.362-.594c-.758-1.584-2.178-2.761-3.083-4.271-.528-.9-.882-1.906-1.444-2.79a13.413 13.413 0 0 0-3.405-3.3 3.915 3.915 0 0 0-2.4-1.074c-.792.034-1.378.077-1.085-.9a3.131 3.131 0 0 1 1.392-1.673z" class="cls-10" data-name="Path 1608" transform="translate(-531.683 -185.934)"/>
        <path id="Path_1609" d="M757.97 427.723a7.523 7.523 0 0 1 2.685-.884 5.626 5.626 0 0 1 1.705-.121c.528.066 1.035.264 1.565.3a7.057 7.057 0 0 0 2.181-.457 2.619 2.619 0 0 1 2.159.161.913.913 0 0 0 .47.251.836.836 0 0 0 .486-.238 2.761 2.761 0 0 1 3.432.182c1.375 1.288 1.22 3.807 2.83 4.783.446.264 1.014.412 1.272.863a3.108 3.108 0 0 0 .219.414 1.1 1.1 0 0 0 .388.264 7.7 7.7 0 0 1 1.32.763 1.906 1.906 0 0 1 .763 1.283 2.406 2.406 0 0 1-.235 1.077 10.108 10.108 0 0 1-9.823 6.28 1.552 1.552 0 0 1-1.03-.319 1.95 1.95 0 0 1-.362-.594c-.758-1.584-2.178-2.761-3.083-4.271-.528-.9-.882-1.906-1.444-2.79a13.413 13.413 0 0 0-3.405-3.3 3.915 3.915 0 0 0-2.4-1.074c-.792.034-1.378.077-1.085-.9a3.131 3.131 0 0 1 1.392-1.673z" class="cls-11" data-name="Path 1609" transform="translate(-531.683 -185.934)"/>
        <path id="Path_1610" d="M745.587 826.829a4.2 4.2 0 0 0 2.017.887 36.676 36.676 0 0 0 5.016.618l1.639.127c1.584.121 3.2.243 4.8.251a33.09 33.09 0 0 0 5.908-.512.644.644 0 0 0 .47-.227.657.657 0 0 0 .071-.372 28.6 28.6 0 0 0-.731-5.924c-.185-.792-1.618.993-1.684 1.056a1.633 1.633 0 0 1-1.3.692 8.661 8.661 0 0 1-4.807-1.806 6.08 6.08 0 0 0-.89-.552 2.7 2.7 0 0 0-.721-.206 4.359 4.359 0 0 0-2.452.5c-.987.488-1.848 1.191-2.825 1.692a7.945 7.945 0 0 1-2.532.792c-.892.122-1.959.182-2.418.956a1.718 1.718 0 0 0 .439 2.028z" class="cls-10" data-name="Path 1610" transform="translate(-523.201 -476.382)"/>
        <path id="Path_1611" d="M745.288 827.152a4.17 4.17 0 0 0 2.017.884 36.286 36.286 0 0 0 5.016.62l1.639.127c1.584.121 3.2.243 4.8.251a33.1 33.1 0 0 0 5.908-.512.644.644 0 0 0 .47-.227 2.635 2.635 0 0 0 .367-.668 29.038 29.038 0 0 0-1.024-5.932c-.185-.792-1.618.993-1.684 1.056a1.633 1.633 0 0 1-1.3.692 8.663 8.663 0 0 1-4.807-1.806 6.067 6.067 0 0 0-.89-.552 2.7 2.7 0 0 0-.721-.206c.211 1.188 1.914 2.621 2.793 3.057 1.777.882 3.888.443 5.871.546a.792.792 0 0 1 .414.1.838.838 0 0 1 .245.779c-.016.473-.077 1.03-.488 1.27a1.42 1.42 0 0 1-.657.137 92.869 92.869 0 0 1-14.638-.528 7.973 7.973 0 0 1-2.376-.528 6.273 6.273 0 0 1-1.383-.89c-.633.517-.113 1.826.428 2.33z" class="cls-12" data-name="Path 1611" transform="translate(-522.903 -476.409)"/>
        <path id="Path_1612" d="M756.3 370.158c.029.773-.5 2.278.948 1.848.866-.251 1.109-1.272 2.2-1.056s1.349 1.584 1.721 2.463a4.72 4.72 0 0 0 3.416 2.761 2.054 2.054 0 0 0 .94 0 2.531 2.531 0 0 0 1.4-1.608 12.25 12.25 0 0 0 .62-1.763 7.481 7.481 0 0 0 .224-1.3 5.951 5.951 0 0 0 0-.895 7.259 7.259 0 0 0-2.421-4.585 21.667 21.667 0 0 0-4.385-2.959 6.369 6.369 0 0 0-1.616-.721 5.369 5.369 0 0 0-1.708-.071 5.987 5.987 0 0 0-2.173.509 3.04 3.04 0 0 0-.766.528 2.3 2.3 0 0 0-.663 1.106c-.277 1.138.449 2.165 1.037 3.065a5.666 5.666 0 0 1 1.226 2.678z" class="cls-10" data-name="Path 1612" transform="translate(-529.828 -138.841)"/>
        <path id="Path_1613" d="M670.35 444.966c.309-.792 1.61-2.941 1.235-3.7a9.873 9.873 0 0 0-.993 1.771c-.245.619-.044 1.43-.242 1.929z" class="cls-5" data-name="Path 1613" transform="translate(-468.276 -197.01)"/>
        <path id="Path_1614" d="M754.928 370.157c-.591-.9-1.32-1.927-1.04-3.065a2.376 2.376 0 0 1 .845-1.262 2.015 2.015 0 0 0-.214.528c-.28 1.14.449 2.165 1.037 3.065a5.445 5.445 0 0 1 1.214 2.64c.029.776-.5 2.281.95 1.848.863-.251 1.106-1.275 2.2-1.056s1.346 1.584 1.719 2.463a4.717 4.717 0 0 0 3.416 2.759 2.054 2.054 0 0 0 .94 0 1.388 1.388 0 0 0 .443-.216 1.919 1.919 0 0 1-1.072.948 2.054 2.054 0 0 1-.94 0 4.725 4.725 0 0 1-3.419-2.761c-.37-.884-.612-2.231-1.719-2.463s-1.341.792-2.2 1.056c-1.452.42-.921-1.085-.95-1.848a5.349 5.349 0 0 0-1.21-2.636z" class="cls-5" data-name="Path 1614" transform="translate(-529.716 -141.485)"/>
        <path id="Path_1615" d="M755.517 366.008a6.713 6.713 0 0 0 .446.636 7.627 7.627 0 0 0 1.024 1.056c.222.193.451.372.692.544a11.055 11.055 0 0 0 1.4.834 25.5 25.5 0 0 0 4.488 1.6l2.994.871c.367.264 1.04.779 1.782 1.3a7.482 7.482 0 0 0 .224-1.3 5.951 5.951 0 0 0 0-.895 7.259 7.259 0 0 0-2.421-4.585 21.666 21.666 0 0 0-4.385-2.959 6.368 6.368 0 0 0-1.616-.721 5.37 5.37 0 0 0-1.708-.071 5.987 5.987 0 0 0-2.173.509 3.036 3.036 0 0 0-.766.528 2.928 2.928 0 0 0-.383.81 2.3 2.3 0 0 0 .402 1.843z" class="cls-5" data-name="Path 1615" transform="translate(-530.617 -138.878)"/>
        <path id="Path_1616" d="M755.521 361.3a6.665 6.665 0 0 0 .446.634 7.345 7.345 0 0 0 1.024 1.056 8.047 8.047 0 0 0 .689.549 11.4 11.4 0 0 0 1.4.837 25.931 25.931 0 0 0 4.488 1.605l2.994.868c1.056.792 4.541 3.382 5.127 3.057.694-.38-3.1-3.068-3.1-3.068l-.174.132a2.781 2.781 0 0 0 .971-1.848 9.383 9.383 0 0 0 .032-3.8 4.486 4.486 0 0 0-2.178-3 5.209 5.209 0 0 1-1.476-.832 1.01 1.01 0 0 1-.143-.193.681.681 0 0 1-.058-.1 1.363 1.363 0 0 0-.158-.309c-.208-.24-.586-.169-.9-.129h-.1a1.239 1.239 0 0 1-.172 0c-1.125.026-2.215-.6-3.353-.6a8.6 8.6 0 0 0-3.408 1.212c-.222.1-.433.193-.631.285a2.724 2.724 0 0 0-1.716 1.814 2.278 2.278 0 0 0 .396 1.83z" class="cls-6" data-name="Path 1616" transform="translate(-530.62 -134.375)"/>
        <path id="Path_1617" d="M789.6 358.438a.546.546 0 0 0-.069.264.528.528 0 0 0 .187.4.926.926 0 0 0 .473.166 3.427 3.427 0 0 0 .37.029.99.99 0 0 0 .486-.082.58.58 0 0 0 .084-.055 1.013 1.013 0 0 1-.143-.193c-.029.021-.058.016-.169 0a2.784 2.784 0 0 1-.607-.1.7.7 0 0 1-.227-.111.665.665 0 0 1-.214-.327z" class="cls-5" data-name="Path 1617" transform="translate(-555.994 -136.038)"/>
        <path id="Path_1618" d="M800.671 396.468a1.426 1.426 0 0 1-.528.193 2.08 2.08 0 0 1-.4.063 2.222 2.222 0 0 1-.982-.264" class="cls-5" data-name="Path 1618" transform="translate(-562.788 -164.029)"/>
        <path id="Rectangle_261" d="M0 0h13.656v6.7H0z" class="cls-14" data-name="Rectangle 261" transform="translate(87.487 229.028)"/>
        <path id="Rectangle_262" d="M0 0h13.656v6.7H0z" class="cls-14" data-name="Rectangle 262" transform="translate(87.487 247.837)"/>
        <path id="Rectangle_263" d="M0 0h13.656v6.7H0z" class="cls-14" data-name="Rectangle 263" transform="translate(87.487 266.646)"/>
        <path id="Rectangle_264" d="M0 0h13.656v6.7H0z" class="cls-14" data-name="Rectangle 264" transform="translate(87.487 285.455)"/>
        <path id="Path_1619" d="M235.537 388.513c.38-.243.23-.892-.164-1.114a1.915 1.915 0 0 0-1.32-.063.528.528 0 0 0-.282-.568v-.1a.7.7 0 0 0-.153-1 2.017 2.017 0 0 0-1.23-.216 1.631 1.631 0 0 0-.528-1.391.436.436 0 0 0-.285-.137c-.245 0-.327.33-.346.575a11.368 11.368 0 0 1-.317 1.9l-8 13.4c-.892 1.288 1.88-2.566.987-1.278a11.539 11.539 0 0 1-1.584 1.959 7.782 7.782 0 0 1-1.782 1.191 2.1 2.1 0 0 1-1.217-.343 4.924 4.924 0 0 1-1.169-1.159 22.868 22.868 0 0 1-1.887-2.806 3.522 3.522 0 0 1-.433-1 9.216 9.216 0 0 0-.222-1.679 2.606 2.606 0 0 0-.343-.546l-.552-.737a.128.128 0 0 1 0-.032 4.154 4.154 0 0 0-1.769-2.64 4.8 4.8 0 0 0-2.376-1.37c-.5-.063-1 .032-1.5-.032-.4-.05-.792-.2-1.188-.264a5.22 5.22 0 0 0-1.167-.024l-.166-.15a4.636 4.636 0 0 0 2.085-1.753c.383-.618.589-1.32.942-1.961.43-.773 1.056-1.412 1.555-2.154a7.964 7.964 0 0 0 .9-6.072 14.6 14.6 0 0 0-2.846-5.575 10.963 10.963 0 0 0-10.53-3.759c-.264.04-.528.09-.779.145a9.868 9.868 0 0 0-1.914.612 4.855 4.855 0 0 0-2.09 1.628 3.531 3.531 0 0 0-.364.676 3.862 3.862 0 0 0-.177.554 5.733 5.733 0 0 0-.1 1.742c.016.2.037.4.061.6a2.3 2.3 0 0 0 .037.3c.026.2.055.4.082.6.042.3.082.6.111.89a5.564 5.564 0 0 1 .032.628v.156a2.471 2.471 0 0 1-.069.462 2.381 2.381 0 0 1-.077.243 3.063 3.063 0 0 1-.364.671 8.981 8.981 0 0 1-.652.792l-.224.264-.222.264a9.212 9.212 0 0 0-.805 1.09 5.182 5.182 0 0 0-.319.6 4.376 4.376 0 0 0-.18.48 3.459 3.459 0 0 0-.14.668c0 .058-.013.113-.016.172a2.876 2.876 0 0 0 0 .338 2.329 2.329 0 0 0 .037.333 2.552 2.552 0 0 0 .2.642c0 .029.029.058.042.084s.029.055.042.084l.082.169a1.228 1.228 0 0 1 .084.264v.092a.6.6 0 0 1 0 .1 1.056 1.056 0 0 1-.38.657c-.05.048-.106.092-.158.137l-.082.066-.166.132-.161.129a3.168 3.168 0 0 0-.388.388 14.3 14.3 0 0 0-4.313.422 5.889 5.889 0 0 1-1.55.28.771.771 0 0 1-.671-.282 1.014 1.014 0 0 1-.069-.615 5.309 5.309 0 0 0-.412-2.526 1.42 1.42 0 0 0-.414-.6.586.586 0 0 0-.684-.037 6.441 6.441 0 0 1-.177 4.3 14.18 14.18 0 0 1-.993 1.864c-.589 1-.919 2.146-1.441 3.184.586 1.983.457 4.1.763 6.143a28.39 28.39 0 0 0 1.618 5.544 8.914 8.914 0 0 0 2.144 3.746 1.967 1.967 0 0 0 1.32.576 2.331 2.331 0 0 0 1.037-.391 4.041 4.041 0 0 0 .874-.644 1.988 1.988 0 0 0 .264-.343 1.293 1.293 0 0 0 .193.486 53.58 53.58 0 0 1 2.059-3.976 3.4 3.4 0 0 0 .618-.422c.013.045.024.092.034.14-.032.124-.063.251-.1.375s-.071.238-.108.354l-.082.264c-.029.09-.069.206-.106.309l-.127.335c-.032.079-.061.158-.1.238-.079.193-.161.385-.251.575a1.735 1.735 0 0 0 .219.09l.05.016a1.9 1.9 0 0 0 .2.05h.074l.153.016h.24a2.424 2.424 0 0 0 .544-.1l.1.414a14.758 14.758 0 0 1 .5 2.827 22.186 22.186 0 0 0 .066 3.247c.108.552.322 1.082.4 1.642a6.824 6.824 0 0 1-.029 1.584l-.359 3.8a3.244 3.244 0 0 1-.325 1.338c-.18.309-.467.663-.288.969a6.293 6.293 0 0 1 .905-.174c-.111.4-.211.808-.306 1.214a2.136 2.136 0 0 0-.071.937 5.948 5.948 0 0 1 .264.858 2.768 2.768 0 0 1-.454 1.3c-.454 1.1.029 2.336.509 3.432l1.42 3.223q.581 1.32 1.167 2.64c.346.792.694 1.584 1.027 2.376a76.952 76.952 0 0 1 3.717 11.143 1.3 1.3 0 0 0 .19.483c.2.264.554.341.845.5a1.575 1.575 0 0 1 .174 2.516c.166 1.938-1.286 3.809-2.033 5.6-1.721 4.126-1.41 8.775-2 13.2l.668-.391a.878.878 0 0 1 .216.143c-.016.082-.032.164-.053.248a3.931 3.931 0 0 1-.43 1.072A5.745 5.745 0 0 0 195.2 473a12.418 12.418 0 0 0 .084 1.394v.129c-.058-.058-.148-.053-.285.053a1.7 1.7 0 0 0-.42.792c-.116.33-.209.668-.3 1.006l-.325 1.193a13.836 13.836 0 0 1-.7 2.1 8.813 8.813 0 0 0-.618 1.426 4.406 4.406 0 0 0-.108 1.222 3.716 3.716 0 0 0 .169 1.156 2.88 2.88 0 0 0 1.687 1.6 7.918 7.918 0 0 0 2.344.441 2 2 0 0 0 .615-.016 1.689 1.689 0 0 0 .6-.312 4.967 4.967 0 0 0 1.745-3.617 5.233 5.233 0 0 0-.148-.821c.066-1.465-.148-2.938-.034-4.4.021.166.048.33.071.5l.264 1.639a.346.346 0 0 0-.09-.153 3.778 3.778 0 0 0-.1 1.88 11 11 0 0 0 .528 1.821l.351.979a1.756 1.756 0 0 0 1.639 1.383 13.282 13.282 0 0 0 2.957.5.679.679 0 0 0 .391-.071 2.26 2.26 0 0 0 .174-.148 1.608 1.608 0 0 1 .285-.166 1.864 1.864 0 0 0 .905-1.072 1.7 1.7 0 0 0-.166-1.389 3.189 3.189 0 0 0-.4-.486l-1.761-1.866a10.106 10.106 0 0 0-.863-.913.322.322 0 0 0-.282-.1 9.071 9.071 0 0 1-.333-3.9c.024-.391.238-1.2.325-1.869a2.975 2.975 0 0 0 .934-.5 1.431 1.431 0 0 0 .528-.792 135.99 135.99 0 0 1 3.669-13.365c.132-.436.264-.874.393-1.32l.164-.56c.042-.153.09-.306.132-.459.074-.264.145-.515.214-.773.021-.069.04-.14.058-.209a.247.247 0 0 0 0-.042c.087-.317.169-.634.251-.95l.1-.364c.1-.4.2-.81.3-1.214a3.99 3.99 0 0 0 .037-.172.744.744 0 0 0-.029-.43.706.706 0 0 0-.1-.148c-.026-.032-.058-.066-.09-.1l-.1-.108a.974.974 0 0 1-.18-.338v-.37c0-.121-.016-.264-.024-.393a4.013 4.013 0 0 1 .116-.512c.029-.1.063-.2.1-.3s.077-.264.119-.375a.937.937 0 0 0 .235-.636c.158-.4.333-.792.528-1.172a3.566 3.566 0 0 0 .473-1.267 5.066 5.066 0 0 0-.153-1.2c-.264-1.674.512-3.308 1.088-4.9a21.751 21.751 0 0 0 .958-3.6 7.618 7.618 0 0 1 .792-2.743 4.115 4.115 0 0 0 .422-.729 2.928 2.928 0 0 0 .113-.832 9.119 9.119 0 0 1 .81-3.292 1.937 1.937 0 0 0 .211-.639.264.264 0 0 0 0-.045v-.063l.132-.018a17.508 17.508 0 0 0 .3-4.432 6.776 6.776 0 0 0-2.265-4.279h.026a1.391 1.391 0 0 0 .647-1.257 2.444 2.444 0 0 0-.911-1.916.932.932 0 0 1-.309-.317.964.964 0 0 1-.037-.417 2.128 2.128 0 0 0-1.32-1.969.486.486 0 0 1-.214-.124.528.528 0 0 1-.053-.375 2.3 2.3 0 0 0-1.111-2.112 3.619 3.619 0 0 0 .048-1.671 1.247 1.247 0 0 0-1.222-.95c.454-1.238-.19-2.616-.018-3.923.074-.56.3-1.1.327-1.663a3.424 3.424 0 0 1 .148-1.515c.251-.459.842-.792.689-1.278-.066-.211-.264-.354-.348-.56s.264-.528.457-.4c.087-.066.174-.137.264-.209a4.32 4.32 0 0 0 .156.773c.124.422.319.821.449 1.241a10.279 10.279 0 0 0 .586 1.924c.528.94 1.6 1.4 2.342 2.186.433.457.742 1.019 1.188 1.465a6.573 6.573 0 0 0 1.109.832l2.376 1.542a2.693 2.693 0 0 0 .813.4 1.389 1.389 0 0 0 1.637-1.177 1.558 1.558 0 0 1-.586-.362.217.217 0 0 0 .1-.016 3.76 3.76 0 0 0 1.531-.813 20.742 20.742 0 0 0 4.1-5c1.246-1.9 7.249-6.922 7.249-6.922v-2.031a7.351 7.351 0 0 0 2-1.7 2.2 2.2 0 0 0 .5-1.3 1.146 1.146 0 0 0-.713-1.147zm-49.909 4.881q-.174 1.109-.425 2.207a21.452 21.452 0 0 1-.71 2.492 5.072 5.072 0 0 0-.092.264 8.675 8.675 0 0 1-.248-.478c-.2-.4-.351-.826-.507-1.246l-.993-2.679a1.236 1.236 0 0 1-.066-1.069 1.2 1.2 0 0 1 .568-.425 11.324 11.324 0 0 1 2.178-.739 6.4 6.4 0 0 0 .7-.185 10.472 10.472 0 0 0-.405 1.858zm1.1-3.342a.4.4 0 0 1 0-.388.858.858 0 0 1 .264-.18.528.528 0 0 0 .074-.053zm2.059-2.9a5.128 5.128 0 0 0-.792.813 8.339 8.339 0 0 0-.681 1.056.766.766 0 0 0-.282-.779 1.6 1.6 0 0 1-.264-.174.541.541 0 0 1 .108-.758 1.584 1.584 0 0 1 .792-.264l1.185-.174c-.016.077-.04.174-.066.267zm11.124 86.214a4.331 4.331 0 0 0-.069-1.056c.148 0 .293 0 .438-.013z" class="cls-15" data-name="Path 1619" transform="translate(-106.567 -142.682)"/>
        <path id="Path_1620" d="M218.168 370.478c-2.062.33-4.356 1.125-5.145 3.057-.594 1.46-.135 3.1.018 4.675a3.574 3.574 0 0 1-.045 1.243 4.358 4.358 0 0 1-1.09 1.711 9.094 9.094 0 0 0-1.571 2.2 3.225 3.225 0 0 0-.106 2.64 1.94 1.94 0 0 1 .264.692c.024.528-.528.876-.95 1.22-1.547 1.28-1.481 3.614-1.494 5.625a28.447 28.447 0 0 1-2.69 11.879 3.632 3.632 0 0 0 4.065-.528 13.576 13.576 0 0 1-.924 2.661c1.32.634 2.888-.407 3.545-1.705a30.957 30.957 0 0 0 1.2-4.187c.467-1.378 1.3-2.576 1.65-3.96a3.65 3.65 0 0 1 .47-1.32 3.458 3.458 0 0 1 .824-.7 8.036 8.036 0 0 0 2.9-3.96 16.086 16.086 0 0 0 4.873.562 5.41 5.41 0 0 0 4.166-2.286c.383-.618.589-1.32.942-1.959.43-.773 1.056-1.412 1.555-2.151a7.958 7.958 0 0 0 .895-6.072 14.569 14.569 0 0 0-2.843-5.57 10.921 10.921 0 0 0-10.509-3.767z" class="cls-13" data-name="Path 1620" transform="translate(-126.035 -144.787)"/>
        <path id="Path_1621" d="M200.8 459.1q-.174 1.109-.422 2.2a21.267 21.267 0 0 1-.71 2.489 2.376 2.376 0 0 0-.224 1.146 2.059 2.059 0 0 0 .277.681c.94 1.671 2.21 3.287 2.318 5.2a2.746 2.746 0 0 0 .264 1.389q1.093-2.344 2.408-4.575a14.163 14.163 0 0 0 2.2-4.915 9.308 9.308 0 0 0-.034-2.526 5.471 5.471 0 0 0-.905-2.656c-.623-.816-2.331-2.043-3.432-1.79-1.31.309-1.579 2.307-1.74 3.357z" class="cls-6" data-name="Path 1621" transform="translate(-121.675 -207.639)"/>
        <path id="Path_1622" d="M330.287 451.191a8.613 8.613 0 0 0 5.05-3.894l2.9-4.189a7.561 7.561 0 0 0 1.542-3.236 10.662 10.662 0 0 0 2.9-6.578c.021-.246.1-.568.348-.573a.438.438 0 0 1 .285.135 1.631 1.631 0 0 1 .528 1.391 1.925 1.925 0 0 1 1.228.214c.343.245.436.861.066 1.056a.528.528 0 0 1 .37.6 1.913 1.913 0 0 1 1.32.061c.391.222.544.871.164 1.114a1.148 1.148 0 0 1 .734 1.1 2.2 2.2 0 0 1-.5 1.3c-1.111 1.492-3.078 2.1-4.366 3.432a10.374 10.374 0 0 0-1.138 1.521l-3.738 5.686a20.472 20.472 0 0 1-4.1 5 3.765 3.765 0 0 1-1.528.813 1.7 1.7 0 0 1-1.605-.446 2.631 2.631 0 0 1-.467-1.6c-.096-.954.071-1.944.007-2.907z" class="cls-8" data-name="Path 1622" transform="translate(-217.957 -190.717)"/>
        <path id="Path_1623" d="M264.218 792.991a3.2 3.2 0 0 1 .4.486 1.692 1.692 0 0 1 .169 1.386 1.882 1.882 0 0 1-.905 1.072 1.6 1.6 0 0 0-.285.164 2.252 2.252 0 0 1-.174.148.7.7 0 0 1-.391.074 13.592 13.592 0 0 1-2.957-.5 2.373 2.373 0 0 1-1.22-.573 2.344 2.344 0 0 1-.417-.81l-.351-.977a11.305 11.305 0 0 1-.528-1.819 3.765 3.765 0 0 1 .1-1.877.565.565 0 0 1 .129.383 4.253 4.253 0 0 0 .752 1.822 1.46 1.46 0 0 0 1.172.736 10.936 10.936 0 0 0 1.874.24.56.56 0 0 0 .264-.032.457.457 0 0 0 .214-.264 1.138 1.138 0 0 0 0-.771c-.166-.475-.634-.792-.858-1.241-.164-.335.066-.7.4-.42a10.44 10.44 0 0 1 .863.911z" class="cls-13" data-name="Path 1623" transform="translate(-164.397 -453.505)"/>
        <path id="Path_1624" d="M260.58 766.423c-.1 1.584-.172 3.271.692 4.593.309.475.723.874 1.077 1.32a1.568 1.568 0 0 1 .385.792 1.22 1.22 0 0 1-1.056 1.177 3.558 3.558 0 0 1-1.7-.246 3.118 3.118 0 0 1-2.542-3.339l-.351-2.252a7.145 7.145 0 0 1-.127-1.639 7.257 7.257 0 0 1 .441-1.771l.578-1.692a.792.792 0 0 1 .264-.42.735.735 0 0 1 .438-.082c.554.029 1.946.23 2.215.816.219.512-.274 2.136-.314 2.743z" class="cls-8" data-name="Path 1624" transform="translate(-164.006 -433.705)"/>
        <path id="Path_1625" d="M260.58 766.423c-.1 1.584-.172 3.271.692 4.593.309.475.723.874 1.077 1.32a1.568 1.568 0 0 1 .385.792 1.22 1.22 0 0 1-1.056 1.177 3.558 3.558 0 0 1-1.7-.246 3.118 3.118 0 0 1-2.542-3.339l-.351-2.252a7.145 7.145 0 0 1-.127-1.639 7.257 7.257 0 0 1 .441-1.771l.578-1.692a.792.792 0 0 1 .264-.42.735.735 0 0 1 .438-.082c.554.029 1.946.23 2.215.816.219.512-.274 2.136-.314 2.743z" class="cls-11" data-name="Path 1625" transform="translate(-164.006 -433.705)"/>
        <path id="Path_1626" d="M274.849 588.679a.262.262 0 0 1 0 .045 1.977 1.977 0 0 1-.211.639 9.144 9.144 0 0 0-.81 3.287 2.9 2.9 0 0 1-.113.829 4.113 4.113 0 0 1-.422.729 7.837 7.837 0 0 0-.792 2.74 21.383 21.383 0 0 1-.958 3.59c-.573 1.584-1.346 3.223-1.085 4.894a5.015 5.015 0 0 1 .153 1.2 3.566 3.566 0 0 1-.473 1.267c-.2.38-.37.771-.528 1.169s-.319.869-.449 1.32a1.758 1.758 0 0 0 .1 1.61 2.069 2.069 0 0 1 .29.356.94.94 0 0 1 0 .607q-.3 1.288-.655 2.566c-.18.671-.37 1.336-.568 2-1.447 4.863-3.086 9.675-4.06 14.656-.14.715-1.056 1.23-1.771 1.386a2.328 2.328 0 0 1-2.035-.544l-.14-.14a4.232 4.232 0 0 1-.792-3.152c.264-5.124 2.833-9.815 4.06-14.8a28.346 28.346 0 0 0 .792-5.493c.288-6.188.4-12.724-1.346-18.666-.364-1.235-.792-2.64-.143-3.741a3.747 3.747 0 0 1 1.935-1.415 12.45 12.45 0 0 1 9.654.245 3.475 3.475 0 0 1-.013.372 3.783 3.783 0 0 0 .193 1.705 2.128 2.128 0 0 1 .19.731z" class="cls-13" data-name="Path 1626" transform="translate(-165.892 -302.628)"/>
        <path id="Path_1627" d="M232.478 777.1l-.325 1.191a13.743 13.743 0 0 1-.7 2.1 8.917 8.917 0 0 0-.618 1.423 4.4 4.4 0 0 0-.106 1.22 3.64 3.64 0 0 0 .169 1.156 2.869 2.869 0 0 0 1.684 1.6 7.92 7.92 0 0 0 2.344.441 2 2 0 0 0 .615-.016 1.7 1.7 0 0 0 .6-.312 4.96 4.96 0 0 0 1.745-3.611 4.486 4.486 0 0 0-.185-.921c-.084-.114-.905.351-.554.737.528.575-1 .277-1.777.23a7.169 7.169 0 0 1-1-.166l-1.254-.264c-.409-.09-.882-.23-1.027-.623s.172-.861.42-1.241a8.128 8.128 0 0 0 .974-3.448c.029-.235.322-1.756-.282-1.283a1.694 1.694 0 0 0-.42.792c-.119.322-.211.66-.303.995z" class="cls-13" data-name="Path 1627" transform="translate(-144.705 -442.801)"/>
        <path id="Path_1628" d="M269.255 677.093a1.779 1.779 0 0 1-.1-1.61c.058-.2.121-.4.187-.6l-4.918-1.663c-.018.441-.037.882-.058 1.32a28.4 28.4 0 0 1-.792 5.5c-1.228 4.979-3.809 9.67-4.06 14.783a4.094 4.094 0 0 0 .94 3.292 2.325 2.325 0 0 0 2.035.544c.713-.156 1.631-.671 1.771-1.389.974-4.979 2.611-9.791 4.06-14.656q.678-2.265 1.222-4.567a.932.932 0 0 0 0-.6 1.847 1.847 0 0 0-.287-.354z" class="cls-11" data-name="Path 1628" transform="translate(-165.886 -367.729)"/>
        <path id="Path_1629" d="M236.635 756.181a5.713 5.713 0 0 0-1.072 2.03 12.334 12.334 0 0 0 .084 1.391 4.407 4.407 0 0 1-.2 1.135q-.718 2.595-1.655 5.119a1.394 1.394 0 0 0-.129.694 1.209 1.209 0 0 0 .813.81 8.594 8.594 0 0 0 3.762.414 1.972 1.972 0 0 0 1.056-.245 1.845 1.845 0 0 0 .6-1.481c.087-1.584-.182-3.2 0-4.789.063-.578.185-1.148.277-1.724a5.06 5.06 0 0 0-.074-2.4 5.611 5.611 0 0 0-.9-1.513 4.72 4.72 0 0 0-1.251-1.246c-.148-.09-.575-.362-.726-.19-.077.087-.042.319-.055.428a3.991 3.991 0 0 1-.087.5 4.051 4.051 0 0 1-.443 1.067z" class="cls-8" data-name="Path 1629" transform="translate(-146.862 -427.28)"/>
        <path id="Path_1630" d="M265.07 590.594a1.349 1.349 0 0 0-.09 1.119c.164.681.436 1.32.657 2a27.581 27.581 0 0 1 .845 3.627 10.6 10.6 0 0 1 .465 3.458 24.719 24.719 0 0 1 2.613 8.183c.1.734-1.531 1.684-1.5 2.426.061 1.47 1.235 1.584.367 2.767-.042.058.325 1.373.264 1.431-.354.425-.792.763-1.18 1.162a8.938 8.938 0 0 0-1.243 1.824c-2.244 4.047-5.483 8.64-4.488 13.16a.792.792 0 0 1-.428.813 2.144 2.144 0 0 1-.948.219h-.156a4.232 4.232 0 0 1-.792-3.152c.264-5.124 2.833-9.815 4.06-14.8a28.347 28.347 0 0 0 .792-5.494c.288-6.188.4-12.724-1.346-18.666-.364-1.235-.792-2.64-.143-3.741a3.747 3.747 0 0 1 1.935-1.415 12.449 12.449 0 0 1 9.654.245 3.482 3.482 0 0 1-.013.372 3.783 3.783 0 0 0 .193 1.705 2.126 2.126 0 0 1 .193.742c0 .016.09-1 .087-.982-2.009.29-4.1 1.6-6.114 1.893a14.047 14.047 0 0 0-3.067.676 1.376 1.376 0 0 0-.617.428z" class="cls-11" data-name="Path 1630" transform="translate(-165.84 -302.547)"/>
        <path id="Path_1631" d="M224.848 560.417q-.409 1.288-.713 2.6a2.162 2.162 0 0 0-.074.934 5.351 5.351 0 0 1 .264.858 2.764 2.764 0 0 1-.451 1.3c-.454 1.1.029 2.331.507 3.416l1.42 3.223 1.167 2.64c.346.792.694 1.571 1.027 2.363a76.743 76.743 0 0 1 3.714 11.127 1.344 1.344 0 0 0 .19.486c.2.264.554.338.845.5a1.574 1.574 0 0 1 .174 2.513c.166 1.935-1.286 3.8-2.033 5.6-1.719 4.121-1.407 8.764-2 13.2l.668-.388c.641.293.618 1.2.964 1.816.528.924 1.782 1.056 2.84.985a2.161 2.161 0 0 0 .948-.219.792.792 0 0 0 .428-.813c-1-4.519 2.241-9.11 4.488-13.162a8.784 8.784 0 0 1 1.243-1.821c.38-.4.826-.739 1.18-1.161A6.406 6.406 0 0 0 242.7 592a24.7 24.7 0 0 0-2.809-10.411 10.88 10.88 0 0 0-.465-3.456 27.358 27.358 0 0 0-.842-3.616c-.222-.668-.494-1.32-.657-2a1.065 1.065 0 0 1 .723-1.528 14.122 14.122 0 0 1 3.073-.7l6.906-.993a17.469 17.469 0 0 0 .3-4.427 6.811 6.811 0 0 0-4.868-5.7 1.034 1.034 0 0 0-.9.058 35.95 35.95 0 0 0-18.313 1.19z" class="cls-13" data-name="Path 1631" transform="translate(-139.528 -283.341)"/>
        <path id="Path_1632" d="M237.977 414.807a3.4 3.4 0 0 1-.3 1.977 3.112 3.112 0 0 1-.792.868 5.915 5.915 0 0 1-2.276 1.132 2.417 2.417 0 0 0-1.362.594c-.486.586-.161 1.47.264 2.112a5.517 5.517 0 0 0 2.986 2.468c1.019.277 2.112.106 3.147.288.755.129 1.465.441 2.21.62a6.528 6.528 0 0 0 6-1.674 8.556 8.556 0 0 1-2.827-3.025 4.293 4.293 0 0 1-.216-2.9c.264-.945.863-1.864.678-2.825a2.939 2.939 0 0 0-2.075-1.951 13.364 13.364 0 0 0-2.6-.528c-.488-.066-3.58-.75-3.772-.412-.108.19.528 1.32.612 1.568a5.913 5.913 0 0 1 .323 1.688z" class="cls-8" data-name="Path 1632" transform="translate(-146.379 -175.067)"/>
        <ellipse id="Ellipse_341" cx="6.272" cy="6.272" class="cls-8" data-name="Ellipse 341" rx="6.272" ry="6.272" transform="translate(89.214 229.451)"/>
        <path id="Path_1633" d="M218.972 442.293l4.253.718a16.106 16.106 0 0 0 3.168.319 8.817 8.817 0 0 1 1.75 0c.4.066.792.219 1.191.264.5.063 1-.032 1.5.032a4.727 4.727 0 0 1 2.376 1.367 4.176 4.176 0 0 1 1.766 2.64.739.739 0 0 1-.05.364 1.069 1.069 0 0 1-.314.33 9.891 9.891 0 0 0-1.777 2.445 9.485 9.485 0 0 1-2.112 2.278c-.185-.119-.528.2-.457.4s.282.348.348.56c.15.48-.443.834-.689 1.275a3.47 3.47 0 0 0-.148 1.515c-.029.562-.264 1.1-.327 1.66-.172 1.307.473 2.682.018 3.918a1.24 1.24 0 0 1 1.222.95 3.574 3.574 0 0 1-.05 1.668 2.3 2.3 0 0 1 1.111 2.1.5.5 0 0 0 .055.375.528.528 0 0 0 .214.124 2.112 2.112 0 0 1 1.32 1.967.947.947 0 0 0 .04.414.929.929 0 0 0 .306.319 2.444 2.444 0 0 1 .913 1.911 1.382 1.382 0 0 1-.649 1.257 11.506 11.506 0 0 1-2.856.85 24.509 24.509 0 0 1-2.764.488 24.885 24.885 0 0 1-2.587.082l-5.691-.024c-1.584 0-3.2 0-4.794-.119a13.537 13.537 0 0 0-4.453.1c-.18-.3.108-.66.288-.966a3.255 3.255 0 0 0 .325-1.338l.359-3.791a6.971 6.971 0 0 0 .026-1.584c-.077-.557-.288-1.085-.4-1.639a22.082 22.082 0 0 1-.066-3.242 15.187 15.187 0 0 0-.5-2.825l-1.109-4.63a16.564 16.564 0 0 0-.554-2.326q-1.3-3.342-2.727-6.629a.7.7 0 0 1 .05-.589l.94-1.684a10.685 10.685 0 0 1 .861-1.373 5.406 5.406 0 0 1 3.168-1.948 5.594 5.594 0 0 1 3.7.546c.438.235.845.528 1.291.747a5.21 5.21 0 0 0 2.515.724z" class="cls-6" data-name="Path 1633" transform="translate(-126.807 -196.203)"/>
        <path id="Path_1634" d="M302.58 463.85l1.484 1.975a2.75 2.75 0 0 1 .343.546 9.079 9.079 0 0 1 .222 1.679 3.537 3.537 0 0 0 .433 1 22.721 22.721 0 0 0 1.885 2.8 4.875 4.875 0 0 0 1.172 1.156 1.922 1.922 0 0 0 1.584.28.979.979 0 0 0-.528.47 5.731 5.731 0 0 0-.367 3.669 3.837 3.837 0 0 0 .412 1.2 1.8 1.8 0 0 0 .945.816 1.391 1.391 0 0 1-1.637 1.175 2.755 2.755 0 0 1-.813-.4l-2.376-1.539a6.842 6.842 0 0 1-1.106-.832c-.444-.443-.755-1.006-1.188-1.462-.737-.792-1.819-1.246-2.342-2.183a10.083 10.083 0 0 1-.583-1.924c-.132-.42-.325-.816-.451-1.238a5.549 5.549 0 0 1 .488-3.96 16.189 16.189 0 0 1 2.423-3.228z" class="cls-6" data-name="Path 1634" transform="translate(-195.315 -213.629)"/>
        <path id="Path_1635" d="M227.717 377.337a8.258 8.258 0 0 0-2.207-2.294 7.521 7.521 0 0 0-3.978-1.684 4.3 4.3 0 0 0-1.792.293c-.026-1.771-.467-2.951-1.571-2.772-2.062.33-4.356 1.125-5.145 3.057-.594 1.46-.135 3.1.018 4.675a3.575 3.575 0 0 1-.045 1.243 4.358 4.358 0 0 1-1.09 1.711 9.094 9.094 0 0 0-1.571 2.2 3.225 3.225 0 0 0-.106 2.64 1.941 1.941 0 0 1 .264.692c.024.528-.528.876-.95 1.22-1.547 1.28-1.481 3.614-1.494 5.625a28.447 28.447 0 0 1-2.69 11.879 3.632 3.632 0 0 0 4.065-.528 13.577 13.577 0 0 1-.924 2.661c1.32.634 2.888-.407 3.545-1.705a30.962 30.962 0 0 0 1.2-4.187c.467-1.378 1.3-2.576 1.65-3.96a3.65 3.65 0 0 1 .47-1.32 3.458 3.458 0 0 1 .824-.7c1.352-.969-.636-8.31-.108-9.889.792.174 2.228-3.614 3.049-7.465a3.9 3.9 0 0 0 1.785.177 2.276 2.276 0 0 1 .639-.045 1.7 1.7 0 0 1 .557.227 13.714 13.714 0 0 0 1.9.977 10.742 10.742 0 0 0 4.308.367 4.284 4.284 0 0 0-.603-3.095z" class="cls-13" data-name="Path 1635" transform="translate(-126.035 -145.188)"/>
        <g id="Group_1186" class="cls-16" data-name="Group 1186" transform="translate(79.33 225.673)">
            <path id="Path_1636" d="M206.111 405.819a28.487 28.487 0 0 0 2.69-11.879c0-2.012-.055-4.345 1.494-5.625.412-.343.974-.684.948-1.22a1.885 1.885 0 0 0-.264-.692 3.238 3.238 0 0 1 .1-2.64 9.168 9.168 0 0 1 1.571-2.2 4.422 4.422 0 0 0 1.093-1.711 3.64 3.64 0 0 0 .045-1.243c-.153-1.584-.615-3.215-.018-4.675.763-1.872 2.936-2.674 4.944-3.023a1.056 1.056 0 0 0-.528-.034c-2.062.33-4.356 1.125-5.145 3.057-.594 1.46-.135 3.1.018 4.675a3.575 3.575 0 0 1-.045 1.243 4.358 4.358 0 0 1-1.09 1.711 9.094 9.094 0 0 0-1.571 2.2 3.225 3.225 0 0 0-.106 2.64 1.941 1.941 0 0 1 .264.692c.024.528-.528.876-.95 1.22-1.547 1.28-1.481 3.614-1.494 5.626a28.447 28.447 0 0 1-2.69 11.879 3.516 3.516 0 0 0 1.993.372 3.414 3.414 0 0 1-1.259-.373z" data-name="Path 1636" transform="translate(-205.38 -370.859)"/>
            <path id="Path_1637" d="M217.989 503.931a13.567 13.567 0 0 0 .921-2.661 3.344 3.344 0 0 1-.892.591 13.432 13.432 0 0 1-.768 2.07 1.954 1.954 0 0 0 1.212.156 1.944 1.944 0 0 1-.473-.156z" data-name="Path 1637" transform="translate(-214.117 -466.844)"/>
            <path id="Path_1638" d="M262.621 380.6a4.226 4.226 0 0 1 1.193-.28l-.14-.013a4.225 4.225 0 0 0-1.056.079c-.003.069.003.138.003.214z" data-name="Path 1638" transform="translate(-247.508 -377.807)"/>
            <path id="Path_1639" d="M270.321 402.254a13.9 13.9 0 0 1-1.9-.977 1.656 1.656 0 0 0-.557-.227 1.982 1.982 0 0 0-.583.037 2.165 2.165 0 0 1 .4.19 13.707 13.707 0 0 0 1.9.977 8.547 8.547 0 0 0 3.181.412 7.491 7.491 0 0 1-2.441-.412z" data-name="Path 1639" transform="translate(-250.939 -393.075)"/>
            <path id="Path_1640" d="M260.217 400.57a3.844 3.844 0 0 0-.037.169 3.8 3.8 0 0 0 .932.024 4.01 4.01 0 0 1-.895-.193z" data-name="Path 1640" transform="translate(-245.714 -392.727)"/>
        </g>
        <path id="Path_1641" d="M187.536 447.882a2.283 2.283 0 0 1-.615 1.832 4.007 4.007 0 0 1-.874.641 2.3 2.3 0 0 1-1.037.391 1.954 1.954 0 0 1-1.32-.576 8.847 8.847 0 0 1-2.141-3.741 28.032 28.032 0 0 1-1.618-5.528c-.306-2.041-.177-4.155-.76-6.135.528-1.037.85-2.18 1.439-3.181a14.463 14.463 0 0 0 .993-1.861 6.4 6.4 0 0 0 .164-4.29.581.581 0 0 1 .686.037 1.4 1.4 0 0 1 .414.6 5.319 5.319 0 0 1 .409 2.521 1.019 1.019 0 0 0 .074.618.792.792 0 0 0 .671.282 5.892 5.892 0 0 0 1.547-.282 14.441 14.441 0 0 1 4.77-.393 2.284 2.284 0 0 1 .929.227.869.869 0 0 1 .48.779l-3.815.557a1.562 1.562 0 0 0-.792.264.528.528 0 0 0-.111.755 1.777 1.777 0 0 0 .264.177.792.792 0 0 1-.032 1.254.791.791 0 0 0-.264.18c-.156.209.053.486.116.739a.929.929 0 0 1-.457.95 3.226 3.226 0 0 1-1.056.356 11.209 11.209 0 0 0-2.178.742 1.177 1.177 0 0 0-.568.422 1.274 1.274 0 0 0 .066 1.069l.993 2.677c.156.42.311.839.507 1.241.264.528.565 1.019.824 1.539a16.144 16.144 0 0 1 .62 1.5c.502 1.372 1.503 2.191 1.672 3.637z" class="cls-8" data-name="Path 1641" transform="translate(-106.759 -185.286)"/>
        <path id="Path_1642" d="M376.689 440.564a1.185 1.185 0 0 0-.436.636.264.264 0 0 0 .1.285.29.29 0 0 0 .177 0 1.676 1.676 0 0 0 .766-.364.793.793 0 0 0-.23.185.264.264 0 0 0-.029.28.362.362 0 0 0 .251.132 2.447 2.447 0 0 0 1.106-.053 1.481 1.481 0 0 0-.462.264.612.612 0 0 0-.206.475.227.227 0 0 0 .082.18.333.333 0 0 0 .121.042 2.982 2.982 0 0 0 1.027 0 .528.528 0 0 0 .433-.264.647.647 0 0 0-.1-.5 2.754 2.754 0 0 1-.264-1.257.509.509 0 0 0-.037-.264.462.462 0 0 0-.23-.166 1.921 1.921 0 0 0-1.262-.251 2.605 2.605 0 0 0-.807.64z" class="cls-8" data-name="Path 1642" transform="translate(-251.808 -195.992)"/>
        <path id="Path_1643" d="M374.081 410.394l-12.6 6.816a.264.264 0 0 0 .019.47l2.149.81a.5.5 0 0 1 .282.264l1.671 3.432c.032.153.312.193.314.04l-.264-2.843a1.016 1.016 0 0 1 .23-.573l6.531-6.4a.153.153 0 0 1 .143-.042.15.15 0 0 1 .082.24l-5.62 6.9a1.256 1.256 0 0 0-.222.568l-.335 2.455c.026.214.2.3.33.1l1.214-1.423a.264.264 0 0 1 .354-.061l3.128 2.278a.264.264 0 0 0 .4-.156l2.571-12.6a.264.264 0 0 0-.37-.285z" class="cls-6" data-name="Path 1643" transform="translate(-240.846 -174.267)"/>
        <ellipse id="Ellipse_342" cx="15.699" cy="3.02" class="cls-6" data-name="Ellipse 342" rx="15.699" ry="3.02" transform="translate(260.747 348.074)"/>
        <ellipse id="Ellipse_343" cx="1.827" cy="2.392" class="cls-10" data-name="Ellipse 343" rx="1.827" ry="2.392" transform="translate(274.358 347.419)"/>
        <ellipse id="Ellipse_344" cx="1.827" cy="2.392" class="cls-10" data-name="Ellipse 344" rx="1.827" ry="2.392" transform="translate(274.358 344.497)"/>
        <ellipse id="Ellipse_345" cx="1.827" cy="2.392" class="cls-10" data-name="Ellipse 345" rx="1.827" ry="2.392" transform="translate(274.358 341.572)"/>
        <ellipse id="Ellipse_346" cx="1.827" cy="2.392" class="cls-10" data-name="Ellipse 346" rx="1.827" ry="2.392" transform="translate(274.358 338.647)"/>
        <ellipse id="Ellipse_347" cx="1.827" cy="2.392" class="cls-10" data-name="Ellipse 347" rx="1.827" ry="2.392" transform="translate(274.358 335.722)"/>
        <ellipse id="Ellipse_348" cx="1.827" cy="2.392" class="cls-10" data-name="Ellipse 348" rx="1.827" ry="2.392" transform="translate(274.358 332.8)"/>
        <ellipse id="Ellipse_349" cx="1.827" cy="2.392" class="cls-10" data-name="Ellipse 349" rx="1.827" ry="2.392" transform="translate(274.358 329.875)"/>
        <path id="Path_1644" d="M933.38 659.3a9.287 9.287 0 0 0 .681-1l-4.8-.792 5.2.04a8.783 8.783 0 0 0 .166-6.937l-6.966 3.614 6.425-4.723a8.756 8.756 0 1 0-14.461 9.8 9.055 9.055 0 0 0-1 1.584l6.235 3.239-6.647-2.231a8.762 8.762 0 0 0 1.41 8.22 8.754 8.754 0 1 0 13.764 0 8.764 8.764 0 0 0 0-10.823z" class="cls-6" data-name="Path 1644" transform="translate(-650.355 -347.047)"/>
        <path id="Path_1645" d="M917.78 718.991a8.711 8.711 0 0 0 1.872 5.412 8.754 8.754 0 1 0 13.764 0c1.171-1.49-15.636-6.394-15.636-5.412z" class="cls-5" data-name="Path 1645" transform="translate(-650.388 -401.322)"/>
        <ellipse id="Ellipse_350" cx="8.962" cy="1.724" class="cls-6" data-name="Ellipse 350" rx="8.962" ry="1.724" transform="translate(119.91 341.287)"/>
        <ellipse id="Ellipse_351" cx="1.043" cy="1.365" class="cls-10" data-name="Ellipse 351" rx="1.043" ry="1.365" transform="translate(127.98 340.912)"/>
        <ellipse id="Ellipse_352" cx="1.043" cy="1.365" class="cls-10" data-name="Ellipse 352" rx="1.043" ry="1.365" transform="translate(127.98 339.244)"/>
        <ellipse id="Ellipse_353" cx="1.043" cy="1.365" class="cls-10" data-name="Ellipse 353" rx="1.043" ry="1.365" transform="translate(127.98 337.573)"/>
        <ellipse id="Ellipse_354" cx="1.043" cy="1.365" class="cls-10" data-name="Ellipse 354" rx="1.043" ry="1.365" transform="translate(127.98 335.905)"/>
        <ellipse id="Ellipse_355" cx="1.043" cy="1.365" class="cls-10" data-name="Ellipse 355" rx="1.043" ry="1.365" transform="translate(127.98 334.233)"/>
        <ellipse id="Ellipse_356" cx="1.043" cy="1.365" class="cls-10" data-name="Ellipse 356" rx="1.043" ry="1.365" transform="translate(127.98 332.565)"/>
        <ellipse id="Ellipse_357" cx="1.043" cy="1.365" class="cls-10" data-name="Ellipse 357" rx="1.043" ry="1.365" transform="translate(127.98 330.897)"/>
        <path id="Path_1646" d="M375.839 708.747a4.968 4.968 0 0 1-.388-.573l2.74-.449-2.965.021a5.016 5.016 0 0 1-.1-3.96l3.978 2.064-3.669-2.7a5 5 0 1 1 8.255 5.594 4.842 4.842 0 0 1 .57.911l-3.558 1.848 3.8-1.267a5.04 5.04 0 0 1 .264 1.6 19.806 19.806 0 0 0-1.609 9.849 10.119 10.119 0 0 1-7.319-12.94z" class="cls-6" data-name="Path 1646" transform="translate(-250.724 -387.91)"/>
        <path id="Path_1647" d="M384.767 742.854a19.805 19.805 0 0 0-1.609 9.849 5 5 0 0 1-7.319-6.76c-.671-.851 8.928-3.651 8.928-3.089z" class="cls-5" data-name="Path 1647" transform="translate(-250.724 -418.926)"/>
        <ellipse id="Ellipse_358" cx="6.027" cy="1.159" class="cls-6" data-name="Ellipse 358" rx="6.027" ry="1.159" transform="translate(56.089 327.988)"/>
        <ellipse id="Ellipse_359" cx=".702" cy=".919" class="cls-10" data-name="Ellipse 359" rx=".702" ry=".919" transform="translate(61.517 327.737)"/>
        <ellipse id="Ellipse_360" cx=".702" cy=".919" class="cls-10" data-name="Ellipse 360" rx=".702" ry=".919" transform="translate(61.517 326.615)"/>
        <ellipse id="Ellipse_361" cx=".702" cy=".919" class="cls-10" data-name="Ellipse 361" rx=".702" ry=".919" transform="translate(61.517 325.49)"/>
        <ellipse id="Ellipse_362" cx=".702" cy=".919" class="cls-10" data-name="Ellipse 362" rx=".702" ry=".919" transform="translate(61.517 324.368)"/>
        <ellipse id="Ellipse_363" cx=".702" cy=".919" class="cls-10" data-name="Ellipse 363" rx=".702" ry=".919" transform="translate(61.517 323.247)"/>
        <ellipse id="Ellipse_364" cx=".702" cy=".919" class="cls-10" data-name="Ellipse 364" rx=".702" ry=".919" transform="translate(61.517 322.125)"/>
        <ellipse id="Ellipse_365" cx=".702" cy=".919" class="cls-10" data-name="Ellipse 365" rx=".702" ry=".919" transform="translate(61.517 321.003)"/>
        <path id="Path_1648" d="M128.593 691.141a2.9 2.9 0 0 1-.264-.385l1.848-.3h-1.993a3.358 3.358 0 0 1-.066-2.661l2.674 1.4-2.468-1.814a3.361 3.361 0 1 1 5.544 3.762 3.4 3.4 0 0 1 .383.612L131.864 693l2.55-.855a3.3 3.3 0 0 1 .177 1.077 13.333 13.333 0 0 0-1.074 6.63 6.812 6.812 0 0 1-4.923-8.708z" class="cls-6" data-name="Path 1648" transform="translate(-69.001 -376.901)"/>
        <path id="Path_1649" d="M134.6 714.092a13.332 13.332 0 0 0-1.074 6.63 3.363 3.363 0 0 1-4.923-4.553c-.454-.569 5.997-2.455 5.997-2.077z" class="cls-5" data-name="Path 1649" transform="translate(-69.008 -397.775)"/>
    </g>
</svg>
