<svg xmlns="http://www.w3.org/2000/svg" xmlns:xlink="http://www.w3.org/1999/xlink" width="289.067" height="170.297" viewBox="0 0 289.067 170.297">
    <defs>
        <style>
            .cls-1,.cls-6,.cls-9{fill:#ffc107}.cls-1,.cls-14,.cls-5{opacity:.1}.cls-2{fill:#fff}.cls-3{fill:none;stroke:#3f3d56;stroke-linecap:round;stroke-miterlimit:10;opacity:.7}.cls-4{fill:#3f3d56}.cls-7{fill:#434175}.cls-8{fill:url(#linear-gradient)}.cls-11,.cls-13,.cls-9{opacity:.3}.cls-10{fill:url(#linear-gradient-2)}.cls-12{fill:#3acc6c}.cls-13{fill:#407d3b}.cls-15{fill:url(#linear-gradient-3)}.cls-16{fill:#4c4981}.cls-17{fill:#ae6e79}.cls-18{fill:#444053}.cls-19{fill:#65617d}
        </style>
        <linearGradient id="linear-gradient" x1=".5" x2=".5" y1=".999" y2="-.002" gradientUnits="objectBoundingBox">
            <stop offset="0" stop-color="gray" stop-opacity=".251"/>
            <stop offset=".54" stop-color="gray" stop-opacity=".122"/>
            <stop offset="1" stop-color="gray" stop-opacity=".102"/>
        </linearGradient>
        <linearGradient id="linear-gradient-2" x1=".5" x2=".5" y1="1.002" y2=".002" xlink:href="#linear-gradient"/>
        <linearGradient id="linear-gradient-3" x1=".036" x2=".036" y1="1" xlink:href="#linear-gradient"/>
    </defs>
    <g id="undraw_following_q0cr" transform="translate(0 .04)">
        <ellipse id="Ellipse_380" cx="37.316" cy="2.653" class="cls-1" data-name="Ellipse 380" rx="37.316" ry="2.653" transform="translate(23.58 163.687)"/>
        <path id="Path_1678" d="M317.066 213.13a45.624 45.624 0 0 1-6.6 23.722c0 8.748-4.078 16.677-10.693 22.456a36.573 36.573 0 0 1-5.326 3.861c-.076.048-.154.093-.232.139l-.427.253-.134.078a41.593 41.593 0 0 1-20.492 5.266H82.874q-2.274 0-4.508-.182a53.354 53.354 0 0 1-15.429-3.573q-1.445-.571-2.835-1.228-.662-.311-1.311-.639c-.27-.136-.541-.278-.809-.419a47.36 47.36 0 0 1-8.707-5.91c-8.591-7.386-13.918-17.589-13.918-28.859A45.609 45.609 0 0 1 28 203.151c0-25.051 20.022-45.359 44.724-45.359.758 0 1.516.023 2.274.063a2.309 2.309 0 0 1 .323.015 77.058 77.058 0 0 1 16.424-19.36C110.007 122.87 136.685 113 166.4 113c24.97 0 47.795 6.961 65.277 18.463a44.012 44.012 0 0 1 21.71-5.688c24.7 0 44.725 20.308 44.725 45.359a46.741 46.741 0 0 1-.253 4.745 45.482 45.482 0 0 1 19.207 37.251z" class="cls-1" data-name="Path 1678" transform="translate(-28 -113.04)"/>
        <path id="Path_1679" d="M409.069 218.612v121.079a4.652 4.652 0 0 1-4.652 4.662H218.652a4.582 4.582 0 0 1-1.284-.182 4.644 4.644 0 0 1-3.368-4.48V233.305a2.312 2.312 0 0 1 .323.015 77.059 77.059 0 0 1 16.424-19.36h173.67a4.652 4.652 0 0 1 4.652 4.652z" class="cls-2" data-name="Path 1679" transform="translate(-167.002 -188.489)"/>
        <path id="Line_26" d="M0 0h164.748" class="cls-3" data-name="Line 26" transform="translate(65.697 60.846)"/>
        <path id="Line_27" d="M0 0h164.748" class="cls-3" data-name="Line 27" transform="translate(65.697 91.294)"/>
        <path id="Line_28" d="M0 0h164.748" class="cls-3" data-name="Line 28" transform="translate(65.697 121.742)"/>
        <path id="Line_29" d="M0 0h164.748" class="cls-3" data-name="Line 29" transform="translate(65.697 152.948)"/>
        <ellipse id="Ellipse_381" cx="37.316" cy="2.653" class="cls-1" data-name="Ellipse 381" rx="37.316" ry="2.653" transform="translate(206.015 164.95)"/>
        <rect id="Rectangle_309" width="34.827" height="9.086" class="cls-4" data-name="Rectangle 309" rx="4.543" transform="translate(130.047 41.195)"/>
        <rect id="Rectangle_310" width="30.286" height="6.047" class="cls-5" data-name="Rectangle 310" rx="3.023" transform="translate(132.316 42.716)"/>
        <rect id="Rectangle_311" width="10.936" height="5.385" class="cls-6" data-name="Rectangle 311" rx="2.692" transform="translate(150.908 43.047)"/>
        <circle id="Ellipse_382" cx="1.683" cy="1.683" r="1.683" class="cls-2" data-name="Ellipse 382" transform="translate(154.61 44.055)"/>
        <rect id="Rectangle_312" width="34.827" height="9.086" class="cls-4" data-name="Rectangle 312" rx="4.543" transform="translate(130.047 101.093)"/>
        <rect id="Rectangle_313" width="30.286" height="6.047" class="cls-5" data-name="Rectangle 313" rx="3.023" transform="translate(132.316 102.614)"/>
        <rect id="Rectangle_314" width="10.936" height="5.385" class="cls-6" data-name="Rectangle 314" rx="2.692" transform="translate(150.908 102.945)"/>
        <circle id="Ellipse_383" cx="1.683" cy="1.683" r="1.683" class="cls-2" data-name="Ellipse 383" transform="translate(154.61 103.953)"/>
        <rect id="Rectangle_315" width="34.827" height="9.086" class="cls-4" data-name="Rectangle 315" rx="4.543" transform="translate(130.047 131.043)"/>
        <rect id="Rectangle_316" width="30.286" height="6.047" class="cls-5" data-name="Rectangle 316" rx="3.023" transform="translate(132.316 132.562)"/>
        <rect id="Rectangle_317" width="10.936" height="5.385" class="cls-6" data-name="Rectangle 317" rx="2.692" transform="translate(150.908 132.893)"/>
        <circle id="Ellipse_384" cx="1.683" cy="1.683" r="1.683" class="cls-2" data-name="Ellipse 384" transform="translate(154.61 133.903)"/>
        <rect id="Rectangle_318" width="34.827" height="9.086" class="cls-4" data-name="Rectangle 318" rx="4.543" transform="translate(130.047 71.145)"/>
        <rect id="Rectangle_319" width="30.286" height="6.047" class="cls-5" data-name="Rectangle 319" rx="3.023" transform="translate(132.316 72.664)"/>
        <rect id="Rectangle_320" width="10.936" height="5.385" class="cls-6" data-name="Rectangle 320" rx="2.692" transform="rotate(180 72.005 39.191)"/>
        <circle id="Ellipse_385" cx="1.683" cy="1.683" r="1.683" class="cls-2" data-name="Ellipse 385" transform="translate(136.942 74.006)"/>
        <path id="Path_1680" d="M337.252 258.865a11.876 11.876 0 0 1-5.789 10.2l-.162.1-.306.169-.291.152-.045.023q-.182.091-.371.174a11.578 11.578 0 0 1-1.236.48c-.275.088-.553.169-.834.238a11.781 11.781 0 0 1-1.751.291c-.359.033-.72.051-1.086.051a12.371 12.371 0 0 1-1.306-.071H324a8.27 8.27 0 0 1-.447-.058 12.286 12.286 0 0 1-1.4-.306l-.23-.068-.2-.063-.066-.023a11.72 11.72 0 0 1-1.213-.475 11.558 11.558 0 0 1-1.933-1.119l-.03-.02-.02-.015-.217-.159-.164-.126a11.11 11.11 0 0 1-.92-.8q-.409-.394-.778-.826a11.876 11.876 0 1 1 20.879-7.742z" class="cls-7" data-name="Path 1680" transform="translate(-241.36 -213.169)"/>
        <path id="Path_1681" d="M339.235 289.531l-.3.091a.665.665 0 0 1-.465-.154l-.1-.094a.369.369 0 0 0-.232-.129h-.025a.254.254 0 0 1-.1 0 .028.028 0 0 1-.02 0 .126.126 0 0 1-.058-.1 4.967 4.967 0 0 1-.134-.69 6.45 6.45 0 0 1 0-.758v-.6a5.605 5.605 0 0 0 .058-.682 2.556 2.556 0 0 0-.068-.723 2.022 2.022 0 0 0-.142-.379c-.04-.341-.088-.682-.136-1.011a18.06 18.06 0 0 0-.119-.758 1.118 1.118 0 0 0 .025-.126 1.226 1.226 0 0 0-.435-1.107 1.329 1.329 0 0 0-.323-.2c-.1-.04-.195-.073-.293-.106l-1.587-.505c-.149-.22-.291-.445-.427-.675a4.713 4.713 0 0 1-.334-.644 2.62 2.62 0 0 0 .654-3.449c-.025-.04-.056-.078-.083-.116a1.7 1.7 0 0 0-.068-.589.035.035 0 0 0 0-.015.836.836 0 0 0-.217-.422l-.053-.058a.809.809 0 0 0-.078-.083 2.943 2.943 0 0 0-.344-.3 5.871 5.871 0 0 0-1.872-1.033 2.146 2.146 0 0 0-.965 0l-.051-.018-.094-.018.073.035a2.112 2.112 0 0 0-1.028.018c-.417.129-.563.47-.74.844a3.771 3.771 0 0 1-1.263 1.491c-.346.237-.758.445-.925.839a2.4 2.4 0 0 0-.015 1.19 3.308 3.308 0 0 1-1.2 2.845c-.473.379-1.1.695-1.205 1.3a2.26 2.26 0 0 0 .344 1.243 3.079 3.079 0 0 1 .063 2.678c-.043.076-.088.149-.131.22.24.293.505.571.758.839a11.491 11.491 0 0 0 .907.811l.162.129.215.159.02.018.03.02a11.383 11.383 0 0 0 1.905 1.135.124.124 0 0 1 .015-.043.169.169 0 0 0 0 .051 11.217 11.217 0 0 0 1.2.48l.063.023.2.066.227.068a11.956 11.956 0 0 0 1.385.311c.147.023.293.043.442.058h.073a12.055 12.055 0 0 0 1.289.071c.361 0 .718-.018 1.071-.051a11.2 11.2 0 0 0 1.726-.3c.068-.015.136-.035.2-.056.207-.056.412-.116.617-.184a11.32 11.32 0 0 0 1.218-.485c.124-.058.253-.116.366-.177l.045-.023.286-.154a.02.02 0 0 1-.007-.018zm-10.125-.349a.5.5 0 0 0 0-.063 1.076 1.076 0 0 1 0-.2.314.314 0 0 1 .045-.111v.121a.684.684 0 0 1-.045.253z" class="cls-8" data-name="Path 1681" transform="translate(-249.602 -233.405)"/>
        <path id="Path_1682" d="M338.628 290.161l-.306.091a.685.685 0 0 1-.47-.152c-.033-.028-.068-.063-.1-.094a.369.369 0 0 0-.235-.126h-.025a.252.252 0 0 1-.106 0 .028.028 0 0 1-.02 0 .136.136 0 0 1-.061-.1 4.814 4.814 0 0 1-.134-.68 6.257 6.257 0 0 1 0-.758v-.594a5.49 5.49 0 0 0 .058-.675 2.489 2.489 0 0 0-.068-.713 2.24 2.24 0 0 0-.144-.374c-.04-.336-.091-.672-.139-1.011a15.301 15.301 0 0 0-.121-.758.786.786 0 0 1 .028-.124 1.192 1.192 0 0 0-.442-1.092 1.351 1.351 0 0 0-.328-.2c-.1-.04-.2-.073-.3-.106l-1.61-.505a16.45 16.45 0 0 1-.432-.665 4.392 4.392 0 0 1-.339-.637 2.527 2.527 0 0 0 .665-3.4c-.025-.04-.056-.076-.083-.114a1.654 1.654 0 0 0-.068-.581.035.035 0 0 0 0-.015.9.9 0 0 0-.056-.177 1.034 1.034 0 0 0-.164-.24l-.056-.058a.784.784 0 0 0-.078-.081 2.978 2.978 0 0 0-.356-.275 5.818 5.818 0 0 0-1.9-1.011 2.2 2.2 0 0 0-.978 0l-.05-.015-.094-.018.073.035a2.176 2.176 0 0 0-1.044.018c-.422.126-.571.462-.758.831a3.753 3.753 0 0 1-1.263 1.471 2.318 2.318 0 0 0-.937.829 2.183 2.183 0 0 0-.015 1.175 3.234 3.234 0 0 1-1.218 2.807c-.48.374-1.119.685-1.223 1.284a2.175 2.175 0 0 0 .349 1.228 2.986 2.986 0 0 1 .063 2.643 5.252 5.252 0 0 1-.134.217 10.906 10.906 0 0 0 .778.826 11.11 11.11 0 0 0 .92.8l.164.126.217.159.02.015.03.02a11.561 11.561 0 0 0 1.933 1.119.132.132 0 0 1 .015-.04 1.254 1.254 0 0 1 .061-.131 1.471 1.471 0 0 0 .225-.505.5.5 0 0 0 0-.063 1.049 1.049 0 0 1 0-.2.321.321 0 0 1 .045-.109c.028-.051.068-.1.1-.149a.549.549 0 0 0 .048-.083 29.851 29.851 0 0 1 .346.535.649.649 0 0 1 .131.323.53.53 0 0 0 0 .21c.038.088.164.162.116.253a.333.333 0 0 0 0 .3 1.4 1.4 0 0 0 .106.144l.066.023.2.063.23.068a12.287 12.287 0 0 0 1.4.306c.149.023.3.043.447.058h.076a12.387 12.387 0 0 0 1.306.071c.366 0 .728-.018 1.086-.051a11.771 11.771 0 0 0 1.751-.291c.071-.015.139-.035.21-.056.21-.056.417-.114.624-.182a11.59 11.59 0 0 0 1.236-.48q.19-.083.371-.174l.045-.023.291-.152z" class="cls-9" data-name="Path 1682" transform="translate(-248.995 -234.018)"/>
        <path id="Path_1683" d="M336.252 377.9a11.818 11.818 0 0 1-1.455 5.7 11.228 11.228 0 0 1-.662 1.066 11.023 11.023 0 0 1-.776 1.011.38.38 0 0 1-.053.058 5.88 5.88 0 0 1-.336.369l-.129.136c-.131.134-.265.253-.4.389a.458.458 0 0 1-.051.048c-.063.058-.129.119-.2.174a11.577 11.577 0 0 1-1.117.867c-.2.136-.4.268-.609.392l-.162.1-.306.169-.207.109-.083.043-.045.023q-.121.061-.253.114c-.043.023-.086.04-.129.061l-.253.106c-.222.1-.45.187-.68.268l-.308.1H328a.432.432 0 0 1-.076.023l-.058.02-.172.051-.058.018-.073.02-.106.028a.4.4 0 0 1-.073.02l-.179.048a6.449 6.449 0 0 1-.4.088 11.394 11.394 0 0 1-1.352.2c-.344.03-.687.048-1.039.051h-.081c-.334 0-.659-.015-.985-.043l-.288-.028h-.121l-.4-.053-.321-.056-.081-.015a4.773 4.773 0 0 1-.445-.1.08.08 0 0 1-.035 0 8.88 8.88 0 0 1-.523-.131l-.23-.068-.2-.063-.066-.023a12.13 12.13 0 0 1-1.2-.473q-.407-.187-.8-.4l-.116-.066-.172-.1-.094-.056a13.293 13.293 0 0 1-.758-.505l-.03-.02-.02-.015-.217-.159-.164-.126a11.12 11.12 0 0 1-.92-.8q-.409-.394-.778-.826a11.876 11.876 0 1 1 20.884-7.747z" class="cls-7" data-name="Path 1683" transform="translate(-240.613 -302.133)"/>
        <path id="Path_1684" d="M345.013 412.994a.44.44 0 0 0-.063-.073.331.331 0 0 0-.058-.045.584.584 0 0 1-.225-.556.524.524 0 0 0 0-.066 3.439 3.439 0 0 0-.293-.745 6.484 6.484 0 0 1-.21-.531c-.091-.253-.164-.483-.164-.483a.262.262 0 0 0-.013-.066 80.97 80.97 0 0 1-.187-1.026v-.073a9.95 9.95 0 0 0-.988-1.973.1.1 0 0 0-.038-.048c-.2-.094-.882-.485-.882-.485a1.766 1.766 0 0 0-1.316-.8h-.124a.792.792 0 0 0-.083 0 .994.994 0 0 0-.131.033l-.048.015a.467.467 0 0 0-.066.028l-.015.124a2.8 2.8 0 0 1 .071-.915l.025-.086h.147a2.479 2.479 0 0 0 2.347-3.161v-.035l.073-.035c.3-.114.682.081.927-.126a.726.726 0 0 0 .184-.323 1.953 1.953 0 0 0 .134-.518.863.863 0 0 0 0-.162v-.02a.6.6 0 0 0-.129-.321c-.159-.19-.427-.237-.632-.376a1.585 1.585 0 0 1-.4-.483 1.727 1.727 0 0 0-.392-.49.571.571 0 0 0-.586-.1.691.691 0 0 1-.195.094.407.407 0 0 1-.212-.058 4.075 4.075 0 0 0-2.274-.174 2.977 2.977 0 0 0-.892.217 1.082 1.082 0 0 0-.6.67c-.063.237-.015.505-.091.73-.051.159-.154.3-.212.452a.994.994 0 0 0-.056.265v-.015.177a7.487 7.487 0 0 0 .174.922 6.409 6.409 0 0 0 .253 1.491.876.876 0 0 0 .081.162c-.073.159-.149.318-.227.47a1.08 1.08 0 0 0-.116-.025h-.091a.372.372 0 0 0-.091 0 .284.284 0 0 0-.063.028l-.025.023-.018.013a.1.1 0 0 0-.02.033.04.04 0 0 0 0 .018.311.311 0 0 0-.025.1v.025a.594.594 0 0 1-.015.162c-.015.056 0 .063-.013.094a.724.724 0 0 1-.013.078v.02a.412.412 0 0 1-.02.094l-.038.114-.015.033c-.015.033-.03.066-.048.1l-.086.089a.1.1 0 0 0-.053.1l-.038.03a.128.128 0 0 0-.053.02c-.018-.04-.088-.04-.308.227a4.178 4.178 0 0 1-1.011.783s-1.483 1.056-1.564 1.544-.558 2.6-.306 3.3c.033.091.1.232.179.4v.015s.073.28.19.695c.03.018.061.04.093.058l.172.1.116.068c.253.144.526.28.8.407a12.152 12.152 0 0 0 1.2.478l.066.023.2.066.23.068c.172.048.346.094.523.134a.08.08 0 0 0 .035 0c.147.038.3.068.445.1l.081.015.321.058.4.053h.121l.288.028c.326.028.652.043.985.043h.081c.351 0 .695-.02 1.039-.051a11.391 11.391 0 0 0 1.352-.2c.134-.025.268-.056.4-.091l.179-.048a.4.4 0 0 0 .073-.02l.106-.028.073-.02.058-.018.172-.051.058-.023a.432.432 0 0 0 .076-.023h.035l.308-.1c.23-.083.457-.174.68-.273l.253-.106c.043-.02.086-.038.129-.063a.759.759 0 0 0-.101-.179zm-4.9-6.694h-.013v-.015z" class="cls-10" data-name="Path 1684" transform="translate(-256.322 -326.665)"/>
        <path id="Path_1685" d="M345.05 413.7a.554.554 0 0 0-.063-.071.328.328 0 0 0-.058-.045.571.571 0 0 1-.225-.548.536.536 0 0 0 0-.066 3.365 3.365 0 0 0-.293-.735 6.566 6.566 0 0 1-.21-.523c-.091-.253-.164-.478-.164-.478l-.013-.063c-.03-.159-.114-.6-.187-1.011v-.073a9.8 9.8 0 0 0-.988-1.948.089.089 0 0 0-.038-.046c-.2-.093-.882-.48-.882-.48a1.77 1.77 0 0 0-1.316-.793h-.124a.8.8 0 0 0-.083 0 .991.991 0 0 0-.131.033l-.048.015a.478.478 0 0 0-.066.028l-.015.124a2.74 2.74 0 0 1 .071-.9.348.348 0 0 1 .025-.083h.146a2.443 2.443 0 0 0 2.443-2.443 2.4 2.4 0 0 0-.1-.677v-.033l.04-.01c.3-.111.682.081.927-.124a.715.715 0 0 0 .184-.321 1.881 1.881 0 0 0 .134-.505.846.846 0 0 0 0-.159v-.02a.594.594 0 0 0-.129-.316c-.159-.189-.427-.235-.632-.374a1.517 1.517 0 0 1-.4-.475 1.74 1.74 0 0 0-.387-.485.569.569 0 0 0-.586-.091.758.758 0 0 1-.195.091.407.407 0 0 1-.212-.058 4.1 4.1 0 0 0-2.274-.172 2.9 2.9 0 0 0-.892.215 1.071 1.071 0 0 0-.6.659c-.063.235-.015.49-.091.723-.051.157-.154.293-.212.447a.922.922 0 0 0-.056.253v.159a7.3 7.3 0 0 0 .174.91 6.309 6.309 0 0 0 .253 1.473.938.938 0 0 0 .081.159 11.02 11.02 0 0 1-.227.462 1.081 1.081 0 0 0-.116-.025h-.091a.372.372 0 0 0-.091 0 .308.308 0 0 0-.061.025l-.025.023-.018.013a.1.1 0 0 0-.02.033.041.041 0 0 0 0 .018.291.291 0 0 0-.025.1v.025a.568.568 0 0 1-.015.159c-.015.053 0 .063-.013.093s0 .051-.013.076 0 .013 0 .02-.013.063-.02.093l-.038.114-.015.03a.813.813 0 0 1-.048.093.272.272 0 0 1-.048.033.1.1 0 0 0-.053.1l-.038.03a.116.116 0 0 0-.053.018c-.018-.038-.088-.038-.308.225a4.165 4.165 0 0 1-1.011.773s-1.483 1.044-1.564 1.516-.558 2.562-.306 3.257c.033.091.1.23.179.4v.015s.073.278.19.687l.093.056.172.1.116.066q.389.217.8.4a12.129 12.129 0 0 0 1.2.473l.066.023.2.063.23.068c.172.048.346.093.523.131a.081.081 0 0 0 .035 0c.147.038.3.068.445.1l.081.015.321.056.4.053h.121l.288.028c.326.028.652.043.985.043h.081c.351 0 .695-.02 1.039-.051a11.384 11.384 0 0 0 1.352-.2c.134-.025.268-.056.4-.088l.179-.048a.4.4 0 0 0 .073-.02l.106-.028.073-.02.058-.018.172-.051.058-.02a.433.433 0 0 0 .076-.023h.035l.308-.1c.23-.081.457-.172.68-.268l.253-.106c.043-.02.086-.038.129-.061a.757.757 0 0 0-.114-.119zm-4.9-6.605h-.015v-.015z" class="cls-9" data-name="Path 1685" transform="translate(-256.359 -327.36)"/>
        <path id="Path_1686" d="M337.252 495.741a11.817 11.817 0 0 1-1.455 5.7 11.211 11.211 0 0 1-.662 1.066 11.017 11.017 0 0 1-.776 1.011.381.381 0 0 1-.053.058 5.88 5.88 0 0 1-.336.369l-.129.136c-.131.134-.265.253-.4.389a.453.453 0 0 1-.051.048c-.063.058-.129.119-.2.174a11.573 11.573 0 0 1-1.117.867c-.2.136-.4.268-.609.392l-.162.1-.306.169-.149.078h-.018l-.04.023-.083.043-.045.023-.253.114-.129.061-.253.106-.359.149-.19.071-.129.048-.308.1H329l-.076.023-.058.02-.172.051-.058.018h-.073l-.106.028a.4.4 0 0 1-.073.02l-.179.048a6.449 6.449 0 0 1-.4.088 12.042 12.042 0 0 1-1.352.202c-.344.03-.687.048-1.039.051h-.081c-.334 0-.66-.015-.985-.043l-.288-.028h-.121a2.382 2.382 0 0 1-.364-.048h-.038l-.321-.056-.081-.015a4.773 4.773 0 0 1-.445-.1.079.079 0 0 1-.035 0 8.88 8.88 0 0 1-.523-.131l-.23-.068-.2-.063-.066-.023-.184-.063-.129-.045a5.378 5.378 0 0 1-.275-.106l-.094-.038-.119-.048q-.2-.081-.387-.167-.407-.184-.8-.4l-.116-.066-.172-.1-.093-.056a4.243 4.243 0 0 1-.376-.253 8.208 8.208 0 0 1-.369-.253l-.03-.02-.02-.015-.217-.159-.164-.126a11.131 11.131 0 0 1-.92-.8q-.409-.394-.778-.826a11.876 11.876 0 1 1 20.854-7.729z" class="cls-7" data-name="Path 1686" transform="translate(-241.36 -390.16)"/>
        <g id="Group_1205" class="cls-11" data-name="Group 1205" transform="translate(77.434 101.577)">
            <path id="Path_1687" d="M345.29 463.153h.008-.008z" class="cls-6" data-name="Path 1687" transform="translate(-335.476 -447.728)"/>
            <path id="Path_1688" d="M346.162 529.1a.147.147 0 0 1-.073-.051.417.417 0 0 1 .22-.126c.078-.02.121-.136.111-.253a.427.427 0 0 0-.094-.316.223.223 0 0 1-.053-.088 2.2 2.2 0 0 1 .149-.273.086.086 0 0 0 0-.086c.071-.174-.253-.141-.253-.141V526.1s-.025-.134-.061-.389-.086-.629-.134-1.107c-.1-.953-.473-1.051-.473-1.051a4.268 4.268 0 0 1-.586-.23 4.005 4.005 0 0 0-.617-.23 3.163 3.163 0 0 1-.8-.111 2.439 2.439 0 0 0-.543-.116l-.058-.03a2.1 2.1 0 0 1-.975-1.011 2.047 2.047 0 0 0 .217-.293v.19c.253-.455 1.011-.558 1.084-1.076v-.018a.6.6 0 0 0 0-.134.575.575 0 0 0 0-.066v-.053a3.964 3.964 0 0 0-.066-.392v-.025a.893.893 0 0 1 .02-.114.217.217 0 0 1 0-.035 1.051 1.051 0 0 1 .038-.126c.106-.286.3-.553.409-.846a1.407 1.407 0 0 0 .053-.2v-.028a1.734 1.734 0 0 0 .02-.2v-.141a.033.033 0 0 0 0-.018.088.088 0 0 0 0-.025.667.667 0 0 0 0-.071 1.536 1.536 0 0 0-.505-1.112c-.253-.225-.6-.366-.781-.66-.083-.139-.124-.3-.217-.432a1.084 1.084 0 0 0-.786-.387 4.377 4.377 0 0 1-.892-.119c-.2-.066-.387-.184-.591-.253a1.132 1.132 0 0 0-1.218.437 2.044 2.044 0 0 1-.323.47c-.3.253-.8.144-1.066.435a.725.725 0 0 0-.141.553v.138a.123.123 0 0 1 0 .03.646.646 0 0 0 0 .1v.1a1.642 1.642 0 0 0 .025.195 2.966 2.966 0 0 1 .025.333v.051a3.459 3.459 0 0 1-.377 1.461 4.466 4.466 0 0 0-.675 1.468 1.219 1.219 0 0 0 0 .235v-.023a.341.341 0 0 0 0 .051v.291l.023.121a.606.606 0 0 0 0 .066l.038.157v.028c.071.253.164.526.22.791a2.565 2.565 0 0 1 .045.273.07.07 0 0 0 0 .023c0 .076.013.154.015.23v.06a2.956 2.956 0 0 1-.379.116c-.227.033-.895.624-.846.771a.213.213 0 0 1 0 .063.235.235 0 0 1 0 .04 9.76 9.76 0 0 1-.308 1.1l-.536 3.692c.124.083.253.162.376.253l.094.056.172.1.116.066q.389.215.8.4.19.088.387.167l.119.048.093.038a.411.411 0 0 0 .152.094h.109a.254.254 0 0 0 .076 0h.04l.129.045.184.063.066.023.2.063.23.068c.172.048.346.094.523.131a.08.08 0 0 0 .035 0c.147.038.3.068.445.1l.081.015.321.056h.038c.121.018.253.035.364.048h.121l.288.028c.326.028.652.043.985.043h.081c.351 0 .695-.02 1.039-.051a10.795 10.795 0 0 0 1.352-.202c.134-.025.268-.056.4-.088l.179-.048a.4.4 0 0 0 .073-.02l.106-.028h.03c0-.172-.02-.318-.025-.432.038.051.076.094.1.126a.127.127 0 0 1 .028.056 1.038 1.038 0 0 0-.094.253h.023l.058-.018.172-.051.058-.02.076-.023h.035l.308-.1.129-.048.19-.071.359-.149.253-.106.129-.061.253-.114.045-.023.083-.043.04-.023h.018a1.09 1.09 0 0 0 0-.177v-.091c.016-.071-.115-.22-.327-.3zm-9.577-5.885z" class="cls-6" data-name="Path 1688" transform="translate(-334.45 -515.155)"/>
            <path id="Path_1689" d="M336.275 574.57l-.045-.02a.156.156 0 0 0 .045.02z" class="cls-6" data-name="Path 1689" transform="translate(-335.78 -559.542)"/>
        </g>
        <path id="Path_1690" d="M337.252 614.731a11.817 11.817 0 0 1-1.455 5.7 11.2 11.2 0 0 1-.662 1.066 11.025 11.025 0 0 1-.776 1.011.228.228 0 0 1-.048.051 5.88 5.88 0 0 1-.336.369l-.035.038-.094.1c-.131.134-.265.253-.4.389a.458.458 0 0 1-.051.048c-.063.058-.129.119-.2.174a9.229 9.229 0 0 1-.824.66l-.051.035-.1.073c-.045.035-.091.066-.139.1-.2.136-.4.268-.609.392l-.091.056-.071.04-.31.167-.149.078h-.018l-.04.023-.083.043-.046.023-.253.114-.129.061-.253.106-.359.149-.19.071-.129.048-.051.018-.253.086h-.035l-.076.023-.058.02-.068.02-.1.03-.058.018h-.073l-.106.028a.392.392 0 0 1-.073.02l-.179.048a6.449 6.449 0 0 1-.4.088c-.217.046-.437.086-.657.119q-.2.03-.394.053h-.048l-.253.025c-.344.03-.687.048-1.038.051h-.288c-.253 0-.521-.018-.778-.04h-.076l-.212-.02h-.121l-.253-.03-.121-.018h-.038l-.321-.056-.081-.015-.212-.04-.088-.02-.144-.035a.082.082 0 0 1-.035 0 8.88 8.88 0 0 1-.523-.131l-.091-.028h-.033l-.106-.03-.1-.03-.1-.033-.066-.023-.184-.063-.129-.045-.119-.053-.154-.061-.093-.038-.119-.048q-.2-.081-.387-.167c-.2-.091-.4-.187-.589-.293a3.135 3.135 0 0 1-.207-.109l-.053-.03-.061-.033-.172-.1-.093-.056a4.257 4.257 0 0 1-.376-.253 8.208 8.208 0 0 1-.369-.253l-.03-.02-.02-.015-.1-.076-.114-.083-.02-.015c-.048-.038-.1-.073-.144-.111a11.1 11.1 0 0 1-.92-.8q-.409-.394-.778-.826a11.876 11.876 0 1 1 20.849-7.732z" class="cls-7" data-name="Path 1690" transform="translate(-241.36 -479.082)"/>
        <path id="Path_1691" d="M346.6 646.474a.392.392 0 0 0-.526-.172l-3.459 1.769a.41.41 0 0 0-.043-.134.316.316 0 0 0-.142-.253.234.234 0 0 1-.076-.073.745.745 0 0 1 0-.078.227.227 0 0 0-.04-.179.445.445 0 0 0-.19-.323h-.013v-.088a.352.352 0 0 0-.048-.159c-.013-.164-.131-.316-.369-.541a.842.842 0 0 1-.189-.339v-.015c-.043-.164-.086-.349-.147-.536a3.006 3.006 0 0 0-.1-.313c-.187-.483-.392-.419-.475-.505s-.627-.195-.9-.339a2.979 2.979 0 0 0-1.248.056v-.052a2.34 2.34 0 0 0 1.617-2.724l-.015-.058a.946.946 0 0 0 .359-.071.47.47 0 0 0 .164-.3 1.516 1.516 0 0 0 .045-.677c0-.023-.02-.045-.028-.068a.392.392 0 0 0-.018-.058.252.252 0 0 0 0-.061.973.973 0 0 0-.078-.207.035.035 0 0 1 0 .018 7.274 7.274 0 0 0-.581-.781c-.2-.3-.318-.687-.624-.889a1.264 1.264 0 0 0-1.044-.053 2.965 2.965 0 0 1-.49.126 5.18 5.18 0 0 1-.836-.051 1.8 1.8 0 0 0-1.112.3.625.625 0 0 0-.182.182.95.95 0 0 0-.081.328 1.6 1.6 0 0 1-.217.6c-.086.147-.195.276-.273.425a.652.652 0 0 0-.073.488c.028.086.078.162.1.253a.922.922 0 0 1-.177.576 1.1 1.1 0 0 0-.121.548.707.707 0 0 0 .154.4.564.564 0 0 0 .051.1l.013.018a.713.713 0 0 0 .051.071l.025.025.051.051a.849.849 0 0 0 .493.154.819.819 0 0 0 .043.081v.045a.253.253 0 0 0 0 .043 1.257 1.257 0 0 0-.682.281.983.983 0 0 1-.6.253s-.493.164-.483.207-.144.1-.455.184a2 2 0 0 0-.821.452c0 .073-.814.872-.814.955a2.022 2.022 0 0 0-.217.932 3.335 3.335 0 0 1-.061 1.347c-.124.114 0 .553 0 .553a.308.308 0 0 1 0 .328 2.791 2.791 0 0 0 .02.955v.8a1.851 1.851 0 0 1 .045.349l.02.015.114.083.1.076.02.015.03.02c.121.086.253.169.369.253.124.083.253.162.376.253l.093.056.172.1.061.033.053.03c.068.038.136.076.207.109.192.106.389.2.589.293q.19.088.387.167l.119.048.093.038.154.061.121.046.129.045.184.063.066.023.1.033.1.03.106.03h.033l.091.028c.172.048.346.094.523.131a.081.081 0 0 0 .035 0l.144.035.088.02.212.04.081.015.321.056h.038l.121.018.253.03h.121l.212.02h.076c.253.023.505.035.778.04h.288c.351 0 .695-.02 1.039-.051l.253-.025h.048q.2-.023.394-.053c.22-.033.44-.073.657-.119.134-.025.268-.056.4-.088l.179-.048a.4.4 0 0 0 .073-.02l.106-.028h.073l.058-.018.1-.03.068-.02.058-.02.076-.023h.035l.253-.086.051-.018.129-.048.19-.071.359-.149.253-.106.129-.061.253-.114.046-.023.083-.043.04-.023h.018l.149-.078.306-.169.071-.04.091-.056c.207-.124.409-.253.609-.392.048-.033.094-.063.139-.1h.051l.053-.078.051-.035q.428-.311.824-.659c.068-.056.134-.116.2-.174a.458.458 0 0 0 .051-.048c.139-.126.273-.253.4-.389l.094-.1.035-.038c.116-.119.23-.253.336-.369zm-5.759 3.962l-.063.015a.106.106 0 0 1 .02-.053s-.387.015-.778.045a.579.579 0 0 1 .02-.195 4.633 4.633 0 0 0 .192-.852l.672 1.026zm.129 1.951a.9.9 0 0 0 0-.1c.023-.015.038-.028.04-.038a2.569 2.569 0 0 0-.038-.336h.061l.71-.111a1.3 1.3 0 0 0 .253-.035l.058.114a3.652 3.652 0 0 0-.91.407.345.345 0 0 1-.169.1z" class="cls-9" data-name="Path 1691" transform="translate(-254.926 -505.518)"/>
        <path id="Path_1692" d="M849.523 276.4l-1.011-1.011a.533.533 0 0 0-.758 0l-6.282 6.231-2.658-2.678a.528.528 0 0 0-.758 0l-1.011 1.011a.536.536 0 0 0 0 .758l4.043 4.066a.536.536 0 0 0 .758 0l7.666-7.608a.533.533 0 0 0 .01-.768z" class="cls-12" data-name="Path 1692" transform="translate(-632.498 -234.281)"/>
        <path id="Path_1693" d="M849.56 393.543l-1.011-1.011a.533.533 0 0 0-.758 0l-6.269 6.241-2.658-2.678a.528.528 0 0 0-.758 0l-1.011 1.011a.536.536 0 0 0 0 .758l4.043 4.066a.536.536 0 0 0 .758 0l7.659-7.628a.533.533 0 0 0 .005-.758z" class="cls-12" data-name="Path 1693" transform="translate(-632.536 -321.822)"/>
        <path id="Path_1694" d="M849.52 629.946l-1.011-1.011a.536.536 0 0 0-.758 0l-6.282 6.231-2.658-2.678a.533.533 0 0 0-.758 0l-1.011 1.011a.533.533 0 0 0 0 .758l4.043 4.066a.538.538 0 0 0 .758 0l7.666-7.611a.528.528 0 0 0 .01-.766z" class="cls-12" data-name="Path 1694" transform="translate(-632.495 -498.491)"/>
        <ellipse id="Ellipse_386" cx="3.411" cy="6.843" class="cls-6" data-name="Ellipse 386" rx="3.411" ry="6.843" transform="rotate(-37.16 41.302 -35.114)"/>
        <ellipse id="Ellipse_387" cx="3.411" cy="6.843" class="cls-5" data-name="Ellipse 387" rx="3.411" ry="6.843" transform="rotate(-37.16 41.302 -35.114)"/>
        <ellipse id="Ellipse_388" cx="3.136" cy="6.666" class="cls-6" data-name="Ellipse 388" rx="3.136" ry="6.666" transform="rotate(-37.16 41.437 -35.582)"/>
        <path id="Path_1695" d="M156.12 176.45a30.753 30.753 0 0 0 4.867 7.052c.369.4.758.786 1.122 1.175l2.11 2.173" class="cls-13" data-name="Path 1695" transform="translate(-123.747 -160.457)"/>
        <ellipse id="Ellipse_389" cx="3.411" cy="6.843" class="cls-6" data-name="Ellipse 389" rx="3.411" ry="6.843" transform="rotate(-37.16 19.839 -27.264)"/>
        <ellipse id="Ellipse_390" cx="3.411" cy="6.843" class="cls-5" data-name="Ellipse 390" rx="3.411" ry="6.843" transform="rotate(-37.16 19.839 -27.264)"/>
        <ellipse id="Ellipse_391" cx="3.136" cy="6.666" class="cls-6" data-name="Ellipse 391" rx="3.136" ry="6.666" transform="rotate(-37.16 19.976 -27.735)"/>
        <path id="Path_1696" d="M120.12 131.45a30.754 30.754 0 0 0 4.867 7.052c.369.4.758.786 1.122 1.175l2.11 2.173" class="cls-13" data-name="Path 1696" transform="translate(-96.843 -126.828)"/>
        <ellipse id="Ellipse_392" cx="5.842" cy="2.913" class="cls-6" data-name="Ellipse 392" rx="5.842" ry="2.913" transform="rotate(-37.16 34.467 -38.073)"/>
        <ellipse id="Ellipse_393" cx="5.842" cy="2.913" class="cls-5" data-name="Ellipse 393" rx="5.842" ry="2.913" transform="rotate(-37.16 34.467 -38.073)"/>
        <ellipse id="Ellipse_394" cx="5.693" cy="2.678" class="cls-6" data-name="Ellipse 394" rx="5.693" ry="2.678" transform="rotate(-37.16 34.715 -38.404)"/>
        <path id="Path_1697" d="M163.427 146.38a26.279 26.279 0 0 0-6.021 4.157c-.341.316-.675.637-1.011.96l-1.855 1.8" class="cls-13" data-name="Path 1697" transform="translate(-122.566 -137.986)"/>
        <ellipse id="Ellipse_395" cx="5.842" cy="2.913" class="cls-6" data-name="Ellipse 395" rx="5.842" ry="2.913" transform="rotate(-29.9 45.933 -29.213)"/>
        <ellipse id="Ellipse_396" cx="5.842" cy="2.913" class="cls-5" data-name="Ellipse 396" rx="5.842" ry="2.913" transform="rotate(-29.9 45.933 -29.213)"/>
        <ellipse id="Ellipse_397" cx="5.693" cy="2.678" class="cls-6" data-name="Ellipse 397" rx="5.693" ry="2.678" transform="rotate(-29.9 46.267 -29.599)"/>
        <path id="Path_1698" d="M116.08 181.471a26.217 26.217 0 0 1 6.173-3.929c.422-.19.846-.371 1.263-.551l2.383-1.011" class="cls-13" data-name="Path 1698" transform="translate(-93.824 -160.106)"/>
        <ellipse id="Ellipse_398" cx="1.256" cy="2.517" class="cls-6" data-name="Ellipse 398" rx="1.256" ry="2.517" transform="rotate(-37.72 32.012 -34.307)"/>
        <ellipse id="Ellipse_399" cx="1.256" cy="2.517" class="cls-5" data-name="Ellipse 399" rx="1.256" ry="2.517" transform="rotate(-37.72 32.012 -34.307)"/>
        <ellipse id="Ellipse_400" cx="1.155" cy="2.451" class="cls-6" data-name="Ellipse 400" rx="1.155" ry="2.451" transform="rotate(-37.72 32.055 -34.498)"/>
        <path id="Path_1699" d="M141.79 159.43a11.388 11.388 0 0 1 2.037 2.406c.106.167.21.339.311.505l.569.958" class="cls-13" data-name="Path 1699" transform="translate(-113.038 -147.738)"/>
        <ellipse id="Ellipse_401" cx="1.256" cy="2.517" class="cls-6" data-name="Ellipse 401" rx="1.256" ry="2.517" transform="rotate(-37.72 39.496 -36.876)"/>
        <ellipse id="Ellipse_402" cx="1.256" cy="2.517" class="cls-5" data-name="Ellipse 402" rx="1.256" ry="2.517" transform="rotate(-37.72 39.496 -36.876)"/>
        <ellipse id="Ellipse_403" cx="1.155" cy="2.451" class="cls-6" data-name="Ellipse 403" rx="1.155" ry="2.451" transform="rotate(-37.72 39.536 -37.071)"/>
        <path id="Path_1700" d="M154.2 175.41a11.314 11.314 0 0 1 2.037 2.406c.109.169.21.339.311.505l.571.958" class="cls-13" data-name="Path 1700" transform="translate(-122.312 -159.68)"/>
        <circle id="Ellipse_404" cx=".51" cy=".51" r=".51" class="cls-6" data-name="Ellipse 404" transform="translate(31.289 15.166)"/>
        <circle id="Ellipse_405" cx=".51" cy=".51" r=".51" class="cls-13" data-name="Ellipse 405" transform="translate(31.289 15.166)"/>
        <path id="Path_1701" d="M987.294 671.9c-.068-.351-1.65-8.685 3.108-19.709 1.862-4.313 1.708-8.03-.452-11.045a10.714 10.714 0 0 0-3.79-3.26l.561-1.243a12.05 12.05 0 0 1 4.346 3.709c1.69 2.358 3.166 6.418.6 12.381-4.591 10.648-3.032 18.832-3.032 18.913z" class="cls-6" data-name="Path 1701" transform="translate(-744.052 -504.366)"/>
        <path id="Path_1702" d="M1008.727 694.348c1.915-.164 3.507-.344 3.558.253s-1.458 1.741-3.371 1.905-3.507-.187-3.558-.783 1.458-1.211 3.371-1.375z" class="cls-6" data-name="Path 1702" transform="translate(-758.397 -547.373)"/>
        <path id="Path_1703" d="M1008.727 694.348c1.915-.164 3.507-.344 3.558.253s-1.458 1.741-3.371 1.905-3.507-.187-3.558-.783 1.458-1.211 3.371-1.375z" class="cls-5" data-name="Path 1703" transform="translate(-758.397 -547.373)"/>
        <path id="Path_1704" d="M1008.975 694.241c1.865-.159 3.411-.407 3.454.1s-1.433 1.574-3.3 1.733-3.411-.121-3.454-.627 1.435-1.047 3.3-1.206z" class="cls-6" data-name="Path 1704" transform="translate(-758.637 -547.261)"/>
        <path id="Path_1705" d="M1005.79 696.345a26.929 26.929 0 0 0 4.344-.253c.273-.038.543-.081.814-.124.505-.078 1.011-.687 1.516-.758" class="cls-13" data-name="Path 1705" transform="translate(-758.722 -548.137)"/>
        <path id="Path_1706" d="M995.439 738.374c1.913-.162 3.507-.341 3.558.253s-1.458 1.743-3.373 1.908-3.5-.187-3.558-.783 1.46-1.214 3.373-1.378z" class="cls-6" data-name="Path 1706" transform="translate(-748.464 -580.276)"/>
        <path id="Path_1707" d="M995.439 738.374c1.913-.162 3.507-.341 3.558.253s-1.458 1.743-3.373 1.908-3.5-.187-3.558-.783 1.46-1.214 3.373-1.378z" class="cls-5" data-name="Path 1707" transform="translate(-748.464 -580.276)"/>
        <path id="Path_1708" d="M995.732 738.27c1.865-.159 3.411-.407 3.454.1s-1.433 1.577-3.285 1.736-3.411-.121-3.454-.627 1.42-1.05 3.285-1.209z" class="cls-6" data-name="Path 1708" transform="translate(-748.75 -580.165)"/>
        <path id="Path_1709" d="M992.51 740.375a27.247 27.247 0 0 0 4.344-.253c.273-.038.543-.081.814-.124.505-.078 1.011-.687 1.516-.758" class="cls-13" data-name="Path 1709" transform="translate(-748.797 -581.041)"/>
        <path id="Path_1710" d="M983.668 688.052c-1.792-.695-3.27-1.314-3.487-.758s.91 2.082 2.7 2.78 3.419.809 3.636.253-1.06-1.577-2.849-2.275z" class="cls-6" data-name="Path 1710" transform="translate(-739.564 -542.061)"/>
        <path id="Path_1711" d="M983.668 688.052c-1.792-.695-3.27-1.314-3.487-.758s.91 2.082 2.7 2.78 3.419.809 3.636.253-1.06-1.577-2.849-2.275z" class="cls-5" data-name="Path 1711" transform="translate(-739.564 -542.061)"/>
        <path id="Path_1712" d="M984.054 687.936c-1.743-.677-3.158-1.352-3.343-.877s.932 1.915 2.676 2.593 3.308.844 3.492.371-1.079-1.423-2.825-2.087z" class="cls-6" data-name="Path 1712" transform="translate(-739.965 -541.926)"/>
        <path id="Path_1713" d="M987.06 690.432a27.03 27.03 0 0 1-4.1-1.471c-.253-.114-.505-.232-.758-.349-.462-.217-.776-.943-1.236-1.162" class="cls-13" data-name="Path 1713" transform="translate(-740.173 -542.338)"/>
        <path id="Path_1714" d="M971.848 732.188c-1.792-.7-3.27-1.316-3.487-.758s.91 2.082 2.7 2.779 3.416.809 3.633.253-1.057-1.579-2.846-2.274z" class="cls-6" data-name="Path 1714" transform="translate(-730.73 -575.043)"/>
        <path id="Path_1715" d="M971.848 732.188c-1.792-.7-3.27-1.316-3.487-.758s.91 2.082 2.7 2.779 3.416.809 3.633.253-1.057-1.579-2.846-2.274z" class="cls-5" data-name="Path 1715" transform="translate(-730.73 -575.043)"/>
        <path id="Path_1716" d="M972.254 732.019c-1.744-.677-3.159-1.349-3.343-.877s.932 1.915 2.676 2.6 3.308.844 3.492.369-1.079-1.411-2.825-2.092z" class="cls-6" data-name="Path 1716" transform="translate(-731.147 -574.871)"/>
        <path id="Path_1717" d="M975.247 734.572a27.328 27.328 0 0 1-4.106-1.473c-.253-.114-.505-.23-.745-.349-.46-.217-.773-.943-1.236-1.16" class="cls-13" data-name="Path 1717" transform="translate(-731.347 -575.324)"/>
        <path id="Path_1718" d="M970.128 742.845c-1.824.6-3.361 1.059-3.174 1.63s2.021 1.028 3.851.43 3.151-1.546 2.972-2.12-1.825-.541-3.649.06z" class="cls-6" data-name="Path 1718" transform="translate(-729.688 -583.383)"/>
        <path id="Path_1719" d="M970.128 742.845c-1.824.6-3.361 1.059-3.174 1.63s2.021 1.028 3.851.43 3.151-1.546 2.972-2.12-1.825-.541-3.649.06z" class="cls-5" data-name="Path 1719" transform="translate(-729.688 -583.383)"/>
        <path id="Path_1720" d="M970.229 742.81c-1.769.584-3.285.963-3.138 1.448s1.936.887 3.714.3 3.09-1.45 2.931-1.933-1.728-.389-3.507.185z" class="cls-6" data-name="Path 1720" transform="translate(-729.794 -583.34)"/>
        <path id="Path_1721" d="M973.867 743.66a26.893 26.893 0 0 1-4.1 1.466l-.8.2c-.505.126-1.2-.235-1.693-.111" class="cls-13" data-name="Path 1721" transform="translate(-729.942 -584.344)"/>
        <ellipse id="Ellipse_406" cx="2.689" cy="5.395" class="cls-6" data-name="Ellipse 406" rx="2.689" ry="5.395" transform="rotate(-76.34 207.59 -87.209)"/>
        <ellipse id="Ellipse_407" cx="2.689" cy="5.395" class="cls-5" data-name="Ellipse 407" rx="2.689" ry="5.395" transform="rotate(-76.34 207.59 -87.209)"/>
        <ellipse id="Ellipse_408" cx="2.474" cy="5.253" class="cls-6" data-name="Ellipse 408" rx="2.474" ry="5.253" transform="rotate(-76.34 207.579 -87.407)"/>
        <path id="Path_1722" d="M994 637.88a24.206 24.206 0 0 0 6.484 1.885c.424.061.849.111 1.263.162l2.37.278" class="cls-13" data-name="Path 1722" transform="translate(-749.911 -505.293)"/>
        <ellipse id="Ellipse_409" cx="5.395" cy="2.689" class="cls-6" data-name="Ellipse 409" rx="5.395" ry="2.689" transform="rotate(-77.23 202.395 -84.583)"/>
        <ellipse id="Ellipse_410" cx="5.395" cy="2.689" class="cls-5" data-name="Ellipse 410" rx="5.395" ry="2.689" transform="rotate(-77.23 202.395 -84.583)"/>
        <ellipse id="Ellipse_411" cx="5.253" cy="2.474" class="cls-6" data-name="Ellipse 411" rx="5.253" ry="2.474" transform="rotate(-77.23 202.467 -84.786)"/>
        <path id="Path_1723" d="M988.92 605.105a24.22 24.22 0 0 0 1.789-6.517c.056-.422.1-.849.141-1.263l.253-2.375" class="cls-13" data-name="Path 1723" transform="translate(-746.114 -473.211)"/>
        <ellipse id="Ellipse_412" cx="5.395" cy="2.689" class="cls-6" data-name="Ellipse 412" rx="5.395" ry="2.689" transform="rotate(-77.23 208.386 -77.04)"/>
        <ellipse id="Ellipse_413" cx="5.395" cy="2.689" class="cls-5" data-name="Ellipse 413" rx="5.395" ry="2.689" transform="rotate(-77.23 208.386 -77.04)"/>
        <ellipse id="Ellipse_414" cx="5.253" cy="2.474" class="cls-6" data-name="Ellipse 414" rx="5.253" ry="2.474" transform="rotate(-77.23 208.458 -77.242)"/>
        <path id="Path_1724" d="M978.28 651.465a24.314 24.314 0 0 0 1.784-6.517c.053-.422.1-.849.141-1.263l.253-2.375" class="cls-13" data-name="Path 1724" transform="translate(-738.163 -507.856)"/>
        <ellipse id="Ellipse_415" cx="2.689" cy="5.395" class="cls-6" data-name="Ellipse 415" rx="2.689" ry="5.395" transform="rotate(-76.34 199.246 -80.282)"/>
        <ellipse id="Ellipse_416" cx="2.689" cy="5.395" class="cls-5" data-name="Ellipse 416" rx="2.689" ry="5.395" transform="rotate(-76.34 199.246 -80.282)"/>
        <ellipse id="Ellipse_417" cx="2.474" cy="5.253" class="cls-6" data-name="Ellipse 417" rx="2.474" ry="5.253" transform="rotate(-76.34 199.236 -80.479)"/>
        <path id="Path_1725" d="M942.11 626.74a24.2 24.2 0 0 0 6.486 1.888c.422.061.846.111 1.263.162l2.373.278" class="cls-13" data-name="Path 1725" transform="translate(-711.132 -496.968)"/>
        <ellipse id="Ellipse_418" cx="2.299" cy="4.611" class="cls-6" data-name="Ellipse 418" rx="2.299" ry="4.611" transform="rotate(-37.16 319.792 -291.327)"/>
        <ellipse id="Ellipse_419" cx="2.299" cy="4.611" class="cls-5" data-name="Ellipse 419" rx="2.299" ry="4.611" transform="rotate(-37.16 319.792 -291.327)"/>
        <ellipse id="Ellipse_420" cx="2.115" cy="4.493" class="cls-6" data-name="Ellipse 420" rx="2.115" ry="4.493" transform="rotate(-37.16 319.881 -291.641)"/>
        <path id="Path_1726" d="M988.7 638.59a20.732 20.732 0 0 0 3.285 4.753c.253.268.505.531.758.793l1.423 1.463" class="cls-13" data-name="Path 1726" transform="translate(-745.95 -505.824)"/>
        <ellipse id="Ellipse_421" cx="2.299" cy="4.611" class="cls-6" data-name="Ellipse 421" rx="2.299" ry="4.611" transform="rotate(-37 309.296 -288.38)"/>
        <ellipse id="Ellipse_422" cx="2.299" cy="4.611" class="cls-5" data-name="Ellipse 422" rx="2.299" ry="4.611" transform="rotate(-37 309.296 -288.38)"/>
        <ellipse id="Ellipse_423" cx="2.115" cy="4.493" class="cls-6" data-name="Ellipse 423" rx="2.115" ry="4.493" transform="rotate(-37.16 305.414 -286.356)"/>
        <path id="Path_1727" d="M964.44 608.26a20.656 20.656 0 0 0 3.285 4.753c.253.27.505.531.758.793l1.423 1.463" class="cls-13" data-name="Path 1727" transform="translate(-727.82 -483.157)"/>
        <ellipse id="Ellipse_424" cx="3.937" cy="1.963" class="cls-6" data-name="Ellipse 424" rx="3.937" ry="1.963" transform="rotate(-37.16 315.19 -293.325)"/>
        <ellipse id="Ellipse_425" cx="3.937" cy="1.963" class="cls-5" data-name="Ellipse 425" rx="3.937" ry="1.963" transform="rotate(-37.16 315.19 -293.325)"/>
        <ellipse id="Ellipse_426" cx="3.836" cy="1.804" class="cls-6" data-name="Ellipse 426" rx="3.836" ry="1.804" transform="rotate(-37.16 315.36 -293.548)"/>
        <path id="Path_1728" d="M993.6 618.33a17.638 17.638 0 0 0-4.058 2.8c-.23.21-.452.427-.677.644l-1.263 1.215" class="cls-13" data-name="Path 1728" transform="translate(-745.128 -490.683)"/>
        <ellipse id="Ellipse_427" cx="3.937" cy="1.963" class="cls-6" data-name="Ellipse 427" rx="3.937" ry="1.963" transform="rotate(-29.9 369.893 -372.395)"/>
        <ellipse id="Ellipse_428" cx="3.937" cy="1.963" class="cls-5" data-name="Ellipse 428" rx="3.937" ry="1.963" transform="rotate(-29.9 369.893 -372.395)"/>
        <ellipse id="Ellipse_429" cx="3.836" cy="1.804" class="cls-6" data-name="Ellipse 429" rx="3.836" ry="1.804" transform="rotate(-29.9 370.122 -372.66)"/>
        <path id="Path_1729" d="M961.72 641.979a17.7 17.7 0 0 1 4.162-2.648c.283-.129.571-.253.857-.371l1.607-.68" class="cls-13" data-name="Path 1729" transform="translate(-725.787 -505.592)"/>
        <ellipse id="Ellipse_430" cx=".846" cy="1.695" class="cls-6" data-name="Ellipse 430" rx=".846" ry="1.695" transform="rotate(-37.72 310.598 -285.507)"/>
        <ellipse id="Ellipse_431" cx=".846" cy="1.695" class="cls-5" data-name="Ellipse 431" rx=".846" ry="1.695" transform="rotate(-37.72 310.598 -285.507)"/>
        <ellipse id="Ellipse_432" cx=".778" cy="1.653" class="cls-6" data-name="Ellipse 432" rx=".778" ry="1.653" transform="rotate(-37.72 310.625 -285.637)"/>
        <path id="Path_1730" d="M979.05 627.12a7.676 7.676 0 0 1 1.372 1.622c.071.114.141.227.21.344l.384.644" class="cls-13" data-name="Path 1730" transform="translate(-738.738 -497.252)"/>
        <ellipse id="Ellipse_433" cx=".846" cy="1.695" class="cls-6" data-name="Ellipse 433" rx=".846" ry="1.695" transform="rotate(-37.72 315.642 -287.243)"/>
        <ellipse id="Ellipse_434" cx=".846" cy="1.695" class="cls-5" data-name="Ellipse 434" rx=".846" ry="1.695" transform="rotate(-37.72 315.642 -287.243)"/>
        <ellipse id="Ellipse_435" cx=".778" cy="1.653" class="cls-6" data-name="Ellipse 435" rx=".778" ry="1.653" transform="rotate(-37.72 315.667 -287.368)"/>
        <path id="Path_1731" d="M987.41 637.89a7.61 7.61 0 0 1 1.374 1.622c.071.114.139.227.207.344l.384.644" class="cls-13" data-name="Path 1731" transform="translate(-744.986 -505.3)"/>
        <circle id="Ellipse_436" cx=".344" cy=".344" r=".344" class="cls-6" data-name="Ellipse 436" transform="translate(242.022 132.211)"/>
        <circle id="Ellipse_437" cx=".344" cy=".344" r=".344" class="cls-13" data-name="Ellipse 437" transform="translate(242.022 132.211)"/>
        <g id="Group_1206" class="cls-14" data-name="Group 1206" transform="translate(16.552 105.528)">
            <path id="Path_1732" d="M142.559 608.512a30.624 30.624 0 0 1 .071-5.877 2.518 2.518 0 0 1 .028-.27c.018-.162.038-.326.058-.493a.425.425 0 0 1 .02-.157c.023-.195.051-.394.081-.6a.063.063 0 0 1 0-.02 39.832 39.832 0 0 1 2.689-9.63l.1-.225.1-.24c.034-.081.04-.091.058-.136l.048-.114c.086-.207.167-.409.253-.609v-.025a12.92 12.92 0 0 0 .68-7.879c-.018-.071-.035-.139-.056-.207a10.372 10.372 0 0 0-1.572-3.285l-.119-.159a3.96 3.96 0 0 0-.253-.318 12.2 12.2 0 0 0-2.547-2.37l-.157-.106c-.081-.056-.159-.106-.232-.152s-.134-.086-.195-.121a11.69 11.69 0 0 0-.308-.184l-.152-.081c-.2-.111-.323-.167-.344-.177l-.03.068-.048.1v.038l-.025.05v.033l-.038.086v.015l-.03.071v.02l-.063.141-.129.283-.015.035-.03.063-.03.071-.068.149.1.048.056.03a.023.023 0 0 1 .015 0h.015l.03.015.058.03.174.1.111.063c.2.121.452.28.728.475l.253.19.121.091c.119.091.253.192.366.3l.1.093c.071.058.144.124.215.19l.033.03c.207.192.417.4.624.627a10.208 10.208 0 0 1 .758.93c.081.111.157.225.232.339a9.031 9.031 0 0 1 .675 1.22 8.756 8.756 0 0 1 .581 1.723 1.038 1.038 0 0 1 .025.121 12.058 12.058 0 0 1-.887 7.075.122.122 0 0 1 0 .028c-.056.137-.111.273-.172.412v.018l-.043.1-.177.419c-.038.088-.073.177-.109.253a41.258 41.258 0 0 0-2.658 9.6v.025c-.028.189-.056.376-.078.561v.058a.085.085 0 0 0 0 .025v.045l-.051.437-.015.142a.38.38 0 0 1-.013.119q-.03.253-.053.505-.02.182-.03.356a31.633 31.633 0 0 0-.068 4.589z" class="cls-6" data-name="Path 1732" transform="translate(-128.476 -563.89)"/>
            <path id="Path_1733" d="M162.5 632.246c1.893-.162 3.467-.339 3.517.253s-1.443 1.723-3.335 1.885-3.469-.184-3.52-.773 1.447-1.203 3.338-1.365z" class="cls-6" data-name="Path 1733" transform="translate(-142.574 -606.494)"/>
            <path id="Path_1734" d="M162.5 632.246c1.893-.162 3.467-.339 3.517.253s-1.443 1.723-3.335 1.885-3.469-.184-3.52-.773 1.447-1.203 3.338-1.365z" class="cls-1" data-name="Path 1734" transform="translate(-142.574 -606.494)"/>
            <path id="Path_1735" d="M162.749 632.143c1.845-.159 3.376-.4 3.419.1s-1.418 1.559-3.262 1.716-3.376-.119-3.419-.622 1.413-1.037 3.262-1.194z" class="cls-6" data-name="Path 1735" transform="translate(-142.814 -606.383)"/>
            <path id="Path_1736" d="M159.6 634.185a26.955 26.955 0 0 0 4.3-.253l.806-.124c.505-.078 1-.68 1.5-.758z" class="cls-9" data-name="Path 1736" transform="translate(-142.899 -607.212)"/>
            <path id="Path_1737" d="M149.341 675.806c1.893-.162 3.469-.339 3.52.253s-1.445 1.723-3.338 1.885-3.469-.184-3.527-.776 1.45-1.2 3.345-1.362z" class="cls-6" data-name="Path 1737" transform="translate(-132.731 -639.047)"/>
            <path id="Path_1738" d="M149.341 675.806c1.893-.162 3.469-.339 3.52.253s-1.445 1.723-3.338 1.885-3.469-.184-3.527-.776 1.45-1.2 3.345-1.362z" class="cls-1" data-name="Path 1738" transform="translate(-132.731 -639.047)"/>
            <path id="Path_1739" d="M149.617 675.7c1.845-.157 3.376-.4 3.419.1s-1.418 1.559-3.262 1.718-3.373-.121-3.416-.627 1.424-1.033 3.259-1.191z" class="cls-6" data-name="Path 1739" transform="translate(-133.002 -638.934)"/>
            <path id="Path_1740" d="M146.46 677.752a26.664 26.664 0 0 0 4.3-.253c.27-.038.538-.081.806-.121.505-.078 1.011-.68 1.5-.758z" class="cls-9" data-name="Path 1740" transform="translate(-133.079 -639.772)"/>
            <path id="Path_1741" d="M137.728 626.012c-1.769-.687-3.232-1.3-3.447-.758s.9 2.059 2.668 2.747 3.381.8 3.6.253-1.049-1.554-2.821-2.242z" class="cls-6" data-name="Path 1741" transform="translate(-123.959 -601.23)"/>
            <path id="Path_1742" d="M137.728 626.012c-1.769-.687-3.232-1.3-3.447-.758s.9 2.059 2.668 2.747 3.381.8 3.6.253-1.049-1.554-2.821-2.242z" class="cls-1" data-name="Path 1742" transform="translate(-123.959 -601.23)"/>
            <path id="Path_1743" d="M138.16 625.856c-1.726-.672-3.126-1.337-3.308-.869s.922 1.9 2.646 2.567 3.272.834 3.454.366-1.079-1.394-2.792-2.064z" class="cls-6" data-name="Path 1743" transform="translate(-124.39 -601.069)"/>
            <path id="Path_1744" d="M141.1 628.4a26.752 26.752 0 0 1-4.043-1.455l-.748-.339c-.455-.215-.758-.932-1.223-1.147z" class="cls-9" data-name="Path 1744" transform="translate(-124.582 -601.54)"/>
            <path id="Path_1745" d="M126.021 669.671c-1.769-.69-3.234-1.3-3.449-.758s.9 2.059 2.671 2.747 3.381.8 3.6.253-1.051-1.552-2.822-2.242z" class="cls-6" data-name="Path 1745" transform="translate(-115.208 -633.857)"/>
            <path id="Path_1746" d="M126.021 669.671c-1.769-.69-3.234-1.3-3.449-.758s.9 2.059 2.671 2.747 3.381.8 3.6.253-1.051-1.552-2.822-2.242z" class="cls-1" data-name="Path 1746" transform="translate(-115.208 -633.857)"/>
            <path id="Path_1747" d="M126.43 669.516c-1.726-.672-3.126-1.337-3.308-.869s.92 1.9 2.646 2.567 3.272.834 3.454.366-1.069-1.394-2.792-2.064z" class="cls-6" data-name="Path 1747" transform="translate(-115.624 -633.697)"/>
            <path id="Path_1748" d="M129.444 672.039a26.752 26.752 0 0 1-4.043-1.455l-.738-.346c-.455-.215-.758-.932-1.223-1.147z" class="cls-9" data-name="Path 1748" transform="translate(-115.876 -634.145)"/>
            <path id="Path_1749" d="M124.323 680.242c-1.8.594-3.323 1.049-3.138 1.612s2 1.011 3.808.427 3.118-1.531 2.934-2.092-1.797-.538-3.604.053z" class="cls-6" data-name="Path 1749" transform="translate(-114.18 -642.136)"/>
            <path id="Path_1750" d="M124.323 680.242c-1.8.594-3.323 1.049-3.138 1.612s2 1.011 3.808.427 3.118-1.531 2.934-2.092-1.797-.538-3.604.053z" class="cls-1" data-name="Path 1750" transform="translate(-114.18 -642.136)"/>
            <path id="Path_1751" d="M124.418 680.181c-1.769.576-3.262.953-3.1 1.43s1.913.877 3.671.3 3.057-1.435 2.9-1.913-1.712-.398-3.471.183z" class="cls-6" data-name="Path 1751" transform="translate(-114.28 -642.065)"/>
            <path id="Path_1752" d="M128.019 681a26.426 26.426 0 0 1-4.056 1.45c-.253.071-.526.136-.788.2-.49.124-1.185-.232-1.675-.109z" class="cls-9" data-name="Path 1752" transform="translate(-114.426 -643.046)"/>
            <ellipse id="Ellipse_438" cx="2.661" cy="5.337" class="cls-6" data-name="Ellipse 438" rx="2.661" ry="5.337" transform="rotate(-76.34 15.39 -1.246)"/>
            <ellipse id="Ellipse_439" cx="2.661" cy="5.337" class="cls-1" data-name="Ellipse 439" rx="2.661" ry="5.337" transform="rotate(-76.34 15.39 -1.246)"/>
            <ellipse id="Ellipse_440" cx="2.446" cy="5.198" class="cls-6" data-name="Ellipse 440" rx="2.446" ry="5.198" transform="rotate(-76.34 15.38 -1.442)"/>
            <path id="Path_1753" d="M147.91 576.38a24 24 0 0 0 6.418 1.867c.417.061.839.109 1.263.159l2.345.273z" class="cls-9" data-name="Path 1753" transform="translate(-134.163 -564.861)"/>
            <ellipse id="Ellipse_441" cx="5.337" cy="2.661" class="cls-6" data-name="Ellipse 441" rx="5.337" ry="2.661" transform="rotate(-77.23 11.408 -.915)"/>
            <ellipse id="Ellipse_442" cx="5.337" cy="2.661" class="cls-1" data-name="Ellipse 442" rx="5.337" ry="2.661" transform="rotate(-77.23 11.408 -.915)"/>
            <ellipse id="Ellipse_443" cx="5.198" cy="2.446" class="cls-6" data-name="Ellipse 443" rx="5.198" ry="2.446" transform="rotate(-77.23 11.482 -1.117)"/>
            <path id="Path_1754" d="M142.91 543.927a24.078 24.078 0 0 0 1.769-6.443c.053-.419.1-.841.139-1.263l.238-2.35z" class="cls-9" data-name="Path 1754" transform="translate(-130.426 -533.093)"/>
            <ellipse id="Ellipse_444" cx="5.337" cy="2.661" class="cls-6" data-name="Ellipse 444" rx="5.337" ry="2.661" transform="rotate(-77.23 17.334 6.545)"/>
            <ellipse id="Ellipse_445" cx="5.337" cy="2.661" class="cls-1" data-name="Ellipse 445" rx="5.337" ry="2.661" transform="rotate(-77.23 17.334 6.545)"/>
            <ellipse id="Ellipse_446" cx="5.198" cy="2.446" class="cls-6" data-name="Ellipse 446" rx="5.198" ry="2.446" transform="rotate(-77.23 17.41 6.345)"/>
            <path id="Path_1755" d="M132.38 589.789a23.934 23.934 0 0 0 1.769-6.446c.053-.419.1-.841.139-1.263l.238-2.35z" class="cls-9" data-name="Path 1755" transform="translate(-122.557 -567.365)"/>
            <ellipse id="Ellipse_447" cx="2.661" cy="5.337" class="cls-6" data-name="Ellipse 447" rx="2.661" ry="5.337" transform="rotate(-76.34 7.137 5.61)"/>
            <ellipse id="Ellipse_448" cx="2.661" cy="5.337" class="cls-1" data-name="Ellipse 448" rx="2.661" ry="5.337" transform="rotate(-76.34 7.137 5.61)"/>
            <ellipse id="Ellipse_449" cx="2.446" cy="5.198" class="cls-6" data-name="Ellipse 449" rx="2.446" ry="5.198" transform="rotate(-76.34 7.126 5.414)"/>
            <path id="Path_1756" d="M96.6 565.37a24 24 0 0 0 6.418 1.867c.417.061.839.109 1.263.157l2.345.275z" class="cls-9" data-name="Path 1756" transform="translate(-95.818 -556.633)"/>
            <ellipse id="Ellipse_450" cx="2.274" cy="4.561" class="cls-6" data-name="Ellipse 450" rx="2.274" ry="4.561" transform="rotate(-37.16 24.51 -9.269)"/>
            <ellipse id="Ellipse_451" cx="2.274" cy="4.561" class="cls-1" data-name="Ellipse 451" rx="2.274" ry="4.561" transform="rotate(-37.16 24.51 -9.269)"/>
            <ellipse id="Ellipse_452" cx="2.092" cy="4.445" class="cls-6" data-name="Ellipse 452" rx="2.092" ry="4.445" transform="rotate(-37.16 24.598 -9.577)"/>
            <path id="Path_1757" d="M142.7 577.09a20.527 20.527 0 0 0 3.244 4.7c.253.253.505.526.758.783l1.407 1.448z" class="cls-9" data-name="Path 1757" transform="translate(-130.269 -565.392)"/>
            <ellipse id="Ellipse_453" cx="2.274" cy="4.561" class="cls-6" data-name="Ellipse 453" rx="2.274" ry="4.561" transform="rotate(-37.16 10.196 -4.037)"/>
            <ellipse id="Ellipse_454" cx="2.274" cy="4.561" class="cls-1" data-name="Ellipse 454" rx="2.274" ry="4.561" transform="rotate(-37.16 10.196 -4.037)"/>
            <ellipse id="Ellipse_455" cx="2.092" cy="4.445" class="cls-6" data-name="Ellipse 455" rx="2.092" ry="4.445" transform="rotate(-37.16 10.287 -4.347)"/>
            <path id="Path_1758" d="M118.7 547.09a20.468 20.468 0 0 0 3.244 4.7c.253.268.505.526.758.786l1.407 1.448z" class="cls-9" data-name="Path 1758" transform="translate(-112.334 -542.972)"/>
            <ellipse id="Ellipse_456" cx="3.896" cy="1.943" class="cls-6" data-name="Ellipse 456" rx="3.896" ry="1.943" transform="rotate(-37.16 19.95 -11.235)"/>
            <ellipse id="Ellipse_457" cx="3.896" cy="1.943" class="cls-1" data-name="Ellipse 457" rx="3.896" ry="1.943" transform="rotate(-37.16 19.95 -11.235)"/>
            <ellipse id="Ellipse_458" cx="3.795" cy="1.786" class="cls-6" data-name="Ellipse 458" rx="3.795" ry="1.786" transform="rotate(-37.16 20.114 -11.457)"/>
            <path id="Path_1759" d="M147.58 557a17.556 17.556 0 0 0-4.015 2.779c-.225.21-.447.425-.67.639l-1.236 1.2z" class="cls-9" data-name="Path 1759" transform="translate(-129.492 -550.378)"/>
            <ellipse id="Ellipse_459" cx="3.896" cy="1.943" class="cls-6" data-name="Ellipse 459" rx="3.896" ry="1.943" transform="rotate(-29.9 27.995 -1.795)"/>
            <ellipse id="Ellipse_460" cx="3.896" cy="1.943" class="cls-1" data-name="Ellipse 460" rx="3.896" ry="1.943" transform="rotate(-29.9 27.995 -1.795)"/>
            <ellipse id="Ellipse_461" cx="3.795" cy="1.786" class="cls-6" data-name="Ellipse 461" rx="3.795" ry="1.786" transform="rotate(-29.9 28.215 -2.06)"/>
            <path id="Path_1760" d="M116 580.449a17.436 17.436 0 0 1 4.116-2.62c.28-.126.566-.253.849-.369l1.589-.67z" class="cls-9" data-name="Path 1760" transform="translate(-110.316 -565.168)"/>
            <ellipse id="Ellipse_462" cx=".836" cy="1.678" class="cls-6" data-name="Ellipse 462" rx=".836" ry="1.678" transform="rotate(-37.72 18.282 -8.96)"/>
            <ellipse id="Ellipse_463" cx=".836" cy="1.678" class="cls-1" data-name="Ellipse 463" rx=".836" ry="1.678" transform="rotate(-37.72 18.282 -8.96)"/>
            <ellipse id="Ellipse_464" cx=".768" cy="1.635" class="cls-6" data-name="Ellipse 464" rx=".768" ry="1.635" transform="rotate(-37.72 18.311 -9.086)"/>
            <path id="Path_1761" d="M133.14 565.74a7.507 7.507 0 0 1 1.359 1.6c.071.111.139.227.207.341l.379.637z" class="cls-9" data-name="Path 1761" transform="translate(-123.125 -556.91)"/>
            <ellipse id="Ellipse_465" cx=".836" cy="1.678" class="cls-6" data-name="Ellipse 465" rx=".836" ry="1.678" transform="rotate(-37.72 23.27 -10.677)"/>
            <ellipse id="Ellipse_466" cx=".836" cy="1.678" class="cls-1" data-name="Ellipse 466" rx=".836" ry="1.678" transform="rotate(-37.72 23.27 -10.677)"/>
            <ellipse id="Ellipse_467" cx=".768" cy="1.635" class="cls-6" data-name="Ellipse 467" rx=".768" ry="1.635" transform="rotate(-37.72 23.294 -10.802)"/>
            <path id="Path_1762" d="M141.42 576.4a7.581 7.581 0 0 1 1.359 1.6c.071.114.139.227.207.341l.379.639z" class="cls-9" data-name="Path 1762" transform="translate(-129.313 -564.876)"/>
            <circle id="Ellipse_468" cx=".339" cy=".339" r=".339" class="cls-6" data-name="Ellipse 468" transform="translate(11.71 11.15)"/>
            <circle id="Ellipse_469" cx=".339" cy=".339" r=".339" class="cls-9" data-name="Ellipse 469" transform="translate(11.71 11.15)"/>
        </g>
        <path id="Path_1763" d="M189.887 469.7a7.448 7.448 0 0 1 .879 2.489 12.176 12.176 0 0 0 1.622 2.135 8.956 8.956 0 0 1 .788 1.311l1.2 2.224a11.9 11.9 0 0 0 2.138-.958l.43.048a8.579 8.579 0 0 0 .985-.152c0 .056-.015.111-.02.164-.2 1.66-.356 3.032-.356 3.032s.4 1.468.968 1.011l.03-.025c.015.071.03.152.045.253a16.079 16.079 0 0 1 .286 3.454 26.645 26.645 0 0 0 .248 4.314s.783-.066 1.938-.136c.03.083.063.169.1.253.111.288.235.609.364.927l.023.058c.018.04.033.083.051.124l.033.083.045.109.053.126.033.083.071.169a.535.535 0 0 1 .025.056c.02.045.038.094.058.139l.025.053.061.139.018.04c.081.182.159.349.232.49v.018l.063.119v.018l.063.111c.02.038.043.071.061.1a9.537 9.537 0 0 1 .879 2.178l.473 2.868s.1.695.142 1.319c.015.227.023.445.018.617 0 .048 0 .147.013.288a.451.451 0 0 1 0 .061 97 97 0 0 0 .288 2.676l.086.72a31.916 31.916 0 0 0 .078 4.346s-.339 5.4-.253 5.913a4.2 4.2 0 0 1-.417 1.516l-.068-.061a4.465 4.465 0 0 0-1.183 2.719c.023 1.455.136 3.424.136 3.424s.111.8-.136 1.011 0 1.334 0 1.334 2.117 1.941 3.9-.162a5.471 5.471 0 0 0 .2-1.976 4.125 4.125 0 0 1-.04-.253 23.163 23.163 0 0 0-.2-2.512l-.207-1.516c.222-.023.561-1.223.4-1.516a4.193 4.193 0 0 1 .136-1.516l.531-1.64.068.164v.023a.589.589 0 0 1 .028.071v.023l.1.253.03.088v.018c.033.091.063.185.091.278l.025.086v.02c.025.091.048.177.066.253v.018l.015.073v.1a.07.07 0 0 1 0 .023.984.984 0 0 1 0 .119.155.155 0 0 1 0 .035v.21a3.813 3.813 0 0 0 .162 1.733v.025a.189.189 0 0 0 .028.071.222.222 0 0 0 .018.043q.018.046.04.091a1.091 1.091 0 0 0 .1.159l-.068 5.812a2.772 2.772 0 0 0 2.749 1.011 1.862 1.862 0 0 0 1.375-2.691 5.837 5.837 0 0 1-.4-1.8s-.339-2.4-.563-3.27a1.033 1.033 0 0 0-.526-.758c-.086-.273-.207-.526-.217-.563a7.074 7.074 0 0 1-.49-1.162.912.912 0 0 1-.03-.417 1.364 1.364 0 0 0 0-.273v-.245c-.058-1.455-.4-5.473-.584-7.56a19.635 19.635 0 0 0 .447-2.9 26.963 26.963 0 0 1 .179-3.313 18.088 18.088 0 0 1 .857-3.891 36.2 36.2 0 0 0 1.37-4.437l.071-.273a3.107 3.107 0 0 0 1.218-.291 8.522 8.522 0 0 1 .427-3.914c.505-.915.841-4.968.852-7.631v-.387c.6.505 1.011 1.193 1.157 1.124a32.78 32.78 0 0 0 4.227-2.61c1.642-1.334-2.951-8.829-3.469-9.4s-1.584-7.247-1.584-7.247a1.309 1.309 0 0 0 .632.445 5.62 5.62 0 0 1 1.668 1.117c.7.584 3.9 0 3.9 0a2.532 2.532 0 0 0 2.749-1.867 18.386 18.386 0 0 0 1.2-3.623 29.863 29.863 0 0 1 1.769-4.8 3.737 3.737 0 0 0-1.551-1.395 1.367 1.367 0 0 1 .561-.872c.72-.313 8.74-3.285 5.9-4.3s-7.209 2.274-7.209 2.274-.225.076-.584.809c-.19.387-.435 1.044-.627 1.579l-.058.164-.126.013a15.536 15.536 0 0 0-1.036 2.779 18.227 18.227 0 0 1-1.263 3.09s-.629.647-.4 1.157-.508.394-.508.394l-.993-.778a5.991 5.991 0 0 0-1.263-.644 3.52 3.52 0 0 1-1.1-.821s-.811-.536-.743-.624-.45-.505-.743-.644-.43-.422-.72-.955-.745-.134-.97-.222a24.516 24.516 0 0 0-3.31.334 2.914 2.914 0 0 1-1.8-.268 1.355 1.355 0 0 0-1.14-.126 6.013 6.013 0 0 1-.265-.687 1.037 1.037 0 0 1-.033-.121 4.846 4.846 0 0 0 2.931-4.437 4.781 4.781 0 0 0-1.2-3.176 5.593 5.593 0 0 0-.212-.225c.273-.131.67-.417.675-.74a.467.467 0 0 0-.131-.334c-.1-.114-.253-.172-.359-.283a.624.624 0 0 1-.147-.447c0-.2.053-.425.056-.637a.92.92 0 0 0-.025-.253.975.975 0 0 0-.829-.649.064.064 0 0 0 0 .018 1.575 1.575 0 0 0-.447-.02c-.521.056-1.011.291-1.516.349a6.676 6.676 0 0 1-2.373-.46 2.28 2.28 0 0 0-2.274.384c-.536.6-.505 1.607-1.178 2.037a7.589 7.589 0 0 1-1.041.371 2.143 2.143 0 0 0-.882.829 4.3 4.3 0 0 0-.665 2.779c.056.526.21 1.039.273 1.564a4.548 4.548 0 0 1-.109 1.64 1.728 1.728 0 0 1-1.011 1.309 1.714 1.714 0 0 0-.374.126c-.318.195-.275.657-.195 1.011l.334 1.483c-.316.237-.8.136-1.109.384a.918.918 0 0 0-.253.4 2.173 2.173 0 0 0 .505 2.254.36.36 0 0 1-.028.083 5.017 5.017 0 0 0-.051.195c-.27 1.291-.179 1.445-.361 1.668a15.357 15.357 0 0 1-1.1 1.663 1.794 1.794 0 0 0-.407 1.069 14.156 14.156 0 0 1-1.769 2.2c-.417.222-1.081 1.733-1.081 1.733s-1.059.69-1.059 1.468a12.816 12.816 0 0 1-.2 1.933 5.394 5.394 0 0 0 .57 2.195zm3.871-1.2c.2-.313 0-.912 0-.912a9.675 9.675 0 0 0 1.516-2.737 2.968 2.968 0 0 1 1.4-1.665s.632-.253.675 0 .159.776.159.776-.114 1.291.361 1.8.546 2.668.546 2.668.758 2.135.4 2.8a17.312 17.312 0 0 0-.52 2.8 6.646 6.646 0 0 0-.505-.061 6.955 6.955 0 0 0-1.531-1.137c-.521-.177-1.011-1.645-1.039-1.979s-.473-1.445-.945-1.645-.714-.393-.517-.708z" class="cls-15" data-name="Path 1763" transform="translate(-148.529 -356.515)"/>
        <path id="Path_1764" d="M327.231 478.831a3.633 3.633 0 0 0-3.641-1.708v2.6h1.577l1.243-.321z" class="cls-16" data-name="Path 1764" transform="translate(-248.9 -385.126)"/>
        <path id="Path_1765" d="M327.231 478.831a3.633 3.633 0 0 0-3.641-1.708v2.6h1.577l1.243-.321z" class="cls-5" data-name="Path 1765" transform="translate(-248.9 -385.126)"/>
        <path id="Path_1766" d="M323.17 463.026l1.93 1.354s.018-.273.066-.642c.1-.7.313-1.751.778-1.956.71-.311 8.611-3.285 5.812-4.283s-7.1 2.274-7.1 2.274-.222.076-.576.809c-.187.384-.43 1.041-.617 1.574-.169.486-.293.87-.293.87z" class="cls-17" data-name="Path 1766" transform="translate(-248.587 -370.35)"/>
        <path id="Path_1767" d="M231.589 374.834l-.22-.1-.619.705.505 1.076.862-.344-.2-.862z" class="cls-16" data-name="Path 1767" transform="translate(-172.444 -280.073)"/>
        <path id="Path_1768" d="M266.75 737.606s.556-.068.778.8.553 3.262.553 3.262a5.922 5.922 0 0 0 .4 1.8 1.863 1.863 0 0 1-1.354 2.686 2.725 2.725 0 0 1-2.706-1.011l.066-5.812z" class="cls-18" data-name="Path 1768" transform="translate(-204.682 -579.819)"/>
        <path id="Path_1769" d="M243.836 738.64a4.487 4.487 0 0 0-1.165 2.714c.023 1.45.134 3.416.134 3.416s.109.8-.134 1.011 0 1.332 0 1.332 2.087 1.938 3.838-.164a5.479 5.479 0 0 0 .2-1.971c-.144-.773-.531-4.255-.531-4.255z" class="cls-18" data-name="Path 1769" transform="translate(-188.348 -580.593)"/>
        <path id="Path_1770" d="M236 630.048a37.466 37.466 0 0 0 1.711 4.129 8.972 8.972 0 0 1 .864 2.173l.457 2.863a15.936 15.936 0 0 1 .154 1.933c-.023.642 1.155 10.029 1.155 10.029l1.865 2.375a6.07 6.07 0 0 1 .687 2.353 3.493 3.493 0 0 0 .354 2.13s.045 2.176.111 2.663-.253 1.865 0 2.107 3.507.134 3.6-.253a12.08 12.08 0 0 0-.4-2.33l-.288-1.865s-.579-1.011-.445-1.354-.253-1.109-.265-1.175-.622-1.155-.505-1.577-.69-9.364-.69-9.364l-2.274-16.045z" class="cls-17" data-name="Path 1770" transform="translate(-183.443 -498.537)"/>
        <path id="Path_1771" d="M236 630.048s.182.505.432 1.167a22.789 22.789 0 0 0 1.279 2.961 9.162 9.162 0 0 1 .864 2.173l.457 2.863a15.93 15.93 0 0 1 .154 1.93c0 .253.169 1.875.389 3.742.336 2.855.758 6.289.758 6.289l1.865 2.375s.093.19.212.468a4.387 4.387 0 0 1 .475 1.885 3.493 3.493 0 0 0 .354 2.13s.045 2.176.111 2.663-.253 1.862 0 2.107 3.507.134 3.6-.253a12.079 12.079 0 0 0-.4-2.33l-.288-1.865s-.576-1.011-.445-1.354-.253-1.109-.265-1.175-.622-1.155-.505-1.577c.083-.321-.359-5.579-.574-8.071a456.86 456.86 0 0 0-.114-1.294l-1.968-13.8-.157-1.114-.162-1.129z" class="cls-5" data-name="Path 1771" transform="translate(-183.443 -498.537)"/>
        <path id="Path_1772" d="M243.87 666.547c-.023.253 3.128.6 3.578.333s0-3.573 0-3.573l-.2-1.516c.22-.023.553-1.22.4-1.516a4.253 4.253 0 0 1 .134-1.516l.523-1.637.318-1.011a46.758 46.758 0 0 0 1.736-6.85 19.814 19.814 0 0 0 .44-2.891 27.442 27.442 0 0 1 .177-3.308 18.264 18.264 0 0 1 .844-3.884 36.737 36.737 0 0 0 1.349-4.43c.2-.758.339-1.319.339-1.319s-3.356-.281-5.387-.379c-.937-.046-1.594-.051-1.516.025a2.753 2.753 0 0 1 .091 1.071 27.426 27.426 0 0 1-.445 4.92 17.1 17.1 0 0 0-.49 4.283 13.644 13.644 0 0 1 .091 2.219 9.854 9.854 0 0 0-.389 2.411 32.453 32.453 0 0 0 .076 4.336s-.331 5.395-.253 5.9a16.219 16.219 0 0 1-.71 2.421c0 .311-.222 2.418-.222 2.418s-.454 3.246-.484 3.493z" class="cls-17" data-name="Path 1772" transform="translate(-189.324 -501.66)"/>
        <path id="Path_1773" d="M236.93 481.393l.384.409.253.268 1.453 1.562 3.74.422 1.991-.533.505-.131s0-1.011-.091-2.2c-.126-1.541-.43-3.411-1.152-3.922a2.865 2.865 0 0 1-.846-1.069 6.062 6.062 0 0 1-.361-.9c-.015-.04-.025-.078-.038-.116a10 10 0 0 1-.354-1.645s-.48-.253-1.142-.576c-1.738-.809-4.738-1.93-3.694.576a9.283 9.283 0 0 1 .392 1.124c.015.056.03.111.043.167a3.631 3.631 0 0 1-.141 2.7 1.864 1.864 0 0 1-.149.232 1.229 1.229 0 0 1-.253.253l-.432 2.742-.035.227z" class="cls-17" data-name="Path 1773" transform="translate(-184.138 -381.326)"/>
        <path id="Path_1774" d="M238.842 474.056c.2.475-.1-.387 0 0 .791.563 2.656 2.165 3.7 2.165a2.86 2.86 0 0 0 1.516-.4 9.944 9.944 0 0 1-.392-1.769s-6.266-3.458-4.824.004z" class="cls-5" data-name="Path 1774" transform="translate(-185.406 -381.713)"/>
        <path id="Path_1775" d="M233.17 452.729a4.834 4.834 0 0 0 4.331 4.8 4.771 4.771 0 0 0 .505.028 4.839 4.839 0 1 0-4.836-4.838z" class="cls-17" data-name="Path 1775" transform="translate(-181.328 -363.302)"/>
        <path id="Path_1776" d="M230.43 516.577l.687 1.8s.563.025 1.438.053c2.951.093 9.458.212 9.748-.541a1.873 1.873 0 0 0 .1-.6 11.65 11.65 0 0 0-.505-2.931s-.311-3.538-.311-3.7.27-2.666.27-2.666l-.531-2-1.488-1.036s-.667 1.023-1.066 1.109a2.81 2.81 0 0 0-.93.579s-1.309.8-1.731.354-3.707-2.4-3.707-2.4l-1.731 1.908z" class="cls-5" data-name="Path 1776" transform="translate(-179.28 -405.69)"/>
        <path id="Path_1777" d="M230.43 517.652l.687 1.8s.563.025 1.438.051h.086c.376 0 .809.025 1.263.035a55.438 55.438 0 0 0 7.267-.179c.634-.091 1.049-.22 1.119-.4a1.354 1.354 0 0 0 .078-.331 2.2 2.2 0 0 0 .023-.253 11.624 11.624 0 0 0-.505-2.931s-.311-3.553-.311-3.707.265-2.641.265-2.641l-.531-2-1.023-.715-.465-.326a6.669 6.669 0 0 1-.505.67 1.344 1.344 0 0 1-.556.44 2.78 2.78 0 0 0-.93.576s-1.309.8-1.731.356a33.387 33.387 0 0 0-3.242-2.117l-.465-.28-.232.253-1.5 1.653z" class="cls-2" data-name="Path 1777" transform="translate(-179.28 -406.512)"/>
        <path id="Path_1778" d="M323.17 477.367l1.93 1.354s.018-.273.066-.642a3.907 3.907 0 0 1-1.7-1.579c-.172.483-.296.867-.296.867z" class="cls-5" data-name="Path 1778" transform="translate(-248.587 -384.691)"/>
        <path id="Path_1779" d="M292.713 482.476l.422-.111a3.515 3.515 0 0 0 1.087.821 5.955 5.955 0 0 1 1.243.644l.975.776s.733.111.505-.4.4-1.155.4-1.155a18.387 18.387 0 0 0 1.241-3.083 15.857 15.857 0 0 1 1.011-2.779s1.289 2.507 3.641 1.708a29.544 29.544 0 0 0-1.754 4.8 18.2 18.2 0 0 1-1.177 3.618 2.5 2.5 0 0 1-2.706 1.862s-3.151.586-3.838 0a5.459 5.459 0 0 0-1.642-1.114 1.288 1.288 0 0 1-.622-.445v-2.646z" class="cls-4" data-name="Path 1779" transform="translate(-224.919 -385.206)"/>
        <path id="Path_1780" d="M310.99 508s-.553 2.064-.2 2.287z" class="cls-5" data-name="Path 1780" transform="translate(-239.247 -408.231)"/>
        <path id="Path_1781" d="M238.84 556.957c2.951.1 9.458.212 9.748-.541a1.844 1.844 0 0 0 .1-.6l-9.645.505z" class="cls-5" data-name="Path 1781" transform="translate(-185.565 -443.968)"/>
        <path id="Path_1782" d="M236 630.01s.182.505.432 1.17a82.519 82.519 0 0 1 4.387-.164c.546 0 1.079 0 1.582.018a11.925 11.925 0 0 1 2.587.286 6.822 6.822 0 0 0 2.3.3c.2-.758.339-1.319.339-1.319s-3.356-.28-5.387-.379l-.162-1.129z" class="cls-5" data-name="Path 1782" transform="translate(-183.443 -498.5)"/>
        <path id="Path_1783" d="M225.69 568.037l.376.8s.053.238.119.617a16.01 16.01 0 0 1 .283 3.444 26.358 26.358 0 0 0 .253 4.3s8.167-.687 10.562 0 3.575 0 3.575 0a8.584 8.584 0 0 1 .419-3.9c.485-.912.826-4.96.839-7.618a6.709 6.709 0 0 0-.217-2.347 70.161 70.161 0 0 1-2.572-6.593l-.478.025-1.263.068-7.222.382-1.135.058-.119.366z" class="cls-19" data-name="Path 1783" transform="translate(-175.738 -444.648)"/>
        <path id="Path_1784" d="M211.266 581.6l-.066.71s3.575-1.165 3.4-2.6 0-1.263 0-1.263l-2.876.253z" class="cls-16" data-name="Path 1784" transform="translate(-164.909 -460.876)"/>
        <path id="Path_1785" d="M211.266 581.6l-.066.71s3.575-1.165 3.4-2.6 0-1.263 0-1.263l-2.876.253z" class="cls-5" data-name="Path 1785" transform="translate(-164.909 -460.876)"/>
        <path id="Path_1786" d="M298.753 508.611a3.179 3.179 0 0 1-1.263.654.824.824 0 0 0 .371-.174c.253-.182.505-.379.745-.574a2.36 2.36 0 0 1 .692-.478 3.786 3.786 0 0 1-.545.572z" class="cls-5" data-name="Path 1786" transform="translate(-229.395 -408.261)"/>
        <path id="Path_1787" d="M301.192 511.377a1.614 1.614 0 0 0-.275.437 1.789 1.789 0 0 0-.078.568 1.769 1.769 0 0 0 .1.806l.581-1.382c.1-.235.2-.47.321-.695.051-.1.382-.505.344-.584-.111-.236-.885.719-.993.85z" class="cls-5" data-name="Path 1787" transform="translate(-231.89 -410.092)"/>
        <path id="Path_1788" d="M235.906 542.865a1.84 1.84 0 0 1-1.046-.485c.591.073 1.15.306 1.731.427a2.568 2.568 0 0 0 1.61-.149 3.947 3.947 0 0 1-2.295.207z" class="cls-5" data-name="Path 1788" transform="translate(-182.591 -433.924)"/>
        <path id="Path_1789" d="M245.55 523.036a.4.4 0 0 0 .3-.076q.665-.379 1.309-.793a7.986 7.986 0 0 0 1.284-.887 6.525 6.525 0 0 1-2.893 1.756z" class="cls-5" data-name="Path 1789" transform="translate(-190.58 -418.156)"/>
        <path id="Path_1790" d="M236.951 545.555a2.755 2.755 0 0 1-.692-.053.935.935 0 0 1-.569-.376.316.316 0 0 1 .24.04 4.1 4.1 0 0 0 2.229.265 3.185 3.185 0 0 1-1.208.124z" class="cls-5" data-name="Path 1790" transform="translate(-183.211 -435.97)"/>
        <path id="Path_1791" d="M257.32 587.062a7.146 7.146 0 0 0 1.418.278 8.3 8.3 0 0 0 1.122-.02l1.819-.116.91-.058c.106 0 .546 0 .328-.215-.109-.106-.715-.038-.872-.043-.3 0-.6-.015-.9-.018q-.9 0-1.8.038a33.45 33.45 0 0 0-2.025.154z" class="cls-5" data-name="Path 1791" transform="translate(-199.376 -467.172)"/>
        <path id="Path_1792" d="M265.64 590.689a7.587 7.587 0 0 1 1.023.21 6.6 6.6 0 0 0 1.071.043 6.006 6.006 0 0 0 2.064-.422c-1.386.071-2.773.121-4.158.169z" class="cls-5" data-name="Path 1792" transform="translate(-205.593 -469.9)"/>
        <path id="Path_1793" d="M272.869 594.836a3.148 3.148 0 0 0-.394.109 4.609 4.609 0 0 1-2.355-.164 1.413 1.413 0 0 0 .894.505 4.184 4.184 0 0 0 1.744.063c.182-.035.637-.1.73-.291.139-.303-.442-.258-.619-.222z" class="cls-5" data-name="Path 1793" transform="translate(-208.941 -473.083)"/>
        <path id="Path_1794" d="M244.846 599.42a6.381 6.381 0 0 0-.68.177 5.78 5.78 0 0 1-2.623-.278 12.186 12.186 0 0 0-3.174-.3 2.8 2.8 0 0 1 .682.225c.253.073.493.141.74.2a14.9 14.9 0 0 0 1.483.288 15.328 15.328 0 0 0 3.032.134 4.478 4.478 0 0 0 1.67-.215 1.855 1.855 0 0 0-1.132-.24z" class="cls-5" data-name="Path 1794" transform="translate(-185.214 -476.248)"/>
        <path id="Path_1795" d="M261.714 489.251a11.645 11.645 0 0 0 .288 2.977c.1.291.268.826.445 1.425.2.667.407 1.412.571 1.991l.273.978s.758 6.1.943 9.013v.152a3.215 3.215 0 0 0 .056.505c.43 2.888 2.924 7.345 3.76 7.7a2.529 2.529 0 0 1 .7.483 6.709 6.709 0 0 0-.217-2.347 70.161 70.161 0 0 1-2.572-6.592l-.478.025a2.21 2.21 0 0 0 .023-.253 11.623 11.623 0 0 0-.505-2.931s-.311-3.553-.311-3.707.265-2.641.265-2.641l-.531-2-1.023-.715c-.126-1.541-.43-3.411-1.152-3.922a2.866 2.866 0 0 1-.846-1.069c-.141.02.119-.106.119-.106z" class="cls-5" data-name="Path 1795" transform="translate(-202.397 -393.449)"/>
        <path id="Path_1796" d="M261.2 487.561a1.329 1.329 0 0 1 1.124.126 2.837 2.837 0 0 0 1.769.268 23.758 23.758 0 0 1 3.262-.334c.23.088.665-.311.953.222s.422.821.71.953.8.556.733.644.733.622.733.622l-1.62 5.258s1.044 6.658 1.554 7.237 5.036 8.055 3.416 9.387a32.552 32.552 0 0 1-4.061 2.729c-.177.088-.821-1.109-1.708-1.488s-3.631-5.369-3.81-8.21-.955-9.165-.955-9.165-.953-3.462-1.286-4.394a11.647 11.647 0 0 1-.288-2.977z" class="cls-4" data-name="Path 1796" transform="translate(-202.275 -392.904)"/>
        <path id="Path_1797" d="M225.69 521.494l.376.8s.053.238.119.617a.346.346 0 0 0 .192-.083c.556-.445 3.818-3.79 3.972-6.769.114-2.193.061-4.083.025-4.925 0-.265-.023-.425-.023-.46s-2.527-3.062-2.241-4.149.943-6.911.943-6.911l.1-.758.167-1.286.4-3.118-.417.1a1.228 1.228 0 0 1-.253.253l-.432 2.742-1.5 1.653-.253 10.052.687 1.8s.563.025 1.438.051h.086z" class="cls-5" data-name="Path 1797" transform="translate(-175.738 -398.105)"/>
        <path id="Path_1798" d="M215 504.485s.624-.253.667 0 .157.776.157.776-.1 1.3.354 1.8.553 2.656.553 2.656.758 2.13.392 2.8a18.559 18.559 0 0 0-.528 2.9c-.126.9-.253 1.905-.364 2.815-.2 1.655-.351 3.032-.351 3.032s.4 1.466.955 1.011 3.818-3.79 3.972-6.769a52.97 52.97 0 0 0 0-5.394s-2.527-3.062-2.241-4.149.945-6.9.945-6.9l.116-.9.124-.965.028-.212.4-3.093a14.023 14.023 0 0 0-2.888.907 10.008 10.008 0 0 1-2.352.8 1.769 1.769 0 0 0-1.263 1.294 1.974 1.974 0 0 0-.051.195c-.265 1.289-.177 1.443-.356 1.665s1.731 5.731 1.731 5.731z" class="cls-4" data-name="Path 1798" transform="translate(-166.443 -397.694)"/>
        <path id="Path_1799" d="M225 581.907c.912-.179 2.254-.6 2.224-1.516-.028-.867-1.071-1.18-1.86-1.291-.134.9-.264 1.9-.364 2.807z" class="cls-5" data-name="Path 1799" transform="translate(-175.222 -461.366)"/>
        <path id="Path_1800" d="M213.813 580.848c.035.078.187.147.387.2a10.372 10.372 0 0 0 1.478.24s3.085-.253 3.032-1.642c-.03-1.011-1.425-1.263-2.208-1.332-.308-.025-.521-.02-.521-.02s-2.302 2.266-2.168 2.554z" class="cls-17" data-name="Path 1800" transform="translate(-166.858 -460.766)"/>
        <path id="Path_1801" d="M213.813 580.848c.035.078.187.147.387.2.806-1.076 1.928-2.456 2.476-2.577 0 0-.063-.063-.167-.157-.308-.025-.521-.02-.521-.02s-2.308 2.266-2.175 2.554z" class="cls-5" data-name="Path 1801" transform="translate(-166.858 -460.766)"/>
        <path id="Path_1802" d="M197.8 512.6l-.91.134a15.753 15.753 0 0 1-1.09 1.666 1.812 1.812 0 0 0-.4 1.066 13.522 13.522 0 0 1-1.754 2.2c-.422.22-1.064 1.731-1.064 1.731s-1.044.69-1.044 1.466a12.887 12.887 0 0 1-.2 1.93 5.47 5.47 0 0 0 .6 2.176 7.55 7.55 0 0 1 .867 2.486 12.013 12.013 0 0 0 1.6 2.13 8.814 8.814 0 0 1 .776 1.309l1.177 2.219s2.484-3.661 3.4-3.861a6.861 6.861 0 0 0-1.531-1.155c-.521-.177-1.011-1.642-1.011-1.973a2.617 2.617 0 0 0-.932-1.642c-.465-.2-.71-.4-.505-.71s0-.91 0-.91a9.514 9.514 0 0 0 1.486-2.731 2.916 2.916 0 0 1 1.377-1.663l.687-1.688z" class="cls-4" data-name="Path 1802" transform="translate(-150.069 -411.669)"/>
        <path id="Path_1803" d="M198.549 543.38a2.858 2.858 0 0 0-1.789-.68 2.191 2.191 0 0 1 1.17.457 2.589 2.589 0 0 1 .326.414c.106.149.963 1.241 1.1 1.069.201-.255-.635-1.106-.807-1.26z" class="cls-5" data-name="Path 1803" transform="translate(-154.118 -434.163)"/>
        <path id="Path_1804" d="M208.392 530.76a.758.758 0 0 1-.634-.45 2.512 2.512 0 0 1-.2-.786 11.607 11.607 0 0 0-.275-1.349.882.882 0 0 1-.045-.28.8.8 0 0 1 .086-.27 1.811 1.811 0 0 1 .195-.4 2.456 2.456 0 0 1 .278.846c.083.3.162.6.232.91.04.147.34 1.779.363 1.779z" class="cls-5" data-name="Path 1804" transform="translate(-161.95 -422.595)"/>
        <path id="Path_1805" d="M214.91 462.539a1.9 1.9 0 0 0 .306.316c.356.288.844.531.889.985a1.1 1.1 0 0 0 .053.44c.116.2.4.182.629.142a1.081 1.081 0 0 0 .531-.195c.24-.2.253-.566.442-.821a1.117 1.117 0 0 1 .9-.4c.339-.013.677.063 1.011.081a2.8 2.8 0 0 0 .649-.045 2.111 2.111 0 0 0 .212-.043 2.782 2.782 0 0 0 .442-.152 1.849 1.849 0 0 0 .215-.1 2.892 2.892 0 0 0 .627-.435 1.559 1.559 0 0 0 .581-1.177 7.494 7.494 0 0 0-.189-.809 2.537 2.537 0 0 1 .95-2.085c.225-.222.465-.44.69-.667a3.341 3.341 0 0 0 .811-1.157 3.523 3.523 0 0 0 .147-1.445 9.49 9.49 0 0 1-.043-1.491c.167-1.769 1.673-3.116 3.179-3.851l.066-.035a4.836 4.836 0 1 0-6.5 7.075c.015.056.03.111.043.167a3.631 3.631 0 0 1-.142 2.7 14.026 14.026 0 0 0-2.888.907 10.009 10.009 0 0 1-2.352.8 1.769 1.769 0 0 0-1.253 1.3z" class="cls-5" data-name="Path 1805" transform="translate(-167.682 -363.333)"/>
        <path id="Path_1806" d="M226.573 441.953c-.1-.114-.253-.172-.351-.283-.316-.341 0-.9-.116-1.347a1.112 1.112 0 0 0-1.248-.665c-.513.053-.991.288-1.5.346a6.539 6.539 0 0 1-2.337-.457 2.246 2.246 0 0 0-2.246.382c-.536.594-.505 1.6-1.162 2.034a7.691 7.691 0 0 1-1.023.369 2.158 2.158 0 0 0-.869.829 4.343 4.343 0 0 0-.654 2.779c.056.526.207 1.039.268 1.564a4.566 4.566 0 0 1-.106 1.635 1.726 1.726 0 0 1-.988 1.306 1.672 1.672 0 0 0-.369.126c-.313.195-.27.657-.192 1.011l.331 1.481c-.311.238-.793.136-1.094.384a.915.915 0 0 0-.253.4 2.183 2.183 0 0 0 .649 2.4c.354.288.844.531.889.985a1.044 1.044 0 0 0 .053.437c.116.2.4.184.629.144a1.1 1.1 0 0 0 .528-.2c.253-.2.253-.566.442-.821a1.124 1.124 0 0 1 .9-.4c.341 0 .677.066 1.011.081a3 3 0 0 0 2.145-.773 1.557 1.557 0 0 0 .581-1.18 7.021 7.021 0 0 0-.19-.806 2.559 2.559 0 0 1 .95-2.087 5.7 5.7 0 0 0 1.5-1.822c.341-.925 0-1.956.1-2.936.167-1.769 1.673-3.116 3.181-3.853.36-.181.931-.616.541-1.063z" class="cls-18" data-name="Path 1806" transform="translate(-165.905 -356.982)"/>
        <path id="Path_1807" d="M219.633 457.886c.253-.2.253-.566.442-.821a1.124 1.124 0 0 1 .9-.4c.341 0 .677.063 1.011.081a3 3 0 0 0 2.145-.776 1.559 1.559 0 0 0 .581-1.177 7.641 7.641 0 0 0-.19-.809 2.537 2.537 0 0 1 .95-2.085 5.586 5.586 0 0 0 1.5-1.824c.344-.922 0-1.953.1-2.934.167-1.769 1.673-3.118 3.179-3.853.354-.172.922-.612.533-1.054-.1-.114-.253-.172-.351-.283-.313-.341 0-.9-.116-1.347a.7.7 0 0 0-.114-.253.958.958 0 0 1 .819.647c.111.45-.2 1.011.116 1.347.1.111.253.169.351.283.389.445-.182.882-.533 1.054-1.516.735-3.014 2.087-3.181 3.853-.093.98.24 2.021-.1 2.934a5.579 5.579 0 0 1-1.5 1.824 2.546 2.546 0 0 0-.95 2.087 7.029 7.029 0 0 1 .19.806 1.552 1.552 0 0 1-.581 1.177 2.994 2.994 0 0 1-2.145.776c-.341-.018-.677-.091-1.011-.081a1.124 1.124 0 0 0-.9.4c-.182.253-.2.619-.442.821a1.1 1.1 0 0 1-.528.2c-.227.04-.505.056-.629-.144a.506.506 0 0 1-.051-.253 1.036 1.036 0 0 0 .505-.196z" class="cls-5" data-name="Path 1807" transform="translate(-170.833 -357.675)"/>
    </g>
</svg>
