<svg xmlns="http://www.w3.org/2000/svg" width="19.037" height="18.253" viewBox="0 0 19.037 18.253">
    <defs>
        <style>
            .cls-1{fill:#5f6062}
        </style>
    </defs>
    <g id="headsets-with-microphone" transform="translate(0 -11.86)">
        <g id="Group_1145" data-name="Group 1145" transform="translate(0 11.86)">
            <path id="Path_1572" d="M18.624 23.485a2.507 2.507 0 0 0-.971-.864c.133-1.755-.4-3.222-1.209-3.293h-.03a7.67 7.67 0 0 0-1.405-4.219 7.585 7.585 0 0 0-6.171-3.249 7.585 7.585 0 0 0-6.171 3.245 7.673 7.673 0 0 0-1.406 4.222h-.029C.409 19.4-.13 20.916.027 22.71S.98 25.9 1.8 25.828l2.686-.236a.857.857 0 0 0 .779-.929l-.421-4.79a.857.857 0 0 0-.929-.779l-.71.063a5.688 5.688 0 0 1 1.043-2.934 5.552 5.552 0 0 1 9.174 0 5.687 5.687 0 0 1 1.043 2.931l-.71-.062a.857.857 0 0 0-.929.779l-.421 4.79a.858.858 0 0 0 .779.929l2.686.236c.605.053 1.193-.692 1.526-1.8a1.2 1.2 0 0 1 .143.169 1.221 1.221 0 0 1 .1 1.16l-.853 1.962a1.63 1.63 0 0 1-1.5.981h-1.14a.732.732 0 0 0-.7-.525h-2.124a.74.74 0 0 0-.74.74v.861a.74.74 0 0 0 .74.74h2.127a.732.732 0 0 0 .7-.525h1.148a2.922 2.922 0 0 0 2.681-1.758l.853-1.962a2.511 2.511 0 0 0-.207-2.384z" class="cls-1" data-name="Path 1572" transform="translate(0 -11.86)"/>
        </g>
    </g>
</svg>
