<svg xmlns="http://www.w3.org/2000/svg" width="17.245" height="15.082" viewBox="0 0 17.245 15.082">
    <defs>
        <style>
            .cls-1{fill:#0bce86;stroke:#0bce86;stroke-width:.2px}
        </style>
    </defs>
    <g id="shop" transform="translate(.1 -30.95)">
        <g id="Group_1109" data-name="Group 1109" transform="translate(0 31.05)">
            <path id="Path_1" d="M251.665 263.75h-2.316a1.151 1.151 0 0 0-1.149 1.15v1.776a1.151 1.151 0 0 0 1.149 1.149h2.316a1.15 1.15 0 0 0 1.149-1.149V264.9a1.15 1.15 0 0 0-1.149-1.15zm.313 2.926a.314.314 0 0 1-.313.313h-2.316a.314.314 0 0 1-.313-.313V264.9a.314.314 0 0 1 .313-.313h2.316a.314.314 0 0 1 .313.313z" class="cls-1" data-name="Path 1" transform="translate(-239.555 -255.645)"/>
            <path id="Path_2" d="M17.045 35.926a.388.388 0 0 0-.056-.205l-2.536-4.458a.42.42 0 0 0-.362-.212H2.95a.413.413 0 0 0-.362.212L.056 35.721a.423.423 0 0 0-.056.205 2.445 2.445 0 0 0 1.463 2.236v7.352a.419.419 0 0 0 .418.418h13.28a.419.419 0 0 0 .418-.418v-7.3a.184.184 0 0 0 0-.045 2.452 2.452 0 0 0 1.466-2.243zM3.194 31.889h10.654l1.982 3.486H1.216zm8.937 4.319a1.606 1.606 0 0 1-3.162 0zm-4.051 0a1.608 1.608 0 0 1-3.166 0zm-7.217 0H4.03a1.608 1.608 0 0 1-3.166 0zM7.022 45.1h-2.4v-4.51a.6.6 0 0 1 .6-.6h1.207a.6.6 0 0 1 .6.6v4.51zm7.722 0H7.857v-4.51a1.434 1.434 0 0 0-1.431-1.431H5.21a1.434 1.434 0 0 0-1.431 1.431v4.51H2.3v-6.732h.146a2.442 2.442 0 0 0 2.027-1.08 2.443 2.443 0 0 0 4.054 0 2.436 2.436 0 0 0 4.047 0 2.442 2.442 0 0 0 2.027 1.08h.143V45.1zm-.144-7.565a1.605 1.605 0 0 1-1.581-1.323h3.166a1.615 1.615 0 0 1-1.585 1.323z" class="cls-1" data-name="Path 2" transform="translate(0 -31.05)"/>
        </g>
    </g>
</svg>
