<svg xmlns="http://www.w3.org/2000/svg" width="17.506" height="15.318" viewBox="0 0 17.506 15.318">
    <defs>
        <style>
            .cls-1{fill:#5f6062}
        </style>
    </defs>
    <g id="movie-symbol-of-video-camera" transform="translate(0 -38.25)">
        <g id="_x33__13_" transform="translate(0 38.25)">
            <g id="Group_1142" data-name="Group 1142">
                <path id="Path_1567" d="M16.412 44.815L13.129 47a2.174 2.174 0 0 0-.769-1.653 3.822 3.822 0 1 0-4.641-.535H5.713A3.277 3.277 0 1 0 0 42.626a3.261 3.261 0 0 0 1.139 2.467A2.179 2.179 0 0 0 0 47v4.376a2.188 2.188 0 0 0 2.188 2.188h8.753a2.188 2.188 0 0 0 2.188-2.188l3.282 2.188a1.094 1.094 0 0 0 1.094-1.094v-6.561a1.094 1.094 0 0 0-1.093-1.094zm-13.129 0a2.188 2.188 0 1 1 2.188-2.188 2.188 2.188 0 0 1-2.189 2.188zm7.112.006a2.741 2.741 0 1 1 2.741-2.741 2.741 2.741 0 0 1-2.742 2.741z" class="cls-1" data-name="Path 1567" transform="translate(0 -38.25)"/>
            </g>
        </g>
    </g>
</svg>
