<svg xmlns="http://www.w3.org/2000/svg" width="10.313" height="10.313" viewBox="0 0 10.313 10.313">
    <defs>
        <style>
            .cls-1{fill:#4b4b4b;stroke:#4b4b4b;stroke-width:.2px}.cls-2{stroke:none}.cls-3{fill:none}
        </style>
    </defs>
    <g id="Group_1249" data-name="Group 1249" transform="translate(-191.9 -334.9)">
        <g id="settings" transform="translate(192 335)">
            <g id="Group_1248" data-name="Group 1248">
                <path id="Path_1903" d="M9.595 4l-.71-.12a4.008 4.008 0 0 0-.285-.693l.418-.587a.623.623 0 0 0-.068-.8l-.63-.63a.62.62 0 0 0-.44-.187.614.614 0 0 0-.361.116l-.587.418a3.966 3.966 0 0 0-.714-.294L6.1.523A.624.624 0 0 0 5.482 0h-.889a.624.624 0 0 0-.617.522l-.123.718a3.909 3.909 0 0 0-.687.289l-.581-.418a.624.624 0 0 0-.8.068l-.632.63a.625.625 0 0 0-.068.8l.422.594a3.915 3.915 0 0 0-.281.691l-.7.118A.624.624 0 0 0 0 4.634v.889a.624.624 0 0 0 .522.617l.718.123a3.909 3.909 0 0 0 .289.687l-.416.579a.623.623 0 0 0 .068.8l.63.63a.62.62 0 0 0 .442.184.614.614 0 0 0 .361-.116l.594-.422a4 4 0 0 0 .668.275l.118.71a.624.624 0 0 0 .617.522H5.5a.624.624 0 0 0 .617-.522l.12-.71a4.008 4.008 0 0 0 .69-.28l.585.418a.62.62 0 0 0 .363.116.62.62 0 0 0 .442-.184l.63-.63a.625.625 0 0 0 .068-.8L8.6 6.926a3.979 3.979 0 0 0 .285-.689l.71-.118a.624.624 0 0 0 .522-.617v-.889A.617.617 0 0 0 9.595 4zm-.049 1.5a.055.055 0 0 1-.046.055l-.887.145a.284.284 0 0 0-.228.209 3.382 3.382 0 0 1-.368.885.286.286 0 0 0 .013.311l.522.735a.058.058 0 0 1-.006.072l-.63.63a.054.054 0 0 1-.04.017.052.052 0 0 1-.032-.011l-.733-.522a.285.285 0 0 0-.311-.008 3.382 3.382 0 0 1-.885.368.28.28 0 0 0-.209.228l-.15.887a.055.055 0 0 1-.055.046h-.889a.055.055 0 0 1-.055-.047l-.148-.887a.284.284 0 0 0-.209-.228 3.511 3.511 0 0 1-.866-.355.292.292 0 0 0-.144-.038.278.278 0 0 0-.165.053l-.739.526a.063.063 0 0 1-.032.011.057.057 0 0 1-.04-.017l-.63-.63a.057.057 0 0 1-.006-.072l.52-.729a.289.289 0 0 0 .013-.313 3.35 3.35 0 0 1-.372-.883.289.289 0 0 0-.229-.208l-.893-.152a.055.055 0 0 1-.047-.055v-.889a.055.055 0 0 1 .046-.055l.884-.148a.286.286 0 0 0 .23-.211 3.378 3.378 0 0 1 .361-.887.282.282 0 0 0-.015-.308l-.526-.739a.058.058 0 0 1 .006-.072l.63-.63a.054.054 0 0 1 .04-.017.052.052 0 0 1 .032.011l.729.52a.289.289 0 0 0 .313.013 3.35 3.35 0 0 1 .883-.372.289.289 0 0 0 .209-.228l.15-.895A.055.055 0 0 1 4.6.569h.889a.055.055 0 0 1 .055.046l.148.881a.286.286 0 0 0 .211.23 3.429 3.429 0 0 1 .906.372.286.286 0 0 0 .311-.013l.729-.524a.063.063 0 0 1 .032-.011.057.057 0 0 1 .04.017l.63.63a.057.057 0 0 1 .006.072L8.032 3a.285.285 0 0 0-.013.311 3.382 3.382 0 0 1 .368.885.28.28 0 0 0 .228.209l.887.15a.055.055 0 0 1 .046.055v.89z" class="cls-1" data-name="Path 1903" transform="translate(0 -.001)"/>
                <path id="Path_1904" d="M138.282 136a2.182 2.182 0 1 0 2.182 2.182 2.184 2.184 0 0 0-2.182-2.182zm0 3.794a1.612 1.612 0 1 1 1.612-1.612 1.613 1.613 0 0 1-1.612 1.618z" class="cls-1" data-name="Path 1904" transform="translate(-133.225 -133.128)"/>
            </g>
        </g>
        <g id="Ellipse_472" class="cls-1" data-name="Ellipse 472" transform="translate(195.185 338.185)">
            <circle cx="1.991" cy="1.991" r="1.991" class="cls-2"/>
            <circle cx="1.991" cy="1.991" r="1.891" class="cls-3"/>
        </g>
    </g>
</svg>
