<svg xmlns="http://www.w3.org/2000/svg" width="17.552" height="15.877" viewBox="0 0 17.552 15.877">
    <defs>
        <style>
            .cls-1{fill:#5f6062}
        </style>
    </defs>
    <g id="iconfinder_users-70px_510857" transform="translate(-14 -16)">
        <path id="Path_1568" d="M15.672 36.247a9 9 0 0 1 2.723-1.068 6.675 6.675 0 0 0 1.973.534 13.055 13.055 0 0 1 1.347-.407A4.609 4.609 0 0 1 21 34.078a4.982 4.982 0 0 1-2.369-.649 10.576 10.576 0 0 0-4.27 1.68.85.85 0 0 0-.363.648v2.463a.836.836 0 0 0 .834.88h2.093v-.483a2.077 2.077 0 0 1 .453-1.188h-1.705z" class="cls-1" data-name="Path 1568" transform="translate(0 -10.147)"/>
        <path id="Path_1569" d="M25.937 22.659a4.617 4.617 0 0 1-.017-.392 4.572 4.572 0 0 1 .184-1.277 1.667 1.667 0 1 1 1.7-2.426 4.573 4.573 0 0 1 1.511-.729 3.341 3.341 0 1 0-3.379 4.823z" class="cls-1" data-name="Path 1569" transform="translate(-5.235)"/>
        <path id="Path_1570" d="M37.036 42.059a9.393 9.393 0 0 0-3.645-1.528 4.976 4.976 0 0 1-4.752-.1 10.576 10.576 0 0 0-4.27 1.68.849.849 0 0 0-.363.648v2.461a.836.836 0 0 0 .835.88h11.7a.835.835 0 0 0 .834-.792v-2.572a.847.847 0 0 0-.339-.677zm-1.336 2.37H25.68v-1.181a9 9 0 0 1 2.72-1.069 6.667 6.667 0 0 0 2.709.578 6.582 6.582 0 0 0 2.451-.469 7.861 7.861 0 0 1 2.144.882z" class="cls-1" data-name="Path 1570" transform="translate(-5.826 -14.223)"/>
        <path id="Path_1571" d="M33 26.343A3.343 3.343 0 1 0 36.343 23 3.343 3.343 0 0 0 33 26.343zm3.343-1.671a1.671 1.671 0 1 1-1.671 1.671 1.673 1.673 0 0 1 1.671-1.672z" class="cls-1" data-name="Path 1571" transform="translate(-11.061 -4.075)"/>
    </g>
</svg>
